<svg width="28" height="18" viewBox="0 0 28 18" fill="none" xmlns="http://www.w3.org/2000/svg">
<rect width="28" height="18" fill="#1E1E1E"/>
<g clip-path="url(#clip0_281_18675)">
<rect width="360" height="7831" transform="translate(-28 -62)" fill="#25243A"/>
<g clip-path="url(#clip1_281_18675)">
<path d="M2 18H26C26.825 18 27.5 17.325 27.5 16.5C27.5 15.675 26.825 15 26 15H2C1.175 15 0.5 15.675 0.5 16.5C0.5 17.325 1.175 18 2 18ZM2 10.5H26C26.825 10.5 27.5 9.825 27.5 9C27.5 8.175 26.825 7.5 26 7.5H2C1.175 7.5 0.5 8.175 0.5 9C0.5 9.825 1.175 10.5 2 10.5ZM0.5 1.5C0.5 2.325 1.175 3 2 3H26C26.825 3 27.5 2.325 27.5 1.5C27.5 0.675 26.825 0 26 0H2C1.175 0 0.5 0.675 0.5 1.5Z" fill="white"/>
</g>
</g>
<defs>
<clipPath id="clip0_281_18675">
<rect width="360" height="7831" fill="white" transform="translate(-28 -62)"/>
</clipPath>
<clipPath id="clip1_281_18675">
<rect width="36" height="36" fill="white" transform="translate(-4 -9)"/>
</clipPath>
</defs>
</svg>
