<svg width="16" height="16" viewBox="0 0 16 16" fill="none" xmlns="http://www.w3.org/2000/svg">
<path d="M15.7731 0.236645C15.6635 0.126961 15.5246 0.0511514 15.3729 0.018308C15.2212 -0.0145354 15.0632 -0.00301825 14.9179 0.0514783L0.524831 5.48573C0.375464 5.5413 0.245941 5.63977 0.152608 5.76872C0.0592761 5.89768 0.0063184 6.05133 0.000419423 6.2103C-0.00468919 6.36835 0.0369646 6.52441 0.120182 6.659C0.2034 6.79358 0.324496 6.90073 0.468356 6.96707L6.32563 9.66406L9.02837 15.5331C9.09318 15.6728 9.1968 15.7911 9.32693 15.8738C9.45705 15.9566 9.60824 16.0004 9.76255 16C9.92185 15.9941 10.0758 15.9413 10.2051 15.8481C10.3343 15.755 10.433 15.6257 10.4887 15.4767L15.9345 1.11418C15.9973 0.968326 16.0155 0.807204 15.9868 0.651067C15.958 0.49493 15.8837 0.350747 15.7731 0.236645ZM11.9651 2.90144L6.7613 8.09417L2.86452 6.3069L11.9651 2.90144ZM9.68994 13.1178L7.89887 9.26153L13.1027 4.0688L9.68994 13.1178Z" fill="#020111"/>
</svg>
