<svg width="26" height="16" viewBox="0 0 26 16" fill="none" xmlns="http://www.w3.org/2000/svg">
<path d="M1.2087 8.06888C1.17522 8.02731 1.17522 7.97269 1.2087 7.93112C1.79266 7.20603 6.96183 1 12.8206 1C18.6793 1 23.8484 7.20602 24.4324 7.93112C24.4659 7.97269 24.4659 8.02731 24.4324 8.06888C23.8485 8.79397 18.6793 15 12.8206 15C6.96183 15 1.79266 8.79398 1.2087 8.06888Z" fill="white"/>
<path fill-rule="evenodd" clip-rule="evenodd" d="M2.29468 8C2.89476 8.68749 4.05702 9.92825 5.57597 11.1174C7.61947 12.7171 10.184 14.125 12.8206 14.125C15.4572 14.125 18.0216 12.7171 20.0651 11.1174C21.5841 9.92825 22.7464 8.68749 23.3464 8C22.7464 7.31251 21.5841 6.07175 20.0651 4.88263C18.0216 3.28286 15.4572 1.875 12.8206 1.875C10.184 1.875 7.61947 3.28286 5.57597 4.88263C4.05702 6.07175 2.89476 7.31251 2.29468 8ZM4.49721 3.50467C6.64897 1.82015 9.59842 0.125 12.8206 0.125C16.0427 0.125 18.9921 1.82015 21.1439 3.50466C23.3153 5.20459 24.8013 6.99412 25.1139 7.38229C25.4054 7.74425 25.4054 8.25574 25.1139 8.61771C24.8013 9.00588 23.3153 10.7954 21.1439 12.4953C18.9921 14.1799 16.0427 15.875 12.8206 15.875C9.59843 15.875 6.64897 14.1799 4.49722 12.4953C2.32578 10.7954 0.839841 9.00588 0.527225 8.61771C0.235723 8.25575 0.235711 7.74426 0.527224 7.38229C0.839839 6.99412 2.32578 5.20459 4.49721 3.50467Z" fill="white"/>
<path d="M16.3242 8C16.3242 9.933 14.7572 11.5 12.8242 11.5C10.8912 11.5 9.32422 9.933 9.32422 8C9.32422 6.067 10.8912 4.5 12.8242 4.5C14.7572 4.5 16.3242 6.067 16.3242 8Z" fill="white"/>
<path fill-rule="evenodd" clip-rule="evenodd" d="M12.8203 5.375C11.3706 5.375 10.1953 6.55025 10.1953 8C10.1953 9.44975 11.3706 10.625 12.8203 10.625C14.2701 10.625 15.4453 9.44975 15.4453 8C15.4453 6.55025 14.2701 5.375 12.8203 5.375ZM8.44531 8C8.44531 5.58375 10.4041 3.625 12.8203 3.625C15.2366 3.625 17.1953 5.58375 17.1953 8C17.1953 10.4162 15.2366 12.375 12.8203 12.375C10.4041 12.375 8.44531 10.4162 8.44531 8Z" fill="#25243A"/>
</svg>
