<svg width="25" height="24" viewBox="0 0 25 24" fill="none" xmlns="http://www.w3.org/2000/svg">
<path d="M1.0625 10.5972C1.0625 8.73321 2.57354 7.22217 4.4375 7.22217H20.1875C22.0515 7.22217 23.5625 8.73321 23.5625 10.5972V19.5972C23.5625 21.4611 22.0515 22.9722 20.1875 22.9722H4.4375C2.57354 22.9722 1.0625 21.4611 1.0625 19.5972V10.5972Z" fill="white"/>
<path fill-rule="evenodd" clip-rule="evenodd" d="M0.21875 10.5972C0.21875 8.26722 2.10755 6.37842 4.4375 6.37842H20.1875C22.5175 6.37842 24.4062 8.26722 24.4062 10.5972V19.5972C24.4062 21.9271 22.5175 23.8159 20.1875 23.8159H4.4375C2.10755 23.8159 0.21875 21.9271 0.21875 19.5972V10.5972ZM4.4375 8.06592C3.03953 8.06592 1.90625 9.1992 1.90625 10.5972V19.5972C1.90625 20.9951 3.03953 22.1284 4.4375 22.1284H20.1875C21.5855 22.1284 22.7188 20.9951 22.7188 19.5972V10.5972C22.7188 9.1992 21.5855 8.06592 20.1875 8.06592H4.4375Z" fill="white"/>
<path d="M18.632 1.11569L4.39775 7.00573C4.28398 7.05281 4.31764 7.22218 4.44076 7.22218H20.0747C20.1368 7.22218 20.1872 7.17182 20.1872 7.10968V2.15521C20.1872 1.35362 19.3727 0.809202 18.632 1.11569Z" fill="#25243A"/>
<path fill-rule="evenodd" clip-rule="evenodd" d="M19.3444 2.1551C19.3444 1.95471 19.1408 1.8186 18.9557 1.89523L8.1215 6.37833H19.3444V2.1551ZM18.3104 0.335946C19.6066 -0.200412 21.0319 0.752316 21.0319 2.1551V7.10958C21.0319 7.6377 20.6038 8.06583 20.0757 8.06583H4.44181C3.39524 8.06583 3.10915 6.62614 4.07618 6.22599L18.3104 0.335947L18.6311 1.11076L18.3104 0.335946Z" fill="white"/>
<path fill-rule="evenodd" clip-rule="evenodd" d="M2.46875 12.8472C2.46875 12.3812 2.84651 12.0034 3.3125 12.0034L21.3125 12.0034C21.7785 12.0034 22.1562 12.3812 22.1562 12.8472C22.1562 13.3132 21.7785 13.6909 21.3125 13.6909L3.3125 13.6909C2.84651 13.6909 2.46875 13.3132 2.46875 12.8472Z" fill="#25243A"/>
<path fill-rule="evenodd" clip-rule="evenodd" d="M3.59375 18.4722C3.59375 18.0062 3.97151 17.6284 4.4375 17.6284L11.1875 17.6284C11.6535 17.6284 12.0312 18.0062 12.0312 18.4722C12.0312 18.9382 11.6535 19.3159 11.1875 19.3159H4.4375C3.97151 19.3159 3.59375 18.9382 3.59375 18.4722Z" fill="#25243A"/>
</svg>
