<svg width="25" height="26" viewBox="0 0 25 26" fill="none" xmlns="http://www.w3.org/2000/svg">
<path d="M16.9978 6.59864C16.9978 9.46517 14.674 11.7889 11.8075 11.7889C8.94097 11.7889 6.61719 9.46517 6.61719 6.59864C6.61719 3.73211 8.94097 1.40833 11.8075 1.40833C14.674 1.40833 16.9978 3.73211 16.9978 6.59864Z" fill="white"/>
<path fill-rule="evenodd" clip-rule="evenodd" d="M11.8076 2.31661C9.44271 2.31661 7.52559 4.23373 7.52559 6.59862C7.52559 8.9635 9.44271 10.8806 11.8076 10.8806C14.1725 10.8806 16.0896 8.9635 16.0896 6.59862C16.0896 4.23373 14.1725 2.31661 11.8076 2.31661ZM5.70898 6.59862C5.70898 3.23044 8.43943 0.5 11.8076 0.5C15.1758 0.5 17.9062 3.23044 17.9062 6.59862C17.9062 9.96679 15.1758 12.6972 11.8076 12.6972C8.43943 12.6972 5.70898 9.96679 5.70898 6.59862Z" fill="white"/>
<path d="M23.3996 24.5917H0.908203C0.908203 21.7082 3.15734 15.9412 12.1539 15.9412C21.1504 15.9412 23.3996 21.7082 23.3996 24.5917Z" fill="white"/>
<path fill-rule="evenodd" clip-rule="evenodd" d="M2.4943 18.5644C4.38023 16.5495 7.44742 15.0328 12.154 15.0328C16.8605 15.0328 19.9277 16.5495 21.8137 18.5644C23.6758 20.5539 24.308 22.9468 24.308 24.5917C24.308 25.0933 23.9013 25.5 23.3997 25.5H0.908305C0.406662 25.5 0 25.0933 0 24.5917C0 22.9468 0.632127 20.5539 2.4943 18.5644ZM1.89385 23.6834H22.4141C22.2251 22.5174 21.6661 21.0651 20.4874 19.8058C18.9996 18.2163 16.444 16.8494 12.154 16.8494C7.864 16.8494 5.30835 18.2163 3.82058 19.8058C2.64186 21.0651 2.08287 22.5174 1.89385 23.6834Z" fill="white"/>
</svg>
