<svg width="139" height="145" viewBox="0 0 139 145" fill="none" xmlns="http://www.w3.org/2000/svg">
<rect width="138.444" height="144.213" fill="white"/>
<path d="M44.0963 15.1809C44.0554 14.7678 43.8795 14.4468 43.5689 14.2181C43.2582 13.9893 42.8365 13.875 42.3039 13.875C41.942 13.875 41.6365 13.9262 41.3872 14.0286C41.138 14.1276 40.9468 14.2659 40.8137 14.4434C40.6839 14.621 40.619 14.8224 40.619 15.0477C40.6122 15.2355 40.6515 15.3994 40.7368 15.5394C40.8256 15.6793 40.9468 15.8005 41.1004 15.903C41.2541 16.002 41.4316 16.089 41.633 16.1642C41.8345 16.2358 42.0496 16.2973 42.2783 16.3485L43.2206 16.5738C43.6781 16.6763 44.0981 16.8128 44.4804 16.9835C44.8628 17.1542 45.194 17.3642 45.4739 17.6134C45.7539 17.8627 45.9707 18.1563 46.1243 18.4943C46.2814 18.8323 46.3616 19.2198 46.365 19.6568C46.3616 20.2987 46.1977 20.8552 45.8734 21.3263C45.5525 21.7941 45.0881 22.1577 44.4804 22.4171C43.8761 22.6732 43.1472 22.8012 42.2937 22.8012C41.447 22.8012 40.7095 22.6715 40.0813 22.412C39.4565 22.1525 38.9683 21.7684 38.6167 21.2597C38.2684 20.7476 38.0858 20.1143 38.0687 19.3598H40.2145C40.2384 19.7114 40.3391 20.005 40.5166 20.2406C40.6976 20.4728 40.9383 20.6486 41.2387 20.7681C41.5426 20.8842 41.8857 20.9422 42.2681 20.9422C42.6436 20.9422 42.9697 20.8876 43.2462 20.7784C43.5262 20.6691 43.743 20.5172 43.8966 20.3226C44.0503 20.128 44.1271 19.9043 44.1271 19.6517C44.1271 19.4161 44.0571 19.2181 43.9171 19.0576C43.7805 18.8972 43.5791 18.7606 43.3128 18.6479C43.0499 18.5353 42.7273 18.4328 42.3449 18.3407L41.2029 18.0539C40.3186 17.8388 39.6204 17.5025 39.1083 17.045C38.5962 16.5875 38.3418 15.9713 38.3452 15.1962C38.3418 14.5612 38.5108 14.0064 38.8522 13.5319C39.1971 13.0573 39.6699 12.6869 40.2708 12.4206C40.8717 12.1543 41.5545 12.0211 42.3193 12.0211C43.0977 12.0211 43.7771 12.1543 44.3575 12.4206C44.9413 12.6869 45.3954 13.0573 45.7198 13.5319C46.0441 14.0064 46.2114 14.5561 46.2216 15.1809H44.0963ZM49.0908 22.7859C48.7528 22.7859 48.4626 22.6664 48.2202 22.4274C47.9812 22.185 47.8617 21.8948 47.8617 21.5568C47.8617 21.2222 47.9812 20.9354 48.2202 20.6964C48.4626 20.4574 48.7528 20.3379 49.0908 20.3379C49.4185 20.3379 49.7053 20.4574 49.9512 20.6964C50.197 20.9354 50.3199 21.2222 50.3199 21.5568C50.3199 21.7821 50.2618 21.9887 50.1458 22.1764C50.0331 22.3608 49.8846 22.5093 49.7002 22.622C49.5159 22.7312 49.3127 22.7859 49.0908 22.7859ZM57.8416 15.1809C57.8007 14.7678 57.6248 14.4468 57.3142 14.2181C57.0035 13.9893 56.5818 13.875 56.0492 13.875C55.6873 13.875 55.3818 13.9262 55.1325 14.0286C54.8833 14.1276 54.6921 14.2659 54.559 14.4434C54.4292 14.621 54.3643 14.8224 54.3643 15.0477C54.3575 15.2355 54.3968 15.3994 54.4821 15.5394C54.5709 15.6793 54.6921 15.8005 54.8457 15.903C54.9994 16.002 55.1769 16.089 55.3783 16.1642C55.5798 16.2358 55.7949 16.2973 56.0236 16.3485L56.9659 16.5738C57.4234 16.6763 57.8433 16.8128 58.2257 16.9835C58.6081 17.1542 58.9393 17.3642 59.2192 17.6134C59.4992 17.8627 59.716 18.1563 59.8696 18.4943C60.0267 18.8323 60.1069 19.2198 60.1103 19.6568C60.1069 20.2987 59.943 20.8552 59.6187 21.3263C59.2978 21.7941 58.8334 22.1577 58.2257 22.4171C57.6214 22.6732 56.8925 22.8012 56.039 22.8012C55.1923 22.8012 54.4548 22.6715 53.8266 22.412C53.2018 22.1525 52.7136 21.7684 52.362 21.2597C52.0137 20.7476 51.8311 20.1143 51.814 19.3598H53.9598C53.9837 19.7114 54.0844 20.005 54.2619 20.2406C54.4429 20.4728 54.6836 20.6486 54.984 20.7681C55.2879 20.8842 55.631 20.9422 56.0134 20.9422C56.3889 20.9422 56.715 20.8876 56.9915 20.7784C57.2715 20.6691 57.4883 20.5172 57.6419 20.3226C57.7956 20.128 57.8724 19.9043 57.8724 19.6517C57.8724 19.4161 57.8024 19.2181 57.6624 19.0576C57.5258 18.8972 57.3244 18.7606 57.0581 18.6479C56.7952 18.5353 56.4726 18.4328 56.0902 18.3407L54.9482 18.0539C54.0639 17.8388 53.3657 17.5025 52.8536 17.045C52.3415 16.5875 52.0871 15.9713 52.0905 15.1962C52.0871 14.5612 52.2561 14.0064 52.5975 13.5319C52.9424 13.0573 53.4152 12.6869 54.0161 12.4206C54.617 12.1543 55.2998 12.0211 56.0646 12.0211C56.843 12.0211 57.5224 12.1543 58.1028 12.4206C58.6866 12.6869 59.1407 13.0573 59.4651 13.5319C59.7894 14.0064 59.9567 14.5561 59.9669 15.1809H57.8416ZM61.6019 12.1645H64.3366L67.225 19.2113H67.3479L70.2362 12.1645H72.9709V22.6527H70.82V15.8262H70.733L68.0187 22.6015H66.5541L63.8398 15.8005H63.7528V22.6527H61.6019V12.1645ZM76.6057 22.6527H74.2295L77.8502 12.1645H80.7078L84.3234 22.6527H81.9471L79.32 14.5612H79.238L76.6057 22.6527ZM76.4572 18.5301H82.07V20.2611H76.4572V18.5301ZM85.5857 22.6527V12.1645H87.8032V20.8244H92.2996V22.6527H85.5857ZM93.7681 22.6527V12.1645H95.9856V20.8244H100.482V22.6527H93.7681Z" fill="#020111"/>
<g clip-path="url(#clip0_2034_96989)">
<path d="M118.801 8.65259C115.065 8.65259 112.041 11.6759 112.041 15.4123C112.041 17.0504 112.63 18.6201 113.703 19.8511V22.6509C113.703 23.026 114.158 23.2156 114.424 22.9496L115.869 21.5046C120.359 23.6646 125.561 20.3825 125.561 15.4123C125.561 11.6765 122.538 8.65259 118.801 8.65259ZM118.801 19.6625C118.568 19.6625 118.38 19.474 118.38 19.2415C118.38 19.0089 118.568 18.8204 118.801 18.8204C119.034 18.8204 119.222 19.0089 119.222 19.2415C119.222 19.474 119.034 19.6625 118.801 19.6625ZM119.223 16.6728V17.5515C119.223 17.7848 119.034 17.974 118.801 17.974C118.568 17.974 118.378 17.7848 118.378 17.5515V16.2855C118.378 16.0521 118.568 15.863 118.801 15.863C119.734 15.863 120.492 15.1042 120.492 14.1716C120.492 13.239 119.734 12.4803 118.801 12.4803C117.868 12.4803 117.11 13.239 117.11 14.1716C117.11 14.405 116.92 14.5941 116.687 14.5941C116.454 14.5941 116.265 14.4049 116.265 14.1716C116.265 12.7731 117.402 11.6353 118.801 11.6353C120.2 11.6353 121.337 12.7731 121.337 14.1716C121.337 15.4263 120.422 16.471 119.223 16.6728Z" fill="#25243A"/>
</g>
<path d="M84.0029 72.3952C83.6942 72.3952 83.4313 72.3113 83.2142 72.1433C82.9971 71.9739 82.8311 71.7288 82.7164 71.4079C82.6017 71.0856 82.5443 70.6964 82.5443 70.2402C82.5443 69.7869 82.6017 69.3997 82.7164 69.0788C82.8325 68.7565 82.9991 68.5106 83.2162 68.3413C83.4347 68.1706 83.697 68.0852 84.0029 68.0852C84.3088 68.0852 84.5703 68.1706 84.7874 68.3413C85.0059 68.5106 85.1725 68.7565 85.2873 69.0788C85.4033 69.3997 85.4614 69.7869 85.4614 70.2402C85.4614 70.6964 85.404 71.0856 85.2893 71.4079C85.1746 71.7288 85.0087 71.9739 84.7915 72.1433C84.5744 72.3113 84.3115 72.3952 84.0029 72.3952ZM84.0029 71.9446C84.3088 71.9446 84.5464 71.7971 84.7157 71.5021C84.8851 71.2071 84.9697 70.7865 84.9697 70.2402C84.9697 69.877 84.9308 69.5677 84.853 69.3123C84.7765 69.0569 84.6659 68.8623 84.5211 68.7285C84.3777 68.5946 84.205 68.5277 84.0029 68.5277C83.6997 68.5277 83.4627 68.6773 83.292 68.9763C83.1213 69.274 83.036 69.6954 83.036 70.2402C83.036 70.6035 83.0742 70.9121 83.1507 71.1662C83.2272 71.4202 83.3371 71.6134 83.4805 71.7459C83.6253 71.8783 83.7994 71.9446 84.0029 71.9446ZM86.4539 72.3707C86.3528 72.3707 86.2661 72.3345 86.1937 72.2621C86.1213 72.1897 86.0851 72.103 86.0851 72.0019C86.0851 71.9009 86.1213 71.8142 86.1937 71.7418C86.2661 71.6694 86.3528 71.6332 86.4539 71.6332C86.5549 71.6332 86.6416 71.6694 86.714 71.7418C86.7864 71.8142 86.8226 71.9009 86.8226 72.0019C86.8226 72.0689 86.8055 72.1303 86.7714 72.1863C86.7386 72.2423 86.6942 72.2874 86.6382 72.3215C86.5836 72.3543 86.5221 72.3707 86.4539 72.3707ZM88.9085 72.3952C88.6681 72.3952 88.4516 72.3475 88.2591 72.2519C88.0665 72.1563 87.9122 72.0252 87.7961 71.8585C87.68 71.6919 87.6165 71.5021 87.6056 71.2891H88.0973C88.1164 71.4789 88.2024 71.6359 88.3554 71.7602C88.5097 71.8831 88.694 71.9446 88.9085 71.9446C89.0805 71.9446 89.2335 71.9043 89.3673 71.8237C89.5025 71.7431 89.6084 71.6325 89.6848 71.4919C89.7627 71.3498 89.8016 71.1894 89.8016 71.0105C89.8016 70.8275 89.7613 70.6643 89.6807 70.5209C89.6015 70.3761 89.4923 70.2621 89.353 70.1788C89.2137 70.0955 89.0546 70.0532 88.8757 70.0518C88.7473 70.0504 88.6155 70.0702 88.4803 70.1112C88.3451 70.1508 88.2338 70.202 88.1464 70.2648L87.6712 70.2075L87.9252 68.1426H90.1048V68.5933H88.3513L88.2038 69.8306H88.2284C88.3144 69.7623 88.4223 69.7056 88.552 69.6605C88.6818 69.6155 88.817 69.5929 88.9576 69.5929C89.2144 69.5929 89.4431 69.6544 89.6439 69.7773C89.846 69.8988 90.0044 70.0654 90.1191 70.2771C90.2352 70.4888 90.2932 70.7305 90.2932 71.0023C90.2932 71.2699 90.2331 71.5089 90.113 71.7192C89.9941 71.9282 89.8303 72.0934 89.6213 72.215C89.4124 72.3352 89.1748 72.3952 88.9085 72.3952ZM91.1152 72.3379V69.1914H91.5822V69.6831H91.6232C91.6888 69.5151 91.7946 69.3847 91.9407 69.2918C92.0868 69.1976 92.2623 69.1505 92.4672 69.1505C92.6748 69.1505 92.8475 69.1976 92.9854 69.2918C93.1247 69.3847 93.2333 69.5151 93.3111 69.6831H93.3439C93.4245 69.5205 93.5454 69.3915 93.7065 69.2959C93.8677 69.1989 94.0609 69.1505 94.2862 69.1505C94.5676 69.1505 94.7977 69.2385 94.9766 69.4147C95.1555 69.5895 95.2449 69.862 95.2449 70.2321V72.3379H94.7615V70.2321C94.7615 69.9999 94.698 69.834 94.571 69.7343C94.444 69.6346 94.2944 69.5847 94.1223 69.5847C93.9011 69.5847 93.7297 69.6517 93.6082 69.7855C93.4866 69.918 93.4259 70.0859 93.4259 70.2894V72.3379H92.9342V70.1829C92.9342 70.004 92.8762 69.8599 92.7601 69.7507C92.644 69.64 92.4945 69.5847 92.3115 69.5847C92.1859 69.5847 92.0684 69.6182 91.9592 69.6851C91.8513 69.752 91.7639 69.8449 91.6969 69.9637C91.6314 70.0811 91.5986 70.217 91.5986 70.3714V72.3379H91.1152Z" fill="#020111"/>
<path d="M63.1883 133.551C62.8277 133.551 62.5031 133.48 62.2142 133.336C61.9254 133.193 61.6939 132.996 61.5198 132.746C61.3457 132.496 61.2504 132.212 61.234 131.892H61.9715C62.0002 132.177 62.1292 132.412 62.3586 132.599C62.5901 132.783 62.8667 132.875 63.1883 132.875C63.4464 132.875 63.6758 132.815 63.8766 132.694C64.0794 132.573 64.2381 132.407 64.3528 132.196C64.4696 131.983 64.528 131.743 64.528 131.474C64.528 131.2 64.4675 130.955 64.3467 130.74C64.2279 130.523 64.064 130.352 63.855 130.227C63.6461 130.102 63.4075 130.038 63.1391 130.036C62.9465 130.034 62.7489 130.064 62.5461 130.125C62.3433 130.185 62.1763 130.262 62.0452 130.356L61.3323 130.27L61.7134 127.172H64.9827V127.848H62.3525L62.1313 129.704H62.1681C62.2972 129.602 62.459 129.517 62.6536 129.449C62.8482 129.382 63.051 129.348 63.262 129.348C63.6471 129.348 63.9902 129.44 64.2914 129.624C64.5946 129.807 64.8322 130.057 65.0042 130.374C65.1784 130.692 65.2654 131.054 65.2654 131.462C65.2654 131.863 65.1753 132.222 64.995 132.537C64.8168 132.851 64.571 133.099 64.2576 133.281C63.9442 133.461 63.5877 133.551 63.1883 133.551ZM68.5386 133.551C68.0757 133.551 67.6814 133.425 67.3556 133.173C67.0299 132.919 66.781 132.552 66.609 132.07C66.4369 131.587 66.3509 131.003 66.3509 130.319C66.3509 129.639 66.4369 129.058 66.609 128.577C66.7831 128.093 67.033 127.724 67.3587 127.47C67.6865 127.214 68.0798 127.086 68.5386 127.086C68.9975 127.086 69.3898 127.214 69.7155 127.47C70.0433 127.724 70.2932 128.093 70.4652 128.577C70.6394 129.058 70.7264 129.639 70.7264 130.319C70.7264 131.003 70.6404 131.587 70.4683 132.07C70.2962 132.552 70.0473 132.919 69.7216 133.173C69.3959 133.425 69.0016 133.551 68.5386 133.551ZM68.5386 132.875C68.9975 132.875 69.3539 132.654 69.6079 132.212C69.862 131.769 69.989 131.138 69.989 130.319C69.989 129.774 69.9306 129.31 69.8138 128.927C69.6991 128.544 69.5332 128.252 69.316 128.051C69.1009 127.85 68.8418 127.75 68.5386 127.75C68.0839 127.75 67.7285 127.974 67.4724 128.423C67.2163 128.87 67.0883 129.502 67.0883 130.319C67.0883 130.864 67.1457 131.327 67.2604 131.708C67.3751 132.089 67.54 132.379 67.7551 132.577C67.9722 132.776 68.2334 132.875 68.5386 132.875ZM75.0159 131.745L75.0036 130.847H75.1511L77.216 128.746H78.1132L75.9132 130.97H75.8517L75.0159 131.745ZM74.3399 133.465V127.172H75.0651V133.465H74.3399ZM77.3389 133.465L75.4953 131.13L76.0115 130.626L78.2607 133.465H77.3389ZM80.7573 135.334C80.407 135.334 80.1059 135.288 79.8539 135.198C79.602 135.11 79.392 134.993 79.224 134.848C79.0581 134.705 78.926 134.551 78.8276 134.387L79.4053 133.982C79.4709 134.068 79.5538 134.166 79.6542 134.277C79.7546 134.389 79.8918 134.486 80.066 134.568C80.2421 134.652 80.4726 134.694 80.7573 134.694C81.1383 134.694 81.4528 134.602 81.7006 134.418C81.9485 134.234 82.0724 133.945 82.0724 133.551V132.593H82.011C81.9577 132.679 81.8819 132.785 81.7836 132.912C81.6873 133.037 81.548 133.149 81.3657 133.247C81.1854 133.343 80.9417 133.392 80.6344 133.392C80.2534 133.392 79.9113 133.301 79.6081 133.121C79.307 132.941 79.0683 132.679 78.8922 132.335C78.7181 131.99 78.631 131.573 78.631 131.081C78.631 130.597 78.716 130.176 78.886 129.818C79.056 129.457 79.2926 129.179 79.5958 128.982C79.899 128.784 80.2493 128.684 80.6467 128.684C80.954 128.684 81.1977 128.735 81.378 128.838C81.5603 128.938 81.6996 129.053 81.7959 129.182C81.8942 129.309 81.97 129.413 82.0233 129.495H82.097V128.746H82.7976V133.601C82.7976 134.006 82.7054 134.336 82.5211 134.59C82.3387 134.846 82.0929 135.033 81.7836 135.152C81.4763 135.273 81.1342 135.334 80.7573 135.334ZM80.7327 132.74C81.0236 132.74 81.2694 132.674 81.4702 132.54C81.6709 132.407 81.8235 132.216 81.928 131.966C82.0325 131.716 82.0847 131.417 82.0847 131.069C82.0847 130.729 82.0335 130.428 81.9311 130.168C81.8287 129.908 81.6771 129.704 81.4763 129.557C81.2756 129.409 81.0277 129.336 80.7327 129.336C80.4255 129.336 80.1694 129.413 79.9646 129.569C79.7618 129.725 79.6091 129.934 79.5067 130.196C79.4063 130.458 79.3562 130.749 79.3562 131.069C79.3562 131.396 79.4074 131.686 79.5098 131.938C79.6143 132.188 79.7679 132.385 79.9707 132.528C80.1755 132.669 80.4296 132.74 80.7327 132.74Z" fill="#020111"/>
<g clip-path="url(#clip1_2034_96989)">
<path opacity="0.02" fill-rule="evenodd" clip-rule="evenodd" d="M41.8857 109.585L48.5367 105.964H87.1846L94.9477 109.585H41.8857Z" fill="#323232"/>
<path opacity="0.04" fill-rule="evenodd" clip-rule="evenodd" d="M41.9492 109.569L48.5487 105.98H87.1751L94.8695 109.569H41.9492Z" fill="#313131"/>
<path opacity="0.06" fill-rule="evenodd" clip-rule="evenodd" d="M42.0186 109.553L48.5579 105.997H87.1715L94.7971 109.553H42.0186Z" fill="#303030"/>
<path opacity="0.08" fill-rule="evenodd" clip-rule="evenodd" d="M42.083 109.541L48.5665 106.009H87.1629L94.7242 109.541H42.083Z" fill="#2F2F2F"/>
<path opacity="0.1" fill-rule="evenodd" clip-rule="evenodd" d="M42.1484 109.524L48.5762 106.025H87.1554L94.6522 109.524H42.1484Z" fill="#2E2E2E"/>
<path opacity="0.12" fill-rule="evenodd" clip-rule="evenodd" d="M42.2158 109.507L48.5834 106.042H87.1455L94.5779 109.507H42.2158Z" fill="#2D2D2D"/>
<path opacity="0.13" fill-rule="evenodd" clip-rule="evenodd" d="M42.2803 109.492L48.5921 106.058H87.1369L94.5007 109.492H42.2803Z" fill="#2C2C2C"/>
<path opacity="0.15" fill-rule="evenodd" clip-rule="evenodd" d="M42.3447 109.475L48.6007 106.07H87.1284L94.4277 109.475H42.3447Z" fill="#2B2B2B"/>
<path opacity="0.17" fill-rule="evenodd" clip-rule="evenodd" d="M42.4102 109.463L48.6103 106.087H87.1251L94.3558 109.463H42.4102Z" fill="#2A2A2A"/>
<path opacity="0.19" fill-rule="evenodd" clip-rule="evenodd" d="M42.4736 109.447L48.618 106.104H87.1156L94.2818 109.447H42.4736Z" fill="#292929"/>
<path opacity="0.21" fill-rule="evenodd" clip-rule="evenodd" d="M42.542 109.43L48.6262 106.12H87.1067L94.2085 109.43H42.542Z" fill="#282828"/>
<path opacity="0.23" fill-rule="evenodd" clip-rule="evenodd" d="M42.6074 109.414L48.6358 106.132H87.0991L94.1322 109.414H42.6074Z" fill="#272727"/>
<path opacity="0.25" fill-rule="evenodd" clip-rule="evenodd" d="M42.6719 109.401L48.6445 106.148H87.0906L94.0593 109.401H42.6719Z" fill="#262626"/>
<path opacity="0.27" fill-rule="evenodd" clip-rule="evenodd" d="M42.7354 109.385L48.6521 106.165H87.081L93.9854 109.385H42.7354Z" fill="#252525"/>
<path opacity="0.29" fill-rule="evenodd" clip-rule="evenodd" d="M42.8047 109.369L48.6656 106.181H87.0731L93.913 109.369H42.8047Z" fill="#242424"/>
<path opacity="0.31" fill-rule="evenodd" clip-rule="evenodd" d="M42.8691 109.352L48.6743 106.197H87.0688L93.8401 109.352H42.8691Z" fill="#232323"/>
<path opacity="0.33" fill-rule="evenodd" clip-rule="evenodd" d="M42.9336 109.336L48.6829 106.209H87.0603L93.7628 109.336H42.9336Z" fill="#222222"/>
<path opacity="0.35" fill-rule="evenodd" clip-rule="evenodd" d="M43.002 109.324L48.6912 106.226H87.0514L93.6895 109.324H43.002Z" fill="#212121"/>
<path opacity="0.37" fill-rule="evenodd" clip-rule="evenodd" d="M43.0664 109.308L48.6998 106.242H87.0428L93.6165 109.308H43.0664Z" fill="#202020"/>
<path opacity="0.38" fill-rule="evenodd" clip-rule="evenodd" d="M43.1309 109.291L48.7084 106.259H87.0343L93.5436 109.291H43.1309Z" fill="#1F1F1F"/>
<path opacity="0.4" fill-rule="evenodd" clip-rule="evenodd" d="M43.1963 109.275L48.718 106.271H87.031L93.4716 109.275H43.1963Z" fill="#1E1E1E"/>
<path opacity="0.42" fill-rule="evenodd" clip-rule="evenodd" d="M43.2588 109.263L48.7247 106.287H87.0205L93.3924 109.263H43.2588Z" fill="#1D1D1D"/>
<path opacity="0.44" fill-rule="evenodd" clip-rule="evenodd" d="M43.3281 109.246L48.7339 106.304H87.0126L93.3201 109.246H43.3281Z" fill="#1C1C1C"/>
<path opacity="0.46" fill-rule="evenodd" clip-rule="evenodd" d="M43.3926 109.23L48.7426 106.32H87.004L93.2471 109.23H43.3926Z" fill="#1B1B1B"/>
<path opacity="0.48" fill-rule="evenodd" clip-rule="evenodd" d="M43.458 109.214L48.7522 106.332H86.9965L93.1752 109.214H43.458Z" fill="#1A1A1A"/>
<path opacity="0.5" fill-rule="evenodd" clip-rule="evenodd" d="M43.5215 109.201L48.7598 106.349H86.987L93.0969 109.201H43.5215Z" fill="#1A1A1A"/>
<path opacity="0.52" fill-rule="evenodd" clip-rule="evenodd" d="M43.5898 109.185L48.7681 106.365H86.978L93.0236 109.185H43.5898Z" fill="#191919"/>
<path opacity="0.54" fill-rule="evenodd" clip-rule="evenodd" d="M43.6553 109.168L48.782 106.381H86.9748L92.9516 109.168H43.6553Z" fill="#181818"/>
<path opacity="0.56" fill-rule="evenodd" clip-rule="evenodd" d="M43.7197 109.152L48.7906 106.397H86.9662L92.8787 109.152H43.7197Z" fill="#171717"/>
<path opacity="0.58" fill-rule="evenodd" clip-rule="evenodd" d="M43.7832 109.14L48.7983 106.41H86.9567L92.8048 109.14H43.7832Z" fill="#161616"/>
<path opacity="0.6" fill-rule="evenodd" clip-rule="evenodd" d="M43.8525 109.124L48.8075 106.426H86.9487L92.7281 109.124H43.8525Z" fill="#151515"/>
<path opacity="0.62" fill-rule="evenodd" clip-rule="evenodd" d="M43.917 109.107L48.8161 106.442H86.9402L92.6552 109.107H43.917Z" fill="#141414"/>
<path opacity="0.63" fill-rule="evenodd" clip-rule="evenodd" d="M43.9814 109.091L48.8248 106.459H86.9317L92.5822 109.091H43.9814Z" fill="#131313"/>
<path opacity="0.65" fill-rule="evenodd" clip-rule="evenodd" d="M44.0449 109.079L48.8324 106.471H86.9264L92.5083 109.079H44.0449Z" fill="#121212"/>
<path opacity="0.67" fill-rule="evenodd" clip-rule="evenodd" d="M44.1143 109.062L48.8417 106.487H86.9185L92.4316 109.062H44.1143Z" fill="#111111"/>
<path opacity="0.69" fill-rule="evenodd" clip-rule="evenodd" d="M44.1787 109.046L48.8503 106.504H86.91L92.3587 109.046H44.1787Z" fill="#101010"/>
<path opacity="0.71" fill-rule="evenodd" clip-rule="evenodd" d="M44.2432 109.03L48.8589 106.52H86.9014L92.2858 109.03H44.2432Z" fill="#0F0F0F"/>
<path opacity="0.73" fill-rule="evenodd" clip-rule="evenodd" d="M44.3066 109.013L48.8666 106.532H86.8919L92.2118 109.013H44.3066Z" fill="#0E0E0E"/>
<path opacity="0.75" fill-rule="evenodd" clip-rule="evenodd" d="M44.376 109.001L48.8758 106.549H86.8839L92.1395 109.001H44.376Z" fill="#0D0D0D"/>
<path opacity="0.77" fill-rule="evenodd" clip-rule="evenodd" d="M44.4404 108.984L48.8844 106.565H86.8797L92.0622 108.984H44.4404Z" fill="#0C0C0C"/>
<path opacity="0.79" fill-rule="evenodd" clip-rule="evenodd" d="M44.5059 108.969L48.8941 106.582H86.8721L91.9903 108.969H44.5059Z" fill="#0B0B0B"/>
<path opacity="0.81" fill-rule="evenodd" clip-rule="evenodd" d="M44.5693 108.952L48.906 106.594H86.8626L91.9163 108.952H44.5693Z" fill="#0A0A0A"/>
<path opacity="0.83" fill-rule="evenodd" clip-rule="evenodd" d="M44.6377 108.94L48.9143 106.61H86.8537L91.843 108.94H44.6377Z" fill="#090909"/>
<path opacity="0.85" fill-rule="evenodd" clip-rule="evenodd" d="M44.7031 108.923L48.9239 106.626H86.8461L91.771 108.923H44.7031Z" fill="#080808"/>
<path opacity="0.87" fill-rule="evenodd" clip-rule="evenodd" d="M44.7656 108.907L48.9305 106.643H86.8356L91.6919 108.907H44.7656Z" fill="#070707"/>
<path opacity="0.88" fill-rule="evenodd" clip-rule="evenodd" d="M44.8311 108.891L48.9402 106.659H86.8324L91.6199 108.891H44.8311Z" fill="#060606"/>
<path opacity="0.9" fill-rule="evenodd" clip-rule="evenodd" d="M44.8994 108.874L48.9484 106.671H86.8234L91.5465 108.874H44.8994Z" fill="#050505"/>
<path opacity="0.92" fill-rule="evenodd" clip-rule="evenodd" d="M44.9648 108.862L48.958 106.688H86.8159L91.4746 108.862H44.9648Z" fill="#040404"/>
<path opacity="0.94" fill-rule="evenodd" clip-rule="evenodd" d="M45.0283 108.846L48.9657 106.704H86.8064L91.4007 108.846H45.0283Z" fill="#030303"/>
<path opacity="0.96" fill-rule="evenodd" clip-rule="evenodd" d="M45.0928 108.829L48.9743 106.72H86.7978L91.3234 108.829H45.0928Z" fill="#020202"/>
<path opacity="0.98" fill-rule="evenodd" clip-rule="evenodd" d="M45.1621 108.813L48.9835 106.732H86.7899L91.2511 108.813H45.1621Z" fill="#010101"/>
<path fill-rule="evenodd" clip-rule="evenodd" d="M91.1781 108.801H45.2266L48.9922 106.749H86.7813L91.1781 108.801Z" fill="black"/>
<path d="M56.3854 100.132C58.0685 101.607 58.1801 104.105 56.6301 105.711C55.0801 107.313 52.4566 107.419 50.7692 105.944C49.086 104.468 48.9744 101.971 50.5244 100.369C52.0745 98.7669 54.6979 98.6606 56.3811 100.136L56.3854 100.132Z" fill="url(#paint0_radial_2034_96989)"/>
<path d="M58.5196 104.227L55.2865 104.91L54.0456 107.828L52.3667 105.11L49.0605 104.889L51.2546 102.531L50.4603 99.47L53.496 100.729L56.3041 99.0613L55.9863 102.196L58.5196 104.227Z" fill="#E6E7E8"/>
<path fill-rule="evenodd" clip-rule="evenodd" d="M54.9181 104.281C54.244 104.963 53.119 105 52.402 104.362C51.6849 103.725 51.6463 102.65 52.3161 101.967C52.9859 101.285 54.1152 101.248 54.8322 101.886C55.5493 102.523 55.5879 103.598 54.9181 104.281Z" fill="#989898"/>
<path d="M52.3592 104.403C51.6206 103.745 51.5777 102.633 52.2733 101.926C52.9646 101.223 54.1325 101.187 54.8753 101.845C55.6181 102.503 55.6567 103.614 54.9612 104.321C54.2656 105.024 53.102 105.061 52.3592 104.403ZM54.7937 101.926C54.1024 101.309 53.0118 101.346 52.3592 102.004C51.7108 102.662 51.7494 103.7 52.4407 104.317C53.132 104.934 54.2226 104.902 54.871 104.24C55.5193 103.582 55.4807 102.539 54.7894 101.922L54.7937 101.926Z" fill="black"/>
<path fill-rule="evenodd" clip-rule="evenodd" d="M53.5998 102.429C53.8016 102.421 53.9734 102.486 54.1236 102.617C54.2739 102.748 54.3469 102.911 54.3512 103.095C54.3684 103.295 54.304 103.463 54.1666 103.606C54.0292 103.749 53.8531 103.819 53.6427 103.815C53.4409 103.831 53.2692 103.77 53.1189 103.639C52.9686 103.508 52.8956 103.34 52.8913 103.148C52.8828 102.956 52.9515 102.793 53.0889 102.65C53.2263 102.507 53.398 102.433 53.5998 102.429Z" fill="url(#paint1_radial_2034_96989)"/>
<path fill-rule="evenodd" clip-rule="evenodd" d="M57.2403 102.012C57.5452 102.964 57.4507 103.88 56.9527 104.755C56.4589 105.633 55.7118 106.218 54.7113 106.504C53.7109 106.79 52.7491 106.7 51.8259 106.23C50.9071 105.76 50.2974 105.049 49.9968 104.097C49.692 103.144 49.7864 102.233 50.2802 101.358C50.774 100.479 51.5211 99.8991 52.5258 99.613C53.5263 99.3269 54.4881 99.4168 55.4112 99.8868C56.3301 100.353 56.9441 101.064 57.2446 102.016L57.2403 102.012ZM57.0557 102.065C56.768 101.162 56.1884 100.488 55.3125 100.038C54.4322 99.5926 53.522 99.5067 52.5731 99.7806C51.6241 100.054 50.9114 100.606 50.4391 101.44C49.9754 102.278 49.8852 103.144 50.1729 104.047C50.4605 104.955 51.0402 105.629 51.9075 106.071C52.7877 106.524 53.7023 106.614 54.6512 106.34C55.6001 106.067 56.3086 105.511 56.7809 104.669C57.2489 103.843 57.3434 102.977 57.0514 102.069L57.0557 102.065Z" fill="white"/>
<path fill-rule="evenodd" clip-rule="evenodd" d="M57.2395 102.012C56.9389 101.06 56.3292 100.349 55.4061 99.8828C54.4829 99.4128 53.5211 99.3229 52.5207 99.609C51.5202 99.8992 50.7688 100.48 50.2751 101.354C49.7856 102.225 49.6911 103.14 49.9917 104.093C50.2922 105.045 50.9019 105.756 51.8208 106.226C52.744 106.696 53.7058 106.79 54.7062 106.5C55.7066 106.21 56.4537 105.629 56.9475 104.751C57.4413 103.876 57.5358 102.96 57.2352 102.008L57.2395 102.012ZM58.2571 105.409C57.5658 106.631 56.5224 107.444 55.1356 107.844C53.7444 108.245 52.409 108.114 51.1295 107.46C49.8543 106.81 49.0041 105.825 48.5833 104.501C48.1625 103.177 48.2999 101.906 48.9826 100.688C49.6653 99.47 50.7044 98.6608 52.0956 98.2602C53.4868 97.8638 54.8221 97.9864 56.1102 98.6403C57.3898 99.2984 58.2356 100.283 58.6564 101.608C59.0772 102.932 58.9441 104.199 58.2614 105.413L58.2571 105.409Z" fill="url(#paint2_radial_2034_96989)"/>
<path d="M55.1586 107.914C53.7546 108.319 52.3849 108.188 51.0967 107.526C49.8086 106.868 48.937 105.858 48.5119 104.522C48.0868 103.185 48.2242 101.882 48.9155 100.651C49.6068 99.4171 50.6674 98.5916 52.0714 98.1869C53.4755 97.7823 54.8452 97.9131 56.1462 98.5711C57.4343 99.2332 58.3016 100.247 58.7267 101.583C59.1518 102.92 59.0144 104.219 58.3231 105.446C57.6232 106.68 56.5584 107.51 55.1543 107.914H55.1586ZM52.1186 98.33C50.7532 98.7223 49.7227 99.5275 49.0529 100.725C48.3831 101.923 48.25 103.185 48.6622 104.481C49.0744 105.777 49.9203 106.758 51.174 107.395C52.4278 108.037 53.7546 108.164 55.12 107.771C56.4811 107.379 57.5159 106.574 58.1943 105.372C58.8641 104.183 58.9929 102.92 58.585 101.624C58.1728 100.324 57.3312 99.3436 56.0775 98.6978C54.8151 98.0602 53.484 97.9335 52.1229 98.3218L52.1186 98.33ZM54.7378 106.578C53.7202 106.868 52.7284 106.774 51.7966 106.296C50.8649 105.818 50.2337 105.082 49.9245 104.117C49.6197 103.149 49.7142 102.209 50.2165 101.326C50.7189 100.435 51.4875 99.834 52.5051 99.5438C53.5227 99.2496 54.5145 99.3436 55.4506 99.8218C56.3866 100.296 57.0135 101.023 57.3226 101.992C57.6318 102.961 57.533 103.901 57.0307 104.792C56.5283 105.683 55.7597 106.283 54.7421 106.578H54.7378ZM52.548 99.6828C51.5733 99.9648 50.8348 100.541 50.3539 101.395C49.873 102.245 49.7786 103.149 50.0748 104.076C50.3668 105.004 50.9722 105.711 51.8696 106.169C52.767 106.627 53.7202 106.717 54.6949 106.435C55.6696 106.153 56.4081 105.576 56.889 104.722C57.3699 103.868 57.4686 102.961 57.1724 102.033C56.8761 101.105 56.2707 100.402 55.3776 99.9526C54.4759 99.4907 53.527 99.4008 52.5523 99.6828H52.548ZM54.682 106.41C53.7159 106.688 52.7713 106.594 51.8782 106.132C50.9937 105.683 50.4011 104.988 50.1049 104.064C49.8129 103.149 49.9031 102.254 50.3754 101.399C50.8563 100.553 51.5905 99.9853 52.5566 99.7073C53.5227 99.4294 54.463 99.5193 55.3561 99.9689C56.2492 100.427 56.846 101.126 57.138 102.041C57.43 102.965 57.3355 103.856 56.8589 104.698C56.3823 105.552 55.6524 106.128 54.6863 106.406L54.682 106.41ZM52.5995 99.8504C51.6764 100.116 50.9722 100.664 50.5128 101.473C50.0619 102.286 49.9761 103.145 50.2509 104.023C50.53 104.906 51.101 105.572 51.9469 106.001C52.8056 106.443 53.7116 106.533 54.6348 106.271C55.5579 106.006 56.2578 105.454 56.7172 104.632C57.1724 103.827 57.2668 102.973 56.9834 102.09C56.7044 101.211 56.129 100.545 55.2788 100.104C54.4244 99.6705 53.5227 99.5847 52.5995 99.8504Z" fill="black"/>
<path d="M87.4378 102.58C87.6869 104.746 86.0424 106.696 83.7667 106.933C81.491 107.17 79.4429 105.605 79.1939 103.438C78.9448 101.272 80.5893 99.3227 82.865 99.0856C85.1407 98.8486 87.1888 100.414 87.4378 102.58Z" fill="url(#paint3_radial_2034_96989)"/>
<path d="M86.2195 107.007L83.3126 105.49L80.3585 106.913L80.9682 103.814L78.6367 101.579L81.9214 101.178L83.4371 98.3705L84.854 101.223L88.1216 101.726L85.7128 103.888L86.2195 107.007Z" fill="#E6E7E8"/>
<path fill-rule="evenodd" clip-rule="evenodd" d="M83.0797 102.486C83.2472 102.425 83.4189 102.433 83.5821 102.502C83.7495 102.572 83.8655 102.69 83.9213 102.85C83.9943 103.013 83.9943 103.177 83.9213 103.336C83.844 103.496 83.7195 103.602 83.5392 103.659C83.3717 103.728 83.2042 103.724 83.0368 103.655C82.8693 103.581 82.7577 103.463 82.6933 103.299C82.6289 103.136 82.6332 102.976 82.7105 102.817C82.7878 102.658 82.908 102.547 83.0797 102.486Z" fill="url(#paint4_radial_2034_96989)"/>
<path fill-rule="evenodd" clip-rule="evenodd" d="M84.6763 104.281C84.0064 104.963 82.8772 105 82.1601 104.362C81.4431 103.725 81.4044 102.65 82.0786 101.967C82.7484 101.285 83.8776 101.248 84.5947 101.886C85.3117 102.523 85.3504 103.598 84.6806 104.281H84.6763Z" fill="#989898"/>
<path d="M82.1172 104.403C81.3787 103.745 81.3401 102.633 82.0314 101.926C82.7227 101.223 83.8906 101.187 84.6334 101.845C85.3762 102.503 85.4148 103.614 84.7192 104.321C84.0237 105.028 82.8601 105.065 82.1172 104.403ZM84.5518 101.926C83.8605 101.309 82.7656 101.346 82.1172 102.004C81.4689 102.662 81.5075 103.7 82.1988 104.317C82.8901 104.934 83.9807 104.898 84.6291 104.24C85.2774 103.582 85.2431 102.539 84.5475 101.922L84.5518 101.926Z" fill="black"/>
<path fill-rule="evenodd" clip-rule="evenodd" d="M83.3635 102.429C83.5653 102.421 83.7413 102.486 83.8873 102.617C84.0376 102.752 84.1106 102.911 84.1149 103.095C84.1321 103.295 84.0677 103.463 83.9303 103.606C83.7929 103.749 83.6168 103.819 83.4064 103.815C83.2046 103.831 83.0329 103.77 82.8826 103.639C82.7323 103.504 82.6593 103.34 82.655 103.148C82.6464 102.956 82.7151 102.793 82.8525 102.65C82.9899 102.507 83.1617 102.433 83.3635 102.429Z" fill="url(#paint5_radial_2034_96989)"/>
<path fill-rule="evenodd" clip-rule="evenodd" d="M86.7856 104.534C86.3519 105.441 85.6521 106.071 84.6731 106.422C83.6941 106.774 82.728 106.745 81.7748 106.336C80.8216 105.928 80.1604 105.253 79.7911 104.322C79.4262 103.394 79.4562 102.474 79.8899 101.567C80.3193 100.66 81.0234 100.034 81.9938 99.6827C82.9728 99.3312 83.9389 99.3598 84.8921 99.7726C85.8453 100.181 86.5065 100.856 86.8758 101.783C87.2493 102.711 87.215 103.631 86.7856 104.534ZM86.6096 104.461C87.0175 103.602 87.0475 102.732 86.6997 101.841C86.3434 100.954 85.7165 100.32 84.8148 99.932C83.9131 99.5437 82.9942 99.5151 82.0625 99.8462C81.1351 100.185 80.4695 100.786 80.0616 101.645C79.6537 102.507 79.6194 103.377 79.9715 104.256C80.3192 105.151 80.9504 105.793 81.8478 106.181C82.7495 106.569 83.6684 106.594 84.6044 106.255C85.5275 105.928 86.1974 105.331 86.6053 104.469L86.6096 104.461Z" fill="white"/>
<path fill-rule="evenodd" clip-rule="evenodd" d="M86.7856 104.534C87.215 103.627 87.2493 102.711 86.8758 101.784C86.5065 100.852 85.8453 100.181 84.8921 99.7728C83.9388 99.3641 82.9728 99.3314 81.9938 99.6828C81.0191 100.03 80.3192 100.66 79.8899 101.567C79.4605 102.474 79.4261 103.39 79.7911 104.322C80.1604 105.254 80.8216 105.924 81.7748 106.337C82.728 106.745 83.6941 106.774 84.6731 106.422C85.652 106.071 86.3519 105.442 86.7856 104.534ZM85.2012 107.73C83.8358 108.217 82.4919 108.176 81.1694 107.608C79.8469 107.04 78.9281 106.108 78.4214 104.812C77.9104 103.521 77.9491 102.25 78.5502 100.991C79.147 99.7319 80.126 98.8573 81.4871 98.3668C82.8439 97.8764 84.1836 97.9172 85.5061 98.4853C86.8285 99.0534 87.7517 99.9894 88.2669 101.285C88.7736 102.581 88.7307 103.856 88.1338 105.115C87.537 106.373 86.5623 107.244 85.2055 107.73H85.2012Z" fill="url(#paint6_radial_2034_96989)"/>
<path d="M81.1388 107.673C79.8035 107.097 78.8632 106.144 78.3479 104.836C77.8327 103.533 77.8756 102.225 78.4767 100.954C79.0822 99.6827 80.0826 98.7876 81.4566 98.2931C82.8263 97.7985 84.2003 97.8394 85.5356 98.4116C86.871 98.9879 87.8156 99.9443 88.3394 101.256C88.8504 102.564 88.8075 103.868 88.202 105.139C87.5966 106.41 86.6005 107.305 85.2308 107.796C83.8525 108.286 82.4742 108.245 81.1388 107.669V107.673ZM85.4712 98.5506C84.1702 97.9906 82.8392 97.9538 81.5081 98.432C80.1771 98.9143 79.2024 99.7808 78.6141 101.015C78.0302 102.249 77.9872 103.516 78.4896 104.779C78.9877 106.046 79.9023 106.974 81.199 107.534C82.4957 108.09 83.831 108.135 85.1707 107.657C86.4974 107.178 87.4678 106.312 88.0561 105.078C88.6443 103.843 88.6872 102.576 88.1892 101.305C87.6825 100.034 86.7679 99.1064 85.4712 98.5465V98.5506ZM81.74 106.402C80.7739 105.985 80.0869 105.294 79.7176 104.35C79.3441 103.406 79.3784 102.458 79.8164 101.538C80.2543 100.619 80.9757 99.9729 81.9675 99.6173C82.9594 99.2617 83.9555 99.2903 84.9259 99.7072C85.892 100.124 86.5747 100.815 86.9483 101.763C87.3261 102.703 87.2961 103.647 86.8538 104.571C86.4158 105.49 85.6902 106.14 84.6984 106.496C83.7065 106.851 82.7104 106.823 81.7443 106.406L81.74 106.402ZM84.8572 99.838C83.9298 99.4415 82.9723 99.4088 82.0234 99.7522C81.0744 100.091 80.3789 100.713 79.9581 101.595C79.5373 102.478 79.5072 103.386 79.8636 104.293C80.2243 105.2 80.8769 105.862 81.8044 106.263C82.7318 106.663 83.6893 106.692 84.6382 106.349C85.5915 106.005 86.2913 105.384 86.7121 104.501C87.1329 103.619 87.1587 102.711 86.798 101.808C86.4416 100.901 85.7847 100.234 84.8572 99.8339V99.838ZM81.8173 106.242C80.8984 105.846 80.2543 105.184 79.898 104.277C79.5416 103.386 79.5759 102.491 79.9924 101.612C80.4046 100.741 81.0959 100.124 82.0362 99.7767C82.9852 99.4415 83.9298 99.4701 84.8486 99.8666C85.7632 100.259 86.4158 100.917 86.7765 101.816C87.1286 102.719 87.0986 103.619 86.6864 104.493C86.2699 105.372 85.5786 105.985 84.6382 106.32C83.685 106.663 82.7361 106.643 81.8216 106.247L81.8173 106.242ZM84.7842 99.9974C83.904 99.6214 82.998 99.5887 82.0921 99.9116C81.1904 100.243 80.5334 100.831 80.1341 101.669C79.7348 102.511 79.7047 103.365 80.0439 104.223C80.3831 105.094 81.0057 105.727 81.8817 106.108C82.7576 106.488 83.6679 106.508 84.5824 106.177C85.4841 105.854 86.1453 105.27 86.5404 104.428C86.9354 103.59 86.9654 102.728 86.6305 101.865C86.287 101.003 85.6644 100.373 84.7885 99.9974H84.7842Z" fill="black"/>
<path fill-rule="evenodd" clip-rule="evenodd" d="M84.0328 102.057C84.1057 102.192 84.0456 102.355 83.9039 102.425C83.7623 102.494 83.5905 102.437 83.5175 102.302C83.4445 102.167 83.5046 102.004 83.6463 101.938C83.788 101.869 83.9598 101.926 84.0328 102.061V102.057Z" fill="black"/>
<path fill-rule="evenodd" clip-rule="evenodd" d="M84.4075 103.704C84.2658 103.774 84.094 103.716 84.0253 103.582C83.9523 103.447 84.0124 103.283 84.1541 103.214C84.2958 103.144 84.4676 103.201 84.5406 103.336C84.6093 103.471 84.5534 103.635 84.4118 103.7L84.4075 103.704Z" fill="black"/>
<path fill-rule="evenodd" clip-rule="evenodd" d="M82.5036 102.887C82.3619 102.952 82.1902 102.899 82.1172 102.764C82.0485 102.63 82.1043 102.466 82.246 102.397C82.3877 102.331 82.5594 102.384 82.6281 102.519C82.7011 102.654 82.641 102.822 82.4993 102.887H82.5036Z" fill="black"/>
<path d="M59.9014 89.5181L60.9834 87.7524L62.6064 88.153L61.2539 90.1066L59.9014 89.5181Z" fill="url(#paint7_linear_2034_96989)"/>
<path d="M61.2798 90.1885L59.8027 89.5468L60.9492 87.6749L62.7182 88.1163L61.2798 90.1926V90.1885ZM60.0002 89.4855L61.2283 90.0168L62.4949 88.194L61.0179 87.8261L60.0002 89.4855Z" fill="url(#paint8_linear_2034_96989)"/>
<path d="M86.8164 97.8029H89.6202C89.6202 97.8029 89.3583 97.9501 89.0406 98.3056C88.3149 99.1721 89.1951 99.5195 89.1951 99.5195L88.2248 99.7034L86.8164 97.9746V97.7988V97.8029Z" fill="#FF0000"/>
<path d="M88.1939 99.781L86.7598 98.0194L86.8714 97.9377L88.254 99.6338L89.0011 99.4908C88.8895 99.4131 88.7564 99.2864 88.7048 99.0984C88.6361 98.8491 88.7306 98.5712 88.9839 98.2687C89.1428 98.0848 89.2931 97.9581 89.4004 97.8723H86.8156V97.7374H89.8813L89.6537 97.8641C89.6537 97.8641 89.3961 98.0072 89.0913 98.3546C88.868 98.6202 88.7821 98.8614 88.8379 99.0657C88.9109 99.3396 89.2158 99.4622 89.2201 99.4622L89.4348 99.548L88.1939 99.7851V99.781Z" fill="black"/>
<path d="M77.9053 103.585V104.889L78.296 105.404H79.8031L80.3055 104.889L80.649 103.418L77.9053 103.585Z" fill="black"/>
<path d="M60.0772 89.3912C60.0772 89.3912 59.768 89.1501 59.3816 89.5547C58.9951 89.9594 56.0539 95.154 54.8603 95.2194C54.3794 95.248 54.1647 95.7712 54.242 96.0655C54.3193 96.3597 54.242 97.7943 54.242 97.7943C54.242 97.7943 57.6297 100.148 57.8229 100.994C58.0162 101.841 60.1931 104.783 61.1978 105.335C62.2026 105.887 72.559 106.291 77.8532 105.078V103.937L90.5283 103.716C90.5283 103.716 90.451 98.7507 82.5291 95.3666C74.6071 91.9825 70.9747 93.8584 70.9747 93.8584C70.9747 93.8584 69.8153 94.778 70.3177 95.4401C70.8201 96.1023 73.7956 99.7438 72.134 101.215C70.4723 102.687 64.869 105.629 60.2704 100.823C57.1961 97.6104 59.4975 93.417 59.9612 92.9388C60.4249 92.4607 61.4683 89.9961 61.4683 89.9961L60.0772 89.3912Z" fill="url(#paint9_linear_2034_96989)"/>
<path d="M68.3339 106.03C64.7916 106.03 61.6872 105.793 61.1075 105.474C60.0684 104.902 57.8658 101.955 57.6511 101.027C57.518 100.451 55.4784 98.8571 54.1345 97.9253L54.0572 97.8721V97.7822C54.0916 97.2386 54.1173 96.2986 54.0658 96.1024C54.0057 95.8776 54.0787 95.5833 54.2418 95.3708C54.3921 95.1787 54.6025 95.0643 54.8387 95.052C55.6416 95.0071 57.664 91.8559 58.5227 90.5072C58.9263 89.8778 59.141 89.5467 59.2398 89.4405C59.4244 89.2484 59.6176 89.1503 59.8237 89.1503C59.9826 89.1503 60.0985 89.2116 60.1457 89.2443L61.67 89.9064L61.6099 90.0535C61.567 90.1557 60.5493 92.5507 60.0684 93.0453C59.7078 93.4172 57.372 97.5656 60.3776 100.709C62.0221 102.425 63.9371 103.296 66.0797 103.296C68.789 103.296 71.0733 101.91 72.0007 101.093C72.6663 100.504 72.9067 99.0819 70.2661 95.6651L70.163 95.5302C69.5748 94.7537 70.7985 93.7687 70.85 93.7278C70.9187 93.6869 71.9449 93.172 74.066 93.172C76.5478 93.172 79.4117 93.8586 82.5848 95.2114C90.5153 98.5996 90.6828 103.504 90.6871 103.708V103.872L78.012 104.093V105.2L77.8789 105.229C74.8561 105.924 70.5924 106.026 68.321 106.026L68.3339 106.03ZM54.4136 97.7127C55.0018 98.1214 57.7971 100.12 57.986 100.958C58.1749 101.788 60.3347 104.673 61.2793 105.192C61.7258 105.437 64.5511 105.707 68.3296 105.707C70.5537 105.707 74.6972 105.609 77.6771 104.947V103.778L90.3393 103.557C90.2362 102.683 89.3732 98.4729 82.456 95.518C79.3301 94.1815 76.5134 93.5071 74.0789 93.5071C72.0608 93.5071 71.069 93.9976 71.0518 94.0057C71.0518 94.0057 70.06 94.8272 70.4507 95.3463L70.5495 95.4771C72.7908 98.3748 73.3618 100.349 72.2412 101.338C71.2794 102.188 68.9007 103.627 66.0883 103.627C63.8469 103.627 61.8461 102.719 60.1329 100.933C56.934 97.5901 59.3814 93.2864 59.8237 92.8286C60.1629 92.4772 60.9057 90.8464 61.2363 90.0821L59.9568 89.5222C59.9568 89.5222 59.9053 89.4895 59.828 89.4895C59.7249 89.4895 59.609 89.5508 59.4974 89.6693C59.4115 89.7592 59.1367 90.1884 58.819 90.687C57.3162 93.0371 55.7704 95.3381 54.8601 95.3872C54.6884 95.3953 54.5811 95.4934 54.5166 95.5711C54.4007 95.7223 54.3664 95.9185 54.3964 96.0288C54.4694 96.3027 54.4222 97.3776 54.405 97.7168L54.4136 97.7127Z" fill="black"/>
<path d="M47.8799 100.475C47.8799 100.475 49.2496 96.8089 54.3505 97.3606C59.4515 97.9124 59.357 103.528 59.9367 103.749C60.5163 103.969 60.1643 104.538 58.1591 104.19C56.4588 103.896 55.9178 103.749 54.3548 102.089C51.8731 99.4614 49.2796 100.814 49.2796 100.814C49.2796 100.814 47.8799 101.395 47.8799 100.475Z" fill="url(#paint10_linear_2034_96989)"/>
<path d="M59.2671 104.465C58.9408 104.465 58.5587 104.428 58.125 104.354C56.3903 104.056 55.815 103.892 54.222 102.2C53.2387 101.158 52.1309 100.631 50.9244 100.631C50.0012 100.631 49.3615 100.958 49.3572 100.962C49.3228 100.974 48.872 101.162 48.4555 101.162C47.9789 101.162 47.7041 100.913 47.7041 100.48L47.7127 100.427C47.7256 100.394 48.9879 97.1487 53.3289 97.1487C53.6638 97.1487 54.0116 97.1691 54.368 97.2059C58.3354 97.635 59.2628 101.08 59.7094 102.736C59.8124 103.116 59.9284 103.545 60.0099 103.606C60.259 103.7 60.3921 103.868 60.3534 104.048C60.3234 104.203 60.1388 104.465 59.2671 104.465ZM50.9287 100.304C51.8261 100.304 53.1743 100.594 54.4839 101.984C56.0082 103.598 56.5105 103.741 58.1937 104.031C58.6059 104.101 58.9666 104.138 59.2714 104.138C59.8339 104.138 60.0056 104.015 60.0228 103.982C60.0228 103.982 59.9799 103.941 59.8768 103.901C59.6536 103.815 59.5634 103.48 59.3831 102.813C58.9236 101.105 58.0692 97.9293 54.3336 97.5247C53.9944 97.4879 53.6552 97.4675 53.3332 97.4675C49.4345 97.4675 48.1764 100.206 48.0519 100.5C48.0605 100.733 48.1807 100.827 48.4555 100.827C48.799 100.827 49.2026 100.659 49.2069 100.659C49.2198 100.651 49.9111 100.296 50.9244 100.296L50.9287 100.304Z" fill="black"/>
<path d="M69.9495 94.6223C69.9495 94.6223 68.5197 94.8471 68.5583 93.8539C68.5969 92.8608 68.5583 92.9711 68.5583 92.9711C68.5583 92.9711 68.1719 92.309 69.2539 92.2355C70.3359 92.1619 85.0591 92.2355 85.0591 92.2355C85.0591 92.2355 85.3683 92.3826 85.4069 92.9711C85.4456 93.5597 85.0591 94.5161 84.5568 94.9575C84.0544 95.3989 83.9084 95.5092 83.2472 95.4356C82.5859 95.3621 69.9495 94.6223 69.9495 94.6223Z" fill="url(#paint11_linear_2034_96989)"/>
<path d="M83.5651 95.6239C83.4663 95.6239 83.3547 95.6157 83.2259 95.5993C82.5818 95.5258 70.2373 94.8024 69.9411 94.786C69.9411 94.786 69.8037 94.8065 69.619 94.8065C69.3099 94.8065 68.8805 94.7533 68.6186 94.4917C68.4554 94.3283 68.3738 94.1116 68.3867 93.8501C68.4082 93.2901 68.4039 93.1021 68.3996 93.0408C68.3695 92.9795 68.245 92.7098 68.3867 92.4564C68.5112 92.2316 68.8032 92.1049 69.2412 92.0763C69.5632 92.0558 71.109 92.0436 73.8312 92.0436C78.4598 92.0436 84.9906 92.0763 85.0593 92.0763L85.1366 92.0926C85.1752 92.1131 85.5359 92.3011 85.5788 92.9632C85.6218 93.6294 85.1967 94.6184 84.6729 95.0803C84.2435 95.4563 84.0374 95.6239 83.5694 95.6239H83.5651ZM69.9196 94.4631C70.4735 94.4917 82.6076 95.2029 83.2645 95.2765C83.827 95.3378 83.93 95.2846 84.4367 94.8391C84.8833 94.4468 85.2697 93.5476 85.2353 92.9836C85.2096 92.6035 85.0636 92.4482 85.0035 92.3992C84.3723 92.3992 78.2366 92.3665 73.8312 92.3665C71.1132 92.3665 69.5804 92.3787 69.2626 92.3992C68.9578 92.4196 68.7517 92.4932 68.6873 92.6076C68.6358 92.6975 68.6701 92.8079 68.6916 92.861C68.7431 92.9141 68.7603 92.9754 68.7259 93.8582C68.7173 94.0299 68.7646 94.1648 68.8633 94.2629C69.0523 94.4509 69.4172 94.4795 69.619 94.4795C69.7865 94.4795 69.9153 94.4631 69.9196 94.459V94.4631Z" fill="black"/>
<path d="M94.037 91.259H83.3972V91.913H84.7797L82.9893 95.5832L83.1653 103.766L93.6506 91.913H94.037V91.259ZM83.8137 102.016L83.6763 95.718L85.5312 91.913H92.7489L83.8094 102.016H83.8137Z" fill="black"/>
<path d="M76.9468 103.823C76.9468 103.823 73.4603 100.68 76.5174 98.4521C79.8322 96.0326 87.3376 98.0475 89.3857 103.733L76.9511 103.823H76.9468Z" fill="url(#paint12_linear_2034_96989)"/>
<path d="M76.8791 103.986L76.8275 103.941C76.7545 103.872 74.9941 102.269 75.0929 100.487C75.1401 99.6578 75.5824 98.9303 76.411 98.3254C77.3428 97.6429 78.6094 97.2832 80.0693 97.2832C83.6331 97.2832 88.0342 99.4821 89.5456 103.684L89.6229 103.896L76.8791 103.986ZM80.0693 97.6102C78.6867 97.6102 77.4931 97.9494 76.6214 98.5829C75.8786 99.1265 75.4793 99.7722 75.4407 100.504C75.3591 101.979 76.7417 103.389 77.0208 103.659L89.1463 103.573C87.6134 99.6578 83.4571 97.6102 80.0736 97.6102H80.0693Z" fill="url(#paint13_linear_2034_96989)"/>
<path d="M58.7426 88.1899L58.7168 85.5497C58.7168 85.5497 62.0659 86.0933 62.6069 86.2772C63.1479 86.4611 62.9547 86.645 62.9547 86.9761C62.9547 87.3071 62.9891 87.9325 62.9891 87.9325C62.9891 87.9325 63.1093 88.1532 62.6069 88.1532C62.1046 88.1532 58.7426 88.1899 58.7426 88.1899Z" fill="url(#paint14_linear_2034_96989)"/>
<path d="M58.5711 88.3573L58.541 85.3574L58.7428 85.3901C58.8802 85.4146 62.1134 85.9378 62.663 86.1258C63.174 86.2975 63.1825 86.5222 63.1439 86.7961C63.1353 86.8492 63.1267 86.9105 63.1267 86.9759C63.1267 87.262 63.1525 87.777 63.1611 87.8996C63.1825 87.965 63.1868 88.0508 63.1353 88.1326C63.0537 88.2593 62.8863 88.3165 62.6115 88.3165C62.1091 88.3165 58.7471 88.3533 58.7471 88.3533H58.5754L58.5711 88.3573ZM58.8888 85.7457L58.9103 88.0263C59.6016 88.0181 62.1692 87.9936 62.6029 87.9936C62.7231 87.9936 62.7832 87.9772 62.8133 87.9691V87.9445C62.8133 87.9445 62.7789 87.3151 62.7789 86.98C62.7789 86.8983 62.7918 86.8206 62.8004 86.7511C62.8262 86.5631 62.8348 86.5304 62.5471 86.4323C62.152 86.2975 60.0868 85.9419 58.8888 85.7457Z" fill="url(#paint15_linear_2034_96989)"/>
<path d="M57.1771 85.6888L58.7143 85.5498L58.7401 88.1901H58.1991C58.1991 88.1901 58.6413 86.5879 57.1729 85.6888H57.1771Z" fill="url(#paint16_linear_2034_96989)"/>
<path d="M58.9155 88.3533H57.9795L58.0353 88.1489C58.0525 88.0876 58.4261 86.649 57.0864 85.8274L56.6699 85.574L58.8855 85.3738L58.9155 88.3574V88.3533ZM58.4046 88.0263H58.5678L58.5463 85.7294L57.6274 85.8111C58.4948 86.5672 58.4647 87.5931 58.4046 88.0263Z" fill="black"/>
<path d="M61.1776 86.4972L60.5808 83.4442L60.4434 83.2398L60.6194 83.0723L61.0445 82.9619L61.0831 82.263L61.4696 81.417L61.9333 84.6908L61.4094 84.3229L61.1175 83.3298C61.1175 83.3298 60.9028 83.1458 60.7525 83.3502C60.6022 83.5505 61.4309 86.4932 61.4309 86.4932H61.1776V86.4972Z" fill="black"/>
<path d="M59.9022 89.4078V92.2075L58.1246 95.7347C58.1246 95.7347 57.6223 97.2796 58.1246 98.1256C58.627 98.9716 60.9499 104.015 60.9499 104.015C60.9499 104.015 62.165 105.119 63.7022 105.119C65.2394 105.119 70.9028 106.369 72.3841 101.367C72.3841 101.367 71.7143 105.229 70.5292 105.413C67.5794 105.867 61.9847 105.564 61.2548 105.155C60.5248 104.747 58.1246 99.6378 57.7382 98.24C57.3518 96.8423 57.5836 97.0262 57.5836 96.2905C57.5836 95.5548 59.9022 89.4119 59.9022 89.4119V89.4078Z" fill="#754C24"/>
<path d="M49.5547 98.9798C49.5547 98.9798 53.9686 95.6529 57.5453 99.7155C61.122 103.774 53.9901 96.5521 49.5547 98.9798Z" fill="white"/>
<path d="M75.8614 100.634C74.8309 99.9805 80.3269 95.4847 86.424 100.43C81.7567 97.6713 75.8614 100.634 75.8614 100.634Z" fill="white"/>
<path d="M84.2783 92.943C84.2783 93.1678 80.9721 93.3517 76.893 93.3517C72.814 93.3517 69.5078 93.1678 69.5078 92.943C69.5078 92.7182 72.814 92.5343 76.893 92.5343C80.9721 92.5343 84.2783 92.7182 84.2783 92.943Z" fill="white"/>
<path d="M72.1098 101.55C71.1351 102.502 65.695 106.467 59.8984 100.978C61.9294 103.892 67.2708 107.607 72.1098 101.55Z" fill="url(#paint17_linear_2034_96989)"/>
<path d="M82.5303 95.8614C82.5303 95.8614 71.7402 95.1789 71.2807 95.2361C70.8213 95.2892 71.869 96.0249 72.3756 96.5971C72.8823 97.1693 73.3117 98.0398 73.3117 98.424C73.3117 98.8082 73.5392 99.2946 73.1399 100.03C72.7406 100.766 75.7333 96.9036 79.28 96.5153C82.3543 96.1802 82.5303 95.8614 82.5303 95.8614Z" fill="url(#paint18_linear_2034_96989)"/>
<path d="M84.5747 80.9226H94.3901C95.528 80.9226 96.4511 81.8013 96.4511 82.8844V89.2439C96.4511 90.327 95.528 91.2057 94.3901 91.2057H84.5747C83.4368 91.2057 82.5137 90.327 82.5137 89.2439V82.8844C82.5137 81.8013 83.4368 80.9226 84.5747 80.9226Z" fill="url(#paint19_linear_2034_96989)"/>
<path d="M94.39 91.3653H84.5745C83.3422 91.3653 82.3418 90.413 82.3418 89.24V82.8846C82.3418 81.7116 83.3422 80.7593 84.5745 80.7593H94.39C95.6223 80.7593 96.6228 81.7116 96.6228 82.8846V89.2441C96.6228 90.4171 95.6223 91.3694 94.39 91.3694V91.3653ZM84.5745 81.0862C83.5312 81.0862 82.6853 81.8914 82.6853 82.8846V89.2441C82.6853 90.2372 83.5312 91.0424 84.5745 91.0424H94.39C95.4291 91.0424 96.2793 90.2372 96.2793 89.2441V82.8846C96.2793 81.8955 95.4291 81.0862 94.39 81.0862H84.5745Z" fill="black"/>
<path d="M96.6265 83.3872H82.6504V83.7142H96.6265V83.3872Z" fill="black"/>
<path d="M91.3018 82.7903C91.3018 83.1214 91.0227 83.387 90.6749 83.387H88.2919C87.9484 83.387 87.665 83.1214 87.665 82.7903C87.665 82.4593 87.9484 82.1936 88.2919 82.1936H90.6749C91.0227 82.1936 91.3018 82.4593 91.3018 82.7903Z" fill="black"/>
<path d="M62.4947 87.1471C62.4947 87.6498 62.0653 88.0585 61.5372 88.0585C61.0091 88.0585 60.584 87.6498 60.584 87.1471C60.584 86.6444 61.0134 86.2397 61.5372 86.2397C62.061 86.2397 62.4947 86.6485 62.4947 87.1471Z" fill="black"/>
<path d="M62.2555 87.1477C62.2555 87.5032 61.9506 87.7934 61.5813 87.7934C61.2121 87.7934 60.9072 87.5073 60.9072 87.1477C60.9072 86.788 61.2078 86.506 61.5813 86.506C61.9549 86.506 62.2555 86.7962 62.2555 87.1477Z" fill="#4D4E4E"/>
<path fill-rule="evenodd" clip-rule="evenodd" d="M86.1537 83.2481L86.1451 83.2563L86.1064 83.1705L86.1279 83.1337L86.1537 83.1868V83.195L86.1623 83.2031V83.2236L86.1537 83.2399V83.2481Z" fill="#404040"/>
<path d="M89.3588 85.5821L89.2681 85.8014L89.6735 85.8006L89.5124 86.1898H89.107L88.9789 86.5001L89.796 86.4993L89.7179 86.6885C89.6868 86.7506 89.6468 86.8064 89.5977 86.8557C89.5768 86.8777 89.5525 86.8986 89.5242 86.9186C89.4963 86.9391 89.4653 86.9567 89.4315 86.9723C89.3973 86.988 89.3596 87.0008 89.318 87.0108C89.2763 87.0208 89.2307 87.0256 89.1809 87.026L88.2773 87.0272C88.3571 86.9567 88.4195 86.8689 88.4604 86.7695L89.1027 85.2153L89.1483 85.1083L90.4481 85.1067L90.3087 85.1865L89.7776 85.5817L89.358 85.5825L89.3588 85.5821Z" fill="#020111"/>
<path d="M91.9112 85.1074H91.9088H91.9092L91.3388 85.1082H91.2862H90.9876C90.9169 85.1086 90.8454 85.1227 90.7735 85.1511C90.7016 85.1796 90.6301 85.2185 90.5594 85.2678C90.4883 85.3171 90.4196 85.3748 90.3532 85.4405C90.2868 85.5063 90.2236 85.5768 90.1638 85.6514L90.9287 85.6506L90.0358 86.7662C89.9549 86.8672 89.8586 86.955 89.751 87.026H90.295L90.6726 87.0252C90.7433 87.0252 90.8148 87.0111 90.8867 86.9827C90.9585 86.9542 91.03 86.9153 91.1007 86.866C91.1718 86.8167 91.2406 86.759 91.307 86.6933C91.3734 86.6275 91.4366 86.557 91.4963 86.4824L90.7303 86.4832L91.6256 85.3676C91.7069 85.2666 91.8027 85.1788 91.9104 85.1082L91.9112 85.1074Z" fill="#020111"/>
<path d="M92.1106 86.4825L92.5729 85.364C92.6138 85.265 92.6766 85.1768 92.756 85.1067L92.2791 85.1075L92.2382 85.2121L92.2374 85.2145L91.5952 86.7687C91.5543 86.8677 91.4915 86.9559 91.4121 87.026L92.3333 87.0248C92.404 87.0248 92.47 87.0108 92.5309 86.9823C92.5918 86.9539 92.6484 86.915 92.7002 86.8657C92.7521 86.8164 92.7988 86.7587 92.8397 86.6929C92.8805 86.6272 92.9163 86.5566 92.9473 86.4817L92.1106 86.4825Z" fill="#020111"/>
<path d="M93.7605 85.1158L93.7173 85.2221V85.2229L93.6839 85.3047L93.0723 86.7839C93.0326 86.8801 92.9729 86.9662 92.8975 87.0368H92.967C93.2255 87.0368 93.4616 86.8724 93.5668 86.6195L94.0866 85.3688C94.1266 85.2726 94.1859 85.1864 94.2614 85.1158L93.7601 85.1162L93.7605 85.1158Z" fill="#020111"/>
<path d="M88.9518 85.115H88.8673C88.8634 85.115 88.8599 85.115 88.8563 85.115H88.8292C88.6886 85.1154 88.5633 85.1186 88.4238 85.1186C88.4223 85.1215 88.4199 85.1259 88.4171 85.1311C88.3068 85.3427 88.2954 85.4413 88.2031 85.6237C88.1229 85.7749 88.0895 85.8057 88.0483 85.813C88.0412 85.8142 88.0039 85.8113 87.9292 85.8121C87.8911 85.8125 87.8122 85.8126 87.7768 85.8126C87.7749 85.8126 87.7537 85.8126 87.7403 85.8126C87.725 85.8126 87.7089 85.8134 87.7002 85.8121C87.8008 85.5792 87.9017 85.3479 88.0019 85.1158C87.1966 85.1058 86.3795 85.1547 85.5715 85.1708C85.9537 85.1836 86.3359 85.1968 86.7185 85.2076C87.01 85.2157 87.3031 85.2201 87.5953 85.2261C87.6283 85.2269 87.6507 85.2545 87.6421 85.2874C87.6319 85.3259 87.6001 85.3508 87.5608 85.3516C86.9079 85.3672 86.255 85.3828 85.6021 85.3989C85.4685 85.4021 85.335 85.4057 85.2014 85.4093C85.3817 85.4157 85.5624 85.4209 85.7427 85.4261C86.0924 85.4357 86.442 85.4458 86.7916 85.4542C86.9802 85.459 87.1695 85.4614 87.3585 85.465C87.3985 85.4658 87.4158 85.4903 87.4044 85.5287C87.3926 85.5676 87.3628 85.5901 87.3211 85.5901C87.2665 85.5901 87.2123 85.5889 87.1577 85.5909C86.7712 85.6037 86.3842 85.6177 85.9973 85.6306C85.8653 85.635 85.7337 85.6382 85.6021 85.6418C85.6964 85.649 85.7922 85.6534 85.8881 85.6562C86.3897 85.6706 86.8914 85.6851 87.3926 85.6995C87.4249 85.7003 87.4461 85.7276 87.4378 85.7592C87.428 85.7977 87.3966 85.8226 87.3573 85.8238C86.8061 85.8366 86.2554 85.849 85.7042 85.8619C85.555 85.8655 85.4057 85.8691 85.2568 85.8727C85.3193 85.8787 85.3841 85.8775 85.4481 85.8791C85.8421 85.8895 86.2357 85.9007 86.6294 85.9112C86.8014 85.9156 86.9739 85.918 87.1459 85.922C87.1837 85.9228 87.2005 85.95 87.1876 85.9885C87.1758 86.0238 87.1428 86.0467 87.1063 86.0479C87.0827 86.0487 87.0595 86.0479 87.0363 86.0483C86.6514 86.0587 86.266 86.0695 85.881 86.0799C85.6438 86.0863 85.4065 86.092 85.1692 86.098C85.1692 86.0988 85.1684 86.0996 85.168 86.1004C85.1779 86.1004 85.1881 86.1004 85.1975 86.1004C85.7486 86.1148 86.2994 86.1296 86.8505 86.1441C86.8918 86.1453 86.9338 86.1441 86.9743 86.1469C87.0049 86.1485 87.0194 86.1769 87.0096 86.2094C86.9994 86.2439 86.9676 86.2699 86.935 86.2711C86.4946 86.2852 86.0539 86.2996 85.6135 86.3136C85.5668 86.3152 85.5212 86.3136 85.4748 86.3136C85.474 86.3164 85.4733 86.3192 85.4725 86.3225C85.6548 86.3285 85.837 86.3345 86.0197 86.3397C86.3654 86.3493 86.7111 86.3585 87.0568 86.3678C87.0627 86.3678 87.0689 86.3678 87.0741 86.369C87.1098 86.3786 87.1137 86.4331 87.078 86.466C87.0619 86.4808 87.0367 86.4916 87.0191 86.492C86.935 86.4948 86.8529 86.4916 86.7688 86.494C86.4231 86.5048 86.0774 86.5169 85.7317 86.5285C85.6241 86.5321 85.5165 86.5349 85.4088 86.5381C85.4081 86.5413 85.4069 86.5441 85.4061 86.5473C85.4705 86.5473 85.5353 86.5457 85.599 86.5473C86.0448 86.5594 86.4903 86.5722 86.9358 86.585C86.9452 86.585 86.9554 86.5862 86.9633 86.5902C86.9849 86.6019 86.9888 86.6315 86.9751 86.6612C86.9609 86.6908 86.9338 86.7101 86.9036 86.7105C86.8211 86.7113 86.7398 86.7089 86.6569 86.7113C86.3143 86.7221 85.9714 86.7341 85.6284 86.7458C85.5239 86.7494 85.4194 86.7522 85.315 86.755C85.4387 86.7618 85.5624 86.7674 85.6874 86.7702C86.033 86.779 86.3795 86.7867 86.7252 86.7951C86.7339 86.7951 86.7433 86.7951 86.7511 86.7975C86.7743 86.8051 86.7834 86.8328 86.7731 86.862C86.7629 86.8909 86.735 86.9165 86.7087 86.9201C86.6997 86.9213 86.6906 86.9209 86.682 86.9205C86.5378 86.9189 86.3948 86.9137 86.2495 86.9169C85.87 86.9254 85.4894 86.9378 85.1091 86.9478C84.9626 86.9518 84.8161 86.9546 84.6699 86.9578C85.507 86.9755 86.3359 87.0192 87.1813 87.0119C87.188 86.9975 87.1935 86.9859 87.1986 86.9747C87.2988 86.7434 87.3989 86.5121 87.4979 86.2804C87.5093 86.2539 87.5195 86.2467 87.5415 86.2467C87.6621 86.2479 87.7831 86.2467 87.9037 86.2467C87.9124 86.2467 87.9206 86.2479 87.932 86.2487C87.8648 86.4046 87.7953 86.5646 87.7262 86.7233C87.6778 86.8348 87.6103 86.9366 87.5266 87.0236H87.5961C87.7521 87.0236 87.9222 87.0236 88.0777 87.0236C88.3001 86.5089 88.5032 85.9829 88.7188 85.4638C88.773 85.3327 88.8524 85.2141 88.9514 85.113L88.9518 85.115Z" fill="#020111"/>
</g>
<path d="M82.2021 76.4329L85.8075 78.5144L85.8075 74.3513L82.2021 76.4329ZM96.6234 76.4329L93.0181 74.3513L93.0181 78.5144L96.6234 76.4329ZM85.4469 76.7934L93.3787 76.7934L93.3787 76.0723L85.4469 76.0723L85.4469 76.7934Z" fill="#25243A"/>
<path d="M55.7354 37.2206V45.6112H54.7193V38.2858H54.6701L52.6217 39.646V38.6136L54.7193 37.2206H55.7354ZM61.5407 45.6112V37.2206H64.4742C65.0587 37.2206 65.5407 37.3217 65.9204 37.5238C66.3001 37.7232 66.5827 37.9922 66.7685 38.3309C66.9542 38.6669 67.0471 39.0397 67.0471 39.4494C67.0471 39.8099 66.9829 40.1076 66.8545 40.3425C66.7289 40.5774 66.5623 40.7631 66.3547 40.8997C66.1498 41.0363 65.9272 41.1373 65.6869 41.2029V41.2848C65.9436 41.3012 66.2017 41.3913 66.4612 41.5552C66.7207 41.7191 66.9378 41.954 67.1126 42.2599C67.2874 42.5658 67.3748 42.94 67.3748 43.3825C67.3748 43.8031 67.2792 44.1814 67.088 44.5173C66.8968 44.8533 66.595 45.1196 66.1826 45.3162C65.7702 45.5129 65.2335 45.6112 64.5725 45.6112H61.5407ZM62.5568 44.7099H64.5725C65.2362 44.7099 65.7074 44.5815 65.986 44.3248C66.2673 44.0653 66.4079 43.7512 66.4079 43.3825C66.4079 43.0984 66.3356 42.8362 66.1908 42.5958C66.046 42.3528 65.8398 42.1588 65.5722 42.0141C65.3045 41.8666 64.9877 41.7928 64.6217 41.7928H62.5568V44.7099ZM62.5568 40.9079H64.4414C64.7473 40.9079 65.0232 40.8478 65.269 40.7276C65.5175 40.6075 65.7142 40.4381 65.8589 40.2196C66.0064 40.0011 66.0802 39.7444 66.0802 39.4494C66.0802 39.0807 65.9518 38.7679 65.6951 38.5112C65.4383 38.2517 65.0314 38.122 64.4742 38.122H62.5568V40.9079ZM71.4697 45.7423C70.9016 45.7423 70.4032 45.6071 69.9743 45.3367C69.5483 45.0663 69.215 44.688 68.9747 44.2019C68.7371 43.7157 68.6182 43.1476 68.6182 42.4975C68.6182 41.842 68.7371 41.2698 68.9747 40.7809C69.215 40.292 69.5483 39.9123 69.9743 39.6419C70.4032 39.3715 70.9016 39.2363 71.4697 39.2363C72.0378 39.2363 72.5349 39.3715 72.961 39.6419C73.3898 39.9123 73.7231 40.292 73.9607 40.7809C74.201 41.2698 74.3212 41.842 74.3212 42.4975C74.3212 43.1476 74.201 43.7157 73.9607 44.2019C73.7231 44.688 73.3898 45.0663 72.961 45.3367C72.5349 45.6071 72.0378 45.7423 71.4697 45.7423ZM71.4697 44.8738C71.9013 44.8738 72.2563 44.7631 72.5349 44.5419C72.8135 44.3207 73.0197 44.0298 73.1536 43.6692C73.2874 43.3087 73.3543 42.9181 73.3543 42.4975C73.3543 42.0769 73.2874 41.685 73.1536 41.3217C73.0197 40.9584 72.8135 40.6648 72.5349 40.4408C72.2563 40.2169 71.9013 40.1049 71.4697 40.1049C71.0382 40.1049 70.6831 40.2169 70.4045 40.4408C70.1259 40.6648 69.9197 40.9584 69.7859 41.3217C69.652 41.685 69.5851 42.0769 69.5851 42.4975C69.5851 42.9181 69.652 43.3087 69.7859 43.6692C69.9197 44.0298 70.1259 44.3207 70.4045 44.5419C70.6831 44.7631 71.0382 44.8738 71.4697 44.8738ZM76.2591 39.3183L77.7668 41.8912L79.2744 39.3183H80.3888L78.3567 42.4647L80.3888 45.6112H79.2744L77.7668 43.1694L76.2591 45.6112H75.1447L77.144 42.4647L75.1447 39.3183H76.2591ZM84.1478 45.7423C83.5414 45.7423 83.0184 45.6085 82.5786 45.3408C82.1416 45.0704 81.8043 44.6935 81.5667 44.21C81.3318 43.7239 81.2143 43.1585 81.2143 42.5139C81.2143 41.8693 81.3318 41.3012 81.5667 40.8096C81.8043 40.3152 82.1348 39.9301 82.5582 39.6542C82.9842 39.3756 83.4813 39.2363 84.0494 39.2363C84.3772 39.2363 84.7009 39.291 85.0204 39.4002C85.34 39.5095 85.6309 39.687 85.8931 39.9328C86.1553 40.1759 86.3642 40.4982 86.5199 40.8997C86.6756 41.3012 86.7534 41.7956 86.7534 42.3828V42.7925H81.9026V41.9567H85.7702C85.7702 41.6016 85.6992 41.2848 85.5571 41.0062C85.4178 40.7276 85.2184 40.5078 84.959 40.3466C84.7022 40.1855 84.3991 40.1049 84.0494 40.1049C83.6643 40.1049 83.3311 40.2005 83.0498 40.3917C82.7712 40.5801 82.5568 40.826 82.4066 41.1291C82.2563 41.4323 82.1812 41.7573 82.1812 42.1042V42.6614C82.1812 43.1366 82.2632 43.5395 82.427 43.87C82.5937 44.1978 82.8245 44.4477 83.1194 44.6197C83.4144 44.7891 83.7572 44.8738 84.1478 44.8738C84.4018 44.8738 84.6312 44.8382 84.8361 44.7672C85.0436 44.6935 85.2225 44.5842 85.3728 44.4395C85.523 44.292 85.6391 44.109 85.721 43.8905L86.6551 44.1527C86.5568 44.4695 86.3915 44.7481 86.1594 44.9885C85.9272 45.2261 85.6404 45.4118 85.299 45.5457C84.9576 45.6768 84.5739 45.7423 84.1478 45.7423Z" fill="#020111"/>
<defs>
<radialGradient id="paint0_radial_2034_96989" cx="0" cy="0" r="1" gradientUnits="userSpaceOnUse" gradientTransform="translate(53.575 103.034) rotate(-45.9796) scale(4.04085 4.05258)">
<stop offset="0.47" stop-color="#CB7E0B"/>
<stop offset="0.94"/>
</radialGradient>
<radialGradient id="paint1_radial_2034_96989" cx="0" cy="0" r="1" gradientUnits="userSpaceOnUse" gradientTransform="translate(53.0669 103.074) rotate(-138.327) scale(0.789336 0.785784)">
<stop offset="0.43" stop-color="#777575"/>
<stop offset="0.91"/>
<stop offset="1" stop-color="#666666"/>
</radialGradient>
<radialGradient id="paint2_radial_2034_96989" cx="0" cy="0" r="1" gradientUnits="userSpaceOnUse" gradientTransform="translate(51.5929 96.208) rotate(163.956) scale(5.27761 5.0634)">
<stop offset="0.75" stop-color="#101010"/>
<stop offset="0.81" stop-color="#666666"/>
<stop offset="1" stop-color="#020202"/>
</radialGradient>
<radialGradient id="paint3_radial_2034_96989" cx="0" cy="0" r="1" gradientUnits="userSpaceOnUse" gradientTransform="translate(83.3242 103.003) rotate(-5.95142) scale(4.14544 3.95033)">
<stop offset="0.47" stop-color="#CB7E0B"/>
<stop offset="0.94"/>
</radialGradient>
<radialGradient id="paint4_radial_2034_96989" cx="0" cy="0" r="1" gradientUnits="userSpaceOnUse" gradientTransform="translate(83.6612 103.016) rotate(-156.704) scale(0.724087 0.700416)">
<stop offset="0.43" stop-color="#777575"/>
<stop offset="0.91"/>
<stop offset="1" stop-color="#666666"/>
</radialGradient>
<radialGradient id="paint5_radial_2034_96989" cx="0" cy="0" r="1" gradientUnits="userSpaceOnUse" gradientTransform="translate(82.825 103.073) rotate(-138.327) scale(0.789336 0.785783)">
<stop offset="0.43" stop-color="#777575"/>
<stop offset="0.91"/>
<stop offset="1" stop-color="#666666"/>
</radialGradient>
<radialGradient id="paint6_radial_2034_96989" cx="0" cy="0" r="1" gradientUnits="userSpaceOnUse" gradientTransform="translate(87.0457 95.9504) rotate(-156.704) scale(5.25603 5.0842)">
<stop offset="0.75" stop-color="#101010"/>
<stop offset="0.81" stop-color="#666666"/>
<stop offset="1" stop-color="#020202"/>
</radialGradient>
<linearGradient id="paint7_linear_2034_96989" x1="60.5411" y1="88.3941" x2="61.8366" y2="89.2781" gradientUnits="userSpaceOnUse">
<stop stop-color="#FFEFA3"/>
<stop offset="1" stop-color="#E0B019"/>
</linearGradient>
<linearGradient id="paint8_linear_2034_96989" x1="59.7984" y1="88.9297" x2="62.7182" y2="88.9297" gradientUnits="userSpaceOnUse">
<stop stop-color="#FFEFA3"/>
<stop offset="1" stop-color="#E0B019"/>
</linearGradient>
<linearGradient id="paint9_linear_2034_96989" x1="72.3744" y1="105.866" x2="72.3744" y2="89.3177" gradientUnits="userSpaceOnUse">
<stop stop-color="#FFEFA3"/>
<stop offset="1" stop-color="#E0B019"/>
</linearGradient>
<linearGradient id="paint10_linear_2034_96989" x1="53.7838" y1="102.895" x2="55.609" y2="97.6297" gradientUnits="userSpaceOnUse">
<stop stop-color="#FFEFA3"/>
<stop offset="1" stop-color="#E0B019"/>
</linearGradient>
<linearGradient id="paint11_linear_2034_96989" x1="76.9483" y1="92.2028" x2="76.9483" y2="95.4602" gradientUnits="userSpaceOnUse">
<stop stop-color="#999999"/>
<stop offset="0.17" stop-color="#818181"/>
<stop offset="0.38" stop-color="#666666"/>
<stop offset="1" stop-color="#191919"/>
</linearGradient>
<linearGradient id="paint12_linear_2034_96989" x1="82.3225" y1="103.823" x2="82.3225" y2="97.4467" gradientUnits="userSpaceOnUse">
<stop stop-color="#FFEFA3"/>
<stop offset="1" stop-color="#E0B019"/>
</linearGradient>
<linearGradient id="paint13_linear_2034_96989" x1="75.0929" y1="100.635" x2="89.6229" y2="100.635" gradientUnits="userSpaceOnUse">
<stop stop-color="#FFEFA3"/>
<stop offset="1" stop-color="#E0B019"/>
</linearGradient>
<linearGradient id="paint14_linear_2034_96989" x1="60.8594" y1="85.5497" x2="60.8594" y2="88.1899" gradientUnits="userSpaceOnUse">
<stop stop-color="#FFEFA3"/>
<stop offset="1" stop-color="#E0B019"/>
</linearGradient>
<linearGradient id="paint15_linear_2034_96989" x1="58.541" y1="86.8574" x2="63.1697" y2="86.8574" gradientUnits="userSpaceOnUse">
<stop stop-color="#FFEFA3"/>
<stop offset="1" stop-color="#E0B019"/>
</linearGradient>
<linearGradient id="paint16_linear_2034_96989" x1="57.9586" y1="88.1901" x2="57.9586" y2="85.5498" gradientUnits="userSpaceOnUse">
<stop offset="0.03" stop-color="#191919"/>
<stop offset="0.13" stop-color="#666666"/>
<stop offset="0.47" stop-color="white"/>
<stop offset="0.8" stop-color="#666666"/>
<stop offset="0.99" stop-color="#191919"/>
</linearGradient>
<linearGradient id="paint17_linear_2034_96989" x1="59.9027" y1="102.891" x2="72.1098" y2="102.891" gradientUnits="userSpaceOnUse">
<stop stop-color="#FFEFA3"/>
<stop offset="1" stop-color="#E0B019"/>
</linearGradient>
<linearGradient id="paint18_linear_2034_96989" x1="71.1691" y1="97.6761" x2="82.5303" y2="97.6761" gradientUnits="userSpaceOnUse">
<stop stop-color="#FFEFA3"/>
<stop offset="1" stop-color="#E0B019"/>
</linearGradient>
<linearGradient id="paint19_linear_2034_96989" x1="89.4824" y1="91.2016" x2="89.4824" y2="80.9226" gradientUnits="userSpaceOnUse">
<stop stop-color="#FFEFA3"/>
<stop offset="1" stop-color="#E0B019"/>
</linearGradient>
<clipPath id="clip0_2034_96989">
<rect width="14.4213" height="14.4213" fill="white" transform="translate(111.59 8.65271)"/>
</clipPath>
<clipPath id="clip1_2034_96989">
<rect width="54.8009" height="28.8426" fill="white" transform="translate(41.8213 80.7593)"/>
</clipPath>
</defs>
</svg>
