<svg width="140" height="145" viewBox="0 0 140 145" fill="none" xmlns="http://www.w3.org/2000/svg">
<rect x="0.888672" width="138.444" height="144.213" fill="white"/>
<path d="M48.9976 15.8364H46.7545C46.7136 15.5462 46.6299 15.2884 46.5036 15.0631C46.3773 14.8343 46.2151 14.6397 46.0171 14.4793C45.8191 14.3188 45.5903 14.1959 45.3308 14.1105C45.0748 14.0252 44.7965 13.9825 44.4961 13.9825C43.9532 13.9825 43.4804 14.1174 43.0775 14.3871C42.6746 14.6534 42.3622 15.0426 42.1403 15.5547C41.9184 16.0634 41.8074 16.6814 41.8074 17.4086C41.8074 18.1563 41.9184 18.7845 42.1403 19.2932C42.3657 19.8019 42.6798 20.186 43.0826 20.4455C43.4855 20.7049 43.9515 20.8347 44.4807 20.8347C44.7777 20.8347 45.0526 20.7954 45.3052 20.7169C45.5613 20.6384 45.7883 20.524 45.9863 20.3738C46.1844 20.2201 46.3482 20.0341 46.478 19.8156C46.6111 19.5971 46.7033 19.3478 46.7545 19.0679L48.9976 19.0781C48.9396 19.5595 48.7945 20.0238 48.5623 20.4711C48.3336 20.9149 48.0246 21.3127 47.6354 21.6643C47.2496 22.0126 46.7887 22.2891 46.2526 22.494C45.72 22.6954 45.1174 22.7961 44.4449 22.7961C43.5094 22.7961 42.6729 22.5844 41.9355 22.1611C41.2014 21.7377 40.621 21.1249 40.1943 20.3226C39.7709 19.5202 39.5592 18.5489 39.5592 17.4086C39.5592 16.2649 39.7743 15.2918 40.2045 14.4895C40.6347 13.6872 41.2185 13.0761 41.956 12.6561C42.6934 12.2328 43.523 12.0211 44.4449 12.0211C45.0526 12.0211 45.6159 12.1065 46.1349 12.2772C46.6572 12.4479 47.1198 12.6971 47.5227 13.0249C47.9256 13.3492 48.2533 13.7469 48.506 14.2181C48.762 14.6892 48.9259 15.2287 48.9976 15.8364ZM50.5877 22.6527V12.1645H52.8052V20.8244H57.3016V22.6527H50.5877ZM60.8455 22.6527H58.4693L62.09 12.1645H64.9476L68.5632 22.6527H66.1869L63.5597 14.5612H63.4778L60.8455 22.6527ZM60.697 18.5301H66.3098V20.2611H60.697V18.5301ZM75.2758 15.1809C75.2348 14.7678 75.059 14.4468 74.7483 14.2181C74.4376 13.9893 74.016 13.875 73.4833 13.875C73.1214 13.875 72.8159 13.9262 72.5667 14.0286C72.3174 14.1276 72.1262 14.2659 71.9931 14.4434C71.8633 14.621 71.7985 14.8224 71.7985 15.0477C71.7916 15.2355 71.8309 15.3994 71.9163 15.5394C72.005 15.6793 72.1262 15.8005 72.2799 15.903C72.4335 16.002 72.611 16.089 72.8125 16.1642C73.0139 16.2358 73.229 16.2973 73.4577 16.3485L74.4 16.5738C74.8575 16.6763 75.2775 16.8128 75.6599 16.9835C76.0422 17.1542 76.3734 17.3642 76.6534 17.6134C76.9333 17.8627 77.1501 18.1563 77.3038 18.4943C77.4608 18.8323 77.541 19.2198 77.5445 19.6568C77.541 20.2987 77.3772 20.8552 77.0528 21.3263C76.7319 21.7941 76.2676 22.1577 75.6599 22.4171C75.0556 22.6732 74.3266 22.8012 73.4731 22.8012C72.6264 22.8012 71.8889 22.6715 71.2607 22.412C70.636 22.1525 70.1477 21.7684 69.7961 21.2597C69.4478 20.7476 69.2652 20.1143 69.2481 19.3598H71.3939C71.4178 19.7114 71.5185 20.005 71.696 20.2406C71.877 20.4728 72.1177 20.6486 72.4181 20.7681C72.722 20.8842 73.0651 20.9422 73.4475 20.9422C73.8231 20.9422 74.1491 20.8876 74.4256 20.7784C74.7056 20.6691 74.9224 20.5172 75.076 20.3226C75.2297 20.128 75.3065 19.9043 75.3065 19.6517C75.3065 19.4161 75.2365 19.2181 75.0965 19.0576C74.96 18.8972 74.7585 18.7606 74.4922 18.6479C74.2293 18.5353 73.9067 18.4328 73.5243 18.3407L72.3823 18.0539C71.498 17.8388 70.7998 17.5025 70.2877 17.045C69.7756 16.5875 69.5212 15.9713 69.5247 15.1962C69.5212 14.5612 69.6902 14.0064 70.0317 13.5319C70.3765 13.0573 70.8493 12.6869 71.4502 12.4206C72.0511 12.1543 72.7339 12.0211 73.4987 12.0211C74.2771 12.0211 74.9565 12.1543 75.5369 12.4206C76.1208 12.6869 76.5748 13.0573 76.8992 13.5319C77.2235 14.0064 77.3908 14.5561 77.4011 15.1809H75.2758ZM84.7257 15.1809C84.6847 14.7678 84.5089 14.4468 84.1982 14.2181C83.8875 13.9893 83.4658 13.875 82.9332 13.875C82.5713 13.875 82.2658 13.9262 82.0165 14.0286C81.7673 14.1276 81.5761 14.2659 81.443 14.4434C81.3132 14.621 81.2484 14.8224 81.2484 15.0477C81.2415 15.2355 81.2808 15.3994 81.3662 15.5394C81.4549 15.6793 81.5761 15.8005 81.7298 15.903C81.8834 16.002 82.0609 16.089 82.2624 16.1642C82.4638 16.2358 82.6789 16.2973 82.9076 16.3485L83.8499 16.5738C84.3074 16.6763 84.7274 16.8128 85.1097 16.9835C85.4921 17.1542 85.8233 17.3642 86.1033 17.6134C86.3832 17.8627 86.6 18.1563 86.7537 18.4943C86.9107 18.8323 86.9909 19.2198 86.9943 19.6568C86.9909 20.2987 86.8271 20.8552 86.5027 21.3263C86.1818 21.7941 85.7175 22.1577 85.1097 22.4171C84.5054 22.6732 83.7765 22.8012 82.923 22.8012C82.0763 22.8012 81.3388 22.6715 80.7106 22.412C80.0859 22.1525 79.5976 21.7684 79.246 21.2597C78.8977 20.7476 78.7151 20.1143 78.698 19.3598H80.8438C80.8677 19.7114 80.9684 20.005 81.1459 20.2406C81.3269 20.4728 81.5676 20.6486 81.868 20.7681C82.1719 20.8842 82.515 20.9422 82.8974 20.9422C83.2729 20.9422 83.599 20.8876 83.8755 20.7784C84.1555 20.6691 84.3723 20.5172 84.5259 20.3226C84.6796 20.128 84.7564 19.9043 84.7564 19.6517C84.7564 19.4161 84.6864 19.2181 84.5464 19.0576C84.4099 18.8972 84.2084 18.7606 83.9421 18.6479C83.6792 18.5353 83.3566 18.4328 82.9742 18.3407L81.8322 18.0539C80.9479 17.8388 80.2497 17.5025 79.7376 17.045C79.2255 16.5875 78.9711 15.9713 78.9746 15.1962C78.9711 14.5612 79.1401 14.0064 79.4815 13.5319C79.8264 13.0573 80.2992 12.6869 80.9001 12.4206C81.501 12.1543 82.1838 12.0211 82.9486 12.0211C83.727 12.0211 84.4064 12.1543 84.9868 12.4206C85.5707 12.6869 86.0247 13.0573 86.3491 13.5319C86.6734 14.0064 86.8407 14.5561 86.851 15.1809H84.7257ZM90.7034 12.1645V22.6527H88.4859V12.1645H90.7034ZM101.782 15.8364H99.5387C99.4978 15.5462 99.4141 15.2884 99.2878 15.0631C99.1615 14.8343 98.9993 14.6397 98.8013 14.4793C98.6033 14.3188 98.3745 14.1959 98.115 14.1105C97.859 14.0252 97.5807 13.9825 97.2803 13.9825C96.7374 13.9825 96.2646 14.1174 95.8617 14.3871C95.4588 14.6534 95.1464 15.0426 94.9245 15.5547C94.7026 16.0634 94.5917 16.6814 94.5917 17.4086C94.5917 18.1563 94.7026 18.7845 94.9245 19.2932C95.1499 19.8019 95.464 20.186 95.8668 20.4455C96.2697 20.7049 96.7357 20.8347 97.2649 20.8347C97.5619 20.8347 97.8368 20.7954 98.0894 20.7169C98.3455 20.6384 98.5725 20.524 98.7705 20.3738C98.9686 20.2201 99.1324 20.0341 99.2622 19.8156C99.3953 19.5971 99.4875 19.3478 99.5387 19.0679L101.782 19.0781C101.724 19.5595 101.579 20.0238 101.347 20.4711C101.118 20.9149 100.809 21.3127 100.42 21.6643C100.034 22.0126 99.5729 22.2891 99.0369 22.494C98.5042 22.6954 97.9017 22.7961 97.2291 22.7961C96.2936 22.7961 95.4571 22.5844 94.7197 22.1611C93.9856 21.7377 93.4052 21.1249 92.9785 20.3226C92.5551 19.5202 92.3434 18.5489 92.3434 17.4086C92.3434 16.2649 92.5585 15.2918 92.9887 14.4895C93.4189 13.6872 94.0027 13.0761 94.7402 12.6561C95.4776 12.2328 96.3073 12.0211 97.2291 12.0211C97.8368 12.0211 98.4001 12.1065 98.9191 12.2772C99.4414 12.4479 99.904 12.6971 100.307 13.0249C100.71 13.3492 101.038 13.7469 101.29 14.2181C101.546 14.6892 101.71 15.2287 101.782 15.8364Z" fill="#020111"/>
<path d="M56.0004 38.0947V37.3573L58.7699 34.3255C59.095 33.9705 59.3626 33.6618 59.5729 33.3996C59.7833 33.1347 59.9389 32.8861 60.04 32.654C60.1438 32.4191 60.1957 32.1733 60.1957 31.9165C60.1957 31.6215 60.1247 31.3662 59.9826 31.1504C59.8433 30.9346 59.6521 30.768 59.4091 30.6506C59.166 30.5331 58.8928 30.4744 58.5897 30.4744C58.2674 30.4744 57.9861 30.5413 57.7457 30.6751C57.5081 30.8062 57.3237 30.9906 57.1926 31.2282C57.0642 31.4658 57 31.7444 57 32.064H56.0332C56.0332 31.5724 56.1465 31.1408 56.3732 30.7694C56.5999 30.3979 56.9086 30.1084 57.2991 29.9008C57.6924 29.6932 58.1335 29.5894 58.6224 29.5894C59.1141 29.5894 59.5497 29.6932 59.9294 29.9008C60.309 30.1084 60.6067 30.3883 60.8225 30.7407C61.0383 31.093 61.1462 31.485 61.1462 31.9165C61.1462 32.2251 61.0902 32.527 60.9782 32.8219C60.8689 33.1142 60.6778 33.4406 60.4046 33.8011C60.1342 34.1589 59.7587 34.5959 59.278 35.1121L57.3934 37.1278V37.1934H61.2937V38.0947H56.0004ZM63.7068 38.1603C63.5047 38.1603 63.3312 38.0879 63.1865 37.9431C63.0417 37.7984 62.9693 37.6249 62.9693 37.4228C62.9693 37.2207 63.0417 37.0473 63.1865 36.9025C63.3312 36.7578 63.5047 36.6854 63.7068 36.6854C63.9089 36.6854 64.0823 36.7578 64.2271 36.9025C64.3718 37.0473 64.4442 37.2207 64.4442 37.4228C64.4442 37.5567 64.4101 37.6796 64.3418 37.7916C64.2762 37.9035 64.1875 37.9937 64.0755 38.062C63.9662 38.1275 63.8433 38.1603 63.7068 38.1603ZM68.6559 38.2094C68.3118 38.204 67.9676 38.1384 67.6235 38.0128C67.2793 37.8871 66.9652 37.6755 66.6812 37.3778C66.3971 37.0773 66.169 36.6717 65.997 36.161C65.8249 35.6475 65.7389 35.0029 65.7389 34.2272C65.7389 33.4843 65.8085 32.826 65.9478 32.2525C66.0871 31.6762 66.2892 31.1913 66.5542 30.798C66.8191 30.402 67.1387 30.1016 67.5128 29.8967C67.8898 29.6919 68.3145 29.5894 68.787 29.5894C69.2568 29.5894 69.6747 29.6837 70.0407 29.8721C70.4094 30.0579 70.7098 30.3173 70.942 30.6506C71.1742 30.9838 71.3244 31.3675 71.3927 31.8018H70.393C70.3001 31.4249 70.1199 31.1121 69.8522 30.8636C69.5845 30.615 69.2295 30.4908 68.787 30.4908C68.137 30.4908 67.6248 30.7735 67.2506 31.3388C66.8792 31.9042 66.6921 32.6977 66.6894 33.7192H66.7549C66.9079 33.487 67.0895 33.289 67.2998 33.1251C67.5128 32.9585 67.7477 32.8301 68.0045 32.74C68.2612 32.6499 68.533 32.6048 68.8198 32.6048C69.3005 32.6048 69.7402 32.725 70.139 32.9653C70.5378 33.203 70.8573 33.5321 71.0977 33.9527C71.338 34.3706 71.4582 34.8499 71.4582 35.3907C71.4582 35.9097 71.3421 36.3849 71.11 36.8165C70.8778 37.2453 70.5514 37.5867 70.1308 37.8407C69.7129 38.092 69.2213 38.2149 68.6559 38.2094ZM68.6559 37.3081C69 37.3081 69.3087 37.2221 69.5818 37.05C69.8577 36.8779 70.0748 36.6471 70.2332 36.3576C70.3944 36.0681 70.4749 35.7458 70.4749 35.3907C70.4749 35.0439 70.3971 34.7284 70.2414 34.4443C70.0885 34.1575 69.8768 33.9295 69.6064 33.7601C69.3387 33.5908 69.0328 33.5061 68.6887 33.5061C68.4292 33.5061 68.1875 33.558 67.9635 33.6618C67.7395 33.7629 67.5429 33.9022 67.3736 34.0797C67.2069 34.2572 67.0758 34.4607 66.9802 34.6902C66.8846 34.9169 66.8368 35.1558 66.8368 35.4071C66.8368 35.7403 66.9147 36.0517 67.0704 36.3412C67.2288 36.6307 67.4446 36.8643 67.7177 37.0418C67.9936 37.2193 68.3063 37.3081 68.6559 37.3081ZM73.2168 29.7042H74.4295L77.281 36.669H77.3793L80.2308 29.7042H81.4435V38.0947H80.493V31.7199H80.4111L77.789 38.0947H76.8713L74.2493 31.7199H74.1673V38.0947H73.2168V29.7042Z" fill="#020111"/>
<path d="M84.3831 31.7101C84.1127 31.7101 83.8716 31.6636 83.66 31.5708C83.4497 31.4779 83.2824 31.3489 83.1581 31.1836C83.0352 31.017 82.9683 30.8238 82.9573 30.6039H83.4736C83.4845 30.7391 83.5309 30.8559 83.6128 30.9542C83.6948 31.0511 83.802 31.1263 83.9345 31.1795C84.0669 31.2328 84.2137 31.2594 84.3749 31.2594C84.5551 31.2594 84.7149 31.228 84.8542 31.1652C84.9935 31.1024 85.1028 31.0149 85.182 30.903C85.2612 30.791 85.3008 30.6612 85.3008 30.5138C85.3008 30.3594 85.2626 30.2236 85.1861 30.1061C85.1096 29.9873 84.9976 29.8944 84.8501 29.8275C84.7026 29.7606 84.5224 29.7271 84.3093 29.7271H83.9734V29.2765H84.3093C84.4759 29.2765 84.6221 29.2464 84.7477 29.1863C84.8747 29.1263 84.9737 29.0416 85.0447 28.9323C85.1171 28.8231 85.1533 28.6947 85.1533 28.5472C85.1533 28.4052 85.1219 28.2816 85.0591 28.1764C84.9963 28.0713 84.9075 27.9893 84.7928 27.9306C84.6794 27.8719 84.5456 27.8425 84.3913 27.8425C84.2465 27.8425 84.1099 27.8692 83.9816 27.9224C83.8546 27.9743 83.7508 28.0501 83.6702 28.1498C83.5896 28.2481 83.5459 28.3669 83.5391 28.5062H83.0475C83.0557 28.2864 83.1219 28.0938 83.2462 27.9286C83.3704 27.762 83.533 27.6322 83.7337 27.5394C83.9358 27.4465 84.1577 27.4001 84.3995 27.4001C84.6589 27.4001 84.8815 27.4526 85.0673 27.5578C85.253 27.6616 85.3957 27.7988 85.4954 27.9695C85.5951 28.1403 85.6449 28.3246 85.6449 28.5226C85.6449 28.7589 85.5828 28.9603 85.4585 29.1269C85.3356 29.2935 85.1683 29.4089 84.9567 29.4731V29.5059C85.2216 29.5496 85.4285 29.6623 85.5773 29.8439C85.7262 30.0242 85.8006 30.2475 85.8006 30.5138C85.8006 30.7418 85.7385 30.9467 85.6142 31.1283C85.4913 31.3086 85.3233 31.4506 85.1103 31.5544C84.8972 31.6582 84.6548 31.7101 84.3831 31.7101Z" fill="#020111"/>
<g clip-path="url(#clip0_2034_96995)">
<path d="M120.584 8.65259C116.848 8.65259 113.824 11.6759 113.824 15.4123C113.824 17.0504 114.413 18.6201 115.486 19.8511V22.6509C115.486 23.026 115.941 23.2156 116.207 22.9496L117.652 21.5046C122.142 23.6646 127.344 20.3825 127.344 15.4123C127.344 11.6765 124.321 8.65259 120.584 8.65259ZM120.584 19.6625C120.352 19.6625 120.163 19.474 120.163 19.2415C120.163 19.0089 120.352 18.8204 120.584 18.8204C120.817 18.8204 121.005 19.0089 121.005 19.2415C121.005 19.474 120.817 19.6625 120.584 19.6625ZM121.007 16.6728V17.5515C121.007 17.7848 120.818 17.974 120.584 17.974C120.351 17.974 120.162 17.7848 120.162 17.5515V16.2855C120.162 16.0521 120.351 15.863 120.584 15.863C121.517 15.863 122.276 15.1042 122.276 14.1716C122.276 13.239 121.517 12.4803 120.584 12.4803C119.652 12.4803 118.893 13.239 118.893 14.1716C118.893 14.405 118.704 14.5941 118.47 14.5941C118.237 14.5941 118.048 14.4049 118.048 14.1716C118.048 12.7731 119.186 11.6353 120.584 11.6353C121.983 11.6353 123.121 12.7731 123.121 14.1716C123.121 15.4263 122.205 16.471 121.007 16.6728Z" fill="#25243A"/>
</g>
<path d="M82.0827 68.0116V67.6429L83.4675 66.127C83.63 65.9495 83.7638 65.7951 83.869 65.664C83.9741 65.5316 84.052 65.4073 84.1025 65.2912C84.1544 65.1738 84.1804 65.0509 84.1804 64.9225C84.1804 64.775 84.1449 64.6473 84.0738 64.5394C84.0042 64.4315 83.9086 64.3482 83.7871 64.2895C83.6655 64.2308 83.5289 64.2014 83.3774 64.2014C83.2162 64.2014 83.0755 64.2349 82.9554 64.3018C82.8366 64.3674 82.7444 64.4595 82.6788 64.5783C82.6146 64.6972 82.5825 64.8365 82.5825 64.9962H82.0991C82.0991 64.7504 82.1558 64.5346 82.2691 64.3489C82.3825 64.1632 82.5368 64.0184 82.7321 63.9146C82.9287 63.8108 83.1493 63.759 83.3937 63.759C83.6396 63.759 83.8574 63.8108 84.0472 63.9146C84.237 64.0184 84.3859 64.1584 84.4938 64.3346C84.6017 64.5107 84.6556 64.7067 84.6556 64.9225C84.6556 65.0768 84.6276 65.2277 84.5716 65.3752C84.517 65.5213 84.4214 65.6845 84.2848 65.8648C84.1496 66.0437 83.9619 66.2622 83.7215 66.5203L82.7792 67.5282V67.5609H84.7294V68.0116H82.0827ZM85.5836 68.0116V64.8651H86.0506V65.3568H86.0916C86.1571 65.1888 86.263 65.0584 86.4091 64.9655C86.5552 64.8713 86.7307 64.8242 86.9356 64.8242C87.1431 64.8242 87.3159 64.8713 87.4538 64.9655C87.5931 65.0584 87.7017 65.1888 87.7795 65.3568H87.8123C87.8929 65.1943 88.0137 65.0652 88.1749 64.9696C88.336 64.8726 88.5293 64.8242 88.7546 64.8242C89.0359 64.8242 89.2661 64.9122 89.445 65.0884C89.6239 65.2632 89.7133 65.5357 89.7133 65.9058V68.0116H89.2299V65.9058C89.2299 65.6736 89.1664 65.5077 89.0394 65.408C88.9123 65.3083 88.7628 65.2584 88.5907 65.2584C88.3695 65.2584 88.1981 65.3254 88.0766 65.4592C87.955 65.5917 87.8943 65.7596 87.8943 65.9631V68.0116H87.4026V65.8566C87.4026 65.6777 87.3446 65.5336 87.2285 65.4244C87.1124 65.3137 86.9629 65.2584 86.7799 65.2584C86.6542 65.2584 86.5368 65.2919 86.4275 65.3588C86.3197 65.4257 86.2323 65.5186 86.1653 65.6374C86.0998 65.7549 86.067 65.8907 86.067 66.0451V68.0116H85.5836Z" fill="#020111"/>
<path d="M60.8637 133.465L63.6783 127.898V127.848H60.4335V127.172H64.4649V127.885L61.6626 133.465H60.8637ZM67.5277 133.551C67.0647 133.551 66.6704 133.425 66.3447 133.173C66.019 132.919 65.7701 132.552 65.598 132.07C65.4259 131.587 65.3399 131.003 65.3399 130.319C65.3399 129.639 65.4259 129.058 65.598 128.577C65.7721 128.093 66.022 127.724 66.3477 127.47C66.6755 127.214 67.0688 127.086 67.5277 127.086C67.9865 127.086 68.3788 127.214 68.7045 127.47C69.0323 127.724 69.2822 128.093 69.4543 128.577C69.6284 129.058 69.7154 129.639 69.7154 130.319C69.7154 131.003 69.6294 131.587 69.4573 132.07C69.2853 132.552 69.0364 132.919 68.7107 133.173C68.3849 133.425 67.9906 133.551 67.5277 133.551ZM67.5277 132.875C67.9865 132.875 68.343 132.654 68.597 132.212C68.851 131.769 68.978 131.138 68.978 130.319C68.978 129.774 68.9196 129.31 68.8028 128.927C68.6881 128.544 68.5222 128.252 68.3051 128.051C68.09 127.85 67.8308 127.75 67.5277 127.75C67.0729 127.75 66.7175 127.974 66.4614 128.423C66.2054 128.87 66.0773 129.502 66.0773 130.319C66.0773 130.864 66.1347 131.327 66.2494 131.708C66.3641 132.089 66.529 132.379 66.7441 132.577C66.9613 132.776 67.2224 132.875 67.5277 132.875ZM72.9356 133.551C72.4727 133.551 72.0784 133.425 71.7526 133.173C71.4269 132.919 71.178 132.552 71.006 132.07C70.8339 131.587 70.7479 131.003 70.7479 130.319C70.7479 129.639 70.8339 129.058 71.006 128.577C71.1801 128.093 71.43 127.724 71.7557 127.47C72.0835 127.214 72.4768 127.086 72.9356 127.086C73.3945 127.086 73.7868 127.214 74.1125 127.47C74.4403 127.724 74.6902 128.093 74.8622 128.577C75.0364 129.058 75.1234 129.639 75.1234 130.319C75.1234 131.003 75.0374 131.587 74.8653 132.07C74.6932 132.552 74.4443 132.919 74.1186 133.173C73.7929 133.425 73.3986 133.551 72.9356 133.551ZM72.9356 132.875C73.3945 132.875 73.7509 132.654 74.0049 132.212C74.259 131.769 74.386 131.138 74.386 130.319C74.386 129.774 74.3276 129.31 74.2108 128.927C74.0961 128.544 73.9302 128.252 73.713 128.051C73.498 127.85 73.2388 127.75 72.9356 127.75C72.4809 127.75 72.1255 127.974 71.8694 128.423C71.6133 128.87 71.4853 129.502 71.4853 130.319C71.4853 130.864 71.5427 131.327 71.6574 131.708C71.7721 132.089 71.937 132.379 72.1521 132.577C72.3692 132.776 72.6304 132.875 72.9356 132.875ZM79.4129 131.745L79.4006 130.847H79.5481L81.613 128.746H82.5102L80.3102 130.97H80.2487L79.4129 131.745ZM78.7369 133.465V127.172H79.4621V133.465H78.7369ZM81.7359 133.465L79.8923 131.13L80.4085 130.626L82.6577 133.465H81.7359ZM85.1543 135.334C84.804 135.334 84.5029 135.288 84.2509 135.198C83.999 135.11 83.789 134.993 83.621 134.848C83.4551 134.705 83.323 134.551 83.2246 134.387L83.8023 133.982C83.8679 134.068 83.9508 134.166 84.0512 134.277C84.1516 134.389 84.2888 134.486 84.4629 134.568C84.6391 134.652 84.8696 134.694 85.1543 134.694C85.5353 134.694 85.8498 134.602 86.0976 134.418C86.3455 134.234 86.4694 133.945 86.4694 133.551V132.593H86.408C86.3547 132.679 86.2789 132.785 86.1806 132.912C86.0843 133.037 85.945 133.149 85.7627 133.247C85.5824 133.343 85.3387 133.392 85.0314 133.392C84.6504 133.392 84.3083 133.301 84.0051 133.121C83.704 132.941 83.4653 132.679 83.2892 132.335C83.115 131.99 83.028 131.573 83.028 131.081C83.028 130.597 83.113 130.176 83.283 129.818C83.453 129.457 83.6896 129.179 83.9928 128.982C84.296 128.784 84.6463 128.684 85.0437 128.684C85.351 128.684 85.5947 128.735 85.775 128.838C85.9573 128.938 86.0966 129.053 86.1929 129.182C86.2912 129.309 86.367 129.413 86.4203 129.495H86.494V128.746H87.1946V133.601C87.1946 134.006 87.1024 134.336 86.9181 134.59C86.7357 134.846 86.4899 135.033 86.1806 135.152C85.8733 135.273 85.5312 135.334 85.1543 135.334ZM85.1297 132.74C85.4206 132.74 85.6664 132.674 85.8672 132.54C86.0679 132.407 86.2205 132.216 86.325 131.966C86.4295 131.716 86.4817 131.417 86.4817 131.069C86.4817 130.729 86.4305 130.428 86.3281 130.168C86.2257 129.908 86.0741 129.704 85.8733 129.557C85.6726 129.409 85.4247 129.336 85.1297 129.336C84.8225 129.336 84.5664 129.413 84.3615 129.569C84.1588 129.725 84.0061 129.934 83.9037 130.196C83.8033 130.458 83.7532 130.749 83.7532 131.069C83.7532 131.396 83.8044 131.686 83.9068 131.938C84.0113 132.188 84.1649 132.385 84.3677 132.528C84.5725 132.669 84.8266 132.74 85.1297 132.74Z" fill="#020111"/>
<g clip-path="url(#clip1_2034_96995)">
<path opacity="0.02" fill-rule="evenodd" clip-rule="evenodd" d="M26.9541 109.575L37.7731 103.369H100.63L113.252 109.575H26.9541Z" fill="#323232"/>
<path opacity="0.04" fill-rule="evenodd" clip-rule="evenodd" d="M27.0605 109.548L37.7882 103.396H100.617L113.132 109.548H27.0605Z" fill="#313131"/>
<path opacity="0.06" fill-rule="evenodd" clip-rule="evenodd" d="M27.165 109.52L37.8014 103.423H100.607L113.014 109.52H27.165Z" fill="#303030"/>
<path opacity="0.08" fill-rule="evenodd" clip-rule="evenodd" d="M27.2725 109.497L37.8175 103.446H100.591L112.895 109.497H27.2725Z" fill="#2F2F2F"/>
<path opacity="0.1" fill-rule="evenodd" clip-rule="evenodd" d="M27.3789 109.47L37.8326 103.473H100.579L112.771 109.47H27.3789Z" fill="#2E2E2E"/>
<path opacity="0.12" fill-rule="evenodd" clip-rule="evenodd" d="M27.4863 109.443L37.8447 103.5H100.567L112.652 109.443H27.4863Z" fill="#2D2D2D"/>
<path opacity="0.13" fill-rule="evenodd" clip-rule="evenodd" d="M27.5928 109.416L37.8599 103.527H100.554L112.532 109.416H27.5928Z" fill="#2C2C2C"/>
<path opacity="0.15" fill-rule="evenodd" clip-rule="evenodd" d="M27.7002 109.389L37.876 103.555H100.539L112.41 109.389H27.7002Z" fill="#2B2B2B"/>
<path opacity="0.17" fill-rule="evenodd" clip-rule="evenodd" d="M27.8027 109.366L37.8872 103.581H100.526L112.29 109.366H27.8027Z" fill="#2A2A2A"/>
<path opacity="0.19" fill-rule="evenodd" clip-rule="evenodd" d="M27.9111 109.339L37.9043 103.605H100.515L112.172 109.339H27.9111Z" fill="#292929"/>
<path opacity="0.21" fill-rule="evenodd" clip-rule="evenodd" d="M28.0186 109.312L37.9204 103.632H100.504L112.053 109.312H28.0186Z" fill="#282828"/>
<path opacity="0.23" fill-rule="evenodd" clip-rule="evenodd" d="M28.125 109.285L37.9315 103.659H100.487L111.929 109.285H28.125Z" fill="#272727"/>
<path opacity="0.25" fill-rule="evenodd" clip-rule="evenodd" d="M28.2324 109.258L37.9476 103.686H100.475L111.81 109.258H28.2324Z" fill="#262626"/>
<path opacity="0.27" fill-rule="evenodd" clip-rule="evenodd" d="M28.3398 109.231L37.9637 103.713H100.464L111.691 109.231H28.3398Z" fill="#252525"/>
<path opacity="0.29" fill-rule="evenodd" clip-rule="evenodd" d="M28.4424 109.207L37.975 103.74H100.451L111.572 109.207H28.4424Z" fill="#242424"/>
<path opacity="0.31" fill-rule="evenodd" clip-rule="evenodd" d="M28.5498 109.18L37.9911 103.763H100.439L111.449 109.18H28.5498Z" fill="#232323"/>
<path opacity="0.33" fill-rule="evenodd" clip-rule="evenodd" d="M28.6582 109.153L38.0082 103.79H100.425L111.331 109.153H28.6582Z" fill="#222222"/>
<path opacity="0.35" fill-rule="evenodd" clip-rule="evenodd" d="M28.7646 109.126L38.0193 103.817H100.412L111.211 109.126H28.7646Z" fill="#212121"/>
<path opacity="0.37" fill-rule="evenodd" clip-rule="evenodd" d="M28.8721 109.099L38.0354 103.844H100.4L111.088 109.099H28.8721Z" fill="#202020"/>
<path opacity="0.38" fill-rule="evenodd" clip-rule="evenodd" d="M28.9746 109.072L38.0466 103.871H100.388L110.968 109.072H28.9746Z" fill="#1F1F1F"/>
<path opacity="0.4" fill-rule="evenodd" clip-rule="evenodd" d="M29.082 109.049L38.0628 103.894H100.372L110.849 109.049H29.082Z" fill="#1E1E1E"/>
<path opacity="0.42" fill-rule="evenodd" clip-rule="evenodd" d="M29.1885 109.022L38.0779 103.922H100.359L110.73 109.022H29.1885Z" fill="#1D1D1D"/>
<path opacity="0.44" fill-rule="evenodd" clip-rule="evenodd" d="M29.2959 108.995L38.09 103.949H100.348L110.607 108.995H29.2959Z" fill="#1C1C1C"/>
<path opacity="0.46" fill-rule="evenodd" clip-rule="evenodd" d="M29.4043 108.968L38.1071 103.976H100.337L110.489 108.968H29.4043Z" fill="#1B1B1B"/>
<path opacity="0.48" fill-rule="evenodd" clip-rule="evenodd" d="M29.5117 108.941L38.1232 104.003H100.321L110.37 108.941H29.5117Z" fill="#1A1A1A"/>
<path opacity="0.5" fill-rule="evenodd" clip-rule="evenodd" d="M29.6143 108.914L38.1344 104.03H100.309L110.25 108.914H29.6143Z" fill="#1A1A1A"/>
<path opacity="0.52" fill-rule="evenodd" clip-rule="evenodd" d="M29.7207 108.891L38.1496 104.053H100.296L110.126 108.891H29.7207Z" fill="#191919"/>
<path opacity="0.54" fill-rule="evenodd" clip-rule="evenodd" d="M29.8281 108.864L38.1657 104.08H100.284L110.007 108.864H29.8281Z" fill="#181818"/>
<path opacity="0.56" fill-rule="evenodd" clip-rule="evenodd" d="M29.9355 108.837L38.1778 104.107H100.273L109.889 108.837H29.9355Z" fill="#171717"/>
<path opacity="0.58" fill-rule="evenodd" clip-rule="evenodd" d="M30.042 108.81L38.1929 104.134H100.256L109.769 108.81H30.042Z" fill="#161616"/>
<path opacity="0.6" fill-rule="evenodd" clip-rule="evenodd" d="M30.1504 108.783L38.21 104.161H100.245L109.647 108.783H30.1504Z" fill="#151515"/>
<path opacity="0.62" fill-rule="evenodd" clip-rule="evenodd" d="M30.2539 108.755L38.2222 104.188H100.234L109.528 108.755H30.2539Z" fill="#141414"/>
<path opacity="0.63" fill-rule="evenodd" clip-rule="evenodd" d="M30.3604 108.732L38.2373 104.211H100.221L109.408 108.732H30.3604Z" fill="#131313"/>
<path opacity="0.65" fill-rule="evenodd" clip-rule="evenodd" d="M30.4678 108.705L38.2534 104.238H100.205L109.285 108.705H30.4678Z" fill="#121212"/>
<path opacity="0.67" fill-rule="evenodd" clip-rule="evenodd" d="M30.5742 108.678L38.2646 104.265H100.193L109.165 108.678H30.5742Z" fill="#111111"/>
<path opacity="0.69" fill-rule="evenodd" clip-rule="evenodd" d="M30.6816 108.651L38.2807 104.293H100.181L109.047 108.651H30.6816Z" fill="#101010"/>
<path opacity="0.71" fill-rule="evenodd" clip-rule="evenodd" d="M30.7861 108.624L38.2979 104.32H100.17L108.929 108.624H30.7861Z" fill="#0F0F0F"/>
<path opacity="0.73" fill-rule="evenodd" clip-rule="evenodd" d="M30.8926 108.597L38.309 104.346H100.154L108.805 108.597H30.8926Z" fill="#0E0E0E"/>
<path opacity="0.75" fill-rule="evenodd" clip-rule="evenodd" d="M31 108.574L38.3251 104.37H100.142L108.686 108.574H31Z" fill="#0D0D0D"/>
<path opacity="0.77" fill-rule="evenodd" clip-rule="evenodd" d="M31.1064 108.547L38.3403 104.397H100.129L108.566 108.547H31.1064Z" fill="#0C0C0C"/>
<path opacity="0.79" fill-rule="evenodd" clip-rule="evenodd" d="M31.2139 108.52L38.3524 104.424H100.118L108.447 108.52H31.2139Z" fill="#0B0B0B"/>
<path opacity="0.81" fill-rule="evenodd" clip-rule="evenodd" d="M31.3213 108.493L38.3685 104.451H100.106L108.324 108.493H31.3213Z" fill="#0A0A0A"/>
<path opacity="0.83" fill-rule="evenodd" clip-rule="evenodd" d="M31.4238 108.466L38.3837 104.478H100.089L108.205 108.466H31.4238Z" fill="#090909"/>
<path opacity="0.85" fill-rule="evenodd" clip-rule="evenodd" d="M31.5322 108.438L38.3968 104.505H100.079L108.087 108.438H31.5322Z" fill="#080808"/>
<path opacity="0.87" fill-rule="evenodd" clip-rule="evenodd" d="M31.6396 108.415L38.4129 104.528H100.067L107.964 108.415H31.6396Z" fill="#070707"/>
<path opacity="0.88" fill-rule="evenodd" clip-rule="evenodd" d="M31.7461 108.388L38.4241 104.555H100.054L107.844 108.388H31.7461Z" fill="#060606"/>
<path opacity="0.9" fill-rule="evenodd" clip-rule="evenodd" d="M31.8535 108.361L38.4402 104.582H100.039L107.725 108.361H31.8535Z" fill="#050505"/>
<path opacity="0.92" fill-rule="evenodd" clip-rule="evenodd" d="M31.9561 108.334L38.4554 104.609H100.026L107.605 108.334H31.9561Z" fill="#040404"/>
<path opacity="0.94" fill-rule="evenodd" clip-rule="evenodd" d="M32.0635 108.307L38.4675 104.636H100.014L107.482 108.307H32.0635Z" fill="#030303"/>
<path opacity="0.96" fill-rule="evenodd" clip-rule="evenodd" d="M32.1699 108.28L38.4826 104.663H100.002L107.363 108.28H32.1699Z" fill="#020202"/>
<path opacity="0.98" fill-rule="evenodd" clip-rule="evenodd" d="M32.2783 108.257L38.4997 104.687H99.9911L107.245 108.257H32.2783Z" fill="#010101"/>
<path fill-rule="evenodd" clip-rule="evenodd" d="M107.126 108.23H32.3857L38.5118 104.714H99.9754L107.126 108.23Z" fill="black"/>
<path d="M34.2246 93.531C36.3209 92.8819 47.9021 89.3076 47.9021 89.3076L58.3558 81.1699L69.6591 79.5123L70.4929 77.9164C70.4929 77.9164 71.545 76.5022 73.3038 76.6258H101.564C103.136 76.6258 103.517 78.1676 103.517 78.1676C103.517 78.1676 108.599 90.66 106.519 102.051H31.2231C31.2231 102.051 27.7054 98.848 34.2246 93.531Z" fill="url(#paint0_linear_2034_96995)"/>
<path d="M106.673 102.233H31.1467L31.0911 102.183C31.0474 102.144 30.039 101.205 30.0866 99.4973C30.1422 97.573 31.4921 95.5173 34.1005 93.3882L34.1641 93.3534L47.8059 89.1416L58.2715 80.9962L58.3231 80.9885L69.5311 79.3463L70.3212 77.8354C70.3807 77.7504 71.4567 76.3091 73.3108 76.4444H101.555C103.254 76.4444 103.687 78.1098 103.691 78.1252C103.735 78.2257 108.761 90.7723 106.697 102.082L106.669 102.233H106.673ZM31.3055 101.866H106.355C108.328 90.695 103.385 78.3571 103.338 78.2334C103.314 78.1523 102.961 76.8076 101.559 76.8076H73.2989C73.2155 76.8037 73.148 76.7999 73.0845 76.7999C71.5678 76.7999 70.6547 78.0093 70.6428 78.0209L69.7812 79.6786L69.6859 79.694L58.4342 81.344L47.9567 89.4817L34.3149 93.6935C31.8097 95.7453 30.5154 97.7005 30.4638 99.5089C30.428 100.842 31.1109 101.665 31.3015 101.866H31.3055Z" fill="black"/>
<path d="M101.396 101.472C101.4 101.375 101.42 101.279 101.416 101.182C101.194 97.6272 98.1726 95.2238 94.1666 95.2238C90.1606 95.2238 87.0638 98.0947 86.9249 101.182C86.9209 101.279 86.9407 101.375 86.9447 101.472H49.5886C49.5925 101.375 49.6084 101.279 49.6084 101.182C49.6203 99.0723 47.4923 95.2238 42.3587 95.2238C37.8088 95.2238 35.24 98.7864 35.109 101.182C35.1051 101.279 35.1249 101.375 35.1289 101.472H31.9805V102.913H47.3017L48.195 104.521H88.235L88.9298 102.913H106.518V101.472H101.396Z" fill="black"/>
<path d="M58.7272 81.6147L49.1191 89.3351L67.9699 88.7478L69.7049 80.4517L58.7272 81.6147Z" fill="url(#paint1_linear_2034_96995)"/>
<path d="M48.5752 89.536L58.6517 81.4408L58.7073 81.433L69.9391 80.2429L68.1247 88.9293H67.9778L48.5752 89.536ZM58.8065 81.7924L49.667 89.138L67.819 88.5777L69.4707 80.668L58.8065 81.7963V81.7924Z" fill="black"/>
<path d="M35.0958 104.285L29.9742 103.613C29.5057 102.086 29.2794 99.6441 29.9583 97.3991C32.9161 96.9586 37.9623 96.4447 37.9623 96.4447C34.0516 99.3968 35.0998 104.285 35.0998 104.285H35.0958Z" fill="url(#paint2_linear_2034_96995)"/>
<path d="M35.334 104.501L29.8273 103.779L29.7916 103.667C29.3191 102.137 29.069 99.6752 29.7757 97.3491L29.8114 97.237L29.9305 97.2177C32.8606 96.7811 37.8909 96.2671 37.9425 96.2594L38.6016 96.1937L38.0775 96.5879C34.3097 99.4357 35.2705 104.2 35.2824 104.246L35.338 104.501H35.334ZM30.1211 103.447L34.8695 104.069C34.7306 103.064 34.4288 99.2966 37.3668 96.6883C35.9574 96.8352 32.4238 97.2216 30.1052 97.5616C29.4819 99.7216 29.7122 102.04 30.1211 103.443V103.447Z" fill="black"/>
<path d="M101.245 103.86L107.423 102.952C107.891 101.425 108.117 98.9833 107.438 96.7383L98.6602 96.464C102.571 99.4161 101.249 103.856 101.249 103.856L101.245 103.86Z" fill="url(#paint3_linear_2034_96995)"/>
<path d="M100.982 104.084L101.066 103.81C101.077 103.767 102.304 99.4509 98.5445 96.6147L98.0879 96.2708L107.585 96.5683L107.624 96.6958C108.331 99.022 108.081 101.483 107.609 103.014L107.573 103.126L100.986 104.092L100.982 104.084ZM99.1996 96.6687C102.138 99.2152 101.693 102.654 101.49 103.639L107.275 102.789C107.68 101.391 107.914 99.0761 107.295 96.9199L99.1996 96.6687Z" fill="black"/>
<path d="M86.9041 103.902H49.6789L49.6035 100.027H86.9795L86.9041 103.902Z" fill="url(#paint4_linear_2034_96995)"/>
<path d="M32.7005 94.2036C34.0186 94.1881 36.2658 94.1649 36.2658 94.1649L37.8102 96.2283L30.501 96.9934C30.501 96.9934 30.8464 95.1889 32.7005 94.2036Z" fill="#FFDE27"/>
<path d="M30.2695 97.1981L30.3172 96.9546C30.3331 96.8774 30.7023 95.0535 32.612 94.0373L32.6993 94.0141L36.3599 93.9755L38.1545 96.3712L30.2695 97.1981ZM32.747 94.3851C31.4209 95.1076 30.9167 96.2746 30.7539 96.7808L37.4636 96.0775L36.1693 94.3464L32.7509 94.3851H32.747Z" fill="black"/>
<path d="M32.575 94.335H34.1512L33.1904 96.526L30.5898 96.8505C30.5898 96.8505 30.9035 95.2199 32.575 94.3312V94.335Z" fill="white"/>
<path d="M107.586 96.3756L104.926 96.3022L103.35 92.7086H107.586C108.622 94.2349 107.586 96.3756 107.586 96.3756Z" fill="#FFDE27"/>
<path d="M107.706 96.5609L104.803 96.4797L103.068 92.5229H107.69L107.745 92.6041C108.825 94.1999 107.801 96.3599 107.757 96.4488L107.706 96.557V96.5609ZM105.053 96.1204L107.463 96.1861C107.646 95.7533 108.238 94.1149 107.483 92.89H103.636L105.053 96.1204Z" fill="black"/>
<path d="M107.407 96.267L106.244 96.1936V94.1727C106.244 94.1727 107.284 94.2036 107.63 94.1727C107.999 94.5398 107.403 96.2632 107.403 96.2632L107.407 96.267Z" fill="#FF2D03"/>
<path d="M69.3992 82.2714L68.2915 82.4143C68.2915 82.4143 67.6523 82.4646 67.3942 83.1755C67.2315 83.6122 67.2037 84.2304 67.2037 84.2304C67.2037 84.2304 67.3466 84.4816 67.9104 84.5975C67.2037 84.4584 66.8185 84.7444 66.8185 84.7444L63.7098 88.3379L57.81 88.5195L56.1505 87.001L55.6661 87.5033L56.8095 88.5504L55.5708 88.5891L53.1172 86.2938L52.1564 87.0087L49.1191 89.3426L57.3971 89.0875L57.5321 89.2112L57.6592 89.0798L67.9699 88.7591L69.3992 82.2791V82.2714Z" fill="black"/>
<path fill-rule="evenodd" clip-rule="evenodd" d="M67.212 82.2831C68.1887 82.0435 68.6691 81.8271 68.6492 81.6339C68.6294 81.4407 68.1132 81.3209 67.1048 81.2823C66.0963 81.2475 64.8894 81.3016 63.4839 81.4446C62.0784 81.5876 60.8874 81.7808 59.9107 82.0203C58.934 82.2638 58.4536 82.4802 58.4774 82.6772C58.4973 82.8704 59.0134 82.9863 60.0218 83.0211C61.0303 83.0598 62.2372 83.0095 63.6427 82.8627C65.0482 82.7197 66.2393 82.5227 67.2159 82.2831H67.212Z" fill="black"/>
<path fill-rule="evenodd" clip-rule="evenodd" d="M102.996 78.7398C102.996 79.2885 96.167 79.7329 87.7382 79.7329C79.3093 79.7329 72.4805 79.2885 72.4805 78.7398C72.4805 78.1911 79.3133 77.7506 87.7382 77.7506C96.163 77.7506 102.996 78.195 102.996 78.7398Z" fill="white"/>
<path fill-rule="evenodd" clip-rule="evenodd" d="M68.8321 89.8873C68.844 90.2699 64.2186 90.7297 58.4975 90.919C52.7763 91.1084 48.1311 90.9538 48.1153 90.5713C48.1033 90.1887 52.7287 89.7289 58.4498 89.5396C64.171 89.3502 68.8162 89.5087 68.8321 89.8873Z" fill="white"/>
<path d="M67.5659 90.046H63.3574V91.128H67.5659V90.046Z" fill="black"/>
<path fill-rule="evenodd" clip-rule="evenodd" d="M36.085 97.7315C36.093 97.9363 34.759 98.1643 33.1034 98.2377C31.4478 98.3111 30.0979 98.2029 30.086 97.9981C30.078 97.7933 31.412 97.5653 33.0676 97.4958C34.7232 97.4224 36.0771 97.5306 36.085 97.7354V97.7315Z" fill="white"/>
<path fill-rule="evenodd" clip-rule="evenodd" d="M107.014 97.5577C107.01 97.7625 105.66 97.9055 104.004 97.8746C102.349 97.8436 101.007 97.6504 101.011 97.4418C101.011 97.237 102.361 97.094 104.02 97.1249C105.68 97.1558 107.018 97.349 107.014 97.5577Z" fill="white"/>
<path fill-rule="evenodd" clip-rule="evenodd" d="M39.7097 99.4279C39.9042 99.3661 40.0471 99.3815 40.1385 99.4665C40.2179 99.54 40.2258 99.6636 40.1583 99.8414C40.0829 100.038 39.9558 100.228 39.7732 100.406C39.5747 100.599 39.3841 100.722 39.1935 100.78C38.999 100.861 38.8561 100.861 38.7767 100.78C38.6814 100.703 38.6734 100.564 38.7449 100.363C38.8203 100.178 38.9514 99.9959 39.1419 99.8182C39.3325 99.6327 39.5191 99.5013 39.7097 99.424V99.4279ZM42.1196 98.6165C42.3856 98.6165 42.6159 98.659 42.8104 98.744C42.9931 98.8213 43.0844 98.9256 43.0844 99.0492C43.0844 99.169 42.9931 99.2656 42.8104 99.3468C42.6159 99.424 42.3817 99.4665 42.1196 99.4665C41.8576 99.4665 41.6194 99.4279 41.4367 99.3468C41.2462 99.2656 41.1548 99.169 41.1548 99.0492C41.1548 98.9217 41.2501 98.8213 41.4367 98.744C41.6194 98.659 41.8457 98.6165 42.1196 98.6165ZM44.478 99.4202C44.6725 99.4781 44.8631 99.6057 45.0457 99.795C45.2363 99.9727 45.3673 100.162 45.4427 100.359C45.5102 100.537 45.5023 100.668 45.4229 100.757C45.3355 100.834 45.2005 100.842 45.0179 100.776C44.8273 100.703 44.6368 100.579 44.4383 100.402C44.2477 100.212 44.1206 100.023 44.0531 99.8375C43.9777 99.652 43.9817 99.5206 44.065 99.4434C44.1524 99.3584 44.2914 99.3506 44.4819 99.424L44.478 99.4202ZM44.0492 105.514C44.1127 105.328 44.2358 105.147 44.4263 104.961C44.6169 104.776 44.8115 104.648 45.0179 104.583C45.2005 104.509 45.3355 104.513 45.4229 104.594C45.5023 104.687 45.5102 104.822 45.4427 105C45.3673 105.197 45.2363 105.386 45.0457 105.564C44.8631 105.746 44.6725 105.869 44.478 105.931C44.2874 106.012 44.1484 106.012 44.0611 105.931C43.9737 105.838 43.9698 105.699 44.0492 105.514ZM46.3162 102.674C46.3162 102.933 46.2765 103.153 46.1931 103.338C46.1058 103.516 45.9986 103.605 45.8795 103.605C45.7603 103.605 45.6571 103.516 45.5737 103.338C45.4864 103.153 45.4427 102.933 45.4427 102.674C45.4427 102.415 45.4864 102.191 45.5737 102.013C45.6532 101.827 45.7564 101.735 45.8795 101.735C46.0025 101.735 46.1058 101.827 46.1931 102.013C46.2725 102.191 46.3162 102.411 46.3162 102.674ZM40.1663 105.494C40.2258 105.688 40.2139 105.819 40.1266 105.9C40.0471 105.981 39.9122 105.985 39.7295 105.92C39.527 105.846 39.3285 105.719 39.1419 105.533C38.9514 105.348 38.8243 105.162 38.7568 104.969C38.6814 104.791 38.6893 104.664 38.7767 104.583C38.8561 104.501 38.999 104.494 39.2015 104.552C39.3921 104.617 39.5826 104.745 39.7732 104.926C39.9638 105.12 40.0948 105.305 40.1702 105.491L40.1663 105.494ZM41.1548 106.325C41.1548 106.205 41.2501 106.105 41.4367 106.02C41.6194 105.935 41.8457 105.892 42.1196 105.892C42.3936 105.892 42.6159 105.935 42.8104 106.02C42.9931 106.105 43.0844 106.209 43.0844 106.325C43.0844 106.441 42.9931 106.542 42.8104 106.623C42.6159 106.704 42.3817 106.743 42.1196 106.743C41.8576 106.743 41.6194 106.704 41.4367 106.623C41.2462 106.542 41.1548 106.445 41.1548 106.325ZM38.8362 102.674C38.8362 102.933 38.7965 103.153 38.7131 103.338C38.6258 103.516 38.5186 103.605 38.3995 103.605C38.2804 103.605 38.1772 103.516 38.0938 103.338C38.0144 103.153 37.9707 102.933 37.9707 102.674C37.9707 102.415 38.0104 102.191 38.0938 102.013C38.1732 101.827 38.2764 101.735 38.3995 101.735C38.5226 101.735 38.6258 101.827 38.7131 102.013C38.7925 102.191 38.8362 102.411 38.8362 102.674Z" fill="black"/>
<path fill-rule="evenodd" clip-rule="evenodd" d="M44.4777 99.4202C44.2871 99.3468 44.1482 99.3546 44.0608 99.4396C43.9814 99.5168 43.9774 99.6482 44.0489 99.8337C44.1164 100.019 44.2474 100.209 44.434 100.398C44.6325 100.576 44.8231 100.699 45.0137 100.773C45.1963 100.838 45.3313 100.834 45.4186 100.753C45.4981 100.664 45.506 100.537 45.4385 100.355C45.3631 100.158 45.232 99.9689 45.0415 99.7912C44.8588 99.598 44.6683 99.4743 44.4737 99.4164L44.4777 99.4202ZM42.1194 98.6165C41.8494 98.6165 41.6191 98.659 41.4365 98.744C41.2459 98.8213 41.1546 98.9256 41.1546 99.0493C41.1546 99.1691 41.2499 99.2657 41.4365 99.3468C41.6191 99.4241 41.8454 99.4666 42.1194 99.4666C42.3933 99.4666 42.6156 99.428 42.8102 99.3468C42.9928 99.2657 43.0841 99.1691 43.0841 99.0493C43.0841 98.9218 42.9928 98.8213 42.8102 98.744C42.6156 98.659 42.3814 98.6165 42.1194 98.6165ZM39.7094 99.428C39.5188 99.5091 39.3283 99.6405 39.1417 99.8221C38.9511 99.9998 38.8201 100.181 38.7446 100.367C38.6692 100.564 38.6811 100.703 38.7764 100.784C38.8558 100.865 38.9987 100.865 39.1933 100.784C39.3839 100.726 39.5744 100.599 39.7729 100.409C39.9556 100.232 40.0826 100.042 40.1581 99.8453C40.2256 99.6675 40.2176 99.54 40.1382 99.4705C40.0509 99.3855 39.9079 99.37 39.7094 99.4318V99.428ZM42.1511 100.842C41.6429 100.834 41.2062 101.005 40.8449 101.352C40.4796 101.696 40.297 102.117 40.2891 102.612C40.2811 103.107 40.4558 103.528 40.8131 103.875C41.1665 104.235 41.5993 104.42 42.1075 104.424C42.6156 104.428 43.0524 104.258 43.4137 103.906C43.7789 103.566 43.9616 103.153 43.9695 102.654C43.9774 102.156 43.8028 101.735 43.4454 101.383C43.0921 101.028 42.6593 100.85 42.1511 100.842ZM41.1546 106.321C41.1546 106.441 41.2499 106.538 41.4365 106.619C41.6191 106.7 41.8454 106.739 42.1194 106.739C42.3933 106.739 42.6156 106.7 42.8102 106.619C42.9928 106.538 43.0841 106.441 43.0841 106.321C43.0841 106.202 42.9928 106.101 42.8102 106.016C42.6156 105.931 42.3814 105.889 42.1194 105.889C41.8573 105.889 41.6191 105.931 41.4365 106.016C41.2459 106.101 41.1546 106.206 41.1546 106.321ZM40.166 105.491C40.0906 105.305 39.9595 105.12 39.769 104.927C39.5784 104.741 39.3878 104.617 39.1973 104.552C38.9948 104.494 38.8518 104.501 38.7724 104.583C38.6851 104.66 38.6772 104.791 38.7526 104.969C38.8201 105.162 38.9511 105.348 39.1377 105.533C39.3283 105.719 39.5228 105.846 39.7253 105.92C39.9079 105.985 40.0389 105.981 40.1223 105.9C40.2097 105.819 40.2256 105.688 40.162 105.495L40.166 105.491ZM46.3159 102.67C46.3159 102.407 46.2762 102.187 46.1928 102.009C46.1055 101.824 45.9983 101.731 45.8792 101.731C45.7601 101.731 45.6569 101.824 45.5735 102.009C45.4861 102.187 45.4425 102.407 45.4425 102.67C45.4425 102.933 45.4861 103.149 45.5735 103.335C45.6529 103.512 45.7561 103.601 45.8792 103.601C46.0023 103.601 46.1055 103.512 46.1928 103.335C46.2723 103.149 46.3159 102.929 46.3159 102.67ZM44.0489 105.51C43.9695 105.695 43.9695 105.835 44.0608 105.927C44.1482 106.008 44.2871 106.008 44.4777 105.927C44.6722 105.869 44.8628 105.746 45.0454 105.56C45.236 105.382 45.367 105.193 45.4425 104.996C45.51 104.818 45.502 104.683 45.4226 104.59C45.3353 104.513 45.2003 104.509 45.0177 104.579C44.8152 104.644 44.6167 104.772 44.4261 104.957C44.2355 105.143 44.1124 105.325 44.0489 105.51ZM46.5105 102.631C46.5105 103.814 46.0817 104.814 45.2281 105.637C44.3665 106.484 43.3343 106.905 42.1273 106.905C40.9203 106.905 39.8881 106.484 39.0265 105.637C38.1729 104.814 37.7441 103.81 37.7441 102.631C37.7441 101.453 38.1729 100.452 39.0265 99.6134C39.8881 98.7827 40.9203 98.3654 42.1273 98.3654C43.3343 98.3654 44.3665 98.7827 45.2281 99.6134C46.0817 100.452 46.5105 101.457 46.5105 102.631ZM38.836 102.67C38.836 102.407 38.7963 102.187 38.7129 102.009C38.6255 101.824 38.5183 101.731 38.3992 101.731C38.2801 101.731 38.1769 101.824 38.0935 102.009C38.0141 102.187 37.9704 102.407 37.9704 102.67C37.9704 102.933 38.0101 103.149 38.0935 103.335C38.1729 103.512 38.2762 103.601 38.3992 103.601C38.5223 103.601 38.6255 103.512 38.7129 103.335C38.7923 103.149 38.836 102.929 38.836 102.67Z" fill="#E6E7E8"/>
<path fill-rule="evenodd" clip-rule="evenodd" d="M46.7456 102.635C46.7456 103.875 46.293 104.934 45.3917 105.811C44.4905 106.688 43.4026 107.129 42.1282 107.129C40.8537 107.129 39.7658 106.692 38.8646 105.811C37.9634 104.934 37.5107 103.875 37.5107 102.635C37.5107 101.395 37.9634 100.34 38.8646 99.4704C39.7658 98.5933 40.8537 98.1566 42.1282 98.1566C43.4026 98.1566 44.4905 98.5933 45.3917 99.4704C46.293 100.34 46.7456 101.395 46.7456 102.635ZM46.5113 102.635C46.5113 101.46 46.0825 100.456 45.2289 99.6172C44.3674 98.7865 43.3351 98.3691 42.1282 98.3691C40.9212 98.3691 39.8889 98.7865 39.0274 99.6172C38.1738 100.456 37.745 101.46 37.745 102.635C37.745 103.81 38.1738 104.818 39.0274 105.641C39.8889 106.487 40.9212 106.909 42.1282 106.909C43.3351 106.909 44.3674 106.487 45.2289 105.641C46.0825 104.818 46.5113 103.814 46.5113 102.635Z" fill="white"/>
<path fill-rule="evenodd" clip-rule="evenodd" d="M46.7442 102.635C46.7442 101.394 46.2916 100.34 45.3904 99.4701C44.4891 98.593 43.4013 98.1564 42.1268 98.1564C40.8524 98.1564 39.7645 98.593 38.8633 99.4701C37.962 100.34 37.5094 101.394 37.5094 102.635C37.5094 103.875 37.962 104.934 38.8633 105.811C39.7645 106.688 40.8524 107.129 42.1268 107.129C43.4013 107.129 44.4891 106.692 45.3904 105.811C46.2916 104.934 46.7442 103.875 46.7442 102.635ZM46.6728 107.036C45.4142 108.257 43.8975 108.868 42.1308 108.868C40.364 108.868 38.8513 108.257 37.5967 107.036C36.3421 105.823 35.7148 104.354 35.7148 102.635C35.7148 100.915 36.3421 99.4431 37.5967 98.2221C38.8513 97.001 40.36 96.3905 42.1308 96.3905C43.9015 96.3905 45.4142 97.001 46.6728 98.2221C47.9194 99.4431 48.5427 100.915 48.5427 102.635C48.5427 104.354 47.9194 105.823 46.6728 107.036Z" fill="url(#paint5_radial_2034_96995)"/>
<path d="M42.1274 108.96C40.3408 108.96 38.7924 108.334 37.5259 107.102C36.2594 105.877 35.6162 104.374 35.6162 102.635C35.6162 100.896 36.2594 99.3892 37.5259 98.1566C38.7924 96.9239 40.3408 96.298 42.1274 96.298C43.914 96.298 45.4664 96.9239 46.7369 98.1566C47.9955 99.3892 48.6347 100.896 48.6347 102.635C48.6347 104.374 47.9955 105.877 46.7369 107.102C45.4624 108.334 43.9101 108.96 42.1274 108.96ZM42.1274 96.4834C40.3924 96.4834 38.8917 97.0901 37.6609 98.288C36.4301 99.4858 35.8068 100.946 35.8068 102.635C35.8068 104.324 36.4301 105.78 37.6609 106.97C38.8917 108.164 40.3924 108.775 42.1274 108.775C43.8624 108.775 45.3672 108.168 46.6059 106.97C47.8287 105.78 48.4481 104.324 48.4481 102.635C48.4481 100.946 47.8287 99.4858 46.6059 98.288C45.3711 97.094 43.8664 96.4834 42.1314 96.4834H42.1274ZM42.1274 107.218C40.8331 107.218 39.7135 106.766 38.7964 105.877C37.8793 104.984 37.4147 103.895 37.4147 102.635C37.4147 101.375 37.8793 100.29 38.7964 99.4047C39.7135 98.5121 40.8331 98.06 42.1274 98.06C43.4217 98.06 44.5413 98.5121 45.4585 99.4047C46.3756 100.29 46.8362 101.375 46.8362 102.635C46.8362 103.895 46.3716 104.984 45.4585 105.877C44.5413 106.77 43.4217 107.218 42.1274 107.218ZM42.1274 98.2455C40.8847 98.2455 39.8088 98.6782 38.9314 99.5322C38.0539 100.382 37.6053 101.426 37.6053 102.635C37.6053 103.844 38.05 104.892 38.9314 105.746C39.8088 106.6 40.8847 107.036 42.1274 107.036C43.3701 107.036 44.4461 106.603 45.3235 105.746C46.2009 104.892 46.6496 103.844 46.6496 102.635C46.6496 101.426 46.2049 100.382 45.3235 99.536C44.4461 98.6782 43.3701 98.2455 42.1274 98.2455ZM42.1274 107.001C40.9006 107.001 39.8366 106.569 38.9592 105.707C38.0897 104.868 37.653 103.833 37.653 102.635C37.653 101.437 38.0937 100.405 38.9592 99.5515C39.8366 98.7053 40.9006 98.2802 42.1274 98.2802C43.3542 98.2802 44.4183 98.7091 45.2957 99.5515C46.1652 100.405 46.6059 101.441 46.6059 102.635C46.6059 103.829 46.1652 104.868 45.2957 105.711C44.4222 106.569 43.3542 107.005 42.1274 107.005V107.001ZM42.1274 98.4618C40.9522 98.4618 39.9319 98.8714 39.0942 99.6829C38.2644 100.498 37.8396 101.491 37.8396 102.635C37.8396 103.779 38.2604 104.776 39.0942 105.576C39.9319 106.399 40.9522 106.816 42.1274 106.816C43.3026 106.816 44.323 106.399 45.1607 105.576C45.9905 104.772 46.4113 103.783 46.4113 102.631C46.4113 101.48 45.9905 100.494 45.1607 99.679C44.323 98.8714 43.3026 98.458 42.1274 98.458V98.4618Z" fill="black"/>
<path fill-rule="evenodd" clip-rule="evenodd" d="M43.5692 103.895C42.8308 104.66 41.596 104.698 40.8099 103.984C40.0238 103.265 39.9801 102.063 40.7186 101.298C41.4531 100.533 42.6918 100.491 43.4779 101.209C44.264 101.924 44.3077 103.13 43.5692 103.895Z" fill="#989898"/>
<path d="M40.7662 104.03C39.9523 103.288 39.9126 102.044 40.671 101.256C41.4293 100.463 42.7117 100.421 43.5256 101.163C44.3395 101.901 44.3792 103.149 43.6209 103.941C42.8586 104.733 41.5801 104.776 40.7662 104.034V104.03ZM43.4343 101.256C42.6759 100.564 41.4769 100.603 40.7662 101.344C40.0556 102.082 40.0953 103.249 40.8536 103.941C41.6159 104.633 42.8109 104.594 43.5216 103.852C44.2323 103.114 44.1926 101.947 43.4343 101.256Z" fill="black"/>
<path fill-rule="evenodd" clip-rule="evenodd" d="M42.1274 101.82C42.3497 101.812 42.5403 101.881 42.7031 102.032C42.8659 102.179 42.9492 102.361 42.9532 102.569C42.9691 102.793 42.9016 102.983 42.7507 103.141C42.5959 103.3 42.4053 103.377 42.175 103.377C41.9567 103.392 41.7621 103.327 41.5994 103.18C41.4366 103.033 41.3532 102.847 41.3492 102.627C41.3413 102.415 41.4128 102.225 41.5676 102.067C41.7185 101.909 41.9051 101.824 42.1274 101.816V101.82Z" fill="url(#paint6_radial_2034_96995)"/>
<path fill-rule="evenodd" clip-rule="evenodd" d="M43.4065 101.673C43.4343 101.858 43.2993 102.028 43.1087 102.055C42.9182 102.082 42.7395 101.951 42.7157 101.766C42.6919 101.58 42.8229 101.41 43.0135 101.383C43.204 101.36 43.3787 101.487 43.4065 101.677V101.673Z" fill="black"/>
<path fill-rule="evenodd" clip-rule="evenodd" d="M41.6673 103.481C41.6911 103.667 41.5601 103.84 41.3695 103.864C41.1789 103.891 41.0042 103.759 40.9764 103.574C40.9526 103.388 41.0836 103.215 41.2742 103.191C41.4648 103.168 41.6434 103.296 41.6673 103.481Z" fill="black"/>
<path fill-rule="evenodd" clip-rule="evenodd" d="M43.1604 103.763C42.9698 103.79 42.7911 103.659 42.7673 103.474C42.7395 103.288 42.8745 103.118 43.0651 103.091C43.2556 103.068 43.4343 103.195 43.4581 103.381C43.4819 103.566 43.3509 103.74 43.1604 103.763Z" fill="black"/>
<path fill-rule="evenodd" clip-rule="evenodd" d="M41.2971 102.071C41.1065 102.094 40.9278 101.966 40.904 101.781C40.8762 101.596 41.0112 101.422 41.2018 101.398C41.3924 101.375 41.571 101.503 41.5948 101.688C41.6187 101.874 41.4876 102.044 41.2971 102.071Z" fill="black"/>
<path fill-rule="evenodd" clip-rule="evenodd" d="M91.9246 99.4278C92.1191 99.366 92.2621 99.3814 92.3534 99.4664C92.4328 99.5398 92.4407 99.6635 92.3732 99.8412C92.2978 100.038 92.1707 100.228 91.9881 100.405C91.7936 100.599 91.599 100.722 91.4084 100.78C91.2139 100.861 91.071 100.861 90.9916 100.78C90.8963 100.703 90.8883 100.564 90.9598 100.363C91.0352 100.177 91.1663 99.9958 91.3568 99.8181C91.5474 99.6326 91.734 99.5012 91.9246 99.4239V99.4278ZM94.3345 98.6163C94.5966 98.6163 94.8308 98.6588 95.0254 98.7438C95.208 98.8211 95.2993 98.9255 95.2993 99.0491C95.2993 99.1689 95.208 99.2655 95.0254 99.3466C94.8308 99.4239 94.5966 99.4664 94.3345 99.4664C94.0725 99.4664 93.8343 99.4278 93.6516 99.3466C93.4611 99.2655 93.3658 99.1689 93.3658 99.0491C93.3658 98.9216 93.4611 98.8211 93.6516 98.7438C93.8343 98.6588 94.0606 98.6163 94.3345 98.6163ZM96.6929 99.4201C96.8914 99.478 97.078 99.6055 97.2606 99.7949C97.4512 99.9726 97.5822 100.162 97.6576 100.359C97.7251 100.537 97.7172 100.668 97.6378 100.757C97.5504 100.834 97.4154 100.842 97.2328 100.776C97.0422 100.703 96.8517 100.579 96.6532 100.402C96.4626 100.212 96.3355 100.023 96.268 99.8374C96.1926 99.6519 96.1966 99.5205 96.28 99.4432C96.3673 99.3582 96.5063 99.3505 96.6968 99.4239L96.6929 99.4201ZM96.2641 105.514C96.3236 105.328 96.4507 105.147 96.6412 104.961C96.8318 104.776 97.0264 104.648 97.2328 104.582C97.4154 104.509 97.5504 104.513 97.6378 104.594C97.7212 104.687 97.7251 104.822 97.6576 105C97.5822 105.197 97.4512 105.386 97.2606 105.564C97.078 105.745 96.8874 105.869 96.6929 105.931C96.5023 106.012 96.3633 106.012 96.276 105.931C96.1886 105.838 96.1847 105.699 96.2641 105.514ZM98.5311 102.674C98.5311 102.932 98.4914 103.153 98.408 103.338C98.3207 103.516 98.2135 103.605 98.0944 103.605C97.9753 103.605 97.872 103.516 97.7886 103.338C97.7013 103.153 97.6576 102.932 97.6576 102.674C97.6576 102.415 97.7013 102.191 97.7886 102.013C97.8681 101.827 97.9713 101.735 98.0944 101.735C98.2174 101.735 98.3207 101.827 98.408 102.013C98.4874 102.191 98.5311 102.411 98.5311 102.674ZM92.3812 105.494C92.4407 105.688 92.4288 105.819 92.3415 105.9C92.2621 105.981 92.1271 105.985 91.9444 105.919C91.742 105.846 91.5434 105.718 91.3529 105.533C91.1623 105.348 91.0352 105.162 90.9677 104.969C90.8923 104.791 90.9003 104.664 90.9876 104.582C91.067 104.501 91.2099 104.494 91.4124 104.552C91.603 104.617 91.7936 104.745 91.9841 104.926C92.1747 105.12 92.3057 105.305 92.3812 105.49V105.494ZM93.3658 106.325C93.3658 106.205 93.4611 106.105 93.6516 106.02C93.8343 105.935 94.0606 105.892 94.3345 105.892C94.6085 105.892 94.8308 105.935 95.0254 106.02C95.208 106.105 95.2993 106.209 95.2993 106.325C95.2993 106.441 95.208 106.541 95.0254 106.623C94.8308 106.704 94.5966 106.742 94.3345 106.742C94.0725 106.742 93.8343 106.704 93.6516 106.623C93.4611 106.541 93.3658 106.445 93.3658 106.325ZM91.0472 102.674C91.0472 102.932 91.0075 103.153 90.9241 103.338C90.8367 103.516 90.7295 103.605 90.6104 103.605C90.4913 103.605 90.3881 103.516 90.3047 103.338C90.2253 103.153 90.1816 102.932 90.1816 102.674C90.1816 102.415 90.2213 102.191 90.3047 102.013C90.3841 101.827 90.4874 101.735 90.6104 101.735C90.7335 101.735 90.8367 101.827 90.9241 102.013C91.0035 102.191 91.0472 102.411 91.0472 102.674Z" fill="black"/>
<path fill-rule="evenodd" clip-rule="evenodd" d="M96.6925 99.4201C96.502 99.3467 96.363 99.3544 96.2757 99.4394C96.1963 99.5167 96.1923 99.6481 96.2638 99.8336C96.3312 100.019 96.4623 100.208 96.6489 100.398C96.8474 100.575 97.038 100.699 97.2285 100.773C97.4112 100.838 97.5461 100.834 97.6335 100.753C97.7169 100.664 97.7208 100.537 97.6533 100.355C97.5779 100.158 97.4469 99.9688 97.2563 99.7911C97.0737 99.5979 96.8831 99.4742 96.6886 99.4163L96.6925 99.4201ZM94.3342 98.6164C94.0642 98.6164 93.834 98.6589 93.6513 98.7439C93.4607 98.8212 93.3655 98.9255 93.3655 99.0492C93.3655 99.169 93.4607 99.2656 93.6513 99.3467C93.834 99.424 94.0603 99.4665 94.3342 99.4665C94.6082 99.4665 94.8305 99.4278 95.025 99.3467C95.2077 99.2656 95.299 99.169 95.299 99.0492C95.299 98.9217 95.2077 98.8212 95.025 98.7439C94.8305 98.6589 94.5962 98.6164 94.3342 98.6164ZM91.9243 99.4278C91.7337 99.509 91.5471 99.6404 91.3565 99.822C91.1659 99.9997 91.0349 100.181 90.9595 100.367C90.8841 100.564 90.896 100.703 90.9912 100.784C91.0707 100.865 91.2096 100.865 91.4081 100.784C91.5987 100.726 91.7893 100.599 91.9878 100.409C92.1704 100.232 92.2975 100.042 92.3729 99.8452C92.4404 99.6674 92.4325 99.5399 92.353 99.4704C92.2657 99.3853 92.1228 99.3699 91.9243 99.4317V99.4278ZM94.3421 100.842C93.834 100.842 93.4012 101.016 93.0399 101.368C92.6826 101.715 92.4999 102.14 92.4999 102.635C92.4999 103.13 92.6786 103.547 93.0399 103.891C93.4012 104.246 93.834 104.424 94.3421 104.424C94.8503 104.424 95.2831 104.246 95.6444 103.891C96.0057 103.547 96.1843 103.13 96.1843 102.635C96.1843 102.14 96.0057 101.719 95.6444 101.368C95.2871 101.016 94.8503 100.842 94.3421 100.842ZM93.3655 106.321C93.3655 106.441 93.4607 106.538 93.6513 106.619C93.834 106.7 94.0603 106.739 94.3342 106.739C94.6082 106.739 94.8305 106.7 95.025 106.619C95.2077 106.538 95.299 106.441 95.299 106.321C95.299 106.202 95.2077 106.101 95.025 106.016C94.8305 105.931 94.5962 105.889 94.3342 105.889C94.0722 105.889 93.834 105.931 93.6513 106.016C93.4607 106.101 93.3655 106.205 93.3655 106.321ZM92.3808 105.491C92.3054 105.305 92.1744 105.12 91.9838 104.926C91.7932 104.741 91.6027 104.617 91.4121 104.552C91.2096 104.494 91.0667 104.501 90.9873 104.582C90.8999 104.66 90.892 104.791 90.9674 104.969C91.0349 105.162 91.1659 105.348 91.3525 105.533C91.5431 105.719 91.7377 105.846 91.9441 105.919C92.1267 105.985 92.2578 105.981 92.3411 105.9C92.4285 105.819 92.4444 105.688 92.3808 105.494V105.491ZM98.5308 102.67C98.5308 102.407 98.4911 102.187 98.4077 102.009C98.3203 101.824 98.2131 101.731 98.094 101.731C97.9749 101.731 97.8717 101.824 97.7883 102.009C97.701 102.187 97.6573 102.407 97.6573 102.67C97.6573 102.933 97.701 103.149 97.7883 103.334C97.8677 103.512 97.971 103.601 98.094 103.601C98.2171 103.601 98.3203 103.512 98.4077 103.334C98.4871 103.149 98.5308 102.929 98.5308 102.67ZM96.2638 105.51C96.1843 105.695 96.1843 105.834 96.2757 105.927C96.363 106.008 96.502 106.008 96.6925 105.927C96.8911 105.869 97.0777 105.746 97.2603 105.56C97.4509 105.382 97.5819 105.193 97.6573 104.996C97.7248 104.818 97.7169 104.683 97.6375 104.59C97.5501 104.513 97.4151 104.509 97.2325 104.579C97.03 104.644 96.8315 104.772 96.6409 104.957C96.4504 105.143 96.3273 105.324 96.2638 105.51ZM98.7253 102.631C98.7253 103.814 98.2965 104.814 97.4429 105.637C96.5814 106.484 95.5491 106.905 94.3421 106.905C93.1352 106.905 92.1029 106.484 91.2414 105.637C90.3878 104.814 89.959 103.81 89.959 102.631C89.959 101.453 90.3878 100.452 91.2414 99.6133C92.1029 98.7826 93.1352 98.3652 94.3421 98.3652C95.5491 98.3652 96.5814 98.7826 97.4429 99.6133C98.2965 100.452 98.7253 101.456 98.7253 102.631ZM91.0508 102.67C91.0508 102.407 91.0111 102.187 90.9277 102.009C90.8404 101.824 90.7332 101.731 90.6141 101.731C90.495 101.731 90.3917 101.824 90.3084 102.009C90.229 102.187 90.1853 102.407 90.1853 102.67C90.1853 102.933 90.225 103.149 90.3084 103.334C90.3878 103.512 90.491 103.601 90.6141 103.601C90.7372 103.601 90.8404 103.512 90.9277 103.334C91.0071 103.149 91.0508 102.929 91.0508 102.67Z" fill="#E6E7E8"/>
<path fill-rule="evenodd" clip-rule="evenodd" d="M98.9594 102.635C98.9594 103.875 98.5068 104.934 97.6056 105.811C96.7043 106.688 95.6165 107.129 94.342 107.129C93.0676 107.129 91.9797 106.692 91.0785 105.811C90.1772 104.934 89.7246 103.875 89.7246 102.635C89.7246 101.395 90.1772 100.34 91.0785 99.4703C91.9797 98.5931 93.0676 98.1565 94.342 98.1565C95.6165 98.1565 96.7043 98.5931 97.6056 99.4703C98.5068 100.34 98.9594 101.395 98.9594 102.635ZM98.7252 102.635C98.7252 101.46 98.2964 100.456 97.4428 99.6171C96.5812 98.7863 95.549 98.369 94.342 98.369C93.1351 98.369 92.1028 98.7863 91.2413 99.6171C90.3876 100.456 89.9589 101.46 89.9589 102.635C89.9589 103.81 90.3876 104.818 91.2413 105.641C92.1028 106.487 93.1351 106.909 94.342 106.909C95.549 106.909 96.5812 106.487 97.4428 105.641C98.2964 104.818 98.7252 103.813 98.7252 102.635Z" fill="white"/>
<path fill-rule="evenodd" clip-rule="evenodd" d="M98.96 102.635C98.96 101.394 98.5074 100.34 97.6062 99.4701C96.7049 98.593 95.6171 98.1564 94.3426 98.1564C93.0682 98.1564 91.9803 98.593 91.0791 99.4701C90.1778 100.34 89.7252 101.394 89.7252 102.635C89.7252 103.875 90.1778 104.934 91.0791 105.811C91.9803 106.688 93.0682 107.129 94.3426 107.129C95.6171 107.129 96.7049 106.692 97.6062 105.811C98.5074 104.934 98.96 103.875 98.96 102.635ZM98.8886 107.036C97.63 108.257 96.1134 108.868 94.3466 108.868C92.5798 108.868 91.0672 108.257 89.8126 107.036C88.558 105.823 87.9307 104.354 87.9307 102.635C87.9307 100.915 88.558 99.4431 89.8126 98.2221C91.0672 97.001 92.5759 96.3905 94.3466 96.3905C96.1173 96.3905 97.63 97.001 98.8886 98.2221C100.135 99.4431 100.759 100.915 100.759 102.635C100.759 104.354 100.135 105.823 98.8886 107.036Z" fill="url(#paint7_radial_2034_96995)"/>
<path d="M94.3462 108.96C92.5596 108.96 91.0112 108.334 89.7447 107.102C88.4781 105.877 87.835 104.374 87.835 102.635C87.835 100.896 88.4781 99.3891 89.7447 98.1565C91.0112 96.9238 92.5596 96.2979 94.3462 96.2979C96.1328 96.2979 97.6852 96.9238 98.9556 98.1565C100.214 99.3891 100.853 100.896 100.853 102.635C100.853 104.374 100.214 105.877 98.9556 107.102C97.6812 108.334 96.1328 108.96 94.3462 108.96ZM94.3462 96.4833C92.6112 96.4833 91.1104 97.09 89.8796 98.2878C88.6489 99.4857 88.0255 100.946 88.0255 102.635C88.0255 104.323 88.6489 105.78 89.8796 106.97C91.1104 108.164 92.6112 108.775 94.3462 108.775C96.0812 108.775 97.5859 108.168 98.8246 106.97C100.047 105.78 100.667 104.323 100.667 102.635C100.667 100.946 100.047 99.4857 98.8246 98.2878C97.5899 97.0938 96.0852 96.4833 94.3502 96.4833H94.3462ZM94.3462 107.218C93.0519 107.218 91.9323 106.766 91.0151 105.877C90.098 104.984 89.6335 103.895 89.6335 102.635C89.6335 101.375 90.098 100.289 91.0151 99.4045C91.9323 98.512 93.0519 98.0599 94.3462 98.0599C95.6405 98.0599 96.7601 98.512 97.6772 99.4045C98.5944 100.289 99.0549 101.375 99.0549 102.635C99.0549 103.895 98.5904 104.984 97.6772 105.877C96.7601 106.769 95.6405 107.218 94.3462 107.218ZM94.3462 98.2453C93.1035 98.2453 92.0276 98.6781 91.1501 99.5321C90.2727 100.382 89.8241 101.425 89.8241 102.635C89.8241 103.844 90.2687 104.891 91.1501 105.745C92.0276 106.599 93.1035 107.036 94.3462 107.036C95.5889 107.036 96.6648 106.603 97.5422 105.745C98.4197 104.891 98.8683 103.844 98.8683 102.635C98.8683 101.425 98.4236 100.382 97.5422 99.5359C96.6648 98.6781 95.5889 98.2453 94.3462 98.2453ZM94.3462 107.001C93.1194 107.001 92.0553 106.568 91.1779 105.707C90.3084 104.868 89.8717 103.833 89.8717 102.635C89.8717 101.437 90.3124 100.405 91.1779 99.5514C92.0553 98.7052 93.1194 98.2801 94.3462 98.2801C95.573 98.2801 96.637 98.709 97.5144 99.5514C98.3839 100.405 98.8246 101.441 98.8246 102.635C98.8246 103.829 98.3839 104.868 97.5144 105.711C96.641 106.568 95.573 107.005 94.3462 107.005V107.001ZM94.3462 98.4617C93.171 98.4617 92.1506 98.8713 91.3129 99.6828C90.4831 100.498 90.0583 101.491 90.0583 102.635C90.0583 103.779 90.4791 104.776 91.3129 105.575C92.1506 106.398 93.171 106.816 94.3462 106.816C95.5214 106.816 96.5417 106.398 97.3795 105.575C98.2092 104.772 98.6301 103.783 98.6301 102.631C98.6301 101.48 98.2092 100.494 97.3795 99.6789C96.5417 98.8713 95.5214 98.4579 94.3462 98.4579V98.4617Z" fill="black"/>
<path fill-rule="evenodd" clip-rule="evenodd" d="M95.787 103.895C95.0485 104.66 93.8138 104.698 93.0277 103.984C92.2416 103.265 92.1979 102.063 92.9364 101.298C93.6748 100.533 94.9096 100.491 95.6957 101.209C96.4818 101.924 96.5255 103.13 95.787 103.895Z" fill="#989898"/>
<path d="M92.9801 104.03C92.1662 103.288 92.1265 102.044 92.8848 101.255C93.6471 100.463 94.9255 100.421 95.7394 101.163C96.5533 101.901 96.593 103.149 95.8347 103.941C95.0724 104.733 93.794 104.776 92.9801 104.034V104.03ZM95.6481 101.255C94.8898 100.564 93.6908 100.602 92.9801 101.344C92.2694 102.082 92.3091 103.249 93.0675 103.941C93.8297 104.633 95.0248 104.594 95.7355 103.852C96.4461 103.114 96.4064 101.947 95.6481 101.255Z" fill="black"/>
<path fill-rule="evenodd" clip-rule="evenodd" d="M94.3432 101.82C94.5656 101.812 94.7561 101.881 94.9189 102.032C95.0817 102.179 95.1651 102.361 95.169 102.569C95.1849 102.793 95.1174 102.983 94.9666 103.141C94.8117 103.299 94.6211 103.377 94.3909 103.377C94.1725 103.392 93.978 103.327 93.8152 103.18C93.6524 103.033 93.569 102.847 93.565 102.627C93.5571 102.415 93.6286 102.225 93.7834 102.067C93.9343 101.908 94.1209 101.823 94.3432 101.816V101.82Z" fill="url(#paint8_radial_2034_96995)"/>
<path fill-rule="evenodd" clip-rule="evenodd" d="M95.6214 101.673C95.6491 101.858 95.5142 102.028 95.3236 102.055C95.133 102.082 94.9583 101.951 94.9305 101.765C94.9067 101.58 95.0377 101.41 95.2283 101.383C95.4189 101.36 95.5975 101.487 95.6214 101.677V101.673Z" fill="black"/>
<path fill-rule="evenodd" clip-rule="evenodd" d="M93.8821 103.481C93.9059 103.666 93.7749 103.84 93.5843 103.864C93.3937 103.891 93.2191 103.759 93.1913 103.574C93.1674 103.388 93.2985 103.214 93.489 103.191C93.6796 103.168 93.8543 103.296 93.8821 103.481Z" fill="black"/>
<path fill-rule="evenodd" clip-rule="evenodd" d="M95.3742 103.763C95.1837 103.79 95.005 103.659 94.9812 103.473C94.9534 103.288 95.0884 103.118 95.2789 103.091C95.4695 103.068 95.6482 103.195 95.672 103.381C95.6958 103.566 95.5648 103.74 95.3742 103.763Z" fill="black"/>
<path fill-rule="evenodd" clip-rule="evenodd" d="M93.5129 102.071C93.3223 102.094 93.1437 101.966 93.1198 101.781C93.092 101.595 93.227 101.422 93.4176 101.398C93.6082 101.375 93.7868 101.503 93.8107 101.688C93.8345 101.874 93.7035 102.044 93.5089 102.071H93.5129Z" fill="black"/>
<path d="M85.4491 84.3174L85.2192 84.9394L86.246 84.9371L85.8381 86.0411H84.8113L84.4869 86.9211L86.5564 86.9188L86.3585 87.4555C86.2799 87.6317 86.1784 87.7898 86.054 87.9296C86.0013 87.9921 85.9396 88.0513 85.8679 88.1081C85.7973 88.1661 85.7187 88.2161 85.6331 88.2605C85.5466 88.3048 85.4511 88.3412 85.3456 88.3696C85.2401 88.398 85.1247 88.4117 84.9984 88.4128L82.71 88.4162C82.9119 88.2161 83.0701 87.9671 83.1736 87.6852L84.8004 83.2771L84.9158 82.9735L88.2081 82.969L87.8549 83.1953L86.5097 84.3163L85.4471 84.3186L85.4491 84.3174Z" fill="#020111"/>
<path d="M91.9175 82.9711H91.9116H91.9126L90.4679 82.9733H90.3346H89.5784C89.3993 82.9745 89.2182 83.0143 89.0362 83.095C88.8541 83.1757 88.673 83.286 88.4939 83.4259C88.3138 83.5657 88.1397 83.7294 87.9716 83.9159C87.8034 84.1024 87.6432 84.3025 87.492 84.5139L89.4292 84.5117L87.1676 87.6759C86.9627 87.9624 86.7189 88.2114 86.4463 88.4126H87.8243L88.7805 88.4103C88.9595 88.4103 89.1406 88.3706 89.3227 88.2898C89.5048 88.2091 89.6859 88.0988 89.865 87.959C90.045 87.8191 90.2192 87.6554 90.3873 87.4689C90.5554 87.2825 90.7156 87.0824 90.8669 86.8709L88.9267 86.8732L91.1942 83.709C91.4002 83.4224 91.6429 83.1734 91.9156 82.9733L91.9175 82.9711Z" fill="#020111"/>
<path d="M92.4204 86.8711L93.5915 83.6989C93.6949 83.4181 93.8541 83.168 94.0551 82.969L92.8472 82.9713L92.7438 83.268L92.7418 83.2748L91.115 87.6829C91.0115 87.9637 90.8523 88.2138 90.6514 88.4128L92.9845 88.4094C93.1636 88.4094 93.3308 88.3696 93.485 88.2889C93.6392 88.2082 93.7825 88.0979 93.9138 87.958C94.0452 87.8182 94.1636 87.6545 94.267 87.468C94.3705 87.2815 94.461 87.0814 94.5396 86.8688L92.4204 86.8711Z" fill="#020111"/>
<path d="M96.601 82.995L96.4915 83.2963V83.2986L96.4069 83.5305L94.8578 87.7259C94.7573 87.9988 94.6061 88.2433 94.415 88.4434H94.5911C95.2458 88.4434 95.8438 87.9772 96.1104 87.2598L97.4268 83.7124C97.5282 83.4396 97.6785 83.1951 97.8695 82.995L96.6 82.9961L96.601 82.995Z" fill="#020111"/>
<path d="M84.4221 82.993H84.2082C84.1983 82.993 84.1893 82.993 84.1804 82.993H84.1117C83.7555 82.9941 83.4381 83.0032 83.0849 83.0032C83.0809 83.0112 83.075 83.0237 83.068 83.0385C82.7884 83.6388 82.7596 83.9185 82.5258 84.4358C82.3228 84.8644 82.2382 84.952 82.1337 84.9725C82.1158 84.9759 82.0213 84.9679 81.8323 84.9702C81.7358 84.9713 81.5358 84.9713 81.4462 84.9713C81.4413 84.9713 81.3875 84.9713 81.3537 84.9713C81.3149 84.9713 81.2741 84.9736 81.2522 84.9702C81.5069 84.3096 81.7626 83.6536 82.0163 82.9953C79.9767 82.9668 77.9072 83.1055 75.8606 83.151C76.8287 83.1874 77.7967 83.2249 78.7658 83.2556C79.5041 83.2784 80.2463 83.2909 80.9866 83.3079C81.0701 83.3102 81.1269 83.3887 81.105 83.4819C81.0791 83.591 80.9985 83.6615 80.899 83.6638C79.2454 83.7081 77.5918 83.7525 75.9382 83.798C75.5999 83.8071 75.2616 83.8173 74.9233 83.8275C75.38 83.8457 75.8377 83.8605 76.2944 83.8753C77.1799 83.9026 78.0654 83.931 78.9509 83.9549C79.4285 83.9685 79.908 83.9753 80.3866 83.9856C80.4881 83.9878 80.5319 84.0572 80.503 84.1663C80.4732 84.2766 80.3976 84.3403 80.2921 84.3403C80.1538 84.3403 80.0165 84.3369 79.8782 84.3426C78.8992 84.379 77.9191 84.4188 76.9391 84.4551C76.6048 84.4676 76.2715 84.4767 75.9382 84.487C76.177 84.5074 76.4197 84.5199 76.6625 84.5279C77.9331 84.5688 79.2036 84.6098 80.4732 84.6507C80.5548 84.653 80.6085 84.7303 80.5876 84.8201C80.5627 84.9293 80.4831 84.9997 80.3836 85.0032C78.9877 85.0395 77.5928 85.0748 76.1969 85.1112C75.8188 85.1214 75.4407 85.1316 75.0636 85.1419C75.2218 85.1589 75.386 85.1555 75.5482 85.1601C76.5461 85.1896 77.543 85.2215 78.54 85.251C78.9758 85.2635 79.4125 85.2703 79.8483 85.2817C79.9439 85.284 79.9866 85.3613 79.9538 85.4705C79.924 85.5705 79.8404 85.6353 79.7478 85.6387C79.6882 85.641 79.6294 85.6387 79.5707 85.6399C78.5957 85.6694 77.6196 85.7001 76.6446 85.7297C76.0436 85.7479 75.4427 85.7638 74.8417 85.7808C74.8417 85.7831 74.8397 85.7854 74.8387 85.7877C74.8636 85.7877 74.8895 85.7877 74.9134 85.7877C76.3093 85.8286 77.7042 85.8707 79.1001 85.9116C79.2046 85.915 79.3111 85.9116 79.4135 85.9196C79.4912 85.9241 79.528 86.0048 79.5031 86.0969C79.4772 86.1947 79.3966 86.2686 79.314 86.272C78.1987 86.3118 77.0824 86.3527 75.967 86.3925C75.8486 86.3971 75.7332 86.3925 75.6158 86.3925C75.6138 86.4005 75.6118 86.4085 75.6098 86.4175C76.0715 86.4346 76.5332 86.4517 76.9958 86.4664C77.8714 86.4937 78.7469 86.5199 79.6225 86.546C79.6374 86.546 79.6533 86.546 79.6663 86.5494C79.7568 86.5767 79.7668 86.7314 79.6762 86.8246C79.6354 86.8667 79.5717 86.8974 79.527 86.8985C79.314 86.9064 79.1061 86.8974 78.8932 86.9042C78.0176 86.9349 77.1421 86.969 76.2665 87.002C75.9939 87.0122 75.7213 87.0201 75.4487 87.0292C75.4467 87.0383 75.4437 87.0463 75.4417 87.0554C75.6049 87.0554 75.769 87.0508 75.9302 87.0554C77.0595 87.0895 78.1878 87.1259 79.316 87.1623C79.3399 87.1623 79.3658 87.1657 79.3857 87.177C79.4404 87.21 79.4504 87.2942 79.4155 87.3783C79.3797 87.4624 79.3111 87.517 79.2345 87.5181C79.0255 87.5204 78.8196 87.5136 78.6096 87.5204C77.742 87.5511 76.8734 87.5852 76.0048 87.6182C75.7402 87.6284 75.4755 87.6364 75.2109 87.6443C75.5243 87.6637 75.8377 87.6796 76.1541 87.6875C77.0296 87.7126 77.9072 87.7342 78.7827 87.758C78.8046 87.758 78.8285 87.758 78.8484 87.7649C78.9071 87.7865 78.93 87.8649 78.9041 87.9479C78.8783 88.0298 78.8076 88.1025 78.741 88.1128C78.7181 88.1162 78.6952 88.115 78.6733 88.1139C78.3082 88.1094 77.946 88.0946 77.5779 88.1037C76.6167 88.1276 75.6526 88.1628 74.6895 88.1912C74.3184 88.2026 73.9473 88.2106 73.5771 88.2196C75.6974 88.2697 77.7967 88.3936 79.9379 88.3731C79.9548 88.3322 79.9687 88.2992 79.9817 88.2674C80.2354 87.6114 80.4891 86.9553 80.7398 86.2982C80.7687 86.2231 80.7945 86.2027 80.8503 86.2027C81.1557 86.2061 81.4622 86.2027 81.7676 86.2027C81.7895 86.2027 81.8104 86.2061 81.8392 86.2083C81.6691 86.6506 81.493 87.1043 81.3179 87.5545C81.1955 87.8706 81.0244 88.1594 80.8124 88.4061H80.9886C81.3836 88.4061 81.8144 88.4061 82.2084 88.4061C82.7715 86.9462 83.2859 85.4545 83.8321 83.9822C83.9694 83.6104 84.1704 83.2738 84.4211 82.9873L84.4221 82.993Z" fill="#020111"/>
</g>
<path d="M71.5527 72.1063L75.1581 74.1879L75.1581 70.0248L71.5527 72.1063ZM102.559 72.1063L98.9532 70.0248L98.9532 74.1879L102.559 72.1063ZM74.7975 72.4669L99.3137 72.4669L99.3137 71.7458L74.7975 71.7458L74.7975 72.4669Z" fill="#25243A"/>
<defs>
<linearGradient id="paint0_linear_2034_96995" x1="68.6467" y1="102.051" x2="68.6467" y2="76.6181" gradientUnits="userSpaceOnUse">
<stop stop-color="#FFEFA3"/>
<stop offset="1" stop-color="#E0B019"/>
</linearGradient>
<linearGradient id="paint1_linear_2034_96995" x1="59.414" y1="89.3351" x2="59.414" y2="80.4517" gradientUnits="userSpaceOnUse">
<stop offset="0.15" stop-color="#487080"/>
<stop offset="0.89" stop-color="#8EAFBD"/>
</linearGradient>
<linearGradient id="paint2_linear_2034_96995" x1="33.7419" y1="104.285" x2="33.7419" y2="96.4447" gradientUnits="userSpaceOnUse">
<stop stop-color="#4D4E4E"/>
<stop offset="0.53" stop-color="#666666"/>
<stop offset="1" stop-color="#999999"/>
</linearGradient>
<linearGradient id="paint3_linear_2034_96995" x1="103.262" y1="103.86" x2="103.262" y2="96.4679" gradientUnits="userSpaceOnUse">
<stop stop-color="#4D4E4E"/>
<stop offset="0.53" stop-color="#666666"/>
<stop offset="1" stop-color="#999999"/>
</linearGradient>
<linearGradient id="paint4_linear_2034_96995" x1="68.2915" y1="103.902" x2="68.2915" y2="100.027" gradientUnits="userSpaceOnUse">
<stop offset="0.08" stop-color="#603813"/>
<stop offset="0.7" stop-color="#FAF0C3"/>
<stop offset="0.92" stop-color="#FCD294"/>
</linearGradient>
<radialGradient id="paint5_radial_2034_96995" cx="0" cy="0" r="1" gradientUnits="userSpaceOnUse" gradientTransform="translate(42.1268 95.3936) rotate(180) scale(6.45961 6.28681)">
<stop offset="0.75" stop-color="#101010"/>
<stop offset="0.81" stop-color="#666666"/>
<stop offset="1" stop-color="#020202"/>
</radialGradient>
<radialGradient id="paint6_radial_2034_96995" cx="0" cy="0" r="1" gradientUnits="userSpaceOnUse" gradientTransform="translate(41.6488 102.572) rotate(-137.694) scale(0.874398 0.872493)">
<stop offset="0.43" stop-color="#777575"/>
<stop offset="0.91"/>
<stop offset="1" stop-color="#666666"/>
</radialGradient>
<radialGradient id="paint7_radial_2034_96995" cx="0" cy="0" r="1" gradientUnits="userSpaceOnUse" gradientTransform="translate(94.3426 6124.6) rotate(180) scale(6.45961 6.28681)">
<stop offset="0.75" stop-color="#101010"/>
<stop offset="0.81" stop-color="#666666"/>
<stop offset="1" stop-color="#020202"/>
</radialGradient>
<radialGradient id="paint8_radial_2034_96995" cx="0" cy="0" r="1" gradientUnits="userSpaceOnUse" gradientTransform="translate(93.8592 102.569) rotate(-137.694) scale(0.874399 0.872493)">
<stop offset="0.43" stop-color="#777575"/>
<stop offset="0.91"/>
<stop offset="1" stop-color="#666666"/>
</radialGradient>
<clipPath id="clip0_2034_96995">
<rect width="14.4213" height="14.4213" fill="white" transform="translate(113.375 8.65271)"/>
</clipPath>
<clipPath id="clip1_2034_96995">
<rect width="86.5278" height="33.169" fill="white" transform="translate(26.8467 76.4329)"/>
</clipPath>
</defs>
</svg>
