<svg width="1392" height="560" viewBox="0 0 1392 560" fill="none" xmlns="http://www.w3.org/2000/svg">
<rect y="80" width="1392" height="400" rx="32" fill="white"/>
<mask id="mask0_1640_90524" style="mask-type:luminance" maskUnits="userSpaceOnUse" x="0" y="80" width="1392" height="400">
<rect y="80" width="1392" height="400" rx="32" fill="white"/>
</mask>
<g mask="url(#mask0_1640_90524)">
<path d="M460.938 -7.10159C687.818 48.4029 613.446 200.031 784 200.031C962.977 200.031 932.213 64.5911 1160 -7.10159C1261.27 -38.9753 1419.85 -55.2367 1442.12 -7.10159C1560.91 249.647 1533.2 452.895 1442.12 602.667C1408.64 657.72 1339.56 412.877 1193 402.547C1059.5 393.137 1100.39 535.249 882 563.188C472.551 615.569 127.034 677.713 -62.6757 563.188C-345.303 392.569 -253.49 200.722 -62.6757 -7.10159C8.31699 -84.4227 264.48 -55.1635 460.938 -7.10159Z" stroke="#FFD400" stroke-width="2" stroke-linecap="round" stroke-dasharray="10"/>
<circle cx="789" cy="200" r="6" fill="#020111"/>
<circle cx="1179" cy="402" r="6" fill="#020111"/>
</g>
</svg>
