<svg width="228" height="234" viewBox="0 0 228 234" fill="none" xmlns="http://www.w3.org/2000/svg">
<g filter="url(#filter0_dd_1857_101454)">
<rect x="45" y="26" width="138.444" height="144.213" fill="white"/>
<path d="M89.0963 41.181C89.0554 40.7679 88.8795 40.447 88.5689 40.2182C88.2582 39.9895 87.8365 39.8751 87.3039 39.8751C86.942 39.8751 86.6365 39.9263 86.3872 40.0287C86.138 40.1277 85.9468 40.266 85.8137 40.4435C85.6839 40.6211 85.619 40.8225 85.619 41.0479C85.6122 41.2356 85.6515 41.3995 85.7368 41.5395C85.8256 41.6795 85.9468 41.8007 86.1004 41.9031C86.2541 42.0021 86.4316 42.0892 86.633 42.1643C86.8345 42.236 87.0496 42.2974 87.2783 42.3486L88.2206 42.574C88.6781 42.6764 89.0981 42.813 89.4804 42.9837C89.8628 43.1544 90.194 43.3643 90.4739 43.6136C90.7539 43.8628 90.9707 44.1564 91.1243 44.4944C91.2814 44.8324 91.3616 45.2199 91.365 45.6569C91.3616 46.2988 91.1977 46.8553 90.8734 47.3264C90.5525 47.7942 90.0881 48.1578 89.4804 48.4173C88.8761 48.6733 88.1472 48.8013 87.2937 48.8013C86.447 48.8013 85.7095 48.6716 85.0813 48.4121C84.4565 48.1527 83.9683 47.7686 83.6167 47.2599C83.2684 46.7477 83.0858 46.1144 83.0687 45.3599H85.2145C85.2384 45.7116 85.3391 46.0052 85.5166 46.2407C85.6976 46.4729 85.9383 46.6487 86.2387 46.7682C86.5426 46.8843 86.8857 46.9424 87.2681 46.9424C87.6436 46.9424 87.9697 46.8877 88.2462 46.7785C88.5262 46.6692 88.743 46.5173 88.8966 46.3227C89.0503 46.1281 89.1271 45.9045 89.1271 45.6518C89.1271 45.4162 89.0571 45.2182 88.9171 45.0578C88.7805 44.8973 88.5791 44.7607 88.3128 44.6481C88.0499 44.5354 87.7273 44.433 87.3449 44.3408L86.2029 44.054C85.3186 43.8389 84.6204 43.5026 84.1083 43.0451C83.5962 42.5876 83.3418 41.9714 83.3452 41.1964C83.3418 40.5613 83.5108 40.0065 83.8522 39.532C84.1971 39.0574 84.6699 38.687 85.2708 38.4207C85.8717 38.1544 86.5545 38.0212 87.3193 38.0212C88.0977 38.0212 88.7771 38.1544 89.3575 38.4207C89.9413 38.687 90.3954 39.0574 90.7198 39.532C91.0441 40.0065 91.2114 40.5562 91.2216 41.181H89.0963ZM94.0908 48.786C93.7528 48.786 93.4626 48.6665 93.2202 48.4275C92.9812 48.1851 92.8617 47.8949 92.8617 47.5569C92.8617 47.2223 92.9812 46.9355 93.2202 46.6965C93.4626 46.4575 93.7528 46.338 94.0908 46.338C94.4185 46.338 94.7053 46.4575 94.9512 46.6965C95.197 46.9355 95.3199 47.2223 95.3199 47.5569C95.3199 47.7822 95.2618 47.9888 95.1458 48.1766C95.0331 48.3609 94.8846 48.5094 94.7002 48.6221C94.5159 48.7314 94.3127 48.786 94.0908 48.786ZM102.842 41.181C102.801 40.7679 102.625 40.447 102.314 40.2182C102.003 39.9895 101.582 39.8751 101.049 39.8751C100.687 39.8751 100.382 39.9263 100.133 40.0287C99.8833 40.1277 99.6921 40.266 99.559 40.4435C99.4292 40.6211 99.3643 40.8225 99.3643 41.0479C99.3575 41.2356 99.3968 41.3995 99.4821 41.5395C99.5709 41.6795 99.6921 41.8007 99.8457 41.9031C99.9994 42.0021 100.177 42.0892 100.378 42.1643C100.58 42.236 100.795 42.2974 101.024 42.3486L101.966 42.574C102.423 42.6764 102.843 42.813 103.226 42.9837C103.608 43.1544 103.939 43.3643 104.219 43.6136C104.499 43.8628 104.716 44.1564 104.87 44.4944C105.027 44.8324 105.107 45.2199 105.11 45.6569C105.107 46.2988 104.943 46.8553 104.619 47.3264C104.298 47.7942 103.833 48.1578 103.226 48.4173C102.621 48.6733 101.893 48.8013 101.039 48.8013C100.192 48.8013 99.4548 48.6716 98.8266 48.4121C98.2018 48.1527 97.7136 47.7686 97.362 47.2599C97.0137 46.7477 96.8311 46.1144 96.814 45.3599H98.9598C98.9837 45.7116 99.0844 46.0052 99.2619 46.2407C99.4429 46.4729 99.6836 46.6487 99.984 46.7682C100.288 46.8843 100.631 46.9424 101.013 46.9424C101.389 46.9424 101.715 46.8877 101.992 46.7785C102.271 46.6692 102.488 46.5173 102.642 46.3227C102.796 46.1281 102.872 45.9045 102.872 45.6518C102.872 45.4162 102.802 45.2182 102.662 45.0578C102.526 44.8973 102.324 44.7607 102.058 44.6481C101.795 44.5354 101.473 44.433 101.09 44.3408L99.9482 44.054C99.0639 43.8389 98.3657 43.5026 97.8536 43.0451C97.3415 42.5876 97.0871 41.9714 97.0905 41.1964C97.0871 40.5613 97.2561 40.0065 97.5975 39.532C97.9424 39.0574 98.4152 38.687 99.0161 38.4207C99.617 38.1544 100.3 38.0212 101.065 38.0212C101.843 38.0212 102.522 38.1544 103.103 38.4207C103.687 38.687 104.141 39.0574 104.465 39.532C104.789 40.0065 104.957 40.5562 104.967 41.181H102.842ZM106.602 38.1646H109.337L112.225 45.2114H112.348L115.236 38.1646H117.971V48.6528H115.82V41.8263H115.733L113.019 48.6016H111.554L108.84 41.8007H108.753V48.6528H106.602V38.1646ZM121.606 48.6528H119.229L122.85 38.1646H125.708L129.323 48.6528H126.947L124.32 40.5613H124.238L121.606 48.6528ZM121.457 44.5303H127.07V46.2612H121.457V44.5303ZM130.586 48.6528V38.1646H132.803V46.8246H137.3V48.6528H130.586ZM138.768 48.6528V38.1646H140.986V46.8246H145.482V48.6528H138.768Z" fill="#020111"/>
<g clip-path="url(#clip0_1857_101454)">
<path d="M163.801 34.6526C160.065 34.6526 157.041 37.6759 157.041 41.4123C157.041 43.0504 157.63 44.6201 158.703 45.8511V48.6509C158.703 49.026 159.158 49.2156 159.424 48.9496L160.869 47.5046C165.359 49.6646 170.561 46.3825 170.561 41.4123C170.561 37.6765 167.538 34.6526 163.801 34.6526ZM163.801 45.6625C163.568 45.6625 163.38 45.474 163.38 45.2415C163.38 45.0089 163.568 44.8204 163.801 44.8204C164.034 44.8204 164.222 45.0089 164.222 45.2415C164.222 45.474 164.034 45.6625 163.801 45.6625ZM164.223 42.6728V43.5515C164.223 43.7848 164.034 43.974 163.801 43.974C163.568 43.974 163.378 43.7848 163.378 43.5515V42.2855C163.378 42.0521 163.568 41.863 163.801 41.863C164.734 41.863 165.492 41.1042 165.492 40.1716C165.492 39.239 164.734 38.4803 163.801 38.4803C162.868 38.4803 162.11 39.239 162.11 40.1716C162.11 40.405 161.92 40.5941 161.687 40.5941C161.454 40.5941 161.265 40.4049 161.265 40.1716C161.265 38.7731 162.402 37.6353 163.801 37.6353C165.2 37.6353 166.337 38.7731 166.337 40.1716C166.337 41.4263 165.422 42.471 164.223 42.6728Z" fill="#25243A"/>
</g>
<path d="M129.003 98.3952C128.694 98.3952 128.431 98.3113 128.214 98.1433C127.997 97.9739 127.831 97.7288 127.716 97.4079C127.602 97.0856 127.544 96.6964 127.544 96.2402C127.544 95.7869 127.602 95.3997 127.716 95.0788C127.832 94.7565 127.999 94.5106 128.216 94.3413C128.435 94.1706 128.697 94.0852 129.003 94.0852C129.309 94.0852 129.57 94.1706 129.787 94.3413C130.006 94.5106 130.173 94.7565 130.287 95.0788C130.403 95.3997 130.461 95.7869 130.461 96.2402C130.461 96.6964 130.404 97.0856 130.289 97.4079C130.175 97.7288 130.009 97.9739 129.792 98.1433C129.574 98.3113 129.311 98.3952 129.003 98.3952ZM129.003 97.9446C129.309 97.9446 129.546 97.7971 129.716 97.5021C129.885 97.2071 129.97 96.7865 129.97 96.2402C129.97 95.877 129.931 95.5677 129.853 95.3123C129.777 95.0569 129.666 94.8623 129.521 94.7285C129.378 94.5946 129.205 94.5277 129.003 94.5277C128.7 94.5277 128.463 94.6773 128.292 94.9763C128.121 95.274 128.036 95.6954 128.036 96.2402C128.036 96.6035 128.074 96.9121 128.151 97.1662C128.227 97.4202 128.337 97.6134 128.48 97.7459C128.625 97.8783 128.799 97.9446 129.003 97.9446ZM131.454 98.3707C131.353 98.3707 131.266 98.3345 131.194 98.2621C131.121 98.1897 131.085 98.103 131.085 98.0019C131.085 97.9009 131.121 97.8142 131.194 97.7418C131.266 97.6694 131.353 97.6332 131.454 97.6332C131.555 97.6332 131.642 97.6694 131.714 97.7418C131.786 97.8142 131.823 97.9009 131.823 98.0019C131.823 98.0689 131.806 98.1303 131.771 98.1863C131.739 98.2423 131.694 98.2874 131.638 98.3215C131.584 98.3543 131.522 98.3707 131.454 98.3707ZM133.908 98.3952C133.668 98.3952 133.452 98.3475 133.259 98.2519C133.067 98.1563 132.912 98.0252 132.796 97.8585C132.68 97.6919 132.617 97.5021 132.606 97.2891H133.097C133.116 97.4789 133.202 97.6359 133.355 97.7602C133.51 97.8831 133.694 97.9446 133.908 97.9446C134.081 97.9446 134.233 97.9043 134.367 97.8237C134.503 97.7431 134.608 97.6325 134.685 97.4919C134.763 97.3498 134.802 97.1894 134.802 97.0105C134.802 96.8275 134.761 96.6643 134.681 96.5209C134.602 96.3761 134.492 96.2621 134.353 96.1788C134.214 96.0955 134.055 96.0532 133.876 96.0518C133.747 96.0504 133.616 96.0702 133.48 96.1112C133.345 96.1508 133.234 96.202 133.146 96.2648L132.671 96.2075L132.925 94.1426H135.105V94.5933H133.351L133.204 95.8306H133.228C133.314 95.7623 133.422 95.7056 133.552 95.6605C133.682 95.6155 133.817 95.5929 133.958 95.5929C134.214 95.5929 134.443 95.6544 134.644 95.7773C134.846 95.8988 135.004 96.0654 135.119 96.2771C135.235 96.4888 135.293 96.7305 135.293 97.0023C135.293 97.2699 135.233 97.5089 135.113 97.7192C134.994 97.9282 134.83 98.0934 134.621 98.215C134.412 98.3352 134.175 98.3952 133.908 98.3952ZM136.115 98.3379V95.1914H136.582V95.6831H136.623C136.689 95.5151 136.795 95.3847 136.941 95.2918C137.087 95.1976 137.262 95.1505 137.467 95.1505C137.675 95.1505 137.848 95.1976 137.985 95.2918C138.125 95.3847 138.233 95.5151 138.311 95.6831H138.344C138.424 95.5205 138.545 95.3915 138.707 95.2959C138.868 95.1989 139.061 95.1505 139.286 95.1505C139.568 95.1505 139.798 95.2385 139.977 95.4147C140.155 95.5895 140.245 95.862 140.245 96.2321V98.3379H139.761V96.2321C139.761 95.9999 139.698 95.834 139.571 95.7343C139.444 95.6346 139.294 95.5847 139.122 95.5847C138.901 95.5847 138.73 95.6517 138.608 95.7855C138.487 95.918 138.426 96.0859 138.426 96.2894V98.3379H137.934V96.1829C137.934 96.004 137.876 95.8599 137.76 95.7507C137.644 95.64 137.494 95.5847 137.311 95.5847C137.186 95.5847 137.068 95.6182 136.959 95.6851C136.851 95.752 136.764 95.8449 136.697 95.9637C136.631 96.0811 136.599 96.217 136.599 96.3714V98.3379H136.115Z" fill="#020111"/>
<path d="M108.188 159.551C107.828 159.551 107.503 159.48 107.214 159.336C106.925 159.193 106.694 158.996 106.52 158.746C106.346 158.496 106.25 158.212 106.234 157.892H106.971C107 158.177 107.129 158.412 107.359 158.599C107.59 158.783 107.867 158.875 108.188 158.875C108.446 158.875 108.676 158.815 108.877 158.694C109.079 158.573 109.238 158.407 109.353 158.196C109.47 157.983 109.528 157.743 109.528 157.474C109.528 157.2 109.468 156.955 109.347 156.74C109.228 156.523 109.064 156.352 108.855 156.227C108.646 156.102 108.407 156.038 108.139 156.036C107.947 156.034 107.749 156.064 107.546 156.125C107.343 156.185 107.176 156.262 107.045 156.356L106.332 156.27L106.713 153.172H109.983V153.848H107.352L107.131 155.704H107.168C107.297 155.602 107.459 155.517 107.654 155.449C107.848 155.382 108.051 155.348 108.262 155.348C108.647 155.348 108.99 155.44 109.291 155.624C109.595 155.807 109.832 156.057 110.004 156.374C110.178 156.692 110.265 157.054 110.265 157.462C110.265 157.863 110.175 158.222 109.995 158.537C109.817 158.851 109.571 159.099 109.258 159.281C108.944 159.461 108.588 159.551 108.188 159.551ZM113.539 159.551C113.076 159.551 112.681 159.425 112.356 159.173C112.03 158.919 111.781 158.552 111.609 158.07C111.437 157.587 111.351 157.003 111.351 156.319C111.351 155.639 111.437 155.058 111.609 154.577C111.783 154.093 112.033 153.724 112.359 153.47C112.686 153.214 113.08 153.086 113.539 153.086C113.998 153.086 114.39 153.214 114.715 153.47C115.043 153.724 115.293 154.093 115.465 154.577C115.639 155.058 115.726 155.639 115.726 156.319C115.726 157.003 115.64 157.587 115.468 158.07C115.296 158.552 115.047 158.919 114.722 159.173C114.396 159.425 114.002 159.551 113.539 159.551ZM113.539 158.875C113.998 158.875 114.354 158.654 114.608 158.212C114.862 157.769 114.989 157.138 114.989 156.319C114.989 155.774 114.931 155.31 114.814 154.927C114.699 154.544 114.533 154.252 114.316 154.051C114.101 153.85 113.842 153.75 113.539 153.75C113.084 153.75 112.728 153.974 112.472 154.423C112.216 154.87 112.088 155.502 112.088 156.319C112.088 156.864 112.146 157.327 112.26 157.708C112.375 158.089 112.54 158.379 112.755 158.577C112.972 158.776 113.233 158.875 113.539 158.875ZM120.016 157.745L120.004 156.847H120.151L122.216 154.746H123.113L120.913 156.97H120.852L120.016 157.745ZM119.34 159.465V153.172H120.065V159.465H119.34ZM122.339 159.465L120.495 157.13L121.011 156.626L123.261 159.465H122.339ZM125.757 161.334C125.407 161.334 125.106 161.288 124.854 161.198C124.602 161.11 124.392 160.993 124.224 160.848C124.058 160.705 123.926 160.551 123.828 160.387L124.405 159.982C124.471 160.068 124.554 160.166 124.654 160.277C124.755 160.389 124.892 160.486 125.066 160.568C125.242 160.652 125.473 160.694 125.757 160.694C126.138 160.694 126.453 160.602 126.701 160.418C126.949 160.234 127.072 159.945 127.072 159.551V158.593H127.011C126.958 158.679 126.882 158.785 126.784 158.912C126.687 159.037 126.548 159.149 126.366 159.247C126.185 159.343 125.942 159.392 125.634 159.392C125.253 159.392 124.911 159.301 124.608 159.121C124.307 158.941 124.068 158.679 123.892 158.335C123.718 157.99 123.631 157.573 123.631 157.081C123.631 156.597 123.716 156.176 123.886 155.818C124.056 155.457 124.293 155.179 124.596 154.982C124.899 154.784 125.249 154.684 125.647 154.684C125.954 154.684 126.198 154.735 126.378 154.838C126.56 154.938 126.7 155.053 126.796 155.182C126.894 155.309 126.97 155.413 127.023 155.495H127.097V154.746H127.798V159.601C127.798 160.006 127.705 160.336 127.521 160.59C127.339 160.846 127.093 161.033 126.784 161.152C126.476 161.273 126.134 161.334 125.757 161.334ZM125.733 158.74C126.024 158.74 126.269 158.674 126.47 158.54C126.671 158.407 126.824 158.216 126.928 157.966C127.032 157.716 127.085 157.417 127.085 157.069C127.085 156.729 127.034 156.428 126.931 156.168C126.829 155.908 126.677 155.704 126.476 155.557C126.276 155.409 126.028 155.336 125.733 155.336C125.425 155.336 125.169 155.413 124.965 155.569C124.762 155.725 124.609 155.934 124.507 156.196C124.406 156.458 124.356 156.749 124.356 157.069C124.356 157.396 124.407 157.686 124.51 157.938C124.614 158.188 124.768 158.385 124.971 158.528C125.176 158.669 125.43 158.74 125.733 158.74Z" fill="#020111"/>
<g clip-path="url(#clip1_1857_101454)">
<path opacity="0.02" fill-rule="evenodd" clip-rule="evenodd" d="M86.8857 135.586L93.5367 131.964H132.185L139.948 135.586H86.8857Z" fill="#323232"/>
<path opacity="0.04" fill-rule="evenodd" clip-rule="evenodd" d="M86.9492 135.569L93.5487 131.981H132.175L139.869 135.569H86.9492Z" fill="#313131"/>
<path opacity="0.06" fill-rule="evenodd" clip-rule="evenodd" d="M87.0186 135.553L93.5579 131.997H132.171L139.797 135.553H87.0186Z" fill="#303030"/>
<path opacity="0.08" fill-rule="evenodd" clip-rule="evenodd" d="M87.083 135.541L93.5665 132.009H132.163L139.724 135.541H87.083Z" fill="#2F2F2F"/>
<path opacity="0.1" fill-rule="evenodd" clip-rule="evenodd" d="M87.1484 135.524L93.5762 132.026H132.155L139.652 135.524H87.1484Z" fill="#2E2E2E"/>
<path opacity="0.12" fill-rule="evenodd" clip-rule="evenodd" d="M87.2158 135.508L93.5834 132.042H132.145L139.578 135.508H87.2158Z" fill="#2D2D2D"/>
<path opacity="0.13" fill-rule="evenodd" clip-rule="evenodd" d="M87.2803 135.492L93.5921 132.058H132.137L139.501 135.492H87.2803Z" fill="#2C2C2C"/>
<path opacity="0.15" fill-rule="evenodd" clip-rule="evenodd" d="M87.3447 135.475L93.6007 132.071H132.128L139.428 135.475H87.3447Z" fill="#2B2B2B"/>
<path opacity="0.17" fill-rule="evenodd" clip-rule="evenodd" d="M87.4102 135.463L93.6103 132.087H132.125L139.356 135.463H87.4102Z" fill="#2A2A2A"/>
<path opacity="0.19" fill-rule="evenodd" clip-rule="evenodd" d="M87.4736 135.447L93.618 132.103H132.116L139.282 135.447H87.4736Z" fill="#292929"/>
<path opacity="0.21" fill-rule="evenodd" clip-rule="evenodd" d="M87.542 135.43L93.6262 132.12H132.107L139.209 135.43H87.542Z" fill="#282828"/>
<path opacity="0.23" fill-rule="evenodd" clip-rule="evenodd" d="M87.6074 135.414L93.6358 132.132H132.099L139.132 135.414H87.6074Z" fill="#272727"/>
<path opacity="0.25" fill-rule="evenodd" clip-rule="evenodd" d="M87.6719 135.402L93.6445 132.148H132.091L139.059 135.402H87.6719Z" fill="#262626"/>
<path opacity="0.27" fill-rule="evenodd" clip-rule="evenodd" d="M87.7354 135.385L93.6521 132.165H132.081L138.985 135.385H87.7354Z" fill="#252525"/>
<path opacity="0.29" fill-rule="evenodd" clip-rule="evenodd" d="M87.8047 135.369L93.6656 132.181H132.073L138.913 135.369H87.8047Z" fill="#242424"/>
<path opacity="0.31" fill-rule="evenodd" clip-rule="evenodd" d="M87.8691 135.352L93.6743 132.197H132.069L138.84 135.352H87.8691Z" fill="#232323"/>
<path opacity="0.33" fill-rule="evenodd" clip-rule="evenodd" d="M87.9336 135.336L93.6829 132.209H132.06L138.763 135.336H87.9336Z" fill="#222222"/>
<path opacity="0.35" fill-rule="evenodd" clip-rule="evenodd" d="M88.002 135.324L93.6912 132.226H132.051L138.689 135.324H88.002Z" fill="#212121"/>
<path opacity="0.37" fill-rule="evenodd" clip-rule="evenodd" d="M88.0664 135.308L93.6998 132.242H132.043L138.617 135.308H88.0664Z" fill="#202020"/>
<path opacity="0.38" fill-rule="evenodd" clip-rule="evenodd" d="M88.1309 135.291L93.7084 132.259H132.034L138.544 135.291H88.1309Z" fill="#1F1F1F"/>
<path opacity="0.4" fill-rule="evenodd" clip-rule="evenodd" d="M88.1963 135.275L93.718 132.271H132.031L138.472 135.275H88.1963Z" fill="#1E1E1E"/>
<path opacity="0.42" fill-rule="evenodd" clip-rule="evenodd" d="M88.2588 135.263L93.7247 132.287H132.021L138.392 135.263H88.2588Z" fill="#1D1D1D"/>
<path opacity="0.44" fill-rule="evenodd" clip-rule="evenodd" d="M88.3281 135.246L93.7339 132.303H132.013L138.32 135.246H88.3281Z" fill="#1C1C1C"/>
<path opacity="0.46" fill-rule="evenodd" clip-rule="evenodd" d="M88.3926 135.23L93.7426 132.32H132.004L138.247 135.23H88.3926Z" fill="#1B1B1B"/>
<path opacity="0.48" fill-rule="evenodd" clip-rule="evenodd" d="M88.458 135.213L93.7522 132.332H131.996L138.175 135.213H88.458Z" fill="#1A1A1A"/>
<path opacity="0.5" fill-rule="evenodd" clip-rule="evenodd" d="M88.5215 135.201L93.7598 132.348H131.987L138.097 135.201H88.5215Z" fill="#1A1A1A"/>
<path opacity="0.52" fill-rule="evenodd" clip-rule="evenodd" d="M88.5898 135.185L93.7681 132.365H131.978L138.024 135.185H88.5898Z" fill="#191919"/>
<path opacity="0.54" fill-rule="evenodd" clip-rule="evenodd" d="M88.6553 135.169L93.782 132.381H131.975L137.952 135.169H88.6553Z" fill="#181818"/>
<path opacity="0.56" fill-rule="evenodd" clip-rule="evenodd" d="M88.7197 135.152L93.7906 132.397H131.966L137.879 135.152H88.7197Z" fill="#171717"/>
<path opacity="0.58" fill-rule="evenodd" clip-rule="evenodd" d="M88.7832 135.14L93.7983 132.41H131.957L137.805 135.14H88.7832Z" fill="#161616"/>
<path opacity="0.6" fill-rule="evenodd" clip-rule="evenodd" d="M88.8525 135.124L93.8075 132.426H131.949L137.728 135.124H88.8525Z" fill="#151515"/>
<path opacity="0.62" fill-rule="evenodd" clip-rule="evenodd" d="M88.917 135.107L93.8161 132.442H131.94L137.655 135.107H88.917Z" fill="#141414"/>
<path opacity="0.63" fill-rule="evenodd" clip-rule="evenodd" d="M88.9814 135.091L93.8248 132.459H131.932L137.582 135.091H88.9814Z" fill="#131313"/>
<path opacity="0.65" fill-rule="evenodd" clip-rule="evenodd" d="M89.0449 135.079L93.8324 132.471H131.926L137.508 135.079H89.0449Z" fill="#121212"/>
<path opacity="0.67" fill-rule="evenodd" clip-rule="evenodd" d="M89.1143 135.062L93.8417 132.488H131.918L137.432 135.062H89.1143Z" fill="#111111"/>
<path opacity="0.69" fill-rule="evenodd" clip-rule="evenodd" d="M89.1787 135.046L93.8503 132.504H131.91L137.359 135.046H89.1787Z" fill="#101010"/>
<path opacity="0.71" fill-rule="evenodd" clip-rule="evenodd" d="M89.2432 135.029L93.8589 132.52H131.901L137.286 135.029H89.2432Z" fill="#0F0F0F"/>
<path opacity="0.73" fill-rule="evenodd" clip-rule="evenodd" d="M89.3066 135.013L93.8666 132.532H131.892L137.212 135.013H89.3066Z" fill="#0E0E0E"/>
<path opacity="0.75" fill-rule="evenodd" clip-rule="evenodd" d="M89.376 135.001L93.8758 132.549H131.884L137.139 135.001H89.376Z" fill="#0D0D0D"/>
<path opacity="0.77" fill-rule="evenodd" clip-rule="evenodd" d="M89.4404 134.985L93.8844 132.565H131.88L137.062 134.985H89.4404Z" fill="#0C0C0C"/>
<path opacity="0.79" fill-rule="evenodd" clip-rule="evenodd" d="M89.5059 134.968L93.8941 132.582H131.872L136.99 134.968H89.5059Z" fill="#0B0B0B"/>
<path opacity="0.81" fill-rule="evenodd" clip-rule="evenodd" d="M89.5693 134.952L93.906 132.594H131.863L136.916 134.952H89.5693Z" fill="#0A0A0A"/>
<path opacity="0.83" fill-rule="evenodd" clip-rule="evenodd" d="M89.6377 134.94L93.9143 132.61H131.854L136.843 134.94H89.6377Z" fill="#090909"/>
<path opacity="0.85" fill-rule="evenodd" clip-rule="evenodd" d="M89.7031 134.923L93.9239 132.626H131.846L136.771 134.923H89.7031Z" fill="#080808"/>
<path opacity="0.87" fill-rule="evenodd" clip-rule="evenodd" d="M89.7656 134.907L93.9305 132.643H131.836L136.692 134.907H89.7656Z" fill="#070707"/>
<path opacity="0.88" fill-rule="evenodd" clip-rule="evenodd" d="M89.8311 134.891L93.9402 132.659H131.832L136.62 134.891H89.8311Z" fill="#060606"/>
<path opacity="0.9" fill-rule="evenodd" clip-rule="evenodd" d="M89.8994 134.874L93.9484 132.671H131.823L136.547 134.874H89.8994Z" fill="#050505"/>
<path opacity="0.92" fill-rule="evenodd" clip-rule="evenodd" d="M89.9648 134.862L93.958 132.688H131.816L136.475 134.862H89.9648Z" fill="#040404"/>
<path opacity="0.94" fill-rule="evenodd" clip-rule="evenodd" d="M90.0283 134.846L93.9657 132.704H131.806L136.401 134.846H90.0283Z" fill="#030303"/>
<path opacity="0.96" fill-rule="evenodd" clip-rule="evenodd" d="M90.0928 134.829L93.9743 132.72H131.798L136.323 134.829H90.0928Z" fill="#020202"/>
<path opacity="0.98" fill-rule="evenodd" clip-rule="evenodd" d="M90.1621 134.813L93.9835 132.733H131.79L136.251 134.813H90.1621Z" fill="#010101"/>
<path fill-rule="evenodd" clip-rule="evenodd" d="M136.178 134.801H90.2266L93.9922 132.749H131.781L136.178 134.801Z" fill="black"/>
<path d="M101.385 126.132C103.069 127.607 103.18 130.105 101.63 131.711C100.08 133.313 97.4566 133.419 95.7692 131.944C94.086 130.468 93.9744 127.971 95.5244 126.369C97.0745 124.767 99.6979 124.661 101.381 126.136L101.385 126.132Z" fill="url(#paint0_radial_1857_101454)"/>
<path d="M103.52 130.227L100.286 130.91L99.0456 133.828L97.3667 131.11L94.0605 130.889L96.2546 128.531L95.4603 125.47L98.496 126.729L101.304 125.061L100.986 128.196L103.52 130.227Z" fill="#E6E7E8"/>
<path fill-rule="evenodd" clip-rule="evenodd" d="M99.9181 130.28C99.244 130.963 98.119 131 97.402 130.362C96.6849 129.725 96.6463 128.65 97.3161 127.967C97.9859 127.285 99.1152 127.248 99.8322 127.885C100.549 128.523 100.588 129.598 99.9181 130.28Z" fill="#989898"/>
<path d="M97.3592 130.403C96.6206 129.745 96.5777 128.633 97.2733 127.926C97.9646 127.223 99.1325 127.186 99.8753 127.844C100.618 128.503 100.657 129.614 99.9612 130.321C99.2656 131.024 98.102 131.061 97.3592 130.403ZM99.7937 127.926C99.1024 127.309 98.0118 127.346 97.3592 128.004C96.7108 128.662 96.7494 129.7 97.4407 130.317C98.132 130.934 99.2226 130.902 99.871 130.24C100.519 129.582 100.481 128.539 99.7894 127.922L99.7937 127.926Z" fill="black"/>
<path fill-rule="evenodd" clip-rule="evenodd" d="M98.5998 128.429C98.8016 128.421 98.9734 128.486 99.1236 128.617C99.2739 128.748 99.3469 128.911 99.3512 129.095C99.3684 129.295 99.304 129.463 99.1666 129.606C99.0292 129.749 98.8531 129.819 98.6427 129.814C98.4409 129.831 98.2692 129.769 98.1189 129.639C97.9686 129.508 97.8956 129.34 97.8913 129.148C97.8828 128.956 97.9515 128.793 98.0889 128.65C98.2263 128.507 98.398 128.433 98.5998 128.429Z" fill="url(#paint1_radial_1857_101454)"/>
<path fill-rule="evenodd" clip-rule="evenodd" d="M102.24 128.012C102.545 128.964 102.451 129.88 101.953 130.755C101.459 131.633 100.712 132.218 99.7113 132.504C98.7109 132.79 97.7491 132.7 96.8259 132.23C95.9071 131.76 95.2974 131.049 94.9968 130.097C94.692 129.144 94.7864 128.233 95.2802 127.358C95.774 126.479 96.5211 125.899 97.5258 125.613C98.5263 125.327 99.4881 125.417 100.411 125.887C101.33 126.353 101.944 127.064 102.245 128.016L102.24 128.012ZM102.056 128.065C101.768 127.162 101.188 126.488 100.312 126.038C99.4322 125.593 98.522 125.507 97.5731 125.781C96.6241 126.054 95.9114 126.606 95.4391 127.44C94.9754 128.278 94.8852 129.144 95.1729 130.047C95.4605 130.955 96.0402 131.629 96.9075 132.071C97.7877 132.524 98.7023 132.614 99.6512 132.34C100.6 132.067 101.309 131.511 101.781 130.669C102.249 129.843 102.343 128.977 102.051 128.069L102.056 128.065Z" fill="white"/>
<path fill-rule="evenodd" clip-rule="evenodd" d="M102.239 128.012C101.939 127.06 101.329 126.349 100.406 125.883C99.4829 125.413 98.5211 125.323 97.5207 125.609C96.5202 125.899 95.7688 126.48 95.2751 127.354C94.7856 128.225 94.6911 129.14 94.9917 130.093C95.2922 131.045 95.9019 131.756 96.8208 132.226C97.744 132.696 98.7058 132.79 99.7062 132.5C100.707 132.21 101.454 131.629 101.948 130.751C102.441 129.876 102.536 128.961 102.235 128.008L102.239 128.012ZM103.257 131.409C102.566 132.631 101.522 133.444 100.136 133.845C98.7444 134.245 97.409 134.114 96.1295 133.46C94.8543 132.811 94.0041 131.826 93.5833 130.501C93.1625 129.177 93.2999 127.906 93.9826 126.688C94.6653 125.47 95.7044 124.661 97.0956 124.26C98.4868 123.864 99.8221 123.987 101.11 124.64C102.39 125.298 103.236 126.283 103.656 127.608C104.077 128.932 103.944 130.199 103.261 131.413L103.257 131.409Z" fill="url(#paint2_radial_1857_101454)"/>
<path d="M100.159 133.914C98.7546 134.319 97.3849 134.188 96.0967 133.526C94.8086 132.868 93.937 131.858 93.5119 130.522C93.0868 129.185 93.2242 127.882 93.9155 126.651C94.6068 125.417 95.6674 124.591 97.0714 124.187C98.4755 123.782 99.8452 123.913 101.146 124.571C102.434 125.233 103.302 126.247 103.727 127.583C104.152 128.92 104.014 130.219 103.323 131.445C102.623 132.68 101.558 133.509 100.154 133.914H100.159ZM97.1186 124.33C95.7532 124.722 94.7227 125.527 94.0529 126.725C93.3831 127.922 93.25 129.185 93.6622 130.481C94.0744 131.777 94.9203 132.757 96.174 133.395C97.4278 134.037 98.7546 134.163 100.12 133.771C101.481 133.379 102.516 132.574 103.194 131.372C103.864 130.183 103.993 128.92 103.585 127.624C103.173 126.324 102.331 125.343 101.077 124.698C99.8151 124.06 98.484 123.933 97.1229 124.322L97.1186 124.33ZM99.7378 132.578C98.7202 132.868 97.7284 132.774 96.7966 132.296C95.8649 131.817 95.2337 131.082 94.9245 130.117C94.6197 129.149 94.7142 128.209 95.2165 127.326C95.7189 126.435 96.4875 125.834 97.5051 125.544C98.5227 125.249 99.5145 125.343 100.451 125.822C101.387 126.296 102.013 127.023 102.323 127.992C102.632 128.961 102.533 129.901 102.031 130.792C101.528 131.683 100.76 132.283 99.7421 132.578H99.7378ZM97.548 125.683C96.5733 125.965 95.8348 126.541 95.3539 127.395C94.873 128.245 94.7786 129.149 95.0748 130.076C95.3668 131.004 95.9722 131.711 96.8696 132.169C97.767 132.627 98.7202 132.717 99.6949 132.435C100.67 132.153 101.408 131.576 101.889 130.722C102.37 129.868 102.469 128.961 102.172 128.033C101.876 127.105 101.271 126.402 100.378 125.952C99.4759 125.491 98.527 125.401 97.5523 125.683H97.548ZM99.682 132.41C98.7159 132.688 97.7713 132.594 96.8782 132.132C95.9937 131.683 95.4011 130.988 95.1049 130.064C94.8129 129.149 94.9031 128.253 95.3754 127.399C95.8563 126.553 96.5905 125.985 97.5566 125.707C98.5227 125.429 99.463 125.519 100.356 125.969C101.249 126.427 101.846 127.125 102.138 128.041C102.43 128.965 102.336 129.856 101.859 130.698C101.382 131.552 100.652 132.128 99.6863 132.406L99.682 132.41ZM97.5995 125.85C96.6764 126.116 95.9722 126.664 95.5128 127.473C95.0619 128.286 94.9761 129.144 95.2509 130.023C95.53 130.906 96.101 131.572 96.9469 132.001C97.8056 132.443 98.7116 132.533 99.6348 132.271C100.558 132.005 101.258 131.454 101.717 130.632C102.172 129.827 102.267 128.973 101.983 128.09C101.704 127.211 101.129 126.545 100.279 126.104C99.4244 125.67 98.5227 125.585 97.5995 125.85Z" fill="black"/>
<path d="M132.438 128.58C132.687 130.746 131.042 132.696 128.767 132.933C126.491 133.17 124.443 131.605 124.194 129.438C123.945 127.272 125.589 125.323 127.865 125.086C130.141 124.849 132.189 126.414 132.438 128.58Z" fill="url(#paint3_radial_1857_101454)"/>
<path d="M131.219 133.007L128.313 131.49L125.359 132.913L125.968 129.815L123.637 127.579L126.921 127.178L128.437 124.371L129.854 127.223L133.122 127.726L130.713 129.888L131.219 133.007Z" fill="#E6E7E8"/>
<path fill-rule="evenodd" clip-rule="evenodd" d="M128.08 128.486C128.247 128.425 128.419 128.433 128.582 128.502C128.75 128.572 128.865 128.69 128.921 128.85C128.994 129.013 128.994 129.177 128.921 129.336C128.844 129.496 128.719 129.602 128.539 129.659C128.372 129.729 128.204 129.725 128.037 129.655C127.869 129.581 127.758 129.463 127.693 129.299C127.629 129.136 127.633 128.977 127.71 128.817C127.788 128.658 127.908 128.547 128.08 128.486Z" fill="url(#paint4_radial_1857_101454)"/>
<path fill-rule="evenodd" clip-rule="evenodd" d="M129.676 130.28C129.006 130.963 127.877 131 127.16 130.362C126.443 129.725 126.404 128.65 127.079 127.967C127.748 127.285 128.878 127.248 129.595 127.885C130.312 128.523 130.35 129.598 129.681 130.28H129.676Z" fill="#989898"/>
<path d="M127.117 130.403C126.379 129.745 126.34 128.633 127.031 127.926C127.723 127.223 128.891 127.186 129.633 127.844C130.376 128.503 130.415 129.614 129.719 130.321C129.024 131.028 127.86 131.065 127.117 130.403ZM129.552 127.926C128.86 127.309 127.766 127.346 127.117 128.004C126.469 128.662 126.508 129.7 127.199 130.317C127.89 130.934 128.981 130.898 129.629 130.24C130.277 129.582 130.243 128.539 129.547 127.922L129.552 127.926Z" fill="black"/>
<path fill-rule="evenodd" clip-rule="evenodd" d="M128.363 128.429C128.565 128.421 128.741 128.486 128.887 128.617C129.038 128.752 129.111 128.911 129.115 129.095C129.132 129.296 129.068 129.463 128.93 129.606C128.793 129.749 128.617 129.819 128.406 129.815C128.205 129.831 128.033 129.77 127.883 129.639C127.732 129.504 127.659 129.341 127.655 129.148C127.646 128.956 127.715 128.793 127.853 128.65C127.99 128.507 128.162 128.433 128.363 128.429Z" fill="url(#paint5_radial_1857_101454)"/>
<path fill-rule="evenodd" clip-rule="evenodd" d="M131.786 130.534C131.352 131.441 130.652 132.071 129.673 132.422C128.694 132.774 127.728 132.745 126.775 132.336C125.822 131.928 125.16 131.253 124.791 130.321C124.426 129.394 124.456 128.474 124.89 127.567C125.319 126.659 126.023 126.034 126.994 125.683C127.973 125.331 128.939 125.36 129.892 125.772C130.845 126.181 131.507 126.856 131.876 127.783C132.249 128.711 132.215 129.631 131.786 130.534ZM131.61 130.46C132.017 129.602 132.048 128.732 131.7 127.841C131.343 126.954 130.716 126.32 129.815 125.932C128.913 125.544 127.994 125.515 127.063 125.846C126.135 126.185 125.47 126.786 125.062 127.644C124.654 128.507 124.619 129.377 124.971 130.256C125.319 131.151 125.95 131.793 126.848 132.181C127.75 132.569 128.668 132.594 129.604 132.255C130.528 131.928 131.197 131.331 131.605 130.469L131.61 130.46Z" fill="white"/>
<path fill-rule="evenodd" clip-rule="evenodd" d="M131.786 130.534C132.215 129.626 132.249 128.711 131.876 127.783C131.506 126.851 130.845 126.181 129.892 125.772C128.939 125.364 127.973 125.331 126.994 125.682C126.019 126.03 125.319 126.659 124.89 127.567C124.46 128.474 124.426 129.389 124.791 130.321C125.16 131.253 125.822 131.923 126.775 132.336C127.728 132.745 128.694 132.773 129.673 132.422C130.652 132.07 131.352 131.441 131.786 130.534ZM130.201 133.73C128.836 134.216 127.492 134.175 126.169 133.607C124.847 133.039 123.928 132.107 123.421 130.812C122.91 129.52 122.949 128.249 123.55 126.99C124.147 125.731 125.126 124.857 126.487 124.366C127.844 123.876 129.184 123.917 130.506 124.485C131.829 125.053 132.752 125.989 133.267 127.284C133.774 128.58 133.731 129.855 133.134 131.114C132.537 132.373 131.562 133.243 130.205 133.73H130.201Z" fill="url(#paint6_radial_1857_101454)"/>
<path d="M126.139 133.673C124.803 133.097 123.863 132.144 123.348 130.836C122.833 129.533 122.876 128.225 123.477 126.954C124.082 125.683 125.083 124.787 126.457 124.293C127.826 123.798 129.2 123.839 130.536 124.411C131.871 124.988 132.816 125.944 133.339 127.256C133.85 128.564 133.807 129.868 133.202 131.139C132.597 132.41 131.6 133.305 130.231 133.795C128.852 134.286 127.474 134.245 126.139 133.669V133.673ZM130.471 124.55C129.17 123.99 127.839 123.954 126.508 124.432C125.177 124.914 124.202 125.781 123.614 127.015C123.03 128.249 122.987 129.516 123.49 130.779C123.988 132.046 124.902 132.974 126.199 133.534C127.496 134.09 128.831 134.135 130.171 133.656C131.497 133.178 132.468 132.312 133.056 131.078C133.644 129.843 133.687 128.576 133.189 127.305C132.682 126.034 131.768 125.106 130.471 124.546V124.55ZM126.74 132.402C125.774 131.985 125.087 131.294 124.718 130.35C124.344 129.406 124.378 128.458 124.816 127.538C125.254 126.618 125.976 125.973 126.968 125.617C127.959 125.262 128.956 125.29 129.926 125.707C130.892 126.124 131.575 126.815 131.948 127.763C132.326 128.703 132.296 129.647 131.854 130.571C131.416 131.49 130.69 132.14 129.698 132.496C128.707 132.851 127.71 132.823 126.744 132.406L126.74 132.402ZM129.857 125.838C128.93 125.441 127.972 125.409 127.023 125.752C126.074 126.091 125.379 126.713 124.958 127.595C124.537 128.478 124.507 129.385 124.864 130.293C125.224 131.2 125.877 131.862 126.804 132.263C127.732 132.663 128.689 132.692 129.638 132.349C130.591 132.005 131.291 131.384 131.712 130.501C132.133 129.618 132.159 128.711 131.798 127.808C131.442 126.901 130.785 126.234 129.857 125.834V125.838ZM126.817 132.242C125.898 131.846 125.254 131.184 124.898 130.276C124.542 129.385 124.576 128.49 124.992 127.612C125.405 126.741 126.096 126.124 127.036 125.777C127.985 125.441 128.93 125.47 129.849 125.866C130.763 126.259 131.416 126.917 131.777 127.816C132.129 128.719 132.099 129.618 131.686 130.493C131.27 131.372 130.579 131.985 129.638 132.32C128.685 132.663 127.736 132.643 126.822 132.246L126.817 132.242ZM129.784 125.997C128.904 125.621 127.998 125.589 127.092 125.911C126.19 126.242 125.533 126.831 125.134 127.669C124.735 128.511 124.705 129.365 125.044 130.223C125.383 131.094 126.006 131.727 126.882 132.107C127.758 132.488 128.668 132.508 129.582 132.177C130.484 131.854 131.145 131.27 131.54 130.428C131.935 129.59 131.965 128.727 131.631 127.865C131.287 127.003 130.664 126.373 129.789 125.997H129.784Z" fill="black"/>
<path fill-rule="evenodd" clip-rule="evenodd" d="M129.033 128.057C129.106 128.192 129.046 128.355 128.904 128.425C128.762 128.494 128.591 128.437 128.518 128.302C128.445 128.167 128.505 128.004 128.646 127.939C128.788 127.869 128.96 127.926 129.033 128.061V128.057Z" fill="black"/>
<path fill-rule="evenodd" clip-rule="evenodd" d="M129.407 129.704C129.266 129.774 129.094 129.716 129.025 129.582C128.952 129.447 129.012 129.283 129.154 129.214C129.296 129.144 129.468 129.201 129.541 129.336C129.609 129.471 129.553 129.635 129.412 129.7L129.407 129.704Z" fill="black"/>
<path fill-rule="evenodd" clip-rule="evenodd" d="M127.504 128.887C127.362 128.952 127.19 128.899 127.117 128.764C127.048 128.629 127.104 128.466 127.246 128.396C127.388 128.331 127.559 128.384 127.628 128.519C127.701 128.654 127.641 128.821 127.499 128.887H127.504Z" fill="black"/>
<path d="M104.901 115.518L105.983 113.752L107.606 114.153L106.254 116.107L104.901 115.518Z" fill="url(#paint7_linear_1857_101454)"/>
<path d="M106.28 116.188L104.803 115.547L105.949 113.675L107.718 114.116L106.28 116.192V116.188ZM105 115.485L106.228 116.017L107.495 114.194L106.018 113.826L105 115.485Z" fill="url(#paint8_linear_1857_101454)"/>
<path d="M131.816 123.802H134.62C134.62 123.802 134.358 123.95 134.041 124.305C133.315 125.172 134.195 125.519 134.195 125.519L133.225 125.703L131.816 123.974V123.798V123.802Z" fill="#FF0000"/>
<path d="M133.194 125.781L131.76 124.019L131.871 123.937L133.254 125.633L134.001 125.49C133.889 125.413 133.756 125.286 133.705 125.098C133.636 124.849 133.731 124.571 133.984 124.268C134.143 124.084 134.293 123.958 134.4 123.872H131.816V123.737H134.881L134.654 123.864C134.654 123.864 134.396 124.007 134.091 124.354C133.868 124.62 133.782 124.861 133.838 125.065C133.911 125.339 134.216 125.462 134.22 125.462L134.435 125.548L133.194 125.785V125.781Z" fill="black"/>
<path d="M122.905 129.586V130.889L123.296 131.404H124.803L125.305 130.889L125.649 129.418L122.905 129.586Z" fill="black"/>
<path d="M105.077 115.391C105.077 115.391 104.768 115.15 104.382 115.555C103.995 115.959 101.054 121.154 99.8603 121.22C99.3794 121.248 99.1647 121.771 99.242 122.066C99.3193 122.36 99.242 123.794 99.242 123.794C99.242 123.794 102.63 126.149 102.823 126.995C103.016 127.841 105.193 130.783 106.198 131.335C107.203 131.887 117.559 132.291 122.853 131.078V129.937L135.528 129.717C135.528 129.717 135.451 124.751 127.529 121.367C119.607 117.983 115.975 119.859 115.975 119.859C115.975 119.859 114.815 120.778 115.318 121.44C115.82 122.102 118.796 125.744 117.134 127.215C115.472 128.687 109.869 131.629 105.27 126.823C102.196 123.611 104.497 119.417 104.961 118.939C105.425 118.461 106.468 115.996 106.468 115.996L105.077 115.391Z" fill="url(#paint9_linear_1857_101454)"/>
<path d="M113.334 132.03C109.792 132.03 106.687 131.793 106.108 131.474C105.068 130.902 102.866 127.955 102.651 127.027C102.518 126.451 100.478 124.857 99.1345 123.925L99.0572 123.872V123.782C99.0916 123.238 99.1173 122.298 99.0658 122.102C99.0057 121.877 99.0787 121.583 99.2418 121.371C99.3921 121.179 99.6025 121.064 99.8387 121.052C100.642 121.007 102.664 117.856 103.523 116.507C103.926 115.878 104.141 115.547 104.24 115.44C104.424 115.248 104.618 115.15 104.824 115.15C104.983 115.15 105.099 115.211 105.146 115.244L106.67 115.906L106.61 116.053C106.567 116.156 105.549 118.551 105.068 119.045C104.708 119.417 102.372 123.565 105.378 126.708C107.022 128.425 108.937 129.296 111.08 129.296C113.789 129.296 116.073 127.91 117.001 127.093C117.666 126.504 117.907 125.082 115.266 121.665L115.163 121.53C114.575 120.754 115.798 119.769 115.85 119.728C115.919 119.687 116.945 119.172 119.066 119.172C121.548 119.172 124.412 119.858 127.585 121.211C135.515 124.599 135.683 129.504 135.687 129.708V129.872L123.012 130.093V131.2L122.879 131.229C119.856 131.924 115.592 132.026 113.321 132.026L113.334 132.03ZM99.4136 123.713C100.002 124.121 102.797 126.12 102.986 126.958C103.175 127.787 105.335 130.673 106.279 131.192C106.726 131.437 109.551 131.707 113.33 131.707C115.554 131.707 119.697 131.609 122.677 130.947V129.778L135.339 129.557C135.236 128.683 134.373 124.473 127.456 121.518C124.33 120.181 121.513 119.507 119.079 119.507C117.061 119.507 116.069 119.997 116.052 120.006C116.052 120.006 115.06 120.827 115.451 121.346L115.549 121.477C117.791 124.375 118.362 126.349 117.241 127.338C116.279 128.188 113.901 129.627 111.088 129.627C108.847 129.627 106.846 128.719 105.133 126.933C101.934 123.59 104.381 119.286 104.824 118.829C105.163 118.477 105.906 116.846 106.236 116.082L104.957 115.522C104.957 115.522 104.905 115.489 104.828 115.489C104.725 115.489 104.609 115.551 104.497 115.669C104.412 115.759 104.137 116.188 103.819 116.687C102.316 119.037 100.77 121.338 99.8601 121.387C99.6884 121.395 99.5811 121.493 99.5166 121.571C99.4007 121.722 99.3664 121.918 99.3964 122.029C99.4694 122.303 99.4222 123.377 99.405 123.717L99.4136 123.713Z" fill="black"/>
<path d="M92.8799 126.475C92.8799 126.475 94.2496 122.809 99.3505 123.361C104.451 123.913 104.357 129.528 104.937 129.749C105.516 129.97 105.164 130.538 103.159 130.191C101.459 129.896 100.918 129.749 99.3548 128.09C96.8731 125.462 94.2796 126.815 94.2796 126.815C94.2796 126.815 92.8799 127.395 92.8799 126.475Z" fill="url(#paint10_linear_1857_101454)"/>
<path d="M104.267 130.464C103.941 130.464 103.559 130.428 103.125 130.354C101.39 130.056 100.815 129.892 99.222 128.2C98.2387 127.158 97.1309 126.631 95.9244 126.631C95.0012 126.631 94.3615 126.958 94.3572 126.962C94.3228 126.974 93.872 127.162 93.4555 127.162C92.9789 127.162 92.7041 126.913 92.7041 126.479L92.7127 126.426C92.7256 126.394 93.9879 123.148 98.3289 123.148C98.6638 123.148 99.0116 123.169 99.368 123.206C103.335 123.635 104.263 127.08 104.709 128.735C104.812 129.116 104.928 129.545 105.01 129.606C105.259 129.7 105.392 129.868 105.353 130.047C105.323 130.203 105.139 130.464 104.267 130.464ZM95.9287 126.304C96.8261 126.304 98.1743 126.594 99.4839 127.983C101.008 129.598 101.511 129.741 103.194 130.031C103.606 130.101 103.967 130.137 104.271 130.137C104.834 130.137 105.006 130.015 105.023 129.982C105.023 129.982 104.98 129.941 104.877 129.9C104.654 129.814 104.563 129.479 104.383 128.813C103.924 127.105 103.069 123.929 99.3336 123.524C98.9944 123.488 98.6552 123.467 98.3332 123.467C94.4345 123.467 93.1764 126.206 93.0519 126.5C93.0605 126.733 93.1807 126.827 93.4555 126.827C93.799 126.827 94.2026 126.659 94.2069 126.659C94.2198 126.651 94.9111 126.295 95.9244 126.295L95.9287 126.304Z" fill="black"/>
<path d="M114.949 120.623C114.949 120.623 113.52 120.847 113.558 119.854C113.597 118.861 113.558 118.971 113.558 118.971C113.558 118.971 113.172 118.309 114.254 118.236C115.336 118.162 130.059 118.236 130.059 118.236C130.059 118.236 130.368 118.383 130.407 118.971C130.446 119.56 130.059 120.516 129.557 120.958C129.054 121.399 128.908 121.51 128.247 121.436C127.586 121.362 114.949 120.623 114.949 120.623Z" fill="url(#paint11_linear_1857_101454)"/>
<path d="M128.565 121.624C128.466 121.624 128.355 121.616 128.226 121.599C127.582 121.526 115.237 120.802 114.941 120.786C114.941 120.786 114.804 120.807 114.619 120.807C114.31 120.807 113.881 120.753 113.619 120.492C113.455 120.328 113.374 120.112 113.387 119.85C113.408 119.29 113.404 119.102 113.4 119.041C113.37 118.98 113.245 118.71 113.387 118.456C113.511 118.232 113.803 118.105 114.241 118.076C114.563 118.056 116.109 118.044 118.831 118.044C123.46 118.044 129.991 118.076 130.059 118.076L130.137 118.093C130.175 118.113 130.536 118.301 130.579 118.963C130.622 119.629 130.197 120.619 129.673 121.08C129.243 121.456 129.037 121.624 128.569 121.624H128.565ZM114.92 120.463C115.473 120.492 127.608 121.203 128.265 121.277C128.827 121.338 128.93 121.285 129.437 120.839C129.883 120.447 130.27 119.548 130.235 118.984C130.21 118.604 130.064 118.448 130.003 118.399C129.372 118.399 123.237 118.367 118.831 118.367C116.113 118.367 114.58 118.379 114.263 118.399C113.958 118.42 113.752 118.493 113.687 118.608C113.636 118.698 113.67 118.808 113.692 118.861C113.743 118.914 113.76 118.976 113.726 119.858C113.717 120.03 113.765 120.165 113.863 120.263C114.052 120.451 114.417 120.48 114.619 120.48C114.786 120.48 114.915 120.463 114.92 120.459V120.463Z" fill="black"/>
<path d="M139.037 117.259H128.397V117.913H129.78L127.989 121.583L128.165 129.766L138.651 117.913H139.037V117.259ZM128.814 128.016L128.676 121.718L130.531 117.913H137.749L128.809 128.016H128.814Z" fill="black"/>
<path d="M121.947 129.823C121.947 129.823 118.46 126.68 121.517 124.452C124.832 122.033 132.338 124.048 134.386 129.733L121.951 129.823H121.947Z" fill="url(#paint12_linear_1857_101454)"/>
<path d="M121.879 129.986L121.828 129.941C121.755 129.872 119.994 128.27 120.093 126.488C120.14 125.658 120.582 124.931 121.411 124.326C122.343 123.643 123.609 123.283 125.069 123.283C128.633 123.283 133.034 125.482 134.546 129.684L134.623 129.896L121.879 129.986ZM125.069 123.61C123.687 123.61 122.493 123.95 121.621 124.583C120.879 125.127 120.479 125.772 120.441 126.504C120.359 127.98 121.742 129.39 122.021 129.659L134.146 129.573C132.613 125.658 128.457 123.61 125.074 123.61H125.069Z" fill="url(#paint13_linear_1857_101454)"/>
<path d="M103.743 114.19L103.717 111.549C103.717 111.549 107.066 112.093 107.607 112.277C108.148 112.461 107.955 112.645 107.955 112.976C107.955 113.307 107.989 113.932 107.989 113.932C107.989 113.932 108.109 114.153 107.607 114.153C107.105 114.153 103.743 114.19 103.743 114.19Z" fill="url(#paint14_linear_1857_101454)"/>
<path d="M103.571 114.357L103.541 111.357L103.743 111.39C103.88 111.414 107.113 111.938 107.663 112.126C108.174 112.297 108.183 112.522 108.144 112.796C108.135 112.849 108.127 112.91 108.127 112.976C108.127 113.262 108.152 113.777 108.161 113.899C108.183 113.965 108.187 114.051 108.135 114.132C108.054 114.259 107.886 114.316 107.611 114.316C107.109 114.316 103.747 114.353 103.747 114.353H103.575L103.571 114.357ZM103.889 111.745L103.91 114.026C104.602 114.018 107.169 113.993 107.603 113.993C107.723 113.993 107.783 113.977 107.813 113.969V113.944C107.813 113.944 107.779 113.315 107.779 112.98C107.779 112.898 107.792 112.82 107.8 112.751C107.826 112.563 107.835 112.53 107.547 112.432C107.152 112.297 105.087 111.942 103.889 111.745Z" fill="url(#paint15_linear_1857_101454)"/>
<path d="M102.177 111.689L103.714 111.55L103.74 114.19H103.199C103.199 114.19 103.641 112.588 102.173 111.689H102.177Z" fill="url(#paint16_linear_1857_101454)"/>
<path d="M103.916 114.353H102.98L103.035 114.149C103.053 114.088 103.426 112.649 102.086 111.827L101.67 111.574L103.885 111.374L103.916 114.357V114.353ZM103.405 114.026H103.568L103.546 111.729L102.627 111.811C103.495 112.567 103.465 113.593 103.405 114.026Z" fill="black"/>
<path d="M106.178 112.497L105.581 109.444L105.443 109.24L105.619 109.073L106.044 108.962L106.083 108.263L106.47 107.417L106.933 110.691L106.409 110.323L106.117 109.33C106.117 109.33 105.903 109.146 105.753 109.35C105.602 109.551 106.431 112.493 106.431 112.493H106.178V112.497Z" fill="black"/>
<path d="M104.902 115.407V118.207L103.125 121.734C103.125 121.734 102.622 123.279 103.125 124.125C103.627 124.971 105.95 130.015 105.95 130.015C105.95 130.015 107.165 131.118 108.702 131.118C110.239 131.118 115.903 132.369 117.384 127.366C117.384 127.366 116.714 131.229 115.529 131.413C112.579 131.866 106.985 131.564 106.255 131.155C105.525 130.746 103.125 125.637 102.738 124.24C102.352 122.842 102.584 123.026 102.584 122.29C102.584 121.554 104.902 115.412 104.902 115.412V115.407Z" fill="#754C24"/>
<path d="M94.5547 124.98C94.5547 124.98 98.9686 121.653 102.545 125.715C106.122 129.774 98.9901 122.552 94.5547 124.98Z" fill="white"/>
<path d="M120.861 126.635C119.831 125.981 125.327 121.485 131.424 126.43C126.757 123.672 120.861 126.635 120.861 126.635Z" fill="white"/>
<path d="M129.278 118.943C129.278 119.168 125.972 119.352 121.893 119.352C117.814 119.352 114.508 119.168 114.508 118.943C114.508 118.718 117.814 118.534 121.893 118.534C125.972 118.534 129.278 118.718 129.278 118.943Z" fill="white"/>
<path d="M117.11 127.55C116.135 128.503 110.695 132.467 104.898 126.978C106.929 129.892 112.271 133.607 117.11 127.55Z" fill="url(#paint17_linear_1857_101454)"/>
<path d="M127.53 121.861C127.53 121.861 116.74 121.179 116.281 121.236C115.821 121.289 116.869 122.025 117.376 122.597C117.882 123.169 118.312 124.04 118.312 124.424C118.312 124.808 118.539 125.294 118.14 126.03C117.741 126.766 120.733 122.903 124.28 122.515C127.354 122.18 127.53 121.861 127.53 121.861Z" fill="url(#paint18_linear_1857_101454)"/>
<path d="M129.575 106.923H139.39C140.528 106.923 141.451 107.802 141.451 108.885V115.244C141.451 116.327 140.528 117.206 139.39 117.206H129.575C128.437 117.206 127.514 116.327 127.514 115.244V108.885C127.514 107.802 128.437 106.923 129.575 106.923Z" fill="url(#paint19_linear_1857_101454)"/>
<path d="M139.39 117.365H129.575C128.342 117.365 127.342 116.413 127.342 115.24V108.885C127.342 107.712 128.342 106.759 129.575 106.759H139.39C140.622 106.759 141.623 107.712 141.623 108.885V115.244C141.623 116.417 140.622 117.369 139.39 117.369V117.365ZM129.575 107.086C128.531 107.086 127.685 107.891 127.685 108.885V115.244C127.685 116.237 128.531 117.042 129.575 117.042H139.39C140.429 117.042 141.279 116.237 141.279 115.244V108.885C141.279 107.895 140.429 107.086 139.39 107.086H129.575Z" fill="black"/>
<path d="M141.626 109.387H127.65V109.714H141.626V109.387Z" fill="black"/>
<path d="M136.302 108.791C136.302 109.122 136.023 109.387 135.675 109.387H133.292C132.948 109.387 132.665 109.122 132.665 108.791C132.665 108.46 132.948 108.194 133.292 108.194H135.675C136.023 108.194 136.302 108.46 136.302 108.791Z" fill="black"/>
<path d="M107.495 113.148C107.495 113.65 107.065 114.059 106.537 114.059C106.009 114.059 105.584 113.65 105.584 113.148C105.584 112.645 106.013 112.24 106.537 112.24C107.061 112.24 107.495 112.649 107.495 113.148Z" fill="black"/>
<path d="M107.255 113.148C107.255 113.503 106.951 113.793 106.581 113.793C106.212 113.793 105.907 113.507 105.907 113.148C105.907 112.788 106.208 112.506 106.581 112.506C106.955 112.506 107.255 112.796 107.255 113.148Z" fill="#4D4E4E"/>
<path fill-rule="evenodd" clip-rule="evenodd" d="M131.154 109.248L131.145 109.256L131.106 109.171L131.128 109.134L131.154 109.187V109.195L131.162 109.203V109.224L131.154 109.24V109.248Z" fill="#404040"/>
<path d="M134.36 111.583L134.269 111.802L134.674 111.801L134.513 112.191H134.108L133.98 112.501L134.797 112.5L134.719 112.689C134.688 112.751 134.648 112.807 134.599 112.856C134.578 112.878 134.553 112.899 134.525 112.919C134.497 112.94 134.466 112.957 134.432 112.973C134.398 112.989 134.361 113.002 134.319 113.012C134.277 113.022 134.232 113.026 134.182 113.027L133.278 113.028C133.358 112.957 133.421 112.87 133.461 112.77L134.104 111.216L134.149 111.109L135.449 111.107L135.31 111.187L134.779 111.582L134.359 111.583L134.36 111.583Z" fill="#020111"/>
<path d="M136.912 111.108H136.91H136.91L136.34 111.109H136.287H135.989C135.918 111.109 135.846 111.123 135.774 111.152C135.703 111.18 135.631 111.219 135.56 111.269C135.489 111.318 135.421 111.376 135.354 111.441C135.288 111.507 135.225 111.578 135.165 111.652L135.93 111.651L135.037 112.767C134.956 112.868 134.86 112.956 134.752 113.027H135.296L135.674 113.026C135.744 113.026 135.816 113.012 135.888 112.983C135.96 112.955 136.031 112.916 136.102 112.867C136.173 112.817 136.242 112.76 136.308 112.694C136.374 112.628 136.438 112.558 136.497 112.483L135.731 112.484L136.627 111.368C136.708 111.267 136.804 111.18 136.911 111.109L136.912 111.108Z" fill="#020111"/>
<path d="M137.112 112.483L137.574 111.365C137.615 111.266 137.678 111.178 137.757 111.107L137.28 111.108L137.239 111.213L137.238 111.215L136.596 112.769C136.555 112.868 136.492 112.957 136.413 113.027L137.334 113.026C137.405 113.026 137.471 113.012 137.532 112.983C137.593 112.955 137.649 112.916 137.701 112.866C137.753 112.817 137.8 112.759 137.841 112.694C137.881 112.628 137.917 112.557 137.948 112.482L137.112 112.483Z" fill="#020111"/>
<path d="M138.761 111.117L138.718 111.223V111.224L138.685 111.306L138.073 112.785C138.034 112.881 137.974 112.967 137.898 113.038H137.968C138.226 113.038 138.463 112.873 138.568 112.62L139.088 111.37C139.128 111.273 139.187 111.187 139.262 111.117L138.761 111.117L138.761 111.117Z" fill="#020111"/>
<path d="M133.953 111.116H133.868C133.864 111.116 133.861 111.116 133.857 111.116H133.83C133.69 111.116 133.564 111.119 133.425 111.119C133.423 111.122 133.421 111.127 133.418 111.132C133.308 111.343 133.296 111.442 133.204 111.624C133.124 111.776 133.09 111.806 133.049 111.814C133.042 111.815 133.005 111.812 132.93 111.813C132.892 111.813 132.813 111.813 132.778 111.813C132.776 111.813 132.755 111.813 132.741 111.813C132.726 111.813 132.71 111.814 132.701 111.813C132.802 111.58 132.903 111.349 133.003 111.117C132.198 111.107 131.381 111.155 130.572 111.171C130.955 111.184 131.337 111.198 131.72 111.208C132.011 111.216 132.304 111.221 132.596 111.227C132.629 111.228 132.652 111.255 132.643 111.288C132.633 111.327 132.601 111.351 132.562 111.352C131.909 111.368 131.256 111.384 130.603 111.4C130.47 111.403 130.336 111.406 130.202 111.41C130.383 111.416 130.563 111.422 130.744 111.427C131.093 111.436 131.443 111.446 131.793 111.455C131.981 111.46 132.17 111.462 132.359 111.466C132.4 111.467 132.417 111.491 132.405 111.529C132.394 111.568 132.364 111.591 132.322 111.591C132.268 111.591 132.213 111.59 132.159 111.592C131.772 111.604 131.385 111.618 130.998 111.631C130.866 111.636 130.735 111.639 130.603 111.643C130.697 111.65 130.793 111.654 130.889 111.657C131.391 111.671 131.892 111.686 132.394 111.7C132.426 111.701 132.447 111.728 132.439 111.76C132.429 111.798 132.398 111.823 132.358 111.825C131.807 111.837 131.256 111.85 130.705 111.863C130.556 111.866 130.407 111.87 130.258 111.873C130.32 111.879 130.385 111.878 130.449 111.88C130.843 111.89 131.237 111.901 131.63 111.912C131.802 111.916 131.975 111.919 132.147 111.923C132.185 111.924 132.202 111.951 132.189 111.989C132.177 112.025 132.144 112.047 132.107 112.049C132.084 112.049 132.06 112.049 132.037 112.049C131.652 112.059 131.267 112.07 130.882 112.081C130.645 112.087 130.407 112.093 130.17 112.099C130.17 112.1 130.169 112.1 130.169 112.101C130.179 112.101 130.189 112.101 130.198 112.101C130.75 112.116 131.3 112.13 131.852 112.145C131.893 112.146 131.935 112.145 131.975 112.148C132.006 112.149 132.02 112.178 132.011 112.21C132 112.245 131.969 112.271 131.936 112.272C131.496 112.286 131.055 112.3 130.614 112.314C130.568 112.316 130.522 112.314 130.476 112.314C130.475 112.317 130.474 112.32 130.473 112.323C130.656 112.329 130.838 112.335 131.021 112.34C131.366 112.35 131.712 112.359 132.058 112.368C132.064 112.368 132.07 112.368 132.075 112.37C132.111 112.379 132.115 112.434 132.079 112.467C132.063 112.482 132.038 112.492 132.02 112.493C131.936 112.496 131.854 112.492 131.77 112.495C131.424 112.506 131.078 112.518 130.733 112.529C130.625 112.533 130.517 112.536 130.41 112.539C130.409 112.542 130.408 112.545 130.407 112.548C130.471 112.548 130.536 112.546 130.6 112.548C131.046 112.56 131.491 112.573 131.937 112.586C131.946 112.586 131.956 112.587 131.964 112.591C131.986 112.603 131.99 112.632 131.976 112.662C131.962 112.692 131.935 112.711 131.905 112.711C131.822 112.712 131.741 112.71 131.658 112.712C131.315 112.723 130.972 112.735 130.629 112.747C130.525 112.75 130.42 112.753 130.316 112.756C130.44 112.763 130.563 112.768 130.688 112.771C131.034 112.78 131.381 112.787 131.726 112.796C131.735 112.796 131.744 112.796 131.752 112.798C131.775 112.806 131.784 112.833 131.774 112.863C131.764 112.892 131.736 112.917 131.71 112.921C131.701 112.922 131.692 112.922 131.683 112.921C131.539 112.92 131.396 112.914 131.25 112.918C130.871 112.926 130.49 112.939 130.11 112.949C129.964 112.953 129.817 112.955 129.671 112.959C130.508 112.976 131.337 113.02 132.182 113.013C132.189 112.998 132.194 112.987 132.2 112.975C132.3 112.744 132.4 112.513 132.499 112.281C132.51 112.255 132.521 112.247 132.542 112.247C132.663 112.249 132.784 112.247 132.905 112.247C132.913 112.247 132.922 112.249 132.933 112.249C132.866 112.405 132.796 112.565 132.727 112.724C132.679 112.835 132.611 112.937 132.528 113.024H132.597C132.753 113.024 132.923 113.024 133.079 113.024C133.301 112.51 133.504 111.984 133.72 111.465C133.774 111.333 133.853 111.215 133.952 111.114L133.953 111.116Z" fill="#020111"/>
</g>
<path d="M127.202 102.433L130.807 104.514L130.807 100.351L127.202 102.433ZM141.623 102.433L138.018 100.351L138.018 104.514L141.623 102.433ZM130.447 102.793L138.379 102.793L138.379 102.072L130.447 102.072L130.447 102.793Z" fill="#25243A"/>
<path d="M100.735 63.2205V71.6111H99.7193V64.2857H99.6701L97.6217 65.6459V64.6135L99.7193 63.2205H100.735ZM106.541 71.6111V63.2205H109.474C110.059 63.2205 110.541 63.3216 110.92 63.5237C111.3 63.7231 111.583 63.9921 111.768 64.3308C111.954 64.6667 112.047 65.0396 112.047 65.4493C112.047 65.8098 111.983 66.1075 111.855 66.3424C111.729 66.5773 111.562 66.763 111.355 66.8996C111.15 67.0361 110.927 67.1372 110.687 67.2028V67.2847C110.944 67.3011 111.202 67.3912 111.461 67.5551C111.721 67.719 111.938 67.9539 112.113 68.2598C112.287 68.5657 112.375 68.9399 112.375 69.3823C112.375 69.803 112.279 70.1812 112.088 70.5172C111.897 70.8531 111.595 71.1194 111.183 71.3161C110.77 71.5128 110.233 71.6111 109.573 71.6111H106.541ZM107.557 70.7098H109.573C110.236 70.7098 110.707 70.5814 110.986 70.3246C111.267 70.0652 111.408 69.7511 111.408 69.3823C111.408 69.0983 111.336 68.8361 111.191 68.5957C111.046 68.3526 110.84 68.1587 110.572 68.014C110.304 67.8665 109.988 67.7927 109.622 67.7927H107.557V70.7098ZM107.557 66.9078H109.441C109.747 66.9078 110.023 66.8477 110.269 66.7275C110.518 66.6073 110.714 66.438 110.859 66.2195C111.006 66.001 111.08 65.7442 111.08 65.4493C111.08 65.0805 110.952 64.7678 110.695 64.5111C110.438 64.2516 110.031 64.1218 109.474 64.1218H107.557V66.9078ZM116.47 71.7422C115.902 71.7422 115.403 71.607 114.974 71.3366C114.548 71.0662 114.215 70.6879 113.975 70.2017C113.737 69.7156 113.618 69.1474 113.618 68.4974C113.618 67.8419 113.737 67.2697 113.975 66.7808C114.215 66.2919 114.548 65.9122 114.974 65.6418C115.403 65.3714 115.902 65.2362 116.47 65.2362C117.038 65.2362 117.535 65.3714 117.961 65.6418C118.39 65.9122 118.723 66.2919 118.961 66.7808C119.201 67.2697 119.321 67.8419 119.321 68.4974C119.321 69.1474 119.201 69.7156 118.961 70.2017C118.723 70.6879 118.39 71.0662 117.961 71.3366C117.535 71.607 117.038 71.7422 116.47 71.7422ZM116.47 70.8736C116.901 70.8736 117.256 70.763 117.535 70.5418C117.814 70.3205 118.02 70.0297 118.154 69.6691C118.287 69.3086 118.354 68.918 118.354 68.4974C118.354 68.0768 118.287 67.6848 118.154 67.3216C118.02 66.9583 117.814 66.6647 117.535 66.4407C117.256 66.2168 116.901 66.1048 116.47 66.1048C116.038 66.1048 115.683 66.2168 115.405 66.4407C115.126 66.6647 114.92 66.9583 114.786 67.3216C114.652 67.6848 114.585 68.0768 114.585 68.4974C114.585 68.918 114.652 69.3086 114.786 69.6691C114.92 70.0297 115.126 70.3205 115.405 70.5418C115.683 70.763 116.038 70.8736 116.47 70.8736ZM121.259 65.3182L122.767 67.891L124.274 65.3182H125.389L123.357 68.4646L125.389 71.6111H124.274L122.767 69.1693L121.259 71.6111H120.145L122.144 68.4646L120.145 65.3182H121.259ZM129.148 71.7422C128.541 71.7422 128.018 71.6084 127.579 71.3407C127.142 71.0703 126.804 70.6934 126.567 70.2099C126.332 69.7238 126.214 69.1584 126.214 68.5138C126.214 67.8692 126.332 67.3011 126.567 66.8094C126.804 66.3151 127.135 65.93 127.558 65.6541C127.984 65.3755 128.481 65.2362 129.049 65.2362C129.377 65.2362 129.701 65.2908 130.02 65.4001C130.34 65.5093 130.631 65.6869 130.893 65.9327C131.155 66.1758 131.364 66.4981 131.52 66.8996C131.676 67.3011 131.753 67.7954 131.753 68.3827V68.7924H126.903V67.9566H130.77C130.77 67.6015 130.699 67.2847 130.557 67.0061C130.418 66.7275 130.218 66.5076 129.959 66.3465C129.702 66.1853 129.399 66.1048 129.049 66.1048C128.664 66.1048 128.331 66.2004 128.05 66.3916C127.771 66.58 127.557 66.8258 127.407 67.129C127.256 67.4322 127.181 67.7572 127.181 68.1041V68.6613C127.181 69.1365 127.263 69.5394 127.427 69.8699C127.594 70.1976 127.824 70.4475 128.119 70.6196C128.414 70.789 128.757 70.8736 129.148 70.8736C129.402 70.8736 129.631 70.8381 129.836 70.7671C130.044 70.6934 130.223 70.5841 130.373 70.4394C130.523 70.2919 130.639 70.1089 130.721 69.8904L131.655 70.1526C131.557 70.4694 131.392 70.748 131.159 70.9883C130.927 71.226 130.64 71.4117 130.299 71.5455C129.958 71.6766 129.574 71.7422 129.148 71.7422Z" fill="#020111"/>
</g>
<defs>
<filter id="filter0_dd_1857_101454" x="0.475178" y="0.557245" width="227.494" height="233.263" filterUnits="userSpaceOnUse" color-interpolation-filters="sRGB">
<feFlood flood-opacity="0" result="BackgroundImageFix"/>
<feColorMatrix in="SourceAlpha" type="matrix" values="0 0 0 0 0 0 0 0 0 0 0 0 0 0 0 0 0 0 127 0" result="hardAlpha"/>
<feOffset dy="19.0821"/>
<feGaussianBlur stdDeviation="22.2624"/>
<feComposite in2="hardAlpha" operator="out"/>
<feColorMatrix type="matrix" values="0 0 0 0 0.403922 0 0 0 0 0.431373 0 0 0 0 0.462745 0 0 0 0.08 0"/>
<feBlend mode="normal" in2="BackgroundImageFix" result="effect1_dropShadow_1857_101454"/>
<feColorMatrix in="SourceAlpha" type="matrix" values="0 0 0 0 0 0 0 0 0 0 0 0 0 0 0 0 0 0 127 0" result="hardAlpha"/>
<feOffset dy="6.36069"/>
<feGaussianBlur stdDeviation="9.54103"/>
<feComposite in2="hardAlpha" operator="out"/>
<feColorMatrix type="matrix" values="0 0 0 0 0 0 0 0 0 0 0 0 0 0 0 0 0 0 0.12 0"/>
<feBlend mode="normal" in2="effect1_dropShadow_1857_101454" result="effect2_dropShadow_1857_101454"/>
<feBlend mode="normal" in="SourceGraphic" in2="effect2_dropShadow_1857_101454" result="shape"/>
</filter>
<radialGradient id="paint0_radial_1857_101454" cx="0" cy="0" r="1" gradientUnits="userSpaceOnUse" gradientTransform="translate(98.575 129.034) rotate(-45.9796) scale(4.04085 4.05258)">
<stop offset="0.47" stop-color="#CB7E0B"/>
<stop offset="0.94"/>
</radialGradient>
<radialGradient id="paint1_radial_1857_101454" cx="0" cy="0" r="1" gradientUnits="userSpaceOnUse" gradientTransform="translate(98.0669 129.074) rotate(-138.327) scale(0.789336 0.785784)">
<stop offset="0.43" stop-color="#777575"/>
<stop offset="0.91"/>
<stop offset="1" stop-color="#666666"/>
</radialGradient>
<radialGradient id="paint2_radial_1857_101454" cx="0" cy="0" r="1" gradientUnits="userSpaceOnUse" gradientTransform="translate(96.5929 122.208) rotate(163.956) scale(5.27761 5.0634)">
<stop offset="0.75" stop-color="#101010"/>
<stop offset="0.81" stop-color="#666666"/>
<stop offset="1" stop-color="#020202"/>
</radialGradient>
<radialGradient id="paint3_radial_1857_101454" cx="0" cy="0" r="1" gradientUnits="userSpaceOnUse" gradientTransform="translate(128.324 129.004) rotate(-5.95142) scale(4.14544 3.95033)">
<stop offset="0.47" stop-color="#CB7E0B"/>
<stop offset="0.94"/>
</radialGradient>
<radialGradient id="paint4_radial_1857_101454" cx="0" cy="0" r="1" gradientUnits="userSpaceOnUse" gradientTransform="translate(128.661 129.016) rotate(-156.704) scale(0.724087 0.700416)">
<stop offset="0.43" stop-color="#777575"/>
<stop offset="0.91"/>
<stop offset="1" stop-color="#666666"/>
</radialGradient>
<radialGradient id="paint5_radial_1857_101454" cx="0" cy="0" r="1" gradientUnits="userSpaceOnUse" gradientTransform="translate(127.825 129.073) rotate(-138.327) scale(0.789336 0.785783)">
<stop offset="0.43" stop-color="#777575"/>
<stop offset="0.91"/>
<stop offset="1" stop-color="#666666"/>
</radialGradient>
<radialGradient id="paint6_radial_1857_101454" cx="0" cy="0" r="1" gradientUnits="userSpaceOnUse" gradientTransform="translate(132.046 121.95) rotate(-156.704) scale(5.25603 5.0842)">
<stop offset="0.75" stop-color="#101010"/>
<stop offset="0.81" stop-color="#666666"/>
<stop offset="1" stop-color="#020202"/>
</radialGradient>
<linearGradient id="paint7_linear_1857_101454" x1="105.541" y1="114.394" x2="106.837" y2="115.278" gradientUnits="userSpaceOnUse">
<stop stop-color="#FFEFA3"/>
<stop offset="1" stop-color="#E0B019"/>
</linearGradient>
<linearGradient id="paint8_linear_1857_101454" x1="104.798" y1="114.93" x2="107.718" y2="114.93" gradientUnits="userSpaceOnUse">
<stop stop-color="#FFEFA3"/>
<stop offset="1" stop-color="#E0B019"/>
</linearGradient>
<linearGradient id="paint9_linear_1857_101454" x1="117.374" y1="131.866" x2="117.374" y2="115.318" gradientUnits="userSpaceOnUse">
<stop stop-color="#FFEFA3"/>
<stop offset="1" stop-color="#E0B019"/>
</linearGradient>
<linearGradient id="paint10_linear_1857_101454" x1="98.7838" y1="128.895" x2="100.609" y2="123.63" gradientUnits="userSpaceOnUse">
<stop stop-color="#FFEFA3"/>
<stop offset="1" stop-color="#E0B019"/>
</linearGradient>
<linearGradient id="paint11_linear_1857_101454" x1="121.948" y1="118.203" x2="121.948" y2="121.461" gradientUnits="userSpaceOnUse">
<stop stop-color="#999999"/>
<stop offset="0.17" stop-color="#818181"/>
<stop offset="0.38" stop-color="#666666"/>
<stop offset="1" stop-color="#191919"/>
</linearGradient>
<linearGradient id="paint12_linear_1857_101454" x1="127.323" y1="129.823" x2="127.323" y2="123.447" gradientUnits="userSpaceOnUse">
<stop stop-color="#FFEFA3"/>
<stop offset="1" stop-color="#E0B019"/>
</linearGradient>
<linearGradient id="paint13_linear_1857_101454" x1="120.093" y1="126.635" x2="134.623" y2="126.635" gradientUnits="userSpaceOnUse">
<stop stop-color="#FFEFA3"/>
<stop offset="1" stop-color="#E0B019"/>
</linearGradient>
<linearGradient id="paint14_linear_1857_101454" x1="105.859" y1="111.549" x2="105.859" y2="114.19" gradientUnits="userSpaceOnUse">
<stop stop-color="#FFEFA3"/>
<stop offset="1" stop-color="#E0B019"/>
</linearGradient>
<linearGradient id="paint15_linear_1857_101454" x1="103.541" y1="112.857" x2="108.17" y2="112.857" gradientUnits="userSpaceOnUse">
<stop stop-color="#FFEFA3"/>
<stop offset="1" stop-color="#E0B019"/>
</linearGradient>
<linearGradient id="paint16_linear_1857_101454" x1="102.959" y1="114.19" x2="102.959" y2="111.55" gradientUnits="userSpaceOnUse">
<stop offset="0.03" stop-color="#191919"/>
<stop offset="0.13" stop-color="#666666"/>
<stop offset="0.47" stop-color="white"/>
<stop offset="0.8" stop-color="#666666"/>
<stop offset="0.99" stop-color="#191919"/>
</linearGradient>
<linearGradient id="paint17_linear_1857_101454" x1="104.903" y1="128.891" x2="117.11" y2="128.891" gradientUnits="userSpaceOnUse">
<stop stop-color="#FFEFA3"/>
<stop offset="1" stop-color="#E0B019"/>
</linearGradient>
<linearGradient id="paint18_linear_1857_101454" x1="116.169" y1="123.676" x2="127.53" y2="123.676" gradientUnits="userSpaceOnUse">
<stop stop-color="#FFEFA3"/>
<stop offset="1" stop-color="#E0B019"/>
</linearGradient>
<linearGradient id="paint19_linear_1857_101454" x1="134.482" y1="117.202" x2="134.482" y2="106.923" gradientUnits="userSpaceOnUse">
<stop stop-color="#FFEFA3"/>
<stop offset="1" stop-color="#E0B019"/>
</linearGradient>
<clipPath id="clip0_1857_101454">
<rect width="14.4213" height="14.4213" fill="white" transform="translate(156.59 34.6528)"/>
</clipPath>
<clipPath id="clip1_1857_101454">
<rect width="54.8009" height="28.8426" fill="white" transform="translate(86.8213 106.759)"/>
</clipPath>
</defs>
</svg>
