<svg width="139" height="145" viewBox="0 0 139 145" fill="none" xmlns="http://www.w3.org/2000/svg">
<rect x="0.333008" width="138.444" height="144.213" fill="white"/>
<path d="M45.6889 22.6527V12.1645H47.9064V20.8244H52.4028V22.6527H45.6889ZM55.9467 22.6527H53.5704L57.1911 12.1645H60.0488L63.6643 22.6527H61.2881L58.6609 14.5612H58.579L55.9467 22.6527ZM55.7982 18.5301H61.411V20.2611H55.7982V18.5301ZM64.9267 22.6527V12.1645H69.0646C69.8567 12.1645 70.5327 12.3062 71.0926 12.5896C71.656 12.8695 72.0844 13.2673 72.378 13.7828C72.6751 14.2949 72.8236 14.8975 72.8236 15.5906C72.8236 16.2871 72.6734 16.8862 72.3729 17.3881C72.0725 17.8866 71.6372 18.269 71.067 18.5353C70.5003 18.8016 69.814 18.9347 69.0083 18.9347H66.2377V17.1525H68.6498C69.0732 17.1525 69.4248 17.0945 69.7048 16.9784C69.9847 16.8623 70.193 16.6882 70.3296 16.4561C70.4695 16.2239 70.5395 15.9354 70.5395 15.5906C70.5395 15.2423 70.4695 14.9487 70.3296 14.7097C70.193 14.4707 69.983 14.2898 69.6997 14.1669C69.4197 14.0406 69.0663 13.9774 68.6396 13.9774H67.1442V22.6527H64.9267ZM70.5907 17.8798L73.1974 22.6527H70.7495L68.1991 17.8798H70.5907ZM81.3453 15.5547C81.2736 15.3055 81.1729 15.0853 81.0431 14.8941C80.9134 14.6995 80.7546 14.5356 80.5668 14.4025C80.3825 14.2659 80.1708 14.1618 79.9318 14.0901C79.6962 14.0184 79.4351 13.9825 79.1483 13.9825C78.6123 13.9825 78.1411 14.1157 77.7348 14.382C77.332 14.6483 77.0179 15.0358 76.7925 15.5445C76.5672 16.0498 76.4545 16.6677 76.4545 17.3984C76.4545 18.129 76.5655 18.7504 76.7874 19.2625C77.0093 19.7746 77.3234 20.1655 77.7297 20.4352C78.136 20.7015 78.6157 20.8347 79.1688 20.8347C79.6706 20.8347 80.0991 20.7459 80.4542 20.5684C80.8127 20.3874 81.0858 20.1331 81.2736 19.8053C81.4648 19.4776 81.5604 19.0901 81.5604 18.6428L82.011 18.7094H79.307V17.0399H83.6959V18.3611C83.6959 19.283 83.5013 20.075 83.1121 20.7374C82.7229 21.3963 82.1869 21.905 81.504 22.2635C80.8212 22.6186 80.0394 22.7961 79.1585 22.7961C78.1752 22.7961 77.3115 22.5793 76.5672 22.1457C75.8229 21.7087 75.2425 21.089 74.826 20.2867C74.4129 19.481 74.2063 18.525 74.2063 17.4188C74.2063 16.5687 74.3292 15.8108 74.575 15.145C74.8243 14.4759 75.1725 13.9091 75.6198 13.4448C76.067 12.9805 76.5877 12.6271 77.1817 12.3847C77.7758 12.1423 78.4194 12.0211 79.1124 12.0211C79.7065 12.0211 80.2596 12.1082 80.7717 12.2823C81.2838 12.453 81.7379 12.6954 82.1339 13.0095C82.5334 13.3236 82.8594 13.6974 83.1121 14.131C83.3647 14.5612 83.5269 15.0358 83.5986 15.5547H81.3453ZM85.3616 22.6527V12.1645H92.4288V13.9928H87.579V16.4919H92.0652V18.3202H87.579V20.8244H92.4493V22.6527H85.3616Z" fill="#020111"/>
<path d="M56.1988 38.2094C55.658 38.2094 55.1759 38.1166 54.7525 37.9308C54.3319 37.7451 53.9973 37.487 53.7488 37.1565C53.503 36.8233 53.3691 36.4368 53.3473 35.9971H54.3797C54.4016 36.2675 54.4944 36.501 54.6583 36.6977C54.8222 36.8916 55.0366 37.0418 55.3015 37.1483C55.5665 37.2548 55.8601 37.3081 56.1824 37.3081C56.5429 37.3081 56.8625 37.2453 57.1411 37.1197C57.4197 36.994 57.6382 36.8192 57.7966 36.5952C57.955 36.3713 58.0342 36.1118 58.0342 35.8168C58.0342 35.5082 57.9577 35.2364 57.8048 35.0015C57.6518 34.7639 57.4279 34.5782 57.1329 34.4443C56.8379 34.3105 56.4774 34.2436 56.0513 34.2436H55.3794V33.3423H56.0513C56.3845 33.3423 56.6767 33.2822 56.928 33.162C57.182 33.0418 57.3801 32.8725 57.5221 32.654C57.6668 32.4355 57.7392 32.1787 57.7392 31.8837C57.7392 31.5997 57.6764 31.3525 57.5508 31.1422C57.4251 30.9319 57.2476 30.768 57.0182 30.6506C56.7915 30.5331 56.5238 30.4744 56.2152 30.4744C55.9256 30.4744 55.6525 30.5276 55.3958 30.6342C55.1418 30.738 54.9342 30.8895 54.773 31.0889C54.6119 31.2856 54.5245 31.5232 54.5108 31.8018H53.5276C53.5439 31.3621 53.6764 30.9769 53.925 30.6465C54.1735 30.3132 54.4985 30.0538 54.9 29.868C55.3043 29.6823 55.7481 29.5894 56.2315 29.5894C56.7505 29.5894 57.1957 29.6946 57.5672 29.9049C57.9386 30.1125 58.224 30.387 58.4234 30.7284C58.6228 31.0698 58.7225 31.4385 58.7225 31.8346C58.7225 32.3071 58.5982 32.71 58.3497 33.0432C58.1039 33.3764 57.7693 33.6072 57.3459 33.7356V33.8011C57.8758 33.8885 58.2896 34.1138 58.5873 34.4771C58.885 34.8376 59.0339 35.2842 59.0339 35.8168C59.0339 36.2729 58.9096 36.6826 58.661 37.0459C58.4152 37.4064 58.0793 37.6905 57.6532 37.8981C57.2271 38.1057 56.7423 38.2094 56.1988 38.2094ZM61.1715 38.1603C60.9693 38.1603 60.7959 38.0879 60.6511 37.9431C60.5064 37.7984 60.434 37.6249 60.434 37.4228C60.434 37.2207 60.5064 37.0473 60.6511 36.9025C60.7959 36.7578 60.9693 36.6854 61.1715 36.6854C61.3736 36.6854 61.547 36.7578 61.6918 36.9025C61.8365 37.0473 61.9089 37.2207 61.9089 37.4228C61.9089 37.5567 61.8748 37.6796 61.8065 37.7916C61.7409 37.9035 61.6522 37.9937 61.5402 38.062C61.4309 38.1275 61.308 38.1603 61.1715 38.1603ZM63.4309 36.374V35.5382L67.1182 29.7042H67.7245V30.9988H67.3148L64.5289 35.4071V35.4727H69.4944V36.374H63.4309ZM67.3804 38.0947V36.12V35.7308V29.7042H68.3473V38.0947H67.3804ZM71.1773 29.7042H72.39L75.2414 36.669H75.3398L78.1912 29.7042H79.4039V38.0947H78.4535V31.7199H78.3715L75.7495 38.0947H74.8317L72.2097 31.7199H72.1277V38.0947H71.1773V29.7042Z" fill="#020111"/>
<path d="M83.9114 31.7101C83.641 31.7101 83.4 31.6636 83.1883 31.5708C82.978 31.4779 82.8107 31.3489 82.6864 31.1836C82.5635 31.017 82.4966 30.8238 82.4857 30.6039H83.0019C83.0128 30.7391 83.0592 30.8559 83.1412 30.9542C83.2231 31.0511 83.3303 31.1263 83.4628 31.1795C83.5952 31.2328 83.7421 31.2594 83.9032 31.2594C84.0835 31.2594 84.2432 31.228 84.3825 31.1652C84.5218 31.1024 84.6311 31.0149 84.7103 30.903C84.7895 30.791 84.8291 30.6612 84.8291 30.5138C84.8291 30.3594 84.7909 30.2236 84.7144 30.1061C84.6379 29.9873 84.5259 29.8944 84.3784 29.8275C84.231 29.7606 84.0507 29.7271 83.8377 29.7271H83.5017V29.2765H83.8377C84.0043 29.2765 84.1504 29.2464 84.276 29.1863C84.403 29.1263 84.502 29.0416 84.5731 28.9323C84.6454 28.8231 84.6816 28.6947 84.6816 28.5472C84.6816 28.4052 84.6502 28.2816 84.5874 28.1764C84.5246 28.0713 84.4358 27.9893 84.3211 27.9306C84.2077 27.8719 84.0739 27.8425 83.9196 27.8425C83.7748 27.8425 83.6383 27.8692 83.5099 27.9224C83.3829 27.9743 83.2791 28.0501 83.1985 28.1498C83.118 28.2481 83.0743 28.3669 83.0674 28.5062H82.5758C82.584 28.2864 82.6502 28.0938 82.7745 27.9286C82.8988 27.762 83.0613 27.6322 83.262 27.5394C83.4641 27.4465 83.6861 27.4001 83.9278 27.4001C84.1873 27.4001 84.4099 27.4526 84.5956 27.5578C84.7813 27.6616 84.924 27.7988 85.0237 27.9695C85.1234 28.1403 85.1733 28.3246 85.1733 28.5226C85.1733 28.7589 85.1111 28.9603 84.9868 29.1269C84.8639 29.2935 84.6966 29.4089 84.485 29.4731V29.5059C84.7499 29.5496 84.9568 29.6623 85.1057 29.8439C85.2545 30.0242 85.3289 30.2475 85.3289 30.5138C85.3289 30.7418 85.2668 30.9467 85.1425 31.1283C85.0196 31.3086 84.8516 31.4506 84.6386 31.5544C84.4256 31.6582 84.1832 31.7101 83.9114 31.7101Z" fill="#020111"/>
<g clip-path="url(#clip0_2034_96997)">
<path d="M120.777 7.99988C117.151 7.99988 114.215 10.9349 114.215 14.5622C114.215 16.1524 114.787 17.6762 115.828 18.8713V21.5893C115.828 21.9534 116.27 22.1374 116.528 21.8793L117.931 20.4764C122.29 22.5734 127.34 19.3872 127.34 14.5622C127.34 10.9354 124.405 7.99988 120.777 7.99988ZM120.777 18.6882C120.552 18.6882 120.369 18.5052 120.369 18.2794C120.369 18.0537 120.552 17.8707 120.777 17.8707C121.003 17.8707 121.186 18.0537 121.186 18.2794C121.186 18.5052 121.003 18.6882 120.777 18.6882ZM121.188 15.7858V16.6388C121.188 16.8653 121.004 17.049 120.777 17.049C120.551 17.049 120.367 16.8653 120.367 16.6388V15.4098C120.367 15.1832 120.551 14.9996 120.777 14.9996C121.683 14.9996 122.419 14.263 122.419 13.3577C122.419 12.4523 121.683 11.7158 120.777 11.7158C119.872 11.7158 119.135 12.4523 119.135 13.3577C119.135 13.5842 118.952 13.7678 118.725 13.7678C118.499 13.7678 118.315 13.5842 118.315 13.3577C118.315 12 119.42 10.8955 120.777 10.8955C122.135 10.8955 123.24 12 123.24 13.3577C123.24 14.5757 122.351 15.5899 121.188 15.7858Z" fill="#25243A"/>
</g>
<path d="M81.5271 72.3378V71.969L82.9118 70.4532C83.0743 70.2756 83.2082 70.1213 83.3133 69.9902C83.4185 69.8577 83.4963 69.7335 83.5469 69.6174C83.5987 69.4999 83.6247 69.377 83.6247 69.2487C83.6247 69.1012 83.5892 68.9735 83.5182 68.8656C83.4485 68.7577 83.3529 68.6744 83.2314 68.6157C83.1098 68.557 82.9733 68.5276 82.8217 68.5276C82.6605 68.5276 82.5199 68.5611 82.3997 68.628C82.2809 68.6935 82.1887 68.7857 82.1232 68.9045C82.059 69.0233 82.0269 69.1626 82.0269 69.3224H81.5434C81.5434 69.0766 81.6001 68.8608 81.7135 68.6751C81.8268 68.4894 81.9811 68.3446 82.1764 68.2408C82.3731 68.137 82.5936 68.0851 82.8381 68.0851C83.0839 68.0851 83.3017 68.137 83.4915 68.2408C83.6814 68.3446 83.8302 68.4846 83.9381 68.6607C84.046 68.8369 84.0999 69.0329 84.0999 69.2487C84.0999 69.403 84.0719 69.5539 84.016 69.7014C83.9613 69.8475 83.8657 70.0107 83.7292 70.191C83.594 70.3699 83.4062 70.5884 83.1658 70.8465L82.2235 71.8543V71.8871H84.1737V72.3378H81.5271ZM85.0279 72.3378V69.1913H85.495V69.6829H85.5359C85.6015 69.515 85.7073 69.3845 85.8534 69.2917C85.9996 69.1974 86.1751 69.1503 86.3799 69.1503C86.5875 69.1503 86.7602 69.1974 86.8982 69.2917C87.0375 69.3845 87.146 69.515 87.2239 69.6829H87.2566C87.3372 69.5204 87.4581 69.3914 87.6192 69.2958C87.7804 69.1988 87.9736 69.1503 88.1989 69.1503C88.4803 69.1503 88.7104 69.2384 88.8893 69.4146C89.0682 69.5894 89.1576 69.8618 89.1576 70.2319V72.3378H88.6742V70.2319C88.6742 69.9998 88.6107 69.8338 88.4837 69.7342C88.3567 69.6345 88.2071 69.5846 88.0351 69.5846C87.8138 69.5846 87.6424 69.6515 87.5209 69.7854C87.3994 69.9178 87.3386 70.0858 87.3386 70.2893V72.3378H86.847V70.1828C86.847 70.0039 86.7889 69.8598 86.6728 69.7505C86.5568 69.6399 86.4072 69.5846 86.2242 69.5846C86.0986 69.5846 85.9811 69.6181 85.8719 69.685C85.764 69.7519 85.6766 69.8448 85.6097 69.9636C85.5441 70.081 85.5113 70.2169 85.5113 70.3712V72.3378H85.0279Z" fill="#020111"/>
<path d="M62.1148 127.086C62.3729 127.088 62.631 127.138 62.8891 127.234C63.1472 127.33 63.3828 127.49 63.5958 127.713C63.8089 127.934 63.9799 128.237 64.109 128.62C64.238 129.003 64.3026 129.483 64.3026 130.061C64.3026 130.62 64.2493 131.117 64.1428 131.551C64.0383 131.983 63.8867 132.348 63.688 132.645C63.4914 132.942 63.2517 133.167 62.969 133.321C62.6884 133.475 62.3709 133.551 62.0165 133.551C61.6641 133.551 61.3497 133.482 61.0731 133.342C60.7986 133.201 60.5733 133.005 60.3971 132.756C60.223 132.504 60.1114 132.212 60.0622 131.88H60.812C60.8796 132.169 61.0137 132.407 61.2145 132.596C61.4173 132.782 61.6846 132.875 62.0165 132.875C62.502 132.875 62.885 132.663 63.1657 132.239C63.4484 131.815 63.5897 131.216 63.5897 130.442H63.5405C63.4258 130.614 63.2896 130.762 63.1319 130.887C62.9741 131.012 62.799 131.109 62.6064 131.176C62.4139 131.244 62.209 131.278 61.9919 131.278C61.6313 131.278 61.3005 131.188 60.9994 131.01C60.7003 130.83 60.4606 130.583 60.2804 130.27C60.1022 129.954 60.0131 129.594 60.0131 129.188C60.0131 128.803 60.0991 128.451 60.2712 128.131C60.4453 127.809 60.689 127.553 61.0025 127.363C61.3179 127.172 61.6887 127.08 62.1148 127.086ZM62.1148 127.762C61.8567 127.762 61.6242 127.827 61.4173 127.956C61.2124 128.083 61.0496 128.255 60.9287 128.472C60.8099 128.687 60.7505 128.926 60.7505 129.188C60.7505 129.45 60.8079 129.689 60.9226 129.904C61.0393 130.117 61.1981 130.287 61.3988 130.414C61.6016 130.539 61.8321 130.602 62.0902 130.602C62.2848 130.602 62.4661 130.564 62.6341 130.488C62.8021 130.41 62.9485 130.305 63.0735 130.171C63.2005 130.036 63.2998 129.884 63.3715 129.714C63.4432 129.541 63.4791 129.362 63.4791 129.176C63.4791 128.93 63.4197 128.7 63.3009 128.484C63.1841 128.269 63.0223 128.095 62.8154 127.962C62.6105 127.829 62.377 127.762 62.1148 127.762ZM67.5635 133.551C67.1005 133.551 66.7062 133.425 66.3805 133.173C66.0548 132.919 65.8059 132.552 65.6338 132.07C65.4618 131.587 65.3757 131.003 65.3757 130.319C65.3757 129.639 65.4618 129.058 65.6338 128.577C65.8079 128.093 66.0579 127.724 66.3836 127.47C66.7113 127.214 67.1046 127.086 67.5635 127.086C68.0223 127.086 68.4146 127.214 68.7403 127.47C69.0681 127.724 69.318 128.093 69.4901 128.577C69.6642 129.058 69.7513 129.639 69.7513 130.319C69.7513 131.003 69.6652 131.587 69.4932 132.07C69.3211 132.552 69.0722 132.919 68.7465 133.173C68.4208 133.425 68.0264 133.551 67.5635 133.551ZM67.5635 132.875C68.0223 132.875 68.3788 132.654 68.6328 132.212C68.8868 131.769 69.0138 131.138 69.0138 130.319C69.0138 129.774 68.9554 129.31 68.8387 128.927C68.724 128.544 68.558 128.252 68.3409 128.051C68.1258 127.85 67.8667 127.75 67.5635 127.75C67.1087 127.75 66.7533 127.974 66.4973 128.423C66.2412 128.87 66.1132 129.502 66.1132 130.319C66.1132 130.864 66.1705 131.327 66.2852 131.708C66.4 132.089 66.5649 132.379 66.7799 132.577C66.9971 132.776 67.2583 132.875 67.5635 132.875ZM72.9715 133.551C72.5085 133.551 72.1142 133.425 71.7885 133.173C71.4628 132.919 71.2139 132.552 71.0418 132.07C70.8697 131.587 70.7837 131.003 70.7837 130.319C70.7837 129.639 70.8697 129.058 71.0418 128.577C71.2159 128.093 71.4658 127.724 71.7916 127.47C72.1193 127.214 72.5126 127.086 72.9715 127.086C73.4303 127.086 73.8226 127.214 74.1483 127.47C74.4761 127.724 74.726 128.093 74.8981 128.577C75.0722 129.058 75.1593 129.639 75.1593 130.319C75.1593 131.003 75.0732 131.587 74.9011 132.07C74.7291 132.552 74.4802 132.919 74.1545 133.173C73.8288 133.425 73.4344 133.551 72.9715 133.551ZM72.9715 132.875C73.4303 132.875 73.7868 132.654 74.0408 132.212C74.2948 131.769 74.4218 131.138 74.4218 130.319C74.4218 129.774 74.3634 129.31 74.2467 128.927C74.1319 128.544 73.966 128.252 73.7489 128.051C73.5338 127.85 73.2747 127.75 72.9715 127.75C72.5167 127.75 72.1613 127.974 71.9052 128.423C71.6492 128.87 71.5212 129.502 71.5212 130.319C71.5212 130.864 71.5785 131.327 71.6932 131.708C71.8079 132.089 71.9728 132.379 72.1879 132.577C72.4051 132.776 72.6663 132.875 72.9715 132.875ZM79.4488 131.745L79.4365 130.847H79.584L81.6488 128.746H82.5461L80.346 130.97H80.2845L79.4488 131.745ZM78.7728 133.465V127.172H79.4979V133.465H78.7728ZM81.7717 133.465L79.9281 131.13L80.4443 130.626L82.6936 133.465H81.7717ZM85.1901 135.334C84.8399 135.334 84.5387 135.288 84.2868 135.198C84.0348 135.11 83.8248 134.993 83.6569 134.848C83.4909 134.705 83.3588 134.551 83.2605 134.387L83.8381 133.982C83.9037 134.068 83.9867 134.166 84.087 134.277C84.1874 134.389 84.3247 134.486 84.4988 134.568C84.675 134.652 84.9054 134.694 85.1901 134.694C85.5712 134.694 85.8856 134.602 86.1335 134.418C86.3813 134.234 86.5053 133.945 86.5053 133.551V132.593H86.4438C86.3906 132.679 86.3148 132.785 86.2164 132.912C86.1202 133.037 85.9809 133.149 85.7985 133.247C85.6183 133.343 85.3745 133.392 85.0672 133.392C84.6862 133.392 84.3441 133.301 84.0409 133.121C83.7398 132.941 83.5012 132.679 83.325 132.335C83.1509 131.99 83.0638 131.573 83.0638 131.081C83.0638 130.597 83.1488 130.176 83.3189 129.818C83.4889 129.457 83.7255 129.179 84.0287 128.982C84.3318 128.784 84.6821 128.684 85.0795 128.684C85.3868 128.684 85.6306 128.735 85.8108 128.838C85.9931 128.938 86.1324 129.053 86.2287 129.182C86.3271 129.309 86.4028 129.413 86.4561 129.495H86.5299V128.746H87.2304V133.601C87.2304 134.006 87.1382 134.336 86.9539 134.59C86.7716 134.846 86.5258 135.033 86.2164 135.152C85.9092 135.273 85.5671 135.334 85.1901 135.334ZM85.1656 132.74C85.4564 132.74 85.7023 132.674 85.903 132.54C86.1038 132.407 86.2564 132.216 86.3609 131.966C86.4653 131.716 86.5176 131.417 86.5176 131.069C86.5176 130.729 86.4663 130.428 86.3639 130.168C86.2615 129.908 86.1099 129.704 85.9092 129.557C85.7084 129.409 85.4605 129.336 85.1656 129.336C84.8583 129.336 84.6022 129.413 84.3974 129.569C84.1946 129.725 84.042 129.934 83.9395 130.196C83.8392 130.458 83.789 130.749 83.789 131.069C83.789 131.396 83.8402 131.686 83.9426 131.938C84.0471 132.188 84.2007 132.385 84.4035 132.528C84.6084 132.669 84.8624 132.74 85.1656 132.74Z" fill="#020111"/>
<g clip-path="url(#clip1_2034_96997)">
<path opacity="0.02" fill-rule="evenodd" clip-rule="evenodd" d="M23.5254 116.779L35.4262 108.454H104.568L118.456 116.779H23.5254Z" fill="#323232"/>
<path opacity="0.04" fill-rule="evenodd" clip-rule="evenodd" d="M23.6426 116.743L35.4403 108.487H104.556L118.323 116.743H23.6426Z" fill="#313131"/>
<path opacity="0.06" fill-rule="evenodd" clip-rule="evenodd" d="M23.7568 116.709L35.4552 108.524H104.542L118.19 116.709H23.7568Z" fill="#303030"/>
<path opacity="0.08" fill-rule="evenodd" clip-rule="evenodd" d="M23.875 116.673L35.474 108.557H104.527L118.058 116.673H23.875Z" fill="#2F2F2F"/>
<path opacity="0.1" fill-rule="evenodd" clip-rule="evenodd" d="M23.9912 116.636L35.4872 108.593H104.511L117.924 116.636H23.9912Z" fill="#2E2E2E"/>
<path opacity="0.12" fill-rule="evenodd" clip-rule="evenodd" d="M24.1104 116.603L35.5033 108.63H104.498L117.793 116.603H24.1104Z" fill="#2D2D2D"/>
<path opacity="0.13" fill-rule="evenodd" clip-rule="evenodd" d="M24.2285 116.567L35.5221 108.663H104.483L117.661 116.567H24.2285Z" fill="#2C2C2C"/>
<path opacity="0.15" fill-rule="evenodd" clip-rule="evenodd" d="M24.3447 116.53L35.5353 108.7H104.467L117.527 116.53H24.3447Z" fill="#2B2B2B"/>
<path opacity="0.17" fill-rule="evenodd" clip-rule="evenodd" d="M24.459 116.497L35.5502 108.737H104.456L117.395 116.497H24.459Z" fill="#2A2A2A"/>
<path opacity="0.19" fill-rule="evenodd" clip-rule="evenodd" d="M24.5771 116.46L35.569 108.77H104.442L117.263 116.46H24.5771Z" fill="#292929"/>
<path opacity="0.21" fill-rule="evenodd" clip-rule="evenodd" d="M24.6963 116.427L35.5851 108.806H104.429L117.132 116.427H24.6963Z" fill="#282828"/>
<path opacity="0.23" fill-rule="evenodd" clip-rule="evenodd" d="M24.8125 116.39L35.5983 108.843H104.412L116.998 116.39H24.8125Z" fill="#272727"/>
<path opacity="0.25" fill-rule="evenodd" clip-rule="evenodd" d="M24.9307 116.353L35.6171 108.876H104.398L116.869 116.353H24.9307Z" fill="#262626"/>
<path opacity="0.27" fill-rule="evenodd" clip-rule="evenodd" d="M25.0479 116.321L35.6312 108.913H104.383L116.736 116.321H25.0479Z" fill="#252525"/>
<path opacity="0.29" fill-rule="evenodd" clip-rule="evenodd" d="M25.1621 116.284L35.6461 108.95H104.372L116.604 116.284H25.1621Z" fill="#242424"/>
<path opacity="0.31" fill-rule="evenodd" clip-rule="evenodd" d="M25.2803 116.247L35.6649 108.983H104.358L116.472 116.247H25.2803Z" fill="#232323"/>
<path opacity="0.33" fill-rule="evenodd" clip-rule="evenodd" d="M25.3984 116.214L35.6801 109.019H104.343L116.34 116.214H25.3984Z" fill="#222222"/>
<path opacity="0.35" fill-rule="evenodd" clip-rule="evenodd" d="M25.5156 116.177L35.6942 109.052H104.328L116.207 116.177H25.5156Z" fill="#212121"/>
<path opacity="0.37" fill-rule="evenodd" clip-rule="evenodd" d="M25.6338 116.141L35.713 109.089H104.314L116.075 116.141H25.6338Z" fill="#202020"/>
<path opacity="0.38" fill-rule="evenodd" clip-rule="evenodd" d="M25.751 116.107L35.7272 109.126H104.298L115.942 116.107H25.751Z" fill="#1F1F1F"/>
<path opacity="0.4" fill-rule="evenodd" clip-rule="evenodd" d="M25.8652 116.071L35.7421 109.159H104.288L115.809 116.071H25.8652Z" fill="#1E1E1E"/>
<path opacity="0.42" fill-rule="evenodd" clip-rule="evenodd" d="M25.9834 116.034L35.7609 109.195H104.273L115.677 116.034H25.9834Z" fill="#1D1D1D"/>
<path opacity="0.44" fill-rule="evenodd" clip-rule="evenodd" d="M26.1016 116.001L35.776 109.232H104.259L115.545 116.001H26.1016Z" fill="#1C1C1C"/>
<path opacity="0.46" fill-rule="evenodd" clip-rule="evenodd" d="M26.2178 115.964L35.7892 109.265H104.243L115.411 115.964H26.2178Z" fill="#1B1B1B"/>
<path opacity="0.48" fill-rule="evenodd" clip-rule="evenodd" d="M26.3369 115.931L35.809 109.302H104.229L115.28 115.931H26.3369Z" fill="#1A1A1A"/>
<path opacity="0.5" fill-rule="evenodd" clip-rule="evenodd" d="M26.4502 115.895L35.8229 109.339H104.214L115.15 115.895H26.4502Z" fill="#1A1A1A"/>
<path opacity="0.52" fill-rule="evenodd" clip-rule="evenodd" d="M26.5693 115.858L35.839 109.372H104.204L115.019 115.858H26.5693Z" fill="#191919"/>
<path opacity="0.54" fill-rule="evenodd" clip-rule="evenodd" d="M26.6855 115.825L35.8559 109.408H104.188L114.885 115.825H26.6855Z" fill="#181818"/>
<path opacity="0.56" fill-rule="evenodd" clip-rule="evenodd" d="M26.8037 115.788L35.871 109.441H104.174L114.753 115.788H26.8037Z" fill="#171717"/>
<path opacity="0.58" fill-rule="evenodd" clip-rule="evenodd" d="M26.9209 115.751L35.8851 109.478H104.158L114.62 115.751H26.9209Z" fill="#161616"/>
<path opacity="0.6" fill-rule="evenodd" clip-rule="evenodd" d="M27.0391 115.718L35.9039 109.515H104.144L114.488 115.718H27.0391Z" fill="#151515"/>
<path opacity="0.62" fill-rule="evenodd" clip-rule="evenodd" d="M27.1533 115.682L35.9188 109.548H104.129L114.356 115.682H27.1533Z" fill="#141414"/>
<path opacity="0.63" fill-rule="evenodd" clip-rule="evenodd" d="M27.2715 115.649L35.934 109.584H104.119L114.224 115.649H27.2715Z" fill="#131313"/>
<path opacity="0.65" fill-rule="evenodd" clip-rule="evenodd" d="M27.3887 115.612L35.9518 109.621H104.104L114.091 115.612H27.3887Z" fill="#121212"/>
<path opacity="0.67" fill-rule="evenodd" clip-rule="evenodd" d="M27.5068 115.575L35.9669 109.654H104.089L113.959 115.575H27.5068Z" fill="#111111"/>
<path opacity="0.69" fill-rule="evenodd" clip-rule="evenodd" d="M27.624 115.542L35.9811 109.691H104.074L113.826 115.542H27.624Z" fill="#101010"/>
<path opacity="0.71" fill-rule="evenodd" clip-rule="evenodd" d="M27.7422 115.506L35.9999 109.728H104.06L113.694 115.506H27.7422Z" fill="#0F0F0F"/>
<path opacity="0.73" fill-rule="evenodd" clip-rule="evenodd" d="M27.8564 115.469L36.0148 109.761H104.045L113.561 115.469H27.8564Z" fill="#0E0E0E"/>
<path opacity="0.75" fill-rule="evenodd" clip-rule="evenodd" d="M27.9746 115.436L36.0299 109.797H104.034L113.429 115.436H27.9746Z" fill="#0D0D0D"/>
<path opacity="0.77" fill-rule="evenodd" clip-rule="evenodd" d="M28.0918 115.399L36.0477 109.834H104.019L113.3 115.399H28.0918Z" fill="#0C0C0C"/>
<path opacity="0.79" fill-rule="evenodd" clip-rule="evenodd" d="M28.21 115.362L36.0629 109.867H104.005L113.168 115.362H28.21Z" fill="#0B0B0B"/>
<path opacity="0.81" fill-rule="evenodd" clip-rule="evenodd" d="M28.3281 115.33L36.078 109.904H103.991L113.036 115.33H28.3281Z" fill="#0A0A0A"/>
<path opacity="0.83" fill-rule="evenodd" clip-rule="evenodd" d="M28.4443 115.293L36.0948 109.941H103.974L112.902 115.293H28.4443Z" fill="#090909"/>
<path opacity="0.85" fill-rule="evenodd" clip-rule="evenodd" d="M28.5586 115.256L36.1097 109.974H103.96L112.769 115.256H28.5586Z" fill="#080808"/>
<path opacity="0.87" fill-rule="evenodd" clip-rule="evenodd" d="M28.6768 115.223L36.1249 110.01H103.949L112.637 115.223H28.6768Z" fill="#070707"/>
<path opacity="0.88" fill-rule="evenodd" clip-rule="evenodd" d="M28.7939 115.186L36.1427 110.043H103.934L112.504 115.186H28.7939Z" fill="#060606"/>
<path opacity="0.9" fill-rule="evenodd" clip-rule="evenodd" d="M28.9121 115.153L36.1578 110.08H103.919L112.372 115.153H28.9121Z" fill="#050505"/>
<path opacity="0.92" fill-rule="evenodd" clip-rule="evenodd" d="M29.0303 115.116L36.173 110.117H103.905L112.24 115.116H29.0303Z" fill="#040404"/>
<path opacity="0.94" fill-rule="evenodd" clip-rule="evenodd" d="M29.1445 115.08L36.1915 110.15H103.891L112.108 115.08H29.1445Z" fill="#030303"/>
<path opacity="0.96" fill-rule="evenodd" clip-rule="evenodd" d="M29.2617 115.047L36.2057 110.186H103.875L111.975 115.047H29.2617Z" fill="#020202"/>
<path opacity="0.98" fill-rule="evenodd" clip-rule="evenodd" d="M29.3799 115.01L36.2208 110.223H103.865L111.843 115.01H29.3799Z" fill="#010101"/>
<path fill-rule="evenodd" clip-rule="evenodd" d="M111.71 114.973H29.4971L36.2386 110.256H103.849L111.71 114.973Z" fill="black"/>
<path fill-rule="evenodd" clip-rule="evenodd" d="M26.5125 99.6367C26.6155 100.026 26.7443 100.22 26.8915 100.22C27.0387 100.22 27.1712 100.026 27.2779 99.6367C27.381 99.2549 27.4325 98.7887 27.4325 98.2417C27.4325 97.6948 27.381 97.2249 27.2779 96.8358C27.1675 96.4541 27.0387 96.2632 26.8915 96.2632C26.7443 96.2632 26.6155 96.4541 26.5125 96.8358C26.4058 97.2249 26.3506 97.6948 26.3506 98.2417C26.3506 98.7887 26.4058 99.2549 26.5125 99.6367Z" fill="white"/>
<path d="M27.5874 96.1018H26.7705V100.301H27.5874V96.1018Z" fill="url(#paint0_linear_2034_96997)"/>
<path d="M28.3412 95.6724H27.0938V100.727H28.3412V95.6724Z" fill="url(#paint1_linear_2034_96997)"/>
<path fill-rule="evenodd" clip-rule="evenodd" d="M32.9908 79.6344C33.311 79.0104 34.5327 78.5185 36.6597 78.1514C38.6027 77.81 40.9063 77.6338 43.5742 77.6265C46.2495 77.6191 48.5936 77.7806 50.6028 78.1183C52.8145 78.4818 54.1503 78.9883 54.6139 79.6344C54.6618 81.3156 54.6765 85.3241 54.6618 91.6636V93.3742C54.6618 94.4534 54.6581 95.5987 54.6507 96.8064V97.5699C54.6434 100.154 54.6323 103.003 54.6176 106.119H28.3505C27.9383 103.803 27.666 101.457 27.5299 99.086C27.5078 98.5537 27.4857 98.0471 27.471 97.5699C27.4636 97.302 27.46 97.0487 27.46 96.8064C27.4747 95.3528 27.5961 94.2111 27.828 93.3742C28.1113 92.3537 28.5603 91.8031 29.1748 91.7223C29.1822 91.7003 29.1895 91.682 29.1969 91.6673C31.6808 83.8301 32.9467 79.8216 32.9908 79.6381V79.6344Z" fill="url(#paint2_linear_2034_96997)"/>
<path d="M54.6132 106.226H28.3498C28.2983 106.226 28.2541 106.189 28.2468 106.138C27.8383 103.825 27.5586 101.454 27.4225 99.0898C27.4004 98.5538 27.382 98.0509 27.3636 97.5701C27.3562 97.3021 27.3525 97.0488 27.3525 96.8029C27.3673 95.3492 27.4924 94.1856 27.7205 93.345C28.0039 92.3208 28.4675 91.7408 29.0968 91.6234C29.0968 91.6234 29.0968 91.616 29.1005 91.616C31.566 83.8339 32.8429 79.7887 32.8871 79.6088C32.8871 79.6015 32.8908 79.5941 32.8945 79.5868C33.233 78.9261 34.4584 78.4231 36.6406 78.0487C38.5799 77.7073 40.913 77.5311 43.5735 77.5238H43.7502C46.3445 77.5238 48.6555 77.689 50.6205 78.0157C52.88 78.3901 54.2158 78.9004 54.7015 79.5758C54.7126 79.5941 54.7199 79.6125 54.7199 79.6345C54.7641 81.3047 54.7825 85.3536 54.7641 91.6674V93.378C54.7641 94.4572 54.7641 95.6025 54.7531 96.8102V97.5737C54.7457 100.158 54.7347 103.01 54.7199 106.127C54.7199 106.185 54.6721 106.233 54.6132 106.233V106.226ZM28.4381 106.013H54.5065C54.5212 102.937 54.5323 100.125 54.5396 97.5664V96.8029C54.547 95.5952 54.5507 94.4499 54.5507 93.3707V91.6601C54.5654 85.3903 54.5507 81.3561 54.5065 79.6676C54.0428 79.0582 52.7218 78.5737 50.5837 78.2213C48.6334 77.8982 46.3335 77.733 43.7502 77.733H43.5735C40.924 77.7404 38.6057 77.9166 36.6774 78.258C34.6093 78.614 33.4023 79.0876 33.0895 79.6749C33.0012 79.9869 31.7279 84.0321 29.2955 91.6968C29.2845 91.7225 29.2771 91.7372 29.2734 91.7555C29.2624 91.7922 29.2256 91.8216 29.1851 91.8253C28.6184 91.9023 28.1952 92.4309 27.9266 93.4C27.7021 94.2223 27.5807 95.3676 27.566 96.8065C27.566 97.0488 27.566 97.3021 27.577 97.5664C27.5917 98.0436 27.6101 98.5502 27.6359 99.0824C27.7684 101.406 28.0407 103.741 28.4418 106.017L28.4381 106.013Z" fill="url(#paint3_linear_2034_96997)"/>
<path fill-rule="evenodd" clip-rule="evenodd" d="M33.9428 104.086C33.9428 103.612 33.7772 103.205 33.4424 102.867C33.1038 102.537 32.6953 102.371 32.2206 102.371H28.3531C27.8783 102.371 27.4736 102.537 27.1387 102.867C26.8001 103.205 26.6309 103.608 26.6309 104.086V105.455C26.6309 105.928 26.8001 106.332 27.1387 106.663C27.4699 107 27.8747 107.169 28.3531 107.169H32.2243C32.699 107.169 33.1075 107 33.446 106.663C33.7772 106.332 33.9465 105.928 33.9465 105.455V104.086H33.9428Z" fill="url(#paint4_linear_2034_96997)"/>
<path d="M32.2248 107.276H28.3535C27.8494 107.276 27.4152 107.096 27.0656 106.74C26.7086 106.391 26.5283 105.958 26.5283 105.455V104.086C26.5283 103.583 26.7086 103.15 27.0693 102.794C27.4189 102.441 27.8531 102.265 28.3572 102.265H32.2285C32.7326 102.265 33.1669 102.441 33.5238 102.794C33.8771 103.15 34.0537 103.587 34.0537 104.086V105.455C34.0537 105.958 33.8771 106.387 33.5238 106.74C33.1669 107.096 32.7289 107.276 32.2285 107.276H32.2248ZM28.3535 102.478C27.9083 102.478 27.5256 102.636 27.2165 102.944C26.8963 103.263 26.7418 103.638 26.7418 104.086V105.455C26.7418 105.903 26.8963 106.274 27.2165 106.586C27.5329 106.905 27.9046 107.059 28.3535 107.059H32.2248C32.6737 107.059 33.0491 106.905 33.3693 106.586C33.682 106.274 33.8366 105.903 33.8366 105.455V104.086C33.8366 103.638 33.682 103.263 33.3693 102.944C33.0491 102.632 32.6737 102.482 32.2248 102.482H28.3535V102.478Z" fill="black"/>
<path fill-rule="evenodd" clip-rule="evenodd" d="M34.2051 106.142H51.9827C51.8281 103.994 50.967 102.141 49.3957 100.573C47.6514 98.8368 45.5502 97.9668 43.092 97.9668C40.6339 97.9668 38.5326 98.8331 36.7957 100.573C35.2244 102.141 34.3596 103.994 34.2088 106.142H34.2051Z" fill="black"/>
<path d="M34.2051 106.248H34.1978C34.1389 106.248 34.0947 106.193 34.0984 106.134C34.253 103.972 35.1362 102.074 36.7185 100.496C38.4665 98.7449 40.6118 97.8602 43.0884 97.8602C45.565 97.8602 47.7104 98.7449 49.4694 100.496C51.0517 102.074 51.9349 103.968 52.0894 106.134C52.0931 106.193 52.049 106.244 51.9901 106.248C51.9349 106.255 51.8797 106.208 51.876 106.149C51.7251 104.038 50.864 102.188 49.3185 100.646C47.6037 98.9394 45.5098 98.0731 43.0921 98.0731C40.6744 98.0731 38.5805 98.9394 36.8731 100.646C35.3275 102.188 34.4664 104.038 34.3155 106.149C34.3119 106.204 34.264 106.248 34.2088 106.248H34.2051ZM54.0803 106.189C54.0251 106.189 53.9772 106.145 53.9736 106.09C53.7859 103.473 52.7224 101.175 50.8052 99.2625C48.6745 97.1444 46.0728 96.0725 43.0737 96.0725C40.0746 96.0725 37.4766 97.1444 35.3569 99.2625C34.3634 100.257 33.5869 101.362 33.057 102.544C33.0349 102.599 32.9687 102.621 32.9172 102.599C32.862 102.574 32.8399 102.511 32.862 102.46C33.4029 101.252 34.1904 100.125 35.2061 99.112C37.3662 96.9535 40.012 95.8596 43.0737 95.8596C46.1354 95.8596 48.7849 96.9535 50.956 99.112C52.9101 101.065 53.9956 103.407 54.187 106.075C54.1907 106.134 54.1465 106.186 54.0876 106.189H54.0803Z" fill="black"/>
<path fill-rule="evenodd" clip-rule="evenodd" d="M108.417 104.501H107.607L107.618 101.924H108.421C108.605 102.001 108.752 102.162 108.866 102.412C108.965 102.647 109.013 102.915 109.013 103.208C109.021 103.513 108.976 103.777 108.877 104.005C108.778 104.266 108.627 104.427 108.421 104.497L108.417 104.501Z" fill="#FF0000"/>
<path d="M108.416 104.607H107.607C107.577 104.607 107.552 104.596 107.529 104.574C107.511 104.556 107.5 104.526 107.5 104.501L107.511 101.924C107.511 101.865 107.559 101.817 107.618 101.817H108.42C108.42 101.817 108.449 101.817 108.46 101.825C108.667 101.913 108.836 102.093 108.961 102.368C109.068 102.617 109.119 102.9 109.119 103.208C109.127 103.524 109.079 103.807 108.976 104.049C108.865 104.335 108.692 104.519 108.453 104.6C108.442 104.603 108.431 104.603 108.42 104.603L108.416 104.607ZM107.713 104.394H108.398C108.567 104.332 108.689 104.196 108.773 103.972C108.869 103.755 108.909 103.502 108.902 103.216C108.902 102.93 108.854 102.676 108.762 102.456C108.663 102.243 108.541 102.1 108.394 102.03H107.724L107.713 104.394Z" fill="black"/>
<path d="M107.49 101.927H54.5693V106.038H107.49V101.927Z" fill="url(#paint5_linear_2034_96997)"/>
<path d="M107.49 106.145H54.5693C54.5178 106.145 54.4736 106.097 54.4736 106.039V101.927C54.4736 101.869 54.5178 101.821 54.5693 101.821H107.49C107.541 101.821 107.586 101.869 107.586 101.927V106.039C107.586 106.097 107.541 106.145 107.49 106.145ZM54.665 105.932H107.394V102.034H54.665V105.932Z" fill="black"/>
<path d="M55.7622 81.1942H54.6436V98.8361H55.7622V81.1942Z" fill="#333333"/>
<path d="M55.7615 98.9427H54.6429C54.584 98.9427 54.5361 98.895 54.5361 98.8362V81.1943C54.5361 81.1356 54.584 81.0879 54.6429 81.0879H55.7615C55.8204 81.0879 55.8683 81.1356 55.8683 81.1943V98.8362C55.8683 98.895 55.8204 98.9427 55.7615 98.9427ZM54.7496 98.7298H55.6548V81.3008H54.7496V98.7298Z" fill="black"/>
<path d="M86.4783 100.367L84.1973 108.859L85.1925 109.125L87.4736 100.633L86.4783 100.367Z" fill="black"/>
<path d="M85.1934 109.232C85.1934 109.232 85.175 109.232 85.1676 109.232L84.1704 108.964C84.1152 108.949 84.0784 108.891 84.0931 108.832L86.3746 100.341C86.382 100.316 86.4004 100.29 86.4262 100.275C86.4519 100.261 86.4777 100.257 86.5071 100.264L87.5044 100.532C87.5596 100.547 87.5964 100.606 87.578 100.664L85.2964 109.155C85.2891 109.181 85.2707 109.206 85.2449 109.221C85.2302 109.232 85.2118 109.236 85.1897 109.236L85.1934 109.232ZM84.3286 108.784L85.1198 108.997L87.3461 100.712L86.555 100.499L84.3286 108.784Z" fill="black"/>
<path d="M101.95 100.587L100.955 100.853L103.236 109.345L104.231 109.079L101.95 100.587Z" fill="black"/>
<path d="M103.234 109.453C103.234 109.453 103.198 109.449 103.183 109.438C103.157 109.423 103.142 109.401 103.135 109.375L100.854 100.885C100.846 100.856 100.854 100.83 100.865 100.804C100.879 100.778 100.901 100.76 100.931 100.756L101.928 100.488C101.983 100.474 102.042 100.507 102.061 100.566L104.342 109.056C104.357 109.115 104.324 109.17 104.265 109.185L103.268 109.453C103.268 109.453 103.249 109.453 103.238 109.453H103.234ZM101.085 100.929L103.312 109.214L104.103 109.005L101.877 100.72L101.085 100.929Z" fill="black"/>
<path fill-rule="evenodd" clip-rule="evenodd" d="M64.5009 99.802C64.5229 99.8094 64.5413 99.8167 64.5597 99.824V99.7543C64.5597 99.7543 64.5266 99.7837 64.5009 99.7984V99.802ZM59.2791 98.5723C60.2064 98.4585 60.7952 98.4769 61.0381 98.6274C61.1669 98.8403 61.3251 98.9908 61.5054 99.0825L62.683 99.1156C62.7676 99.1156 62.8449 99.0936 62.9222 99.0458C63.0142 99.0018 63.0694 98.9761 63.0915 98.9761C63.6398 98.899 63.9857 98.8623 64.1329 98.8623C64.3022 98.8623 64.442 98.899 64.5561 98.9761V98.8733H112.895V101.85H79.4265V107.166C79.4265 108.304 78.8562 108.876 77.7117 108.876H66.1899C65.0455 108.876 64.4751 108.307 64.4751 107.166V101.601C64.4751 101.432 64.4862 101.278 64.5082 101.135C64.166 101.135 63.8863 101.098 63.6729 101.021C63.3969 100.929 63.2055 100.881 63.0878 100.874C62.7603 100.83 62.3003 100.823 61.7041 100.863C61.1926 100.856 60.7731 100.705 60.4456 100.408L59.6912 100.397C59.4336 100.397 59.0473 100.415 58.5358 100.452C58.2377 100.466 58.0426 100.455 57.9543 100.419C57.8476 100.367 57.7593 100.235 57.6894 100.03C57.6747 99.9782 57.5863 99.6405 57.4281 99.0275C57.2846 98.4438 56.8172 98.1465 56.0334 98.1391H55.7354V97.1223C56.0187 97.1003 56.3757 97.1223 56.8099 97.1921C56.9313 97.2141 57.0454 97.2361 57.1521 97.2618C57.3803 97.3132 57.5679 97.372 57.7115 97.4344C57.8734 97.4931 57.9911 97.5628 58.0647 97.6399C58.3297 97.8235 58.7308 98.1355 59.2644 98.576L59.2791 98.5723Z" fill="url(#paint6_linear_2034_96997)"/>
<path d="M112.895 98.5318H64.3131C64.2542 98.5244 64.1953 98.5207 64.1365 98.5207C64.0334 98.5207 63.809 98.5318 63.0619 98.6382C62.9847 98.6456 62.9037 98.6749 62.7675 98.741C62.716 98.7704 62.6976 98.774 62.6829 98.774L61.601 98.7447C61.5017 98.6786 61.4133 98.5832 61.3361 98.451L61.2919 98.3813L61.222 98.3372C61.0233 98.2124 60.7252 98.1537 60.2836 98.1537C60.0334 98.1537 59.7316 98.172 59.3857 98.2124C58.9221 97.8306 58.5577 97.548 58.3001 97.3681C58.1898 97.2653 58.0426 97.1809 57.8475 97.1075C57.6966 97.0451 57.4869 96.979 57.244 96.9239C57.1299 96.8983 57.0122 96.8762 56.8871 96.8542C56.5338 96.7991 56.232 96.7698 55.9745 96.7698C55.8861 96.7698 55.8015 96.7698 55.7205 96.7808L55.4004 96.8065V98.4914H56.0481C56.8466 98.4987 57.0343 98.8291 57.1042 99.1154C57.2661 99.7395 57.3544 100.077 57.3691 100.129C57.4759 100.444 57.6194 100.639 57.8144 100.734C57.9469 100.789 58.0978 100.811 58.3222 100.811C58.3958 100.811 58.4805 100.811 58.5725 100.804C59.0729 100.767 59.4556 100.749 59.7096 100.749L60.3351 100.76C60.7105 101.057 61.1742 101.208 61.7188 101.219C62.0058 101.2 62.245 101.193 62.4511 101.193C62.6939 101.193 62.8963 101.204 63.0583 101.226C63.1208 101.23 63.2459 101.248 63.5808 101.358C63.739 101.417 63.9267 101.454 64.1438 101.476C64.1438 101.52 64.1438 101.564 64.1438 101.612V107.177C64.1438 108.505 64.8761 109.236 66.2083 109.236H77.73C79.0621 109.236 79.7944 108.505 79.7944 107.177V102.21H113.263V98.5391H112.914L112.895 98.5318ZM112.895 101.854H79.4264V107.169C79.4264 108.307 78.8561 108.88 77.7116 108.88H66.1899C65.0454 108.88 64.475 108.311 64.475 107.169V101.604C64.475 101.435 64.4861 101.281 64.5081 101.138C64.1659 101.138 63.8862 101.101 63.6728 101.024C63.3968 100.932 63.2055 100.885 63.0877 100.877C62.9111 100.852 62.6903 100.841 62.4327 100.841C62.2192 100.841 61.9764 100.848 61.7077 100.866C61.1962 100.859 60.7767 100.709 60.4492 100.411L59.6948 100.4C59.4372 100.4 59.0508 100.419 58.5393 100.455C58.4547 100.459 58.3774 100.463 58.3075 100.463C58.1382 100.463 58.0205 100.448 57.9579 100.422C57.8512 100.371 57.7629 100.239 57.693 100.033C57.6782 99.9817 57.5899 99.644 57.4317 99.031C57.2882 98.4473 56.8208 98.15 56.037 98.1427H55.7389V97.1258C55.8089 97.1222 55.8825 97.1185 55.9634 97.1185C56.2026 97.1185 56.486 97.1442 56.8135 97.1956C56.9349 97.2176 57.049 97.2396 57.1557 97.2653C57.3839 97.3167 57.5715 97.3755 57.715 97.4379C57.877 97.4966 57.9947 97.5663 58.0683 97.6434C58.3333 97.827 58.7344 98.139 59.268 98.5795C59.6654 98.5318 60.0039 98.5061 60.2763 98.5061C60.6406 98.5061 60.8908 98.5501 61.0306 98.6345C61.1594 98.8474 61.3177 98.998 61.498 99.0897L62.6755 99.1228C62.7602 99.1228 62.8375 99.1007 62.9147 99.053C63.0067 99.009 63.0619 98.9833 63.084 98.9833C63.6323 98.9062 63.9782 98.8695 64.1254 98.8695C64.2947 98.8695 64.4345 98.9062 64.5486 98.9833V98.8805H112.895V101.858V101.854Z" fill="black"/>
<path d="M64.5564 99.8277V99.7579C64.5564 99.7579 64.523 99.7873 64.4971 99.802C64.5193 99.8093 64.5379 99.8167 64.5564 99.824V99.8277Z" fill="black"/>
<path fill-rule="evenodd" clip-rule="evenodd" d="M31.6984 85.3683L29.4574 83.2026C29.4647 83.6724 29.4463 84.1533 29.4022 84.6378L31.2753 86.4402H31.2642V87.0899L29.3323 85.2215C29.2881 85.6106 29.2292 85.996 29.1593 86.3851H28.4638V85.7024H28.1878V84.3699H27.9707V82.4757H28.1878V81.0294H28.4638V80.299H29.1593C29.3028 81.0441 29.3948 81.7893 29.4353 82.5345L31.6984 84.7223V85.372V85.3683Z" fill="black"/>
<path fill-rule="evenodd" clip-rule="evenodd" d="M55.7084 102.919C55.4177 103.209 55.2705 103.557 55.2705 103.965V103.972C55.2705 104.38 55.4177 104.725 55.7084 105.011C55.9954 105.301 56.3414 105.448 56.7498 105.448H62.3065C62.7113 105.448 63.0645 105.301 63.3552 105.011C63.6423 104.725 63.7858 104.38 63.7858 103.972V103.965C63.7858 103.561 63.6423 103.212 63.3552 102.919C63.0609 102.632 62.7113 102.489 62.3065 102.489H56.7498C56.3414 102.489 55.9954 102.632 55.7084 102.919Z" fill="url(#paint7_linear_2034_96997)"/>
<path d="M62.3073 105.62H56.7507C56.2981 105.62 55.9043 105.455 55.5842 105.132C55.2603 104.816 55.0947 104.427 55.0947 103.972C55.0947 103.517 55.2603 103.12 55.5842 102.797C55.9043 102.478 56.2944 102.317 56.747 102.317H62.3036C62.7563 102.317 63.15 102.478 63.4739 102.794C63.794 103.12 63.9559 103.513 63.9559 103.961C63.9559 104.409 63.794 104.813 63.4739 105.128C63.15 105.451 62.7526 105.617 62.3 105.617L62.3073 105.62ZM56.7507 102.665C56.3901 102.665 56.0883 102.79 55.8344 103.043C55.5731 103.304 55.448 103.605 55.448 103.965C55.448 104.324 55.5731 104.633 55.8344 104.886C56.092 105.147 56.3901 105.272 56.7544 105.272H62.311C62.6716 105.272 62.9771 105.147 63.2383 104.886C63.4923 104.633 63.6174 104.335 63.6174 103.972C63.6174 103.609 63.4923 103.3 63.2383 103.043C62.9807 102.79 62.6753 102.665 62.3147 102.665H56.758H56.7507Z" fill="black"/>
<path d="M113.13 63.7255H56.1025V98.6642H113.13V63.7255Z" fill="url(#paint8_linear_2034_96997)"/>
<path d="M113.13 98.9356H56.1028C56.0439 98.9356 55.9961 98.8145 55.9961 98.664V63.7253C55.9961 63.5747 56.0439 63.4536 56.1028 63.4536H113.13C113.189 63.4536 113.237 63.5747 113.237 63.7253V98.664C113.237 98.8145 113.189 98.9356 113.13 98.9356ZM56.2132 98.3923H113.02V63.9969H56.2095V98.3923H56.2132Z" fill="black"/>
<path d="M111.688 65.2267H56.9199V96.9534H111.688V65.2267Z" fill="url(#paint9_linear_2034_96997)"/>
<path fill-rule="evenodd" clip-rule="evenodd" d="M57.999 66.3424V95.8373C57.999 95.8373 67.4122 70.6409 108.079 66.3424C113.437 66.3424 57.999 66.3424 57.999 66.3424Z" fill="url(#paint10_linear_2034_96997)"/>
<path fill-rule="evenodd" clip-rule="evenodd" d="M33.7331 80.3284C34.1747 79.6126 35.3633 79.0583 37.2989 78.6618C39.0432 78.3021 41.1149 78.1222 43.5142 78.1149C45.862 78.1075 47.978 78.269 49.8584 78.5957C51.8713 78.9371 53.174 79.3996 53.7664 79.987L53.8584 90.1808L42.0055 90.2028L33.9686 94.5344H30.0127L30.0237 92.0162L33.7257 80.3284H33.7331Z" fill="url(#paint11_linear_2034_96997)"/>
<path d="M33.9716 94.641H30.0157C29.9862 94.641 29.9605 94.63 29.9384 94.6079C29.9163 94.5896 29.9053 94.5602 29.9053 94.5308L29.9163 92.0127C29.9163 92.0127 29.9163 91.9906 29.92 91.9796L33.622 80.2918C33.622 80.2918 33.6293 80.2771 33.633 80.2698C34.0967 79.5209 35.2853 78.963 37.2687 78.5555C39.013 78.1994 41.1106 78.0122 43.5062 78.0049H43.6681C45.946 78.0049 48.0325 78.1664 49.8687 78.4858C51.9221 78.8345 53.2174 79.3007 53.8357 79.9064C53.8577 79.9247 53.8651 79.9504 53.8688 79.9798L53.9608 90.1736C53.9608 90.203 53.9497 90.2287 53.9313 90.2507C53.9092 90.269 53.8835 90.28 53.8541 90.28L42.0269 90.3021L34.0157 94.6226C34.0157 94.6226 33.9826 94.6373 33.9642 94.6373L33.9716 94.641ZM30.1261 94.4281H33.9458L41.9569 90.1075C41.9569 90.1075 41.9901 90.0965 42.0085 90.0965L53.7547 90.0745L53.6664 80.0348C53.0739 79.4805 51.7896 79.0327 49.8466 78.7023C48.0214 78.3866 45.946 78.2251 43.6791 78.2251H43.5209C41.14 78.2325 39.0535 78.416 37.3239 78.7684C35.4362 79.1538 34.2623 79.6935 33.8354 80.3726L30.1408 92.031L30.1297 94.4281H30.1261Z" fill="black"/>
<path d="M42.8863 78.1112H42.0693V90.1478H42.8863V78.1112Z" fill="black"/>
<path d="M42.8856 90.258H42.0686C42.0098 90.258 41.9619 90.2103 41.9619 90.1516V78.1113C41.9619 78.0526 42.0098 78.0049 42.0686 78.0049H42.8856C42.9444 78.0049 42.9923 78.0526 42.9923 78.1113V90.1479C42.9923 90.2066 42.9444 90.2544 42.8856 90.2544V90.258ZM42.1753 90.0451H42.7789V78.2178H42.1753V90.0414V90.0451Z" fill="black"/>
<path fill-rule="evenodd" clip-rule="evenodd" d="M44.4266 87.7946L44.9859 85.3094L42.1487 84.8396L40.5995 89.6373L34.2369 93.4072L30.9692 90.6651H30.4981L30.0234 91.9499V94.4351L33.8947 94.5195L42.0641 90.1512H53.8029L53.7588 79.9978C52.7762 79.3334 51.4147 78.9076 49.6741 78.713L49.6299 87.7946H44.4266Z" fill="black"/>
<path d="M33.8903 94.6297L30.0191 94.5453C29.9602 94.5453 29.916 94.4976 29.916 94.4388V91.9537C29.916 91.9537 29.916 91.928 29.9234 91.917L30.3944 90.6322C30.4091 90.5918 30.4496 90.5625 30.4938 90.5625H30.9648C30.9905 90.5625 31.0163 90.5698 31.0347 90.5882L34.2436 93.2825L40.5068 89.5714L42.0413 84.8103C42.056 84.7589 42.1075 84.7296 42.159 84.7369L44.9962 85.2068C45.0257 85.2104 45.0514 85.2288 45.0662 85.2508C45.0809 85.2765 45.0882 85.3059 45.0809 85.3352L44.551 87.6882H49.5152L49.5593 78.7131C49.5593 78.6837 49.574 78.6544 49.5961 78.6324C49.6182 78.614 49.6476 78.603 49.6771 78.6067C51.4287 78.8012 52.8197 79.2417 53.8096 79.9098C53.839 79.9318 53.8574 79.9612 53.8574 79.9979L53.9016 90.122C53.9016 90.122 53.9053 90.1403 53.9053 90.1513C53.9053 90.2101 53.8574 90.2578 53.7986 90.2578H42.0818L33.9345 94.615C33.9345 94.615 33.9013 94.6297 33.8829 94.6297H33.8903ZM30.1294 94.3324L33.8682 94.4168L42.0118 90.0596C42.0118 90.0596 42.045 90.0486 42.0634 90.0486H53.6955L53.6514 80.0603C52.7167 79.4436 51.414 79.0325 49.7801 78.8379L49.736 87.802C49.736 87.8608 49.6881 87.9085 49.6292 87.9085H44.4259C44.3927 87.9085 44.3633 87.8938 44.3412 87.8681C44.3191 87.8424 44.3118 87.8094 44.3191 87.78L44.8527 85.405L42.2179 84.9682L40.6981 89.6778C40.6908 89.7035 40.6724 89.7219 40.6503 89.7365L34.2877 93.5065C34.2473 93.5285 34.1994 93.5248 34.1626 93.4954L30.9243 90.779H30.5637L30.1221 91.9757V94.3361L30.1294 94.3324Z" fill="black"/>
<path fill-rule="evenodd" clip-rule="evenodd" d="M50.1709 81.0185C51.9078 80.7542 52.7762 80.4385 52.7762 80.0678C52.7762 79.697 51.9078 79.3777 50.1709 79.1097C48.434 78.8454 46.3364 78.7133 43.8746 78.7133C41.4127 78.7133 39.3152 78.8454 37.5819 79.1097C35.845 79.3777 34.9766 79.697 34.9766 80.0678C34.9766 80.4385 35.845 80.7579 37.5819 81.0185C39.3188 81.2865 41.4164 81.4223 43.8746 81.4223C46.3327 81.4223 48.434 81.2865 50.1709 81.0185Z" fill="black"/>
<path d="M53.9206 90.7645H42.1155C42.0566 90.7645 42.0088 90.7168 42.0088 90.6581C42.0088 90.5994 42.0566 90.5516 42.1155 90.5516H53.9243C53.9832 90.5516 54.031 90.5994 54.031 90.6581C54.031 90.7168 53.9832 90.7645 53.9243 90.7645H53.9206Z" fill="black"/>
<path d="M33.7733 95.3053C33.7365 95.3053 33.6997 95.2869 33.6813 95.2502C33.6518 95.1988 33.6739 95.1327 33.7217 95.107L42.0457 90.5663C42.0972 90.5369 42.1634 90.5552 42.1892 90.6103C42.2186 90.6617 42.2002 90.7278 42.145 90.7535L33.8211 95.2943C33.8211 95.2943 33.788 95.3053 33.7696 95.3053H33.7733Z" fill="black"/>
<path d="M33.7731 95.3053H30.0159C29.957 95.3053 29.9092 95.2576 29.9092 95.1989C29.9092 95.1401 29.957 95.0924 30.0159 95.0924H33.7731C33.832 95.0924 33.8798 95.1401 33.8798 95.1989C33.8798 95.2576 33.832 95.3053 33.7731 95.3053Z" fill="black"/>
<path d="M42.071 92.1227H39.749V92.8091H42.071V92.1227Z" fill="black"/>
<path d="M42.0713 92.9157H39.7493C39.6904 92.9157 39.6426 92.868 39.6426 92.8093V92.1228C39.6426 92.0641 39.6904 92.0164 39.7493 92.0164H42.0713C42.1302 92.0164 42.178 92.0641 42.178 92.1228V92.8093C42.178 92.868 42.1302 92.9157 42.0713 92.9157ZM39.856 92.7028H41.9646V92.2293H39.856V92.7028Z" fill="black"/>
<path fill-rule="evenodd" clip-rule="evenodd" d="M40.5587 103.763C40.7795 103.693 40.9415 103.708 41.0371 103.811C41.1291 103.895 41.1365 104.038 41.0592 104.244C40.9783 104.471 40.8311 104.688 40.625 104.893C40.4042 105.114 40.1871 105.257 39.9736 105.327C39.7528 105.418 39.5946 105.418 39.5063 105.327C39.3996 105.235 39.3885 105.077 39.4732 104.849C39.5578 104.636 39.705 104.427 39.9184 104.222C40.1319 104.009 40.3453 103.855 40.5587 103.767V103.763ZM43.2671 102.827C43.5652 102.827 43.8228 102.878 44.0436 102.977C44.2497 103.069 44.3527 103.187 44.3527 103.33C44.3527 103.473 44.2497 103.579 44.0436 103.671C43.8228 103.763 43.5652 103.811 43.2671 103.811C42.9691 103.811 42.7078 103.763 42.5017 103.671C42.2883 103.579 42.1816 103.466 42.1816 103.33C42.1816 103.187 42.2883 103.069 42.5017 102.977C42.7078 102.878 42.9617 102.827 43.2671 102.827ZM45.9167 103.752C46.1375 103.818 46.3509 103.965 46.557 104.185C46.7704 104.391 46.9176 104.607 47.0022 104.835C47.0795 105.04 47.0722 105.191 46.9802 105.29C46.8808 105.382 46.7299 105.389 46.5239 105.312C46.3104 105.227 46.0933 105.084 45.8725 104.879C45.6591 104.659 45.5156 104.442 45.4383 104.229C45.3536 104.016 45.3573 103.866 45.4493 103.774C45.5487 103.675 45.7032 103.667 45.9167 103.752ZM45.4383 110.774C45.5082 110.561 45.648 110.348 45.8615 110.135C46.0749 109.922 46.2957 109.779 46.5239 109.702C46.7299 109.618 46.8808 109.621 46.9802 109.713C47.0722 109.82 47.0795 109.974 47.0022 110.179C46.9176 110.407 46.7704 110.624 46.557 110.829C46.3509 111.042 46.1375 111.182 45.9167 111.251C45.7032 111.343 45.5487 111.343 45.4493 111.251C45.35 111.145 45.3463 110.987 45.4383 110.774ZM47.9885 107.503C47.9885 107.801 47.9443 108.054 47.8523 108.267C47.7529 108.472 47.6352 108.575 47.499 108.575C47.3629 108.575 47.2488 108.472 47.1568 108.267C47.0574 108.054 47.0096 107.801 47.0096 107.503C47.0096 107.206 47.0574 106.945 47.1568 106.74C47.2488 106.527 47.3629 106.42 47.499 106.42C47.6352 106.42 47.7529 106.527 47.8523 106.74C47.9443 106.945 47.9885 107.199 47.9885 107.503ZM41.0739 110.752C41.1438 110.972 41.1291 111.13 41.0298 111.218C40.9378 111.31 40.7906 111.317 40.5845 111.24C40.3563 111.156 40.1356 111.009 39.9221 110.796C39.7087 110.583 39.5652 110.367 39.4879 110.146C39.4033 109.941 39.4106 109.794 39.51 109.702C39.602 109.61 39.7602 109.599 39.9884 109.669C40.2018 109.746 40.4152 109.889 40.6287 110.102C40.8421 110.323 40.9893 110.539 41.0739 110.752ZM42.1816 111.71C42.1816 111.574 42.2883 111.457 42.5017 111.358C42.7078 111.259 42.9617 111.211 43.2671 111.211C43.5726 111.211 43.8228 111.259 44.0436 111.358C44.2497 111.457 44.3527 111.574 44.3527 111.71C44.3527 111.846 44.2497 111.96 44.0436 112.052C43.8228 112.143 43.5652 112.187 43.2671 112.187C42.9691 112.187 42.7078 112.143 42.5017 112.052C42.2883 111.96 42.1816 111.846 42.1816 111.71ZM39.5762 107.503C39.5762 107.801 39.5321 108.054 39.4401 108.267C39.3407 108.472 39.2229 108.575 39.0868 108.575C38.9506 108.575 38.8366 108.472 38.7446 108.267C38.6526 108.054 38.6084 107.801 38.6084 107.503C38.6084 107.206 38.6526 106.945 38.7446 106.74C38.8366 106.527 38.9506 106.42 39.0868 106.42C39.2229 106.42 39.3407 106.527 39.4401 106.74C39.5321 106.945 39.5762 107.199 39.5762 107.503Z" fill="black"/>
<path fill-rule="evenodd" clip-rule="evenodd" d="M45.9198 103.752C45.7064 103.667 45.5518 103.675 45.4525 103.774C45.3605 103.865 45.3568 104.016 45.4415 104.229C45.5187 104.442 45.6622 104.658 45.8757 104.879C46.0965 105.084 46.3136 105.227 46.527 105.312C46.7331 105.389 46.884 105.381 46.9833 105.29C47.0753 105.191 47.0827 105.04 47.0054 104.835C46.9208 104.607 46.7736 104.39 46.5601 104.185C46.3541 103.965 46.1406 103.821 45.9198 103.752ZM43.2703 102.827C42.9649 102.827 42.711 102.878 42.5049 102.977C42.2915 103.069 42.1847 103.186 42.1847 103.329C42.1847 103.473 42.2915 103.579 42.5049 103.671C42.711 103.763 42.9649 103.81 43.2703 103.81C43.5757 103.81 43.826 103.763 44.0468 103.671C44.2528 103.579 44.3559 103.465 44.3559 103.329C44.3559 103.186 44.2528 103.069 44.0468 102.977C43.826 102.878 43.5684 102.827 43.2703 102.827ZM40.5619 103.763C40.3485 103.854 40.135 104.005 39.9216 104.218C39.7082 104.423 39.561 104.633 39.4763 104.846C39.3917 105.073 39.4027 105.235 39.5095 105.323C39.6015 105.415 39.756 105.415 39.9768 105.323C40.1902 105.253 40.4074 105.11 40.6281 104.89C40.8342 104.684 40.9777 104.467 41.0624 104.24C41.1397 104.034 41.1323 103.891 41.0403 103.807C40.9409 103.708 40.7827 103.693 40.5619 103.759V103.763ZM43.2814 105.392C42.711 105.392 42.2215 105.594 41.8168 105.998C41.412 106.398 41.2132 106.887 41.2132 107.455C41.2132 108.024 41.4156 108.509 41.8168 108.902C42.2215 109.313 42.7073 109.518 43.2814 109.518C43.8554 109.518 44.3412 109.313 44.746 108.902C45.1507 108.505 45.3531 108.024 45.3531 107.455C45.3531 106.887 45.1507 106.398 44.746 105.998C44.3412 105.594 43.8554 105.392 43.2814 105.392ZM42.1847 111.71C42.1847 111.846 42.2915 111.96 42.5049 112.051C42.711 112.143 42.9649 112.187 43.2703 112.187C43.5757 112.187 43.826 112.143 44.0468 112.051C44.2528 111.96 44.3559 111.846 44.3559 111.71C44.3559 111.574 44.2528 111.457 44.0468 111.358C43.826 111.258 43.5684 111.211 43.2703 111.211C42.9722 111.211 42.711 111.258 42.5049 111.358C42.2915 111.457 42.1847 111.574 42.1847 111.71ZM41.0771 110.752C40.9925 110.539 40.8453 110.322 40.6318 110.102C40.4184 109.889 40.205 109.746 39.9915 109.669C39.7634 109.599 39.6051 109.61 39.5131 109.702C39.4138 109.794 39.4064 109.941 39.4911 110.146C39.5683 110.366 39.7119 110.583 39.9253 110.796C40.1387 111.009 40.3595 111.156 40.5877 111.24C40.7937 111.317 40.9409 111.31 41.0329 111.218C41.1323 111.126 41.147 110.972 41.0771 110.752ZM47.9916 107.503C47.9916 107.199 47.9475 106.945 47.8555 106.74C47.7561 106.527 47.6384 106.42 47.5022 106.42C47.366 106.42 47.252 106.527 47.16 106.74C47.0606 106.945 47.0128 107.199 47.0128 107.503C47.0128 107.808 47.0606 108.054 47.16 108.267C47.252 108.472 47.366 108.575 47.5022 108.575C47.6384 108.575 47.7561 108.472 47.8555 108.267C47.9475 108.054 47.9916 107.801 47.9916 107.503ZM45.4415 110.774C45.3495 110.987 45.3531 111.148 45.4525 111.251C45.5518 111.343 45.7064 111.343 45.9198 111.251C46.1406 111.181 46.3541 111.042 46.5601 110.829C46.7736 110.623 46.9208 110.407 47.0054 110.179C47.0827 109.974 47.0753 109.819 46.9833 109.713C46.884 109.621 46.7331 109.618 46.527 109.702C46.2989 109.779 46.0781 109.922 45.8646 110.135C45.6512 110.348 45.5114 110.561 45.4415 110.774ZM48.2087 107.455C48.2087 108.817 47.7304 109.97 46.7699 110.921C45.8021 111.893 44.6392 112.382 43.285 112.382C41.9308 112.382 40.768 111.893 39.8002 110.921C38.8397 109.97 38.3613 108.814 38.3613 107.455C38.3613 106.097 38.8397 104.945 39.8002 103.979C40.768 103.021 41.9308 102.544 43.285 102.544C44.6392 102.544 45.8021 103.021 46.7699 103.979C47.7304 104.945 48.2087 106.105 48.2087 107.455ZM39.5794 107.5C39.5794 107.195 39.5352 106.942 39.4432 106.736C39.3439 106.523 39.2261 106.417 39.0899 106.417C38.9538 106.417 38.8397 106.523 38.7477 106.736C38.6557 106.942 38.6116 107.195 38.6116 107.5C38.6116 107.804 38.6557 108.05 38.7477 108.263C38.8397 108.469 38.9538 108.571 39.0899 108.571C39.2261 108.571 39.3439 108.469 39.4432 108.263C39.5352 108.05 39.5794 107.797 39.5794 107.5Z" fill="#E6E7E8"/>
<path fill-rule="evenodd" clip-rule="evenodd" d="M48.4711 107.459C48.4711 108.887 47.9632 110.11 46.9513 111.119C45.9393 112.129 44.7139 112.635 43.2824 112.635C41.8509 112.635 40.6255 112.129 39.6135 111.119C38.6016 110.11 38.0938 108.887 38.0938 107.459C38.0938 106.031 38.6016 104.813 39.6135 103.81C40.6255 102.801 41.8509 102.294 43.2824 102.294C44.7139 102.294 45.9393 102.801 46.9513 103.81C47.9669 104.813 48.4711 106.028 48.4711 107.459ZM48.2061 107.459C48.2061 106.105 47.7277 104.948 46.7673 103.983C45.7995 103.025 44.6366 102.548 43.2824 102.548C41.9282 102.548 40.7654 103.025 39.7975 103.983C38.8371 104.948 38.3587 106.108 38.3587 107.459C38.3587 108.81 38.8371 109.974 39.7975 110.924C40.7654 111.897 41.9282 112.385 43.2824 112.385C44.6366 112.385 45.7995 111.897 46.7673 110.924C47.7277 109.974 48.2061 108.817 48.2061 107.459Z" fill="white"/>
<path fill-rule="evenodd" clip-rule="evenodd" d="M48.4696 107.459C48.4696 106.031 47.9618 104.813 46.9498 103.811C45.9378 102.801 44.7124 102.294 43.281 102.294C41.8495 102.294 40.6241 102.801 39.6121 103.811C38.6001 104.813 38.0923 106.028 38.0923 107.459C38.0923 108.891 38.6001 110.11 39.6121 111.119C40.6241 112.129 41.8495 112.635 43.281 112.635C44.7124 112.635 45.9378 112.129 46.9498 111.119C47.9655 110.11 48.4696 108.887 48.4696 107.459ZM48.3887 112.532C46.9719 113.938 45.2681 114.643 43.281 114.643C41.2938 114.643 39.5937 113.938 38.1843 112.532C36.7749 111.134 36.0684 109.442 36.0684 107.459C36.0684 105.477 36.7749 103.781 38.1843 102.375C39.5937 100.969 41.2938 100.268 43.281 100.268C45.2681 100.268 46.9719 100.973 48.3887 102.375C49.7907 103.781 50.4899 105.477 50.4899 107.459C50.4899 109.442 49.7907 111.134 48.3887 112.532Z" fill="url(#paint12_radial_2034_96997)"/>
<path d="M43.2783 114.746C41.2691 114.746 39.5285 114.026 38.1044 112.606C36.6802 111.193 35.959 109.46 35.959 107.456C35.959 105.451 36.6802 103.715 38.1044 102.294C39.5285 100.874 41.2691 100.154 43.2783 100.154C45.2875 100.154 47.0318 100.874 48.4633 102.294C49.88 103.715 50.5976 105.451 50.5976 107.456C50.5976 109.46 49.88 111.193 48.4633 112.606C47.0318 114.026 45.2875 114.746 43.2783 114.746ZM43.2783 100.371C41.328 100.371 39.6389 101.072 38.2552 102.449C36.8716 103.829 36.1724 105.514 36.1724 107.459C36.1724 109.405 36.8753 111.086 38.2552 112.455C39.6389 113.836 41.328 114.533 43.2783 114.533C45.2286 114.533 46.9214 113.832 48.3124 112.455C49.685 111.086 50.3842 109.405 50.3842 107.459C50.3842 105.514 49.6887 103.829 48.3124 102.449C46.9214 101.072 45.2286 100.371 43.2783 100.371ZM43.2783 112.742C41.8247 112.742 40.5625 112.22 39.5358 111.196C38.5055 110.168 37.9829 108.913 37.9829 107.459C37.9829 106.006 38.5055 104.754 39.5358 103.733C40.5662 102.706 41.8247 102.184 43.2783 102.184C44.7319 102.184 45.9941 102.706 47.0244 103.733C48.0548 104.75 48.5737 106.006 48.5737 107.456C48.5737 108.906 48.0511 110.165 47.0244 111.193C45.9941 112.22 44.7355 112.738 43.2783 112.738V112.742ZM43.2783 102.401C41.8836 102.401 40.6729 102.9 39.6867 103.884C38.6968 104.864 38.1964 106.064 38.1964 107.456C38.1964 108.847 38.6968 110.055 39.6867 111.038C40.6729 112.026 41.8836 112.525 43.2783 112.525C44.673 112.525 45.8837 112.026 46.8736 111.038C47.8598 110.055 48.3639 108.847 48.3639 107.456C48.3639 106.064 47.8635 104.86 46.8736 103.884C45.8873 102.897 44.6767 102.397 43.2783 102.397V102.401ZM43.2783 112.492C41.8983 112.492 40.7024 111.989 39.7162 111.002C38.741 110.036 38.2442 108.843 38.2442 107.459C38.2442 106.075 38.7373 104.89 39.7162 103.906C40.7024 102.93 41.8983 102.438 43.2783 102.438C44.6583 102.438 45.8542 102.93 46.8404 103.906C47.8156 104.89 48.3124 106.083 48.3124 107.459C48.3124 108.836 47.8156 110.036 46.8404 111.002C45.8579 111.989 44.6583 112.492 43.2783 112.492ZM43.2783 102.651C41.9572 102.651 40.8091 103.124 39.867 104.056C38.9323 104.996 38.4576 106.141 38.4576 107.459C38.4576 108.777 38.9323 109.922 39.867 110.851C40.8091 111.798 41.9572 112.279 43.2783 112.279C44.5994 112.279 45.7475 111.798 46.6896 110.851C47.6243 109.926 48.099 108.784 48.099 107.459C48.099 106.134 47.6243 104.996 46.6896 104.056C45.7475 103.124 44.5994 102.651 43.2783 102.651Z" fill="black"/>
<path fill-rule="evenodd" clip-rule="evenodd" d="M44.9011 108.913C44.0731 109.798 42.6821 109.842 41.7989 109.016C40.9158 108.19 40.8679 106.802 41.6959 105.921C42.5239 105.037 43.9149 104.993 44.7981 105.819C45.6849 106.644 45.7291 108.032 44.9011 108.917V108.913Z" fill="#989898"/>
<path d="M41.7473 109.071C40.8347 108.219 40.7868 106.784 41.6406 105.87C42.4943 104.96 43.9331 104.912 44.8494 105.763C45.7621 106.615 45.8099 108.05 44.9562 108.964C44.1024 109.875 42.6636 109.922 41.7473 109.071ZM44.7464 105.87C43.8927 105.073 42.5458 105.117 41.7473 105.973C40.9487 106.824 40.9929 108.168 41.8466 108.964C42.7004 109.761 44.0472 109.717 44.8458 108.865C45.6443 108.014 45.6001 106.67 44.7464 105.874V105.87Z" fill="black"/>
<path fill-rule="evenodd" clip-rule="evenodd" d="M43.2786 106.52C43.5252 106.512 43.7423 106.593 43.9263 106.765C44.1103 106.934 44.2023 107.144 44.206 107.386C44.2244 107.643 44.1508 107.863 43.9778 108.047C43.8048 108.23 43.5914 108.322 43.3301 108.318C43.0836 108.337 42.8665 108.259 42.6825 108.091C42.4985 107.922 42.4065 107.709 42.4028 107.456C42.3954 107.21 42.4764 106.993 42.6494 106.809C42.8223 106.626 43.0321 106.531 43.2786 106.523V106.52Z" fill="url(#paint13_radial_2034_96997)"/>
<path fill-rule="evenodd" clip-rule="evenodd" d="M44.7127 106.354C44.7422 106.567 44.5913 106.765 44.3779 106.795C44.1644 106.824 43.9657 106.674 43.9363 106.461C43.9068 106.244 44.0577 106.05 44.2748 106.02C44.4883 105.991 44.687 106.141 44.7164 106.358L44.7127 106.354Z" fill="black"/>
<path fill-rule="evenodd" clip-rule="evenodd" d="M42.7594 108.439C42.7888 108.652 42.638 108.851 42.4208 108.88C42.2074 108.909 42.0087 108.759 41.9793 108.546C41.9498 108.329 42.1007 108.135 42.3141 108.105C42.5276 108.076 42.7263 108.226 42.7557 108.443L42.7594 108.439Z" fill="black"/>
<path fill-rule="evenodd" clip-rule="evenodd" d="M44.4374 108.759C44.224 108.788 44.0253 108.638 43.9959 108.425C43.9664 108.212 44.1173 108.013 44.3307 107.984C44.5442 107.955 44.7429 108.105 44.7723 108.318C44.8018 108.531 44.6509 108.729 44.4374 108.759Z" fill="black"/>
<path fill-rule="evenodd" clip-rule="evenodd" d="M42.3476 106.81C42.1342 106.839 41.9355 106.688 41.906 106.476C41.8766 106.259 42.0275 106.064 42.2409 106.035C42.4543 106.006 42.653 106.156 42.6825 106.369C42.7119 106.582 42.561 106.78 42.3476 106.81Z" fill="black"/>
<path fill-rule="evenodd" clip-rule="evenodd" d="M91.4755 103.763C91.6963 103.693 91.8582 103.708 91.9576 103.81C92.0496 103.895 92.0569 104.038 91.9797 104.244C91.895 104.471 91.7515 104.688 91.5454 104.893C91.3246 105.114 91.1075 105.257 90.8941 105.326C90.6733 105.418 90.5151 105.418 90.4267 105.326C90.32 105.235 90.309 105.077 90.3899 104.849C90.4746 104.636 90.6218 104.427 90.8352 104.222C91.0486 104.009 91.2621 103.854 91.4755 103.766V103.763ZM94.1839 102.827C94.482 102.827 94.7396 102.878 94.9604 102.977C95.1664 103.069 95.2695 103.186 95.2695 103.33C95.2695 103.473 95.1664 103.579 94.9604 103.671C94.7396 103.763 94.4783 103.81 94.1839 103.81C93.8895 103.81 93.6246 103.763 93.4185 103.671C93.2051 103.579 93.0983 103.465 93.0983 103.33C93.0983 103.186 93.2051 103.069 93.4185 102.977C93.6246 102.878 93.8785 102.827 94.1839 102.827ZM96.8334 103.752C97.0542 103.818 97.2677 103.965 97.4737 104.185C97.6872 104.39 97.8344 104.607 97.919 104.835C97.9963 105.04 97.9852 105.191 97.8969 105.29C97.7976 105.382 97.6467 105.389 97.4406 105.312C97.2272 105.227 97.0101 105.084 96.7893 104.879C96.5758 104.658 96.4323 104.442 96.3551 104.229C96.2704 104.016 96.2741 103.865 96.3661 103.774C96.4654 103.675 96.62 103.667 96.8334 103.752ZM96.3514 110.774C96.4213 110.561 96.5611 110.348 96.7746 110.135C96.988 109.922 97.2088 109.779 97.4369 109.702C97.643 109.618 97.7939 109.621 97.8933 109.713C97.9852 109.82 97.9926 109.974 97.9153 110.179C97.8307 110.407 97.6835 110.623 97.4701 110.829C97.264 111.042 97.0506 111.181 96.8298 111.251C96.6163 111.343 96.4618 111.343 96.3624 111.251C96.2631 111.145 96.2594 110.987 96.3514 110.774ZM98.9015 107.503C98.9015 107.801 98.8574 108.054 98.7654 108.267C98.666 108.472 98.5483 108.575 98.4121 108.575C98.276 108.575 98.1619 108.472 98.0699 108.267C97.9705 108.054 97.9227 107.801 97.9227 107.503C97.9227 107.206 97.9705 106.945 98.0699 106.74C98.1619 106.527 98.276 106.42 98.4121 106.42C98.5483 106.42 98.666 106.527 98.7654 106.74C98.8574 106.945 98.9015 107.199 98.9015 107.503ZM91.987 110.752C92.0569 110.972 92.0422 111.13 91.9429 111.218C91.8509 111.31 91.7037 111.317 91.4976 111.24C91.2694 111.156 91.0486 111.009 90.8352 110.796C90.6218 110.583 90.4783 110.366 90.401 110.146C90.3163 109.941 90.3237 109.794 90.4231 109.702C90.5151 109.61 90.6733 109.599 90.9014 109.669C91.1149 109.746 91.3283 109.889 91.5417 110.102C91.7552 110.322 91.9024 110.539 91.987 110.752ZM93.0947 111.71C93.0947 111.574 93.2014 111.457 93.4148 111.358C93.6209 111.258 93.8748 111.211 94.1802 111.211C94.4857 111.211 94.7359 111.258 94.9567 111.358C95.1628 111.457 95.2658 111.574 95.2658 111.71C95.2658 111.846 95.1628 111.96 94.9567 112.051C94.7359 112.143 94.4746 112.187 94.1802 112.187C93.8858 112.187 93.6209 112.143 93.4148 112.051C93.2014 111.96 93.0947 111.846 93.0947 111.71ZM90.4893 107.503C90.4893 107.801 90.4451 108.054 90.3531 108.267C90.2538 108.472 90.136 108.575 89.9999 108.575C89.8637 108.575 89.7496 108.472 89.6576 108.267C89.5656 108.054 89.5215 107.801 89.5215 107.503C89.5215 107.206 89.5656 106.945 89.6576 106.74C89.7496 106.527 89.8637 106.42 89.9999 106.42C90.136 106.42 90.2538 106.527 90.3531 106.74C90.4451 106.945 90.4893 107.199 90.4893 107.503Z" fill="black"/>
<path fill-rule="evenodd" clip-rule="evenodd" d="M96.8359 103.752C96.6224 103.667 96.4679 103.675 96.3685 103.774C96.2765 103.865 96.2728 104.016 96.3575 104.229C96.4347 104.442 96.5783 104.658 96.7917 104.879C97.0125 105.084 97.2296 105.227 97.443 105.312C97.6491 105.389 97.8 105.381 97.8993 105.29C97.9913 105.191 97.9987 105.04 97.9214 104.835C97.8368 104.607 97.6896 104.39 97.4762 104.185C97.2701 103.965 97.0566 103.821 96.8359 103.752ZM94.1863 102.827C93.8809 102.827 93.627 102.878 93.4209 102.977C93.2075 103.069 93.1008 103.186 93.1008 103.329C93.1008 103.473 93.2075 103.579 93.4209 103.671C93.627 103.763 93.8809 103.81 94.1863 103.81C94.4918 103.81 94.742 103.763 94.9628 103.671C95.1689 103.579 95.2719 103.465 95.2719 103.329C95.2719 103.186 95.1689 103.069 94.9628 102.977C94.742 102.878 94.4807 102.827 94.1863 102.827ZM91.4779 103.763C91.2645 103.854 91.0511 104.005 90.8376 104.218C90.6242 104.423 90.477 104.633 90.3924 104.846C90.3077 105.073 90.3188 105.235 90.4292 105.323C90.5212 105.415 90.6757 105.415 90.8965 105.323C91.1099 105.253 91.327 105.11 91.5478 104.89C91.7539 104.684 91.8974 104.467 91.9821 104.24C92.0593 104.034 92.052 103.891 91.96 103.807C91.8606 103.708 91.6987 103.693 91.4779 103.759V103.763ZM94.1974 105.392C93.627 105.392 93.1376 105.594 92.7328 105.998C92.328 106.398 92.1293 106.887 92.1293 107.455C92.1293 108.024 92.3317 108.509 92.7328 108.902C93.1376 109.313 93.6233 109.518 94.1974 109.518C94.7714 109.518 95.2572 109.313 95.662 108.902C96.0668 108.505 96.2692 108.024 96.2692 107.455C96.2692 106.887 96.0668 106.398 95.662 105.998C95.2572 105.594 94.7714 105.392 94.1974 105.392ZM93.1008 111.71C93.1008 111.846 93.2075 111.96 93.4209 112.051C93.627 112.143 93.8809 112.187 94.1863 112.187C94.4918 112.187 94.742 112.143 94.9628 112.051C95.1689 111.96 95.2719 111.846 95.2719 111.71C95.2719 111.574 95.1689 111.457 94.9628 111.358C94.742 111.258 94.4807 111.211 94.1863 111.211C93.8919 111.211 93.627 111.258 93.4209 111.358C93.2075 111.457 93.1008 111.574 93.1008 111.71ZM91.9931 110.752C91.9085 110.539 91.7613 110.322 91.5478 110.102C91.3344 109.889 91.121 109.746 90.9075 109.669C90.6794 109.599 90.5212 109.61 90.4292 109.702C90.3298 109.794 90.3224 109.941 90.4071 110.146C90.4844 110.366 90.6279 110.583 90.8413 110.796C91.0547 111.009 91.2755 111.156 91.5037 111.24C91.7098 111.317 91.857 111.31 91.9489 111.218C92.0483 111.126 92.063 110.972 91.9931 110.752ZM98.9076 107.503C98.9076 107.199 98.8635 106.945 98.7715 106.74C98.6721 106.527 98.5544 106.42 98.4182 106.42C98.2821 106.42 98.168 106.527 98.076 106.74C97.9766 106.945 97.9288 107.199 97.9288 107.503C97.9288 107.808 97.9766 108.054 98.076 108.267C98.168 108.472 98.2821 108.575 98.4182 108.575C98.5544 108.575 98.6721 108.472 98.7715 108.267C98.8635 108.054 98.9076 107.801 98.9076 107.503ZM96.3575 110.774C96.2655 110.987 96.2692 111.148 96.3685 111.251C96.4679 111.343 96.6224 111.343 96.8359 111.251C97.0566 111.181 97.2701 111.042 97.4762 110.829C97.6896 110.623 97.8368 110.407 97.9214 110.179C97.9987 109.974 97.9877 109.819 97.8993 109.713C97.8 109.621 97.6491 109.618 97.443 109.702C97.2149 109.779 96.9941 109.922 96.7807 110.135C96.5672 110.348 96.4274 110.561 96.3575 110.774ZM99.1247 107.455C99.1247 108.817 98.6464 109.97 97.6859 110.921C96.7181 111.893 95.5553 112.382 94.201 112.382C92.8468 112.382 91.684 111.893 90.7162 110.921C89.7557 109.97 89.2773 108.814 89.2773 107.455C89.2773 106.097 89.7557 104.945 90.7162 103.979C91.684 103.021 92.8468 102.544 94.201 102.544C95.5553 102.544 96.7181 103.021 97.6859 103.979C98.6464 104.945 99.1247 106.105 99.1247 107.455ZM90.4954 107.5C90.4954 107.195 90.4512 106.942 90.3592 106.736C90.2599 106.523 90.1421 106.417 90.006 106.417C89.8698 106.417 89.7557 106.523 89.6637 106.736C89.5717 106.942 89.5276 107.195 89.5276 107.5C89.5276 107.804 89.5717 108.05 89.6637 108.263C89.7557 108.469 89.8698 108.571 90.006 108.571C90.1421 108.571 90.2599 108.469 90.3592 108.263C90.4512 108.05 90.4954 107.797 90.4954 107.5Z" fill="#E6E7E8"/>
<path fill-rule="evenodd" clip-rule="evenodd" d="M99.3871 107.459C99.3871 108.887 98.8792 110.109 97.8673 111.119C96.8516 112.128 95.6299 112.635 94.1984 112.635C92.7669 112.635 91.5415 112.128 90.5296 111.119C89.5139 110.109 89.0098 108.887 89.0098 107.459C89.0098 106.031 89.5176 104.812 90.5296 103.81C91.5415 102.801 92.7669 102.294 94.1984 102.294C95.6299 102.294 96.8553 102.801 97.8673 103.81C98.8792 104.812 99.3871 106.028 99.3871 107.459ZM99.1221 107.459C99.1221 106.105 98.6437 104.948 97.6833 103.983C96.7155 103.025 95.5526 102.548 94.1984 102.548C92.8442 102.548 91.6814 103.025 90.7136 103.983C89.7531 104.948 89.2747 106.108 89.2747 107.459C89.2747 108.81 89.7531 109.974 90.7136 110.924C91.6814 111.897 92.8442 112.385 94.1984 112.385C95.5526 112.385 96.7155 111.897 97.6833 110.924C98.6437 109.974 99.1221 108.817 99.1221 107.459Z" fill="white"/>
<path fill-rule="evenodd" clip-rule="evenodd" d="M99.3866 107.459C99.3866 106.031 98.8788 104.813 97.8668 103.81C96.8512 102.801 95.6294 102.294 94.1979 102.294C92.7665 102.294 91.5411 102.801 90.5291 103.81C89.5134 104.813 89.0093 106.028 89.0093 107.459C89.0093 108.891 89.5171 110.109 90.5291 111.119C91.5411 112.128 92.7665 112.635 94.1979 112.635C95.6294 112.635 96.8548 112.128 97.8668 111.119C98.8788 110.109 99.3866 108.887 99.3866 107.459ZM99.3056 112.532C97.8889 113.938 96.1851 114.643 94.1979 114.643C92.2108 114.643 90.5107 113.938 89.1013 112.532C87.6919 111.134 86.9854 109.441 86.9854 107.459C86.9854 105.477 87.6919 103.781 89.1013 102.375C90.5107 100.969 92.2108 100.268 94.1979 100.268C96.1851 100.268 97.8889 100.973 99.3056 102.375C100.708 103.781 101.407 105.477 101.407 107.459C101.407 109.441 100.708 111.134 99.3056 112.532Z" fill="url(#paint14_radial_2034_96997)"/>
<path d="M94.1943 114.746C92.1851 114.746 90.4445 114.026 89.0204 112.606C87.5963 111.192 86.875 109.46 86.875 107.456C86.875 105.451 87.5963 103.715 89.0204 102.294C90.4445 100.874 92.1851 100.154 94.1943 100.154C96.2035 100.154 97.9478 100.874 99.3793 102.294C100.796 103.715 101.514 105.451 101.514 107.456C101.514 109.46 100.796 111.192 99.3793 112.606C97.9478 114.026 96.2035 114.746 94.1943 114.746ZM94.1943 100.371C92.244 100.371 90.5549 101.072 89.1713 102.449C87.7876 103.829 87.0884 105.514 87.0884 107.459C87.0884 109.405 87.7913 111.086 89.1713 112.455C90.5549 113.835 92.244 114.533 94.1943 114.533C96.1447 114.533 97.8374 113.832 99.2284 112.455C100.601 111.086 101.3 109.405 101.3 107.459C101.3 105.514 100.605 103.829 99.2284 102.449C97.8374 101.072 96.1447 100.371 94.1943 100.371ZM94.1943 112.741C92.7408 112.741 91.4786 112.22 90.4519 111.196C89.4215 110.168 88.8989 108.913 88.8989 107.459C88.8989 106.006 89.4215 104.754 90.4519 103.733C91.4822 102.706 92.7408 102.184 94.1943 102.184C95.6479 102.184 96.9101 102.706 97.9404 103.733C98.9708 104.75 99.4897 106.006 99.4897 107.456C99.4897 108.905 98.9671 110.165 97.9404 111.192C96.9101 112.22 95.6516 112.738 94.1943 112.738V112.741ZM94.1943 102.401C92.7996 102.401 91.589 102.9 90.6027 103.884C89.6128 104.864 89.1124 106.064 89.1124 107.456C89.1124 108.847 89.6128 110.054 90.6027 111.038C91.589 112.026 92.7996 112.525 94.1943 112.525C95.589 112.525 96.7997 112.026 97.7896 111.038C98.7758 110.054 99.2799 108.847 99.2799 107.456C99.2799 106.064 98.7795 104.86 97.7896 103.884C96.8034 102.896 95.5927 102.397 94.1943 102.397V102.401ZM94.1943 112.492C92.8144 112.492 91.6184 111.989 90.6322 111.002C89.657 110.036 89.1602 108.843 89.1602 107.459C89.1602 106.075 89.6533 104.89 90.6322 103.906C91.6184 102.929 92.8144 102.438 94.1943 102.438C95.5743 102.438 96.7702 102.929 97.7565 103.906C98.7316 104.89 99.2284 106.083 99.2284 107.459C99.2284 108.836 98.7316 110.036 97.7565 111.002C96.7739 111.989 95.5743 112.492 94.1943 112.492ZM94.1943 102.65C92.8732 102.65 91.7251 103.124 90.783 104.056C89.8484 104.996 89.3736 106.141 89.3736 107.459C89.3736 108.777 89.8484 109.922 90.783 110.851C91.7251 111.798 92.8732 112.279 94.1943 112.279C95.5154 112.279 96.6635 111.798 97.6056 110.851C98.5403 109.926 99.015 108.784 99.015 107.459C99.015 106.134 98.5403 104.996 97.6056 104.056C96.6635 103.124 95.5154 102.65 94.1943 102.65Z" fill="black"/>
<path fill-rule="evenodd" clip-rule="evenodd" d="M95.8175 108.913C94.9895 109.798 93.5985 109.842 92.7153 109.016C91.8284 108.19 91.7843 106.802 92.6123 105.921C93.4402 105.037 94.8312 104.993 95.7144 105.819C96.6013 106.644 96.6454 108.032 95.8175 108.917V108.913Z" fill="#989898"/>
<path d="M92.6633 109.071C91.7507 108.219 91.7028 106.784 92.5566 105.87C93.4103 104.96 94.8492 104.912 95.7655 105.763C96.6781 106.615 96.7259 108.05 95.8722 108.964C95.0184 109.875 93.5796 109.922 92.6633 109.071ZM95.6624 105.87C94.8087 105.073 93.4618 105.117 92.6633 105.973C91.8648 106.824 91.9089 108.168 92.7627 108.964C93.6164 109.761 94.9632 109.717 95.7618 108.865C96.5603 108.014 96.5162 106.67 95.6624 105.874V105.87Z" fill="black"/>
<path fill-rule="evenodd" clip-rule="evenodd" d="M94.1949 106.519C94.4414 106.512 94.6585 106.593 94.8425 106.765C95.0265 106.934 95.1185 107.143 95.1222 107.386C95.1406 107.643 95.0633 107.863 94.894 108.046C94.7211 108.23 94.5076 108.322 94.2464 108.318C93.9998 108.336 93.7827 108.259 93.6024 108.09C93.4184 107.922 93.3264 107.709 93.3227 107.455C93.3154 107.209 93.3963 106.993 93.5693 106.809C93.7422 106.626 93.952 106.53 94.1985 106.523L94.1949 106.519Z" fill="url(#paint15_radial_2034_96997)"/>
<path fill-rule="evenodd" clip-rule="evenodd" d="M95.6288 106.354C95.6582 106.567 95.5073 106.765 95.2939 106.795C95.0805 106.824 94.8817 106.674 94.8523 106.461C94.8229 106.244 94.9737 106.05 95.1909 106.02C95.4043 105.991 95.603 106.141 95.6324 106.358L95.6288 106.354Z" fill="black"/>
<path fill-rule="evenodd" clip-rule="evenodd" d="M93.6754 108.439C93.7048 108.652 93.554 108.85 93.3369 108.88C93.1234 108.909 92.9247 108.759 92.8953 108.546C92.8658 108.329 93.0167 108.135 93.2301 108.105C93.4436 108.076 93.6423 108.226 93.6717 108.443L93.6754 108.439Z" fill="black"/>
<path fill-rule="evenodd" clip-rule="evenodd" d="M95.3535 108.759C95.14 108.788 94.9413 108.638 94.9119 108.425C94.8824 108.212 95.0333 108.013 95.2467 107.984C95.4602 107.955 95.6589 108.105 95.6883 108.318C95.7178 108.531 95.5669 108.729 95.3535 108.759Z" fill="black"/>
<path fill-rule="evenodd" clip-rule="evenodd" d="M93.2636 106.809C93.0502 106.839 92.8515 106.688 92.822 106.475C92.7926 106.259 92.9435 106.064 93.1569 106.035C93.3703 106.006 93.569 106.156 93.5985 106.369C93.6279 106.582 93.4771 106.78 93.2599 106.809H93.2636Z" fill="black"/>
<path d="M83.0095 78.1762L82.6815 79.0624L84.1468 79.0591L83.5647 80.6323H82.0994L81.6365 81.8863L84.5898 81.8831L84.3073 82.6478C84.1951 82.8989 84.0503 83.1241 83.8728 83.3234C83.7975 83.4125 83.7095 83.4968 83.6073 83.5778C83.5065 83.6604 83.3943 83.7317 83.2722 83.7949C83.1487 83.8581 83.0124 83.9099 82.8618 83.9504C82.7113 83.9909 82.5466 84.0104 82.3663 84.012L79.1006 84.0169C79.3888 83.7317 79.6146 83.3769 79.7622 82.9751L82.0837 76.6937L82.2485 76.2611L86.9468 76.2546L86.4428 76.5771L84.5231 78.1745L83.0067 78.1778L83.0095 78.1762Z" fill="#020111"/>
<path d="M92.2386 76.2578H92.2301H92.2315L90.1698 76.2611H89.9795H88.9004C88.6449 76.2627 88.3864 76.3194 88.1266 76.4344C87.8668 76.5494 87.6084 76.7066 87.3528 76.9059C87.0958 77.1052 86.8473 77.3385 86.6073 77.6042C86.3674 77.8699 86.1388 78.155 85.923 78.4564L88.6875 78.4531L85.4601 82.9621C85.1676 83.3703 84.8197 83.7252 84.4307 84.0119H86.3972L87.7617 84.0087C88.0173 84.0087 88.2757 83.952 88.5355 83.837C88.7954 83.7219 89.0538 83.5648 89.3094 83.3655C89.5664 83.1662 89.8148 82.9329 90.0548 82.6672C90.2948 82.4015 90.5234 82.1163 90.7392 81.815L87.9704 81.8182L91.2063 77.3093C91.5002 76.901 91.8467 76.5462 92.2357 76.2611L92.2386 76.2578Z" fill="#020111"/>
<path d="M92.9581 81.8151L94.6293 77.2948C94.777 76.8946 95.0042 76.5382 95.291 76.2546L93.5673 76.2579L93.4196 76.6807L93.4168 76.6905L91.0953 82.9718C90.9476 83.372 90.7204 83.7285 90.4336 84.012L93.7632 84.0071C94.0188 84.0071 94.2573 83.9504 94.4774 83.8354C94.6975 83.7204 94.9019 83.5632 95.0894 83.3639C95.2768 83.1647 95.4458 82.9313 95.5934 82.6656C95.7411 82.3999 95.8703 82.1148 95.9825 81.8118L92.9581 81.8151Z" fill="#020111"/>
<path d="M98.9232 76.292L98.767 76.7213V76.7246L98.6463 77.0551L96.4356 83.0335C96.2922 83.4223 96.0763 83.7707 95.8037 84.0558H96.055C96.9893 84.0558 97.8427 83.3916 98.2232 82.3692L100.102 77.3143C100.247 76.9255 100.461 76.5771 100.734 76.292L98.9218 76.2936L98.9232 76.292Z" fill="#020111"/>
<path d="M81.5431 76.2887H81.2378C81.2236 76.2887 81.2108 76.2887 81.198 76.2887H81.1001C80.5918 76.2904 80.1388 76.3033 79.6348 76.3033C79.6291 76.3147 79.6206 76.3325 79.6106 76.3535C79.2116 77.209 79.1705 77.6076 78.8368 78.3447C78.5471 78.9555 78.4264 79.0803 78.2774 79.1094C78.2518 79.1143 78.1169 79.103 77.8471 79.1062C77.7094 79.1078 77.424 79.1078 77.2962 79.1078C77.2891 79.1078 77.2124 79.1078 77.1642 79.1078C77.1088 79.1078 77.0506 79.1111 77.0193 79.1062C77.3828 78.1649 77.7477 77.2301 78.1098 76.292C75.1991 76.2515 72.2457 76.4491 69.325 76.5139C70.7066 76.5658 72.0881 76.6193 73.4711 76.663C74.5246 76.6954 75.5838 76.7132 76.6402 76.7375C76.7595 76.7408 76.8404 76.8526 76.8092 76.9854C76.7723 77.1409 76.6573 77.2414 76.5153 77.2446C74.1555 77.3078 71.7956 77.371 69.4358 77.4358C68.953 77.4488 68.4703 77.4634 67.9875 77.4779C68.6392 77.5039 69.2924 77.5249 69.9441 77.546C71.2078 77.5849 72.4715 77.6254 73.7352 77.6594C74.4167 77.6788 75.1011 77.6886 75.7841 77.7031C75.9289 77.7064 75.9914 77.8052 75.9502 77.9608C75.9076 78.1179 75.7997 78.2086 75.6492 78.2086C75.4518 78.2086 75.2559 78.2038 75.0585 78.2119C73.6613 78.2637 72.2628 78.3204 70.8642 78.3723C70.3871 78.3901 69.9114 78.4031 69.4358 78.4176C69.7765 78.4468 70.123 78.4646 70.4694 78.476C72.2826 78.5343 74.0958 78.5926 75.9076 78.6509C76.024 78.6542 76.1007 78.7644 76.0709 78.8923C76.0354 79.0479 75.9218 79.1483 75.7798 79.1532C73.7877 79.205 71.797 79.2553 69.8049 79.3071C69.2654 79.3217 68.7258 79.3363 68.1877 79.3509C68.4135 79.3752 68.6477 79.3703 68.8792 79.3768C70.3033 79.4189 71.726 79.4643 73.1488 79.5064C73.7707 79.5242 74.394 79.5339 75.0159 79.5501C75.1522 79.5534 75.2133 79.6635 75.1664 79.8191C75.1238 79.9617 75.0045 80.054 74.8725 80.0589C74.7873 80.0621 74.7035 80.0589 74.6198 80.0605C73.2283 80.1026 71.8354 80.1464 70.4439 80.1885C69.5863 80.2144 68.7287 80.2371 67.8711 80.2614C67.8711 80.2646 67.8682 80.2679 67.8668 80.2711C67.9023 80.2711 67.9392 80.2711 67.9733 80.2711C69.9654 80.3294 71.9561 80.3894 73.9481 80.4477C74.0972 80.4526 74.2492 80.4477 74.3954 80.459C74.5062 80.4655 74.5587 80.5806 74.5232 80.7118C74.4863 80.8511 74.3713 80.9564 74.2534 80.9613C72.6617 81.018 71.0686 81.0763 69.477 81.133C69.308 81.1395 69.1433 81.133 68.9757 81.133C68.9729 81.1444 68.9701 81.1557 68.9672 81.1687C69.626 81.193 70.2849 81.2173 70.9451 81.2383C72.1946 81.2772 73.4441 81.3145 74.6936 81.3518C74.7149 81.3518 74.7376 81.3518 74.7561 81.3566C74.8853 81.3955 74.8995 81.6158 74.7703 81.7487C74.712 81.8086 74.6212 81.8524 74.5573 81.854C74.2534 81.8654 73.9567 81.8524 73.6528 81.8621C72.4033 81.9059 71.1538 81.9545 69.9043 82.0014C69.5153 82.016 69.1262 82.0274 68.7372 82.0403C68.7344 82.0533 68.7301 82.0646 68.7273 82.0776C68.9601 82.0776 69.1944 82.0711 69.4244 82.0776C71.036 82.1262 72.6461 82.178 74.2563 82.2299C74.2903 82.2299 74.3273 82.2348 74.3557 82.251C74.4337 82.2979 74.4479 82.4178 74.3983 82.5377C74.3471 82.6576 74.2492 82.7354 74.1398 82.737C73.8417 82.7402 73.5477 82.7305 73.2481 82.7402C72.01 82.784 70.7705 82.8326 69.5309 82.8796C69.1532 82.8942 68.7755 82.9055 68.3978 82.9168C68.8451 82.9444 69.2924 82.9671 69.7439 82.9784C70.9934 83.0141 72.2457 83.0448 73.4952 83.0789C73.5264 83.0789 73.5605 83.0789 73.5889 83.0886C73.6727 83.1194 73.7054 83.2312 73.6684 83.3494C73.6315 83.4661 73.5307 83.5698 73.4356 83.5844C73.4029 83.5892 73.3703 83.5876 73.339 83.586C72.8179 83.5795 72.3011 83.5584 71.7757 83.5714C70.4041 83.6054 69.0283 83.6556 67.6538 83.6961C67.1242 83.7123 66.5946 83.7237 66.0664 83.7366C69.0922 83.8079 72.0881 83.9845 75.1437 83.9554C75.1678 83.897 75.1877 83.8501 75.2062 83.8047C75.5682 82.8699 75.9303 81.935 76.2881 80.9986C76.3293 80.8916 76.3662 80.8625 76.4457 80.8625C76.8816 80.8673 77.3189 80.8625 77.7548 80.8625C77.7861 80.8625 77.8159 80.8673 77.8571 80.8706C77.6143 81.5008 77.363 82.1473 77.1131 82.7889C76.9384 83.2393 76.6942 83.6508 76.3918 84.0024H76.6431C77.2068 84.0024 77.8216 84.0024 78.3838 84.0024C79.1875 81.9221 79.9216 79.7964 80.7011 77.6983C80.897 77.1685 81.1838 76.6889 81.5417 76.2806L81.5431 76.2887Z" fill="#020111"/>
</g>
<path d="M70.9971 76.4327L74.6024 78.5143L74.6024 74.3512L70.9971 76.4327ZM102.003 76.4327L98.3975 74.3512L98.3975 78.5143L102.003 76.4327ZM74.2419 76.7933L98.7581 76.7933L98.7581 76.0722L74.2419 76.0722L74.2419 76.7933Z" fill="#25243A"/>
<path d="M80.0856 53.5901V53.2214L81.4704 51.7055C81.6329 51.528 81.7668 51.3736 81.8719 51.2425C81.9771 51.1101 82.0549 50.9858 82.1054 50.8697C82.1573 50.7523 82.1833 50.6294 82.1833 50.501C82.1833 50.3535 82.1478 50.2258 82.0768 50.1179C82.0071 50.01 81.9115 49.9267 81.79 49.868C81.6684 49.8093 81.5319 49.7799 81.3803 49.7799C81.2191 49.7799 81.0785 49.8134 80.9583 49.8803C80.8395 49.9458 80.7473 50.038 80.6818 50.1568C80.6176 50.2756 80.5855 50.4149 80.5855 50.5747H80.102C80.102 50.3289 80.1587 50.1131 80.2721 49.9274C80.3854 49.7417 80.5397 49.5969 80.735 49.4931C80.9317 49.3893 81.1522 49.3374 81.3967 49.3374C81.6425 49.3374 81.8603 49.3893 82.0501 49.4931C82.24 49.5969 82.3888 49.7369 82.4967 49.9131C82.6046 50.0892 82.6585 50.2852 82.6585 50.501C82.6585 50.6553 82.6305 50.8062 82.5745 50.9537C82.5199 51.0998 82.4243 51.263 82.2878 51.4433C82.1526 51.6222 81.9648 51.8407 81.7244 52.0988L80.7821 53.1066V53.1394H82.7323V53.5901H80.0856ZM83.5865 53.5901V50.4436H84.0536V50.9353H84.0945C84.1601 50.7673 84.2659 50.6369 84.412 50.544C84.5582 50.4498 84.7336 50.4027 84.9385 50.4027C85.1461 50.4027 85.3188 50.4498 85.4568 50.544C85.5961 50.6369 85.7046 50.7673 85.7825 50.9353H85.8152C85.8958 50.7727 86.0167 50.6437 86.1778 50.5481C86.339 50.4511 86.5322 50.4027 86.7575 50.4027C87.0389 50.4027 87.269 50.4907 87.4479 50.6669C87.6268 50.8417 87.7162 51.1142 87.7162 51.4843V53.5901H87.2328V51.4843C87.2328 51.2521 87.1693 51.0862 87.0423 50.9865C86.9153 50.8868 86.7657 50.8369 86.5937 50.8369C86.3724 50.8369 86.201 50.9038 86.0795 51.0377C85.958 51.1702 85.8972 51.3381 85.8972 51.5416V53.5901H85.4055V51.4351C85.4055 51.2562 85.3475 51.1121 85.2314 51.0029C85.1153 50.8922 84.9658 50.8369 84.7828 50.8369C84.6572 50.8369 84.5397 50.8704 84.4305 50.9373C84.3226 51.0042 84.2352 51.0971 84.1683 51.2159C84.1027 51.3333 84.0699 51.4692 84.0699 51.6235V53.5901H83.5865Z" fill="#020111"/>
<path d="M55.1338 57.6852L58.7391 59.7667L58.7391 55.6036L55.1338 57.6852ZM114.261 57.6852L110.656 55.6037L110.656 59.7667L114.261 57.6852ZM58.3786 58.0457L111.016 58.0457L111.016 57.3247L58.3786 57.3246L58.3786 58.0457Z" fill="#25243A"/>
<defs>
<linearGradient id="paint0_linear_2034_96997" x1="26.3708" y1="100.896" x2="26.3708" y2="97.3756" gradientUnits="userSpaceOnUse">
<stop offset="0.02" stop-color="#666666"/>
<stop offset="0.47" stop-color="white"/>
<stop offset="1" stop-color="#666666"/>
</linearGradient>
<linearGradient id="paint1_linear_2034_96997" x1="27.2731" y1="100.654" x2="27.2731" y2="96.3946" gradientUnits="userSpaceOnUse">
<stop offset="0.02" stop-color="#666666"/>
<stop offset="0.47" stop-color="white"/>
<stop offset="1" stop-color="#666666"/>
</linearGradient>
<linearGradient id="paint2_linear_2034_96997" x1="27.4563" y1="91.8728" x2="54.6654" y2="91.8728" gradientUnits="userSpaceOnUse">
<stop stop-color="#FFEFA3"/>
<stop offset="1" stop-color="#E0B019"/>
</linearGradient>
<linearGradient id="paint3_linear_2034_96997" x1="27.3489" y1="91.873" x2="54.7715" y2="91.873" gradientUnits="userSpaceOnUse">
<stop stop-color="#FFEFA3"/>
<stop offset="1" stop-color="#E0B019"/>
</linearGradient>
<linearGradient id="paint4_linear_2034_96997" x1="29.8802" y1="105.956" x2="29.8802" y2="102.875" gradientUnits="userSpaceOnUse">
<stop stop-color="#4D4E4E"/>
<stop offset="0.53" stop-color="#666666"/>
<stop offset="1" stop-color="#999999"/>
</linearGradient>
<linearGradient id="paint5_linear_2034_96997" x1="82.0254" y1="108.607" x2="82.0254" y2="102.793" gradientUnits="userSpaceOnUse">
<stop offset="0.44" stop-color="#999999"/>
<stop offset="1" stop-color="#666666"/>
</linearGradient>
<linearGradient id="paint6_linear_2034_96997" x1="84.3208" y1="97.115" x2="84.3208" y2="108.876" gradientUnits="userSpaceOnUse">
<stop offset="0.25"/>
<stop offset="0.4" stop-color="#333333"/>
<stop offset="0.62" stop-color="#676767"/>
</linearGradient>
<linearGradient id="paint7_linear_2034_96997" x1="58.978" y1="106.771" x2="58.978" y2="103.222" gradientUnits="userSpaceOnUse">
<stop stop-color="white"/>
<stop offset="1"/>
</linearGradient>
<linearGradient id="paint8_linear_2034_96997" x1="84.5968" y1="71.7987" x2="84.5979" y2="65.4849" gradientUnits="userSpaceOnUse">
<stop stop-color="#FFEFA3"/>
<stop offset="1" stop-color="#E0B019"/>
</linearGradient>
<linearGradient id="paint9_linear_2034_96997" x1="56.9199" y1="81.0882" x2="111.688" y2="81.0882" gradientUnits="userSpaceOnUse">
<stop stop-color="#FFEFA3"/>
<stop offset="1" stop-color="#E0B019"/>
</linearGradient>
<linearGradient id="paint10_linear_2034_96997" x1="57.999" y1="81.088" x2="108.443" y2="81.088" gradientUnits="userSpaceOnUse">
<stop stop-color="#FFEFA3"/>
<stop offset="1" stop-color="#E0B019"/>
</linearGradient>
<linearGradient id="paint11_linear_2034_96997" x1="41.9392" y1="85.5886" x2="41.9392" y2="78.5847" gradientUnits="userSpaceOnUse">
<stop offset="0.02" stop-color="#487080"/>
<stop offset="1" stop-color="#8EAFBD"/>
</linearGradient>
<radialGradient id="paint12_radial_2034_96997" cx="0" cy="0" r="1" gradientUnits="userSpaceOnUse" gradientTransform="translate(43.281 100.602) rotate(180) scale(7.26412 7.24617)">
<stop offset="0.75" stop-color="#101010"/>
<stop offset="0.81" stop-color="#666666"/>
<stop offset="1" stop-color="#020202"/>
</radialGradient>
<radialGradient id="paint13_radial_2034_96997" cx="0" cy="0" r="1" gradientUnits="userSpaceOnUse" gradientTransform="translate(42.84 107.401) rotate(-136.991) scale(0.996103 0.995935)">
<stop offset="0.43" stop-color="#777575"/>
<stop offset="0.91"/>
<stop offset="1" stop-color="#666666"/>
</radialGradient>
<radialGradient id="paint14_radial_2034_96997" cx="0" cy="0" r="1" gradientUnits="userSpaceOnUse" gradientTransform="translate(94.198 5809.29) rotate(180) scale(7.26412 7.24617)">
<stop offset="0.75" stop-color="#101010"/>
<stop offset="0.81" stop-color="#666666"/>
<stop offset="1" stop-color="#020202"/>
</radialGradient>
<radialGradient id="paint15_radial_2034_96997" cx="0" cy="0" r="1" gradientUnits="userSpaceOnUse" gradientTransform="translate(93.7534 107.4) rotate(-136.991) scale(0.996102 0.995934)">
<stop offset="0.43" stop-color="#777575"/>
<stop offset="0.91"/>
<stop offset="1" stop-color="#666666"/>
</radialGradient>
<clipPath id="clip0_2034_96997">
<rect width="14" height="14" fill="white" transform="translate(113.777 8)"/>
</clipPath>
<clipPath id="clip1_2034_96997">
<rect width="95.1806" height="53.3588" fill="white" transform="translate(23.4072 63.4536)"/>
</clipPath>
</defs>
</svg>
