<svg width="601" height="500" viewBox="0 0 601 500" fill="none" xmlns="http://www.w3.org/2000/svg">
<circle cx="350.951" cy="249.951" r="249.951" fill="#302F4A"/>
<path d="M219.66 56.6176C203.557 32.8081 324.142 1.20809 324.142 19.7702C324.142 55.224 206.301 144.767 219.66 164.649C230.637 180.987 335.035 88.5822 372.813 92.2099C397.157 94.5475 327.397 152.309 343.904 176.58C356.088 194.495 445.451 191.311 430.195 176.58" stroke="#8DBAFF" stroke-width="2" stroke-linecap="round" stroke-dasharray="10"/>
<ellipse cx="441.254" cy="175.76" rx="6.55894" ry="5.66996" fill="#FFD400"/>
<g filter="url(#filter0_b_529_103979)">
<rect x="120.902" y="19" width="100" height="93.3735" rx="12" fill="#FFD400"/>
</g>
<path fill-rule="evenodd" clip-rule="evenodd" d="M196.185 67.6055V74.8324C196.34 75.755 195.412 76.6776 194.33 76.6776C193.557 76.6776 192.796 76.2163 192.332 75.4474C191.404 73.4485 189.394 72.0646 186.92 72.0646C183.982 72.0646 181.663 74.0636 180.89 76.6776H169.602C168.983 74.0636 166.509 72.0646 163.571 72.0646C160.634 72.0646 158.314 74.0636 157.541 76.6776H152.902V49H174.55C176.251 49 177.642 50.3839 177.642 52.0753V73.6023H179.189V57.1495C179.189 56.0732 180.117 55.1506 181.199 55.1506H188.157C189.239 55.1506 190.322 55.7656 190.786 56.6882L195.412 64.5302C195.877 65.4528 196.185 66.5291 196.185 67.6055ZM182.281 58.2259V65.9141H192.95L188.466 58.2259H182.281ZM182.281 78.2152C182.281 75.6012 184.291 73.6023 186.92 73.6023C189.548 73.6023 191.558 75.6012 191.558 78.2152C191.558 80.8292 189.548 82.8281 186.92 82.8281C184.291 82.8281 182.281 80.8292 182.281 78.2152ZM184.755 78.2152C184.755 79.4453 185.682 80.3679 186.92 80.3679C188.157 80.3679 189.084 79.4453 189.084 78.2152C189.084 76.9851 188.157 76.0625 186.92 76.0625C185.683 76.0625 184.755 76.9851 184.755 78.2152ZM163.726 73.6023C161.097 73.6023 159.087 75.6012 159.087 78.2152C159.087 80.8292 161.097 82.8281 163.726 82.8281C166.354 82.8281 168.365 80.8292 168.365 78.2152C168.365 75.6012 166.354 73.6023 163.726 73.6023ZM163.726 80.3679C162.489 80.3679 161.561 79.4453 161.561 78.2152C161.561 76.9851 162.489 76.0625 163.726 76.0625C164.963 76.0625 165.89 76.9851 165.89 78.2152C165.89 79.4453 164.963 80.3679 163.726 80.3679ZM164.499 78.2152C164.499 78.6398 164.153 78.984 163.726 78.984C163.299 78.984 162.953 78.6398 162.953 78.2152C162.953 77.7906 163.299 77.4464 163.726 77.4464C164.153 77.4464 164.499 77.7906 164.499 78.2152ZM186.92 78.984C187.347 78.984 187.693 78.6398 187.693 78.2152C187.693 77.7906 187.347 77.4464 186.92 77.4464C186.493 77.4464 186.147 77.7906 186.147 78.2152C186.147 78.6398 186.493 78.984 186.92 78.984Z" fill="#020111"/>
<path fill-rule="evenodd" clip-rule="evenodd" d="M503.748 125.847V125.826L519.197 132.718L534.708 126.926L493.428 111.508L452.148 126.926L493.428 142.344L508.877 136.573L493.428 130.231V130.215L503.748 125.847ZM452.149 178.32V132.065L490.849 146.523V192.777L452.149 178.32ZM462.469 174.635L472.789 178.49V173.006L462.469 169.151V174.635ZM519.228 150.721V137.847L534.707 132.065V178.32L496.008 192.777V146.523L508.908 141.702V154.576L519.228 150.721Z" fill="white"/>
<circle opacity="0.74" cx="569.537" cy="126.986" r="7.73994" fill="white"/>
<circle cx="569.537" cy="152.787" r="7.73994" fill="white"/>
<circle opacity="0.74" cx="569.537" cy="178.588" r="7.73994" fill="white"/>
<path fill-rule="evenodd" clip-rule="evenodd" d="M102.295 326.236C101.708 325.642 100.748 325.642 100.161 326.236V326.236C99.5834 326.82 99.5834 327.761 100.161 328.345L102.539 330.751H62.3998C61.5663 330.751 60.8906 331.427 60.8906 332.26V332.26C60.8906 333.094 61.5663 333.769 62.3998 333.769H102.539L100.161 336.175C99.5834 336.76 99.5834 337.7 100.161 338.284V338.284C100.748 338.879 101.708 338.879 102.295 338.285L106.86 333.666C107.63 332.887 107.63 331.633 106.86 330.854L102.295 326.236Z" fill="white"/>
<path d="M50.4852 314.035H38.618L41.1336 306.844H47.6961L37.9891 281.715H49.7742L64.2391 318H52.0164L50.4852 314.035ZM35.3914 318H23.7156L36.6766 283.355L42.0359 297.766L35.3914 318Z" fill="white"/>
<ellipse cx="43.9781" cy="331.92" rx="8.11875" ry="8.11875" fill="white"/>
<ellipse cx="43.9773" cy="331.919" rx="4.05938" ry="4.05937" fill="#FFD400"/>
<path d="M130.877 288.961H121.909V281.715H135.936L143.209 288.961V296.344L139.573 299.98L143.209 303.617V310.754L135.936 318H121.909V310.754H130.877V303.016H121.909V296.699H130.877V288.961ZM107.909 281.715H119.995V318H107.909V281.715Z" fill="white"/>
<ellipse cx="125.166" cy="331.92" rx="8.11875" ry="8.11875" fill="white"/>
<ellipse cx="125.165" cy="331.919" rx="4.05938" ry="4.05937" fill="#020111"/>
<defs>
<filter id="filter0_b_529_103979" x="112.902" y="11" width="116" height="109.375" filterUnits="userSpaceOnUse" color-interpolation-filters="sRGB">
<feFlood flood-opacity="0" result="BackgroundImageFix"/>
<feGaussianBlur in="BackgroundImageFix" stdDeviation="4"/>
<feComposite in2="SourceAlpha" operator="in" result="effect1_backgroundBlur_529_103979"/>
<feBlend mode="normal" in="SourceGraphic" in2="effect1_backgroundBlur_529_103979" result="shape"/>
</filter>
</defs>
</svg>
